solid OBJECT
  facet normal -0.57735026918962584 0.57735026918962373 -0.57735026918962784
    outer loop
      vertex 0.10454823113611234 3.5527136788005009e-15 32.797321382450235
      vertex 1.1045482311361123 1.0000000000000071 32.797321382450235
      vertex 1.1045482311361123 0 31.797321382450235
    endloop
  endfacet
  facet normal -0.5773502691896254 0.5773502691896234 -0.57735026918962851
    outer loop
      vertex 0.10454823113611234 3.5527136788005009e-15 32.797321382450235
      vertex 0.10454823113611234 1.0000000000000124 33.797321382450235
      vertex 1.1045482311361123 1.0000000000000071 32.797321382450235
    endloop
  endfacet
  facet normal -0.57735026918962651 -0.57735026918962651 -0.57735026918962451
    outer loop
      vertex 0.10454823113611234 3.5527136788005009e-15 32.797321382450235
      vertex 1.1045482311361123 0 31.797321382450235
      vertex 1.1045482311361123 -0.99999999999999645 32.797321382450235
    endloop
  endfacet
  facet normal -0.5773502691896254 -0.5773502691896234 0.57735026918962851
    outer loop
      vertex 0.10454823113611234 3.5527136788005009e-15 32.797321382450235
      vertex 1.1045482311361123 8.8817841970012523e-15 33.797321382450235
      vertex 0.10454823113611234 1.0000000000000124 33.797321382450235
    endloop
  endfacet
  facet normal -0.57735026918962473 -0.57735026918962473 0.57735026918962784
    outer loop
      vertex 0.10454823113611234 3.5527136788005009e-15 32.797321382450235
      vertex 1.1045482311361123 -0.99999999999999645 32.797321382450235
      vertex 1.1045482311361123 8.8817841970012523e-15 33.797321382450235
    endloop
  endfacet
  facet normal 0.57735026918962584 0.57735026918962373 -0.57735026918962784
    outer loop
      vertex 1.1045482311361123 1.0000000000000071 32.797321382450235
      vertex 2.1045482311361123 3.5527136788005009e-15 32.797321382450235
      vertex 1.1045482311361123 0 31.797321382450235
    endloop
  endfacet
  facet normal 0.5773502691896274 0.5773502691896254 0.5773502691896244
    outer loop
      vertex 1.1045482311361123 1.0000000000000071 32.797321382450235
      vertex 0.10454823113611234 1.0000000000000124 33.797321382450235
      vertex 1.1045482311361123 8.8817841970012523e-15 33.797321382450235
    endloop
  endfacet
  facet normal -0.57735026918962673 0.57735026918962573 0.57735026918962473
    outer loop
      vertex 1.1045482311361123 1.0000000000000071 32.797321382450235
      vertex 1.1045482311361123 8.8817841970012523e-15 33.797321382450235
      vertex 2.1045482311361123 1.0000000000000107 33.797321382450235
    endloop
  endfacet
  facet normal 0.57735026918962584 0.57735026918962373 -0.57735026918962784
    outer loop
      vertex 1.1045482311361123 1.0000000000000071 32.797321382450235
      vertex 2.1045482311361123 1.0000000000000107 33.797321382450235
      vertex 2.1045482311361123 3.5527136788005009e-15 32.797321382450235
    endloop
  endfacet
  facet normal 0.57735026918962651 -0.57735026918962651 -0.57735026918962451
    outer loop
      vertex 1.1045482311361123 0 31.797321382450235
      vertex 2.1045482311361123 3.5527136788005009e-15 32.797321382450235
      vertex 1.1045482311361123 -0.99999999999999645 32.797321382450235
    endloop
  endfacet
  facet normal 0.57735026918962506 -0.57735026918962407 0.57735026918962817
    outer loop
      vertex 1.1045482311361123 8.8817841970012523e-15 33.797321382450235
      vertex 2.1045482311361123 3.5527136788005009e-15 32.797321382450235
      vertex 2.1045482311361123 1.0000000000000107 33.797321382450235
    endloop
  endfacet
  facet normal 0.57735026918962473 -0.57735026918962473 0.57735026918962784
    outer loop
      vertex 1.1045482311361123 8.8817841970012523e-15 33.797321382450235
      vertex 1.1045482311361123 -0.99999999999999645 32.797321382450235
      vertex 2.1045482311361123 3.5527136788005009e-15 32.797321382450235
    endloop
  endfacet
  facet normal -0.57735026918962473 0.57735026918962573 0.57735026918962673
    outer loop
      vertex 0.10454823113611234 3.5527136788005009e-15 32.797321382450235
      vertex 1.1045482311361123 0 33.797321382450235
      vertex 1.1045482311361123 1.0000000000000018 32.797321382450235
    endloop
  endfacet
  facet normal -0.57735026918962473 0.57735026918962573 0.57735026918962673
    outer loop
      vertex 0.10454823113611234 3.5527136788005009e-15 32.797321382450235
      vertex 0.10454823113611234 -0.99999999999999822 33.797321382450235
      vertex 1.1045482311361123 0 33.797321382450235
    endloop
  endfacet
  facet normal -0.57735026918962551 0.57735026918962651 -0.57735026918962551
    outer loop
      vertex 0.10454823113611234 3.5527136788005009e-15 32.797321382450235
      vertex 1.1045482311361123 1.0000000000000018 32.797321382450235
      vertex 1.1045482311361123 3.5527136788005009e-15 31.797321382450235
    endloop
  endfacet
  facet normal -0.57735026918962606 -0.57735026918962506 -0.57735026918962606
    outer loop
      vertex 0.10454823113611234 3.5527136788005009e-15 32.797321382450235
      vertex 1.1045482311361123 -0.99999999999999822 32.797321382450235
      vertex 0.10454823113611234 -0.99999999999999822 33.797321382450235
    endloop
  endfacet
  facet normal -0.57735026918962606 -0.57735026918962506 -0.57735026918962606
    outer loop
      vertex 0.10454823113611234 3.5527136788005009e-15 32.797321382450235
      vertex 1.1045482311361123 3.5527136788005009e-15 31.797321382450235
      vertex 1.1045482311361123 -0.99999999999999822 32.797321382450235
    endloop
  endfacet
  facet normal 0.57735026918962606 0.57735026918962506 0.57735026918962606
    outer loop
      vertex 1.1045482311361123 0 33.797321382450235
      vertex 2.1045482311361123 0 32.797321382450235
      vertex 1.1045482311361123 1.0000000000000018 32.797321382450235
    endloop
  endfacet
  facet normal 0.57735026918962551 -0.57735026918962651 0.57735026918962551
    outer loop
      vertex 1.1045482311361123 0 33.797321382450235
      vertex 0.10454823113611234 -0.99999999999999822 33.797321382450235
      vertex 1.1045482311361123 -0.99999999999999822 32.797321382450235
    endloop
  endfacet
  facet normal -0.57735026918962673 -0.57735026918962573 0.57735026918962473
    outer loop
      vertex 1.1045482311361123 0 33.797321382450235
      vertex 1.1045482311361123 -0.99999999999999822 32.797321382450235
      vertex 2.1045482311361123 -1.0000000000000018 33.797321382450235
    endloop
  endfacet
  facet normal 0.57735026918962606 0.57735026918962506 0.57735026918962606
    outer loop
      vertex 1.1045482311361123 0 33.797321382450235
      vertex 2.1045482311361123 -1.0000000000000018 33.797321382450235
      vertex 2.1045482311361123 0 32.797321382450235
    endloop
  endfacet
  facet normal 0.57735026918962673 0.57735026918962573 -0.57735026918962473
    outer loop
      vertex 1.1045482311361123 1.0000000000000018 32.797321382450235
      vertex 2.1045482311361123 0 32.797321382450235
      vertex 1.1045482311361123 3.5527136788005009e-15 31.797321382450235
    endloop
  endfacet
  facet normal 0.57735026918962473 -0.57735026918962573 -0.57735026918962673
    outer loop
      vertex 1.1045482311361123 -0.99999999999999822 32.797321382450235
      vertex 2.1045482311361123 0 32.797321382450235
      vertex 2.1045482311361123 -1.0000000000000018 33.797321382450235
    endloop
  endfacet
  facet normal 0.57735026918962473 -0.57735026918962573 -0.57735026918962673
    outer loop
      vertex 1.1045482311361123 -0.99999999999999822 32.797321382450235
      vertex 1.1045482311361123 3.5527136788005009e-15 31.797321382450235
      vertex 2.1045482311361123 0 32.797321382450235
    endloop
  endfacet
endsolid OBJECT
