solid OBJECT
  facet normal -0.57735026918962629 0.57735026918962218 -0.57735026918962884
    outer loop
      vertex 48.042721121592471 14.463673205697425 1.0446156424685231
      vertex 49.042721121592471 15.463673205697429 1.0446156424685196
      vertex 49.042721121592471 14.463673205697422 0.044615642468524008
    endloop
  endfacet
  facet normal -0.57735026918962573 0.57735026918962162 -0.57735026918962984
    outer loop
      vertex 48.042721121592471 14.463673205697425 1.0446156424685231
      vertex 48.042721121592471 15.463673205697434 2.0446156424685178
      vertex 49.042721121592471 15.463673205697429 1.0446156424685196
    endloop
  endfacet
  facet normal -0.57735026918962518 -0.57735026918962828 -0.57735026918962373
    outer loop
      vertex 48.042721121592471 14.463673205697425 1.0446156424685231
      vertex 49.042721121592471 14.463673205697422 0.044615642468524008
      vertex 49.042721121592471 13.463673205697425 1.0446156424685284
    endloop
  endfacet
  facet normal -0.5773502691896264 -0.57735026918962129 0.57735026918962951
    outer loop
      vertex 48.042721121592471 14.463673205697425 1.0446156424685231
      vertex 49.042721121592471 14.463673205697431 2.0446156424685231
      vertex 48.042721121592471 15.463673205697434 2.0446156424685178
    endloop
  endfacet
  facet normal -0.57735026918962573 -0.57735026918962262 0.57735026918962884
    outer loop
      vertex 48.042721121592471 14.463673205697425 1.0446156424685231
      vertex 49.042721121592471 13.463673205697425 1.0446156424685284
      vertex 49.042721121592471 14.463673205697431 2.0446156424685231
    endloop
  endfacet
  facet normal 0.57735026918962695 0.57735026918962185 -0.57735026918962851
    outer loop
      vertex 49.042721121592471 15.463673205697429 1.0446156424685196
      vertex 50.042721121592471 14.463673205697425 1.0446156424685249
      vertex 49.042721121592471 14.463673205697422 0.044615642468524008
    endloop
  endfacet
  facet normal 0.57735026918962618 0.57735026918962717 0.57735026918962407
    outer loop
      vertex 49.042721121592471 15.463673205697429 1.0446156424685196
      vertex 48.042721121592471 15.463673205697434 2.0446156424685178
      vertex 49.042721121592471 14.463673205697431 2.0446156424685231
    endloop
  endfacet
  facet normal -0.57735026918962606 0.57735026918962706 0.57735026918962407
    outer loop
      vertex 49.042721121592471 15.463673205697429 1.0446156424685196
      vertex 49.042721121592471 14.463673205697431 2.0446156424685231
      vertex 50.042721121592471 15.463673205697432 2.0446156424685196
    endloop
  endfacet
  facet normal 0.57735026918962684 0.57735026918962162 -0.57735026918962884
    outer loop
      vertex 49.042721121592471 15.463673205697429 1.0446156424685196
      vertex 50.042721121592471 15.463673205697432 2.0446156424685196
      vertex 50.042721121592471 14.463673205697425 1.0446156424685249
    endloop
  endfacet
  facet normal 0.57735026918962595 -0.57735026918962795 -0.5773502691896234
    outer loop
      vertex 49.042721121592471 14.463673205697422 0.044615642468524008
      vertex 50.042721121592471 14.463673205697425 1.0446156424685249
      vertex 49.042721121592471 13.463673205697425 1.0446156424685284
    endloop
  endfacet
  facet normal 0.5773502691896254 -0.57735026918962229 0.57735026918962951
    outer loop
      vertex 49.042721121592471 14.463673205697431 2.0446156424685231
      vertex 50.042721121592471 14.463673205697425 1.0446156424685249
      vertex 50.042721121592471 15.463673205697432 2.0446156424685196
    endloop
  endfacet
  facet normal 0.57735026918962506 -0.57735026918962296 0.57735026918962917
    outer loop
      vertex 49.042721121592471 14.463673205697431 2.0446156424685231
      vertex 49.042721121592471 13.463673205697425 1.0446156424685284
      vertex 50.042721121592471 14.463673205697425 1.0446156424685249
    endloop
  endfacet
endsolid OBJECT
