solid OBJECT
  facet normal -0.57735026918964627 -0.57735026918969634 0.57735026918953458
    outer loop
      vertex 0 21069.781337877132 25230.17299975266
      vertex 12.985242723051886 21056.796095154081 25230.17299975266
      vertex 12.985242723051886 21069.781337877132 25243.158242475714
    endloop
  endfacet
  facet normal -0.57735026918959242 -0.5773502691896425 0.5773502691896425
    outer loop
      vertex 0 21069.781337877132 25230.17299975266
      vertex 0 21056.796095154081 25217.187757029609
      vertex 12.985242723051886 21056.796095154081 25230.17299975266
    endloop
  endfacet
  facet normal -0.57735026918964627 0.57735026918953458 -0.57735026918969634
    outer loop
      vertex 0 21069.781337877132 25230.17299975266
      vertex 12.985242723051886 21082.766580600186 25230.17299975266
      vertex 12.985242723051886 21069.781337877132 25217.187757029609
    endloop
  endfacet
  facet normal -0.57735026918959242 0.5773502691896425 -0.5773502691896425
    outer loop
      vertex 0 21069.781337877132 25230.17299975266
      vertex 12.985242723051886 21069.781337877132 25217.187757029609
      vertex 0 21056.796095154081 25217.187757029609
    endloop
  endfacet
  facet normal -0.57735026918970023 0.57735026918958854 -0.57735026918958854
    outer loop
      vertex 0 21069.781337877132 25230.17299975266
      vertex 0 21082.766580600186 25243.158242475714
      vertex 12.985242723051886 21082.766580600186 25230.17299975266
    endloop
  endfacet
  facet normal -0.57735026918970023 -0.57735026918958854 0.57735026918958854
    outer loop
      vertex 0 21069.781337877132 25230.17299975266
      vertex 12.985242723051886 21069.781337877132 25243.158242475714
      vertex 0 21082.766580600186 25243.158242475714
    endloop
  endfacet
  facet normal 0.57735026918959242 -0.5773502691896425 -0.5773502691896425
    outer loop
      vertex 12.985242723051886 21056.796095154081 25230.17299975266
      vertex 0 21056.796095154081 25217.187757029609
      vertex 12.985242723051886 21069.781337877132 25217.187757029609
    endloop
  endfacet
  facet normal -0.57735026918959242 -0.5773502691896425 -0.5773502691896425
    outer loop
      vertex 12.985242723051886 21056.796095154081 25230.17299975266
      vertex 12.985242723051886 21069.781337877132 25217.187757029609
      vertex 25.970485446103773 21056.796095154081 25217.187757029609
    endloop
  endfacet
  facet normal 0.57735026918964627 -0.57735026918969634 0.57735026918953458
    outer loop
      vertex 12.985242723051886 21056.796095154081 25230.17299975266
      vertex 25.970485446103773 21069.781337877132 25230.17299975266
      vertex 12.985242723051886 21069.781337877132 25243.158242475714
    endloop
  endfacet
  facet normal 0.57735026918959242 -0.5773502691896425 0.5773502691896425
    outer loop
      vertex 12.985242723051886 21056.796095154081 25230.17299975266
      vertex 25.970485446103773 21056.796095154081 25217.187757029609
      vertex 25.970485446103773 21069.781337877132 25230.17299975266
    endloop
  endfacet
  facet normal 0.57735026918964627 0.57735026918953458 -0.57735026918969634
    outer loop
      vertex 12.985242723051886 21069.781337877132 25217.187757029609
      vertex 12.985242723051886 21082.766580600186 25230.17299975266
      vertex 25.970485446103773 21069.781337877132 25230.17299975266
    endloop
  endfacet
  facet normal 0.57735026918959242 0.5773502691896425 -0.5773502691896425
    outer loop
      vertex 12.985242723051886 21069.781337877132 25217.187757029609
      vertex 25.970485446103773 21069.781337877132 25230.17299975266
      vertex 25.970485446103773 21056.796095154081 25217.187757029609
    endloop
  endfacet
  facet normal 0.57735026918970023 0.57735026918958854 0.57735026918958854
    outer loop
      vertex 12.985242723051886 21069.781337877132 25243.158242475714
      vertex 12.985242723051886 21082.766580600186 25230.17299975266
      vertex 0 21082.766580600186 25243.158242475714
    endloop
  endfacet
  facet normal -0.57735026918970023 0.57735026918958854 0.57735026918958854
    outer loop
      vertex 12.985242723051886 21069.781337877132 25243.158242475714
      vertex 25.970485446103773 21082.766580600186 25243.158242475714
      vertex 12.985242723051886 21082.766580600186 25230.17299975266
    endloop
  endfacet
  facet normal 0.57735026918970023 0.57735026918958854 -0.57735026918958854
    outer loop
      vertex 12.985242723051886 21082.766580600186 25230.17299975266
      vertex 25.970485446103773 21082.766580600186 25243.158242475714
      vertex 25.970485446103773 21069.781337877132 25230.17299975266
    endloop
  endfacet
  facet normal 0.57735026918970023 -0.57735026918958854 0.57735026918958854
    outer loop
      vertex 12.985242723051886 21069.781337877132 25243.158242475714
      vertex 25.970485446103773 21069.781337877132 25230.17299975266
      vertex 25.970485446103773 21082.766580600186 25243.158242475714
    endloop
  endfacet
  facet normal 0.57744032113211718 -0.57730523795079036 0.57730523795079036
    outer loop
      vertex 6.4926214218139648 21050.302734375 25204.203125
      vertex 12.98524284362793 21056.796875 25204.203125
      vertex 12.98524284362793 21069.78125 25217.1875
    endloop
  endfacet
  facet normal 0.57729559570071654 -0.57733418071571807 0.57742102400403272
    outer loop
      vertex 6.4926214218139648 21050.302734375 25204.203125
      vertex 12.98524284362793 21069.78125 25217.1875
      vertex 6.4926214218139648 21063.2890625 25217.1875
    endloop
  endfacet
  facet normal 0.57729559570071654 -0.57733418071571807 0.57742102400403272
    outer loop
      vertex 0 21043.810546875 25204.203125
      vertex 6.4926214218139648 21050.302734375 25204.203125
      vertex 6.4926214218139648 21063.2890625 25217.1875
    endloop
  endfacet
  facet normal 0.57729559570071654 -0.57733418071571807 0.57742102400403272
    outer loop
      vertex 0 21043.810546875 25204.203125
      vertex 6.4926214218139648 21063.2890625 25217.1875
      vertex 0 21056.796875 25217.1875
    endloop
  endfacet
  facet normal 0.5772955391643253 0.57733420897777066 -0.57742105227033647
    outer loop
      vertex 19.477863311767578 21050.302734375 25204.203125
      vertex 19.477863311767578 21063.2890625 25217.1875
      vertex 25.970485687255859 21056.796875 25217.1875
    endloop
  endfacet
  facet normal 0.57729553916432541 0.57733420897777066 -0.57742105227033647
    outer loop
      vertex 19.477863311767578 21050.302734375 25204.203125
      vertex 25.970485687255859 21056.796875 25217.1875
      vertex 25.970485687255859 21043.810546875 25204.203125
    endloop
  endfacet
  facet normal 0.57732460080624159 0.57736310295338145 -0.57736310295338145
    outer loop
      vertex 12.98524284362793 21056.796875 25204.203125
      vertex 12.98524284362793 21069.78125 25217.1875
      vertex 19.477863311767578 21063.2890625 25217.1875
    endloop
  endfacet
  facet normal 0.57741142909992482 0.5772762678837029 -0.57736310246070099
    outer loop
      vertex 12.98524284362793 21056.796875 25204.203125
      vertex 19.477863311767578 21063.2890625 25217.1875
      vertex 19.477863311767578 21050.302734375 25204.203125
    endloop
  endfacet
  facet normal 0.57746926534620668 0.57724734516742215 -0.57733417539383114
    outer loop
      vertex 6.4926214218139648 21043.810546875 25210.6953125
      vertex 6.4926214218139648 21056.796875 25223.6796875
      vertex 12.98524284362793 21056.796875 25230.173828125
    endloop
  endfacet
  facet normal 0.57732454426984159 0.57736313121969418 -0.57736313121969418
    outer loop
      vertex 6.4926214218139648 21043.810546875 25210.6953125
      vertex 12.98524284362793 21056.796875 25230.173828125
      vertex 12.98524284362793 21043.810546875 25217.1875
    endloop
  endfacet
  facet normal 0.57735348848533785 0.57730523843496773 -0.5773920773697504
    outer loop
      vertex 0 21043.810546875 25204.203125
      vertex 0 21056.796875 25217.1875
      vertex 6.4926214218139648 21056.796875 25223.6796875
    endloop
  endfacet
  facet normal 0.57735348848533785 0.57730523843496773 -0.5773920773697504
    outer loop
      vertex 0 21043.810546875 25204.203125
      vertex 6.4926214218139648 21056.796875 25223.6796875
      vertex 6.4926214218139648 21043.810546875 25210.6953125
    endloop
  endfacet
  facet normal 0.57746932188260347 -0.57724731689260778 0.57733414711476372
    outer loop
      vertex 19.477863311767578 21043.810546875 25210.6953125
      vertex 19.477863311767578 21056.796875 25223.6796875
      vertex 12.98524284362793 21056.796875 25230.173828125
    endloop
  endfacet
  facet normal 0.57732460080624159 -0.57736310295338145 0.57736310295338145
    outer loop
      vertex 19.477863311767578 21043.810546875 25210.6953125
      vertex 12.98524284362793 21056.796875 25230.173828125
      vertex 12.98524284362793 21043.810546875 25217.1875
    endloop
  endfacet
  facet normal 0.57735343194894595 -0.57730526670127202 0.57739210564030652
    outer loop
      vertex 25.970485687255859 21043.810546875 25204.203125
      vertex 25.970485687255859 21056.796875 25217.1875
      vertex 19.477863311767578 21056.796875 25223.6796875
    endloop
  endfacet
  facet normal 0.57735343194894595 -0.57730526670127202 0.57739210564030652
    outer loop
      vertex 25.970485687255859 21043.810546875 25204.203125
      vertex 19.477863311767578 21056.796875 25223.6796875
      vertex 19.477863311767578 21043.810546875 25210.6953125
    endloop
  endfacet
  facet normal -0.57755600663227913 -0.57724737297062456 0.57724737297062456
    outer loop
      vertex 16.23155403137207 21050.302734375 25200.95703125
      vertex 12.98524284362793 21056.796875 25204.203125
      vertex 12.98524284362793 21050.302734375 25197.708984375
    endloop
  endfacet
  facet normal -0.57738253708493781 -0.5772473826317962 0.577420873465881
    outer loop
      vertex 19.477863311767578 21050.302734375 25204.203125
      vertex 12.98524284362793 21056.796875 25204.203125
      vertex 16.23155403137207 21050.302734375 25200.95703125
    endloop
  endfacet
  facet normal -0.57744026894381162 -0.57747877880493359 0.57713169712991941
    outer loop
      vertex 19.477863311767578 21043.810546875 25197.708984375
      vertex 16.23155403137207 21050.302734375 25200.95703125
      vertex 12.98524284362793 21050.302734375 25197.708984375
    endloop
  endfacet
  facet normal -0.57732460080624159 -0.57736310295338145 0.57736310295338145
    outer loop
      vertex 19.477863311767578 21043.810546875 25197.708984375
      vertex 12.98524284362793 21050.302734375 25197.708984375
      vertex 12.98524284362793 21043.810546875 25191.216796875
    endloop
  endfacet
  facet normal -0.57732460080622494 -0.57736327256634778 0.57736293334038169
    outer loop
      vertex 25.970485687255859 21043.810546875 25204.203125
      vertex 19.477863311767578 21050.302734375 25204.203125
      vertex 16.23155403137207 21050.302734375 25200.95703125
    endloop
  endfacet
  facet normal -0.57735347544479598 -0.57747880540469243 0.57721849736489284
    outer loop
      vertex 25.970485687255859 21043.810546875 25204.203125
      vertex 16.23155403137207 21050.302734375 25200.95703125
      vertex 19.477863311767578 21043.810546875 25197.708984375
    endloop
  endfacet
  facet normal -0.57755600663227913 0.57724737297062456 -0.57724737297062456
    outer loop
      vertex 9.7389316558837891 21050.302734375 25200.95703125
      vertex 12.98524284362793 21056.796875 25204.203125
      vertex 12.98524284362793 21050.302734375 25197.708984375
    endloop
  endfacet
  facet normal -0.57738245227182883 0.57724738262802167 -0.57742095827711992
    outer loop
      vertex 6.4926214218139648 21050.302734375 25204.203125
      vertex 12.98524284362793 21056.796875 25204.203125
      vertex 9.7389316558837891 21050.302734375 25200.95703125
    endloop
  endfacet
  facet normal -0.57744024065861554 0.5774788353413296 -0.57713166885983835
    outer loop
      vertex 6.4926214218139648 21043.810546875 25197.708984375
      vertex 9.7389316558837891 21050.302734375 25200.95703125
      vertex 12.98524284362793 21050.302734375 25197.708984375
    endloop
  endfacet
  facet normal -0.57732454426984159 0.57736313121969418 -0.57736313121969418
    outer loop
      vertex 6.4926214218139648 21043.810546875 25197.708984375
      vertex 12.98524284362793 21050.302734375 25197.708984375
      vertex 12.98524284362793 21043.810546875 25191.216796875
    endloop
  endfacet
  facet normal -0.57732457253803959 0.57736315948978156 -0.57736307468329418
    outer loop
      vertex 0 21043.810546875 25204.203125
      vertex 6.4926214218139648 21050.302734375 25204.203125
      vertex 9.7389316558837891 21050.302734375 25200.95703125
    endloop
  endfacet
  facet normal -0.57735348956614696 0.57747886192172304 -0.57721842669771439
    outer loop
      vertex 0 21043.810546875 25204.203125
      vertex 9.7389316558837891 21050.302734375 25200.95703125
      vertex 6.4926214218139648 21043.810546875 25197.708984375
    endloop
  endfacet
  facet normal -0.57738242399512807 0.57742101481351882 -0.57724735435793584
    outer loop
      vertex 3.2463107109069824 21040.564453125 25197.708984375
      vertex 0 21043.810546875 25204.203125
      vertex 6.4926214218139648 21043.810546875 25197.708984375
    endloop
  endfacet
  facet normal -0.57738242399512807 0.57742101481351882 -0.57724735435793584
    outer loop
      vertex 0 21037.318359375 25197.708984375
      vertex 0 21043.810546875 25204.203125
      vertex 3.2463107109069824 21040.564453125 25197.708984375
    endloop
  endfacet
  facet normal -0.57732454426984159 0.57736313121969418 -0.57736313121969418
    outer loop
      vertex 6.4926214218139648 21037.318359375 25191.216796875
      vertex 3.2463107109069824 21040.564453125 25197.708984375
      vertex 6.4926214218139648 21043.810546875 25197.708984375
    endloop
  endfacet
  facet normal -0.57732454426984159 0.57736313121969418 -0.57736313121969418
    outer loop
      vertex 6.4926214218139648 21037.318359375 25191.216796875
      vertex 6.4926214218139648 21043.810546875 25197.708984375
      vertex 12.98524284362793 21043.810546875 25191.216796875
    endloop
  endfacet
  facet normal -0.57732454426984159 0.57736313121969418 -0.57736313121969418
    outer loop
      vertex 0 21030.826171875 25191.216796875
      vertex 0 21037.318359375 25197.708984375
      vertex 3.2463107109069824 21040.564453125 25197.708984375
    endloop
  endfacet
  facet normal -0.57732454426984159 0.57736313121969418 -0.57736313121969418
    outer loop
      vertex 0 21030.826171875 25191.216796875
      vertex 3.2463107109069824 21040.564453125 25197.708984375
      vertex 6.4926214218139648 21037.318359375 25191.216796875
    endloop
  endfacet
  facet normal 0.57732460080624159 0.57736310295338145 -0.57736310295338145
    outer loop
      vertex 19.477863311767578 21037.318359375 25191.216796875
      vertex 12.98524284362793 21043.810546875 25191.216796875
      vertex 19.477863311767578 21043.810546875 25197.708984375
    endloop
  endfacet
  facet normal 0.57732448773345002 0.5773631594859987 -0.5773631594859987
    outer loop
      vertex 25.970485687255859 21030.826171875 25191.216796875
      vertex 19.477863311767578 21037.318359375 25191.216796875
      vertex 19.477863311767578 21043.810546875 25197.708984375
    endloop
  endfacet
  facet normal 0.5774113160271348 0.57736315901032431 -0.57727632442482113
    outer loop
      vertex 25.970485687255859 21030.826171875 25191.216796875
      vertex 19.477863311767578 21043.810546875 25197.708984375
      vertex 25.970485687255859 21043.810546875 25204.203125
    endloop
  endfacet
  facet normal -0.57732451600164369 -0.57736310294960691 -0.57736318775608597
    outer loop
      vertex 19.477863311767578 21030.826171875 25197.708984375
      vertex 12.98524284362793 21043.810546875 25191.216796875
      vertex 25.970485687255859 21030.826171875 25191.216796875
    endloop
  endfacet
  facet normal -0.57741142909992482 -0.57736310246070099 -0.5772762678837029
    outer loop
      vertex 12.98524284362793 21030.826171875 25204.203125
      vertex 12.98524284362793 21043.810546875 25191.216796875
      vertex 19.477863311767578 21030.826171875 25197.708984375
    endloop
  endfacet
  facet normal 0.57741137256352559 -0.57736313073551671 -0.57727629615426612
    outer loop
      vertex 6.4926214218139648 21030.826171875 25197.708984375
      vertex 12.98524284362793 21043.810546875 25191.216796875
      vertex 12.98524284362793 21030.826171875 25204.203125
    endloop
  endfacet
  facet normal 0.57732454426984159 -0.57736313121969418 -0.57736313121969418
    outer loop
      vertex 0 21030.826171875 25191.216796875
      vertex 12.98524284362793 21043.810546875 25191.216796875
      vertex 6.4926214218139648 21030.826171875 25197.708984375
    endloop
  endfacet
  facet normal 0.57732448773345002 -0.5773631594859987 0.5773631594859987
    outer loop
      vertex 19.477863311767578 21030.826171875 25197.708984375
      vertex 25.970485687255859 21030.826171875 25191.216796875
      vertex 25.970485687255859 21037.318359375 25197.708984375
    endloop
  endfacet
  facet normal 0.5773824239781179 -0.57742109961149302 0.57724726955145245
    outer loop
      vertex 12.98524284362793 21030.826171875 25204.203125
      vertex 19.477863311767578 21030.826171875 25197.708984375
      vertex 25.970485687255859 21037.318359375 25197.708984375
    endloop
  endfacet
  facet normal 0.57738242399512807 -0.57742101481351882 0.57724735435793573
    outer loop
      vertex 12.98524284362793 21030.826171875 25204.203125
      vertex 25.970485687255859 21037.318359375 25197.708984375
      vertex 25.970485687255859 21043.810546875 25204.203125
    endloop
  endfacet
  facet normal -0.57729559570071642 -0.57742102400403261 0.57733418071571796
    outer loop
      vertex 6.4926214218139648 21030.826171875 25197.708984375
      vertex 0 21043.810546875 25204.203125
      vertex 0 21030.826171875 25191.216796875
    endloop
  endfacet
  facet normal -0.57738242399512807 -0.57742101481351882 0.57724735435793584
    outer loop
      vertex 12.98524284362793 21030.826171875 25204.203125
      vertex 0 21043.810546875 25204.203125
      vertex 6.4926214218139648 21030.826171875 25197.708984375
    endloop
  endfacet
  facet normal -0.57732454426984159 -0.57736313121969418 0.57736313121969418
    outer loop
      vertex 6.4926214218139648 21043.810546875 25210.6953125
      vertex 0 21043.810546875 25204.203125
      vertex 6.4926214218139648 21037.318359375 25204.203125
    endloop
  endfacet
  facet normal -0.57732454426984159 -0.57736313121969418 0.57736313121969418
    outer loop
      vertex 12.98524284362793 21043.810546875 25217.1875
      vertex 6.4926214218139648 21043.810546875 25210.6953125
      vertex 6.4926214218139648 21037.318359375 25204.203125
    endloop
  endfacet
  facet normal -0.57732454426984159 -0.57736313121969418 0.57736313121969418
    outer loop
      vertex 12.98524284362793 21043.810546875 25217.1875
      vertex 6.4926214218139648 21037.318359375 25204.203125
      vertex 12.98524284362793 21030.826171875 25204.203125
    endloop
  endfacet
  facet normal 0.57732460080624159 -0.57736310295338145 0.57736310295338145
    outer loop
      vertex 19.477863311767578 21043.810546875 25210.6953125
      vertex 12.98524284362793 21043.810546875 25217.1875
      vertex 12.98524284362793 21037.318359375 25210.6953125
    endloop
  endfacet
  facet normal 0.57732454426983748 -0.5773630464132069 0.57736321602617324
    outer loop
      vertex 25.970485687255859 21043.810546875 25204.203125
      vertex 19.477863311767578 21043.810546875 25210.6953125
      vertex 12.98524284362793 21037.318359375 25210.6953125
    endloop
  endfacet
  facet normal 0.57732454426984159 -0.57736313121969418 0.57736313121969418
    outer loop
      vertex 25.970485687255859 21043.810546875 25204.203125
      vertex 12.98524284362793 21037.318359375 25210.6953125
      vertex 12.98524284362793 21030.826171875 25204.203125
    endloop
  endfacet
  facet normal -0.57735026918964616 -0.57735026918953469 -0.57735026918969645
    outer loop
      vertex 0 21095.751823323237 25230.17299975266
      vertex 12.98524272305189 21095.751823323237 25217.187757029609
      vertex 12.98524272305189 21082.766580600182 25230.17299975266
    endloop
  endfacet
  facet normal -0.5773502691895922 -0.5773502691896425 -0.5773502691896425
    outer loop
      vertex 0 21095.751823323237 25230.17299975266
      vertex 0 21108.737066046288 25217.187757029609
      vertex 12.98524272305189 21095.751823323237 25217.187757029609
    endloop
  endfacet
  facet normal -0.57735026918964616 0.57735026918969645 0.57735026918953469
    outer loop
      vertex 0 21095.751823323237 25230.17299975266
      vertex 12.98524272305189 21095.751823323237 25243.158242475714
      vertex 12.98524272305189 21108.737066046288 25230.17299975266
    endloop
  endfacet
  facet normal -0.5773502691895922 0.5773502691896425 0.5773502691896425
    outer loop
      vertex 0 21095.751823323237 25230.17299975266
      vertex 12.98524272305189 21108.737066046288 25230.17299975266
      vertex 0 21108.737066046288 25217.187757029609
    endloop
  endfacet
  facet normal -0.57735026918970012 0.57735026918958854 0.57735026918958854
    outer loop
      vertex 0 21095.751823323237 25230.17299975266
      vertex 0 21082.766580600182 25243.158242475714
      vertex 12.98524272305189 21095.751823323237 25243.158242475714
    endloop
  endfacet
  facet normal -0.57735026918970012 -0.57735026918958854 -0.57735026918958854
    outer loop
      vertex 0 21095.751823323237 25230.17299975266
      vertex 12.98524272305189 21082.766580600182 25230.17299975266
      vertex 0 21082.766580600182 25243.158242475714
    endloop
  endfacet
  facet normal 0.5773502691895922 0.5773502691896425 -0.5773502691896425
    outer loop
      vertex 12.98524272305189 21095.751823323237 25217.187757029609
      vertex 0 21108.737066046288 25217.187757029609
      vertex 12.98524272305189 21108.737066046288 25230.17299975266
    endloop
  endfacet
  facet normal -0.57735026918959254 0.5773502691896425 -0.5773502691896425
    outer loop
      vertex 12.98524272305189 21095.751823323237 25217.187757029609
      vertex 12.98524272305189 21108.737066046288 25230.17299975266
      vertex 25.970485446103773 21108.737066046288 25217.187757029609
    endloop
  endfacet
  facet normal 0.57735026918964638 -0.57735026918953458 -0.57735026918969634
    outer loop
      vertex 12.98524272305189 21095.751823323237 25217.187757029609
      vertex 25.970485446103773 21095.751823323237 25230.17299975266
      vertex 12.98524272305189 21082.766580600182 25230.17299975266
    endloop
  endfacet
  facet normal 0.57735026918959254 -0.5773502691896425 -0.5773502691896425
    outer loop
      vertex 12.98524272305189 21095.751823323237 25217.187757029609
      vertex 25.970485446103773 21108.737066046288 25217.187757029609
      vertex 25.970485446103773 21095.751823323237 25230.17299975266
    endloop
  endfacet
  facet normal 0.57735026918964638 0.57735026918969634 0.57735026918953458
    outer loop
      vertex 12.98524272305189 21108.737066046288 25230.17299975266
      vertex 12.98524272305189 21095.751823323237 25243.158242475714
      vertex 25.970485446103773 21095.751823323237 25230.17299975266
    endloop
  endfacet
  facet normal 0.57735026918959254 0.5773502691896425 0.5773502691896425
    outer loop
      vertex 12.98524272305189 21108.737066046288 25230.17299975266
      vertex 25.970485446103773 21095.751823323237 25230.17299975266
      vertex 25.970485446103773 21108.737066046288 25217.187757029609
    endloop
  endfacet
  facet normal 0.57735026918970012 -0.57735026918958854 0.57735026918958854
    outer loop
      vertex 12.98524272305189 21082.766580600182 25230.17299975266
      vertex 12.98524272305189 21095.751823323237 25243.158242475714
      vertex 0 21082.766580600182 25243.158242475714
    endloop
  endfacet
  facet normal -0.57735026918970023 -0.57735026918958843 0.57735026918958843
    outer loop
      vertex 12.98524272305189 21082.766580600182 25230.17299975266
      vertex 25.970485446103773 21082.766580600182 25243.158242475714
      vertex 12.98524272305189 21095.751823323237 25243.158242475714
    endloop
  endfacet
  facet normal 0.57735026918970023 0.57735026918958843 0.57735026918958843
    outer loop
      vertex 12.98524272305189 21095.751823323237 25243.158242475714
      vertex 25.970485446103773 21082.766580600182 25243.158242475714
      vertex 25.970485446103773 21095.751823323237 25230.17299975266
    endloop
  endfacet
  facet normal 0.57735026918970023 -0.57735026918958843 -0.57735026918958843
    outer loop
      vertex 12.98524272305189 21082.766580600182 25230.17299975266
      vertex 25.970485446103773 21095.751823323237 25230.17299975266
      vertex 25.970485446103773 21082.766580600182 25243.158242475714
    endloop
  endfacet
  facet normal -0.57735026918970012 -0.57735026918958854 -0.57735026918958854
    outer loop
      vertex 0 21082.766580600186 25243.158242475714
      vertex 12.98524272305189 21082.766580600186 25230.17299975266
      vertex 12.98524272305189 21069.781337877132 25243.158242475714
    endloop
  endfacet
  facet normal -0.57735026918964616 -0.57735026918969645 -0.57735026918953469
    outer loop
      vertex 0 21082.766580600186 25243.158242475714
      vertex 0 21095.751823323237 25230.17299975266
      vertex 12.98524272305189 21082.766580600186 25230.17299975266
    endloop
  endfacet
  facet normal -0.5773502691895922 0.5773502691896425 0.5773502691896425
    outer loop
      vertex 0 21082.766580600186 25243.158242475714
      vertex 12.98524272305189 21082.766580600186 25256.143485198765
      vertex 12.98524272305189 21095.751823323237 25243.158242475714
    endloop
  endfacet
  facet normal -0.57735026918964616 0.57735026918969645 0.57735026918953469
    outer loop
      vertex 0 21082.766580600186 25243.158242475714
      vertex 12.98524272305189 21095.751823323237 25243.158242475714
      vertex 0 21095.751823323237 25230.17299975266
    endloop
  endfacet
  facet normal -0.57735026918964616 0.57735026918953469 0.57735026918969645
    outer loop
      vertex 0 21082.766580600186 25243.158242475714
      vertex 0 21069.781337877132 25256.143485198765
      vertex 12.98524272305189 21082.766580600186 25256.143485198765
    endloop
  endfacet
  facet normal -0.57735026918964616 -0.57735026918953469 -0.57735026918969645
    outer loop
      vertex 0 21082.766580600186 25243.158242475714
      vertex 12.98524272305189 21069.781337877132 25243.158242475714
      vertex 0 21069.781337877132 25256.143485198765
    endloop
  endfacet
  facet normal 0.57735026918964616 0.57735026918969645 -0.57735026918953469
    outer loop
      vertex 12.98524272305189 21082.766580600186 25230.17299975266
      vertex 0 21095.751823323237 25230.17299975266
      vertex 12.98524272305189 21095.751823323237 25243.158242475714
    endloop
  endfacet
  facet normal -0.57735026918964638 0.57735026918969634 -0.57735026918953458
    outer loop
      vertex 12.98524272305189 21082.766580600186 25230.17299975266
      vertex 12.98524272305189 21095.751823323237 25243.158242475714
      vertex 25.970485446103773 21095.751823323237 25230.17299975266
    endloop
  endfacet
  facet normal 0.57735026918970023 -0.57735026918958843 -0.57735026918958843
    outer loop
      vertex 12.98524272305189 21082.766580600186 25230.17299975266
      vertex 25.970485446103773 21082.766580600186 25243.158242475714
      vertex 12.98524272305189 21069.781337877132 25243.158242475714
    endloop
  endfacet
  facet normal 0.57735026918964638 -0.57735026918969634 -0.57735026918953458
    outer loop
      vertex 12.98524272305189 21082.766580600186 25230.17299975266
      vertex 25.970485446103773 21095.751823323237 25230.17299975266
      vertex 25.970485446103773 21082.766580600186 25243.158242475714
    endloop
  endfacet
  facet normal 0.57735026918959254 0.5773502691896425 0.5773502691896425
    outer loop
      vertex 12.98524272305189 21095.751823323237 25243.158242475714
      vertex 12.98524272305189 21082.766580600186 25256.143485198765
      vertex 25.970485446103773 21082.766580600186 25243.158242475714
    endloop
  endfacet
  facet normal 0.57735026918964638 0.57735026918969634 0.57735026918953458
    outer loop
      vertex 12.98524272305189 21095.751823323237 25243.158242475714
      vertex 25.970485446103773 21082.766580600186 25243.158242475714
      vertex 25.970485446103773 21095.751823323237 25230.17299975266
    endloop
  endfacet
  facet normal 0.57735026918964616 -0.57735026918953469 0.57735026918969645
    outer loop
      vertex 12.98524272305189 21069.781337877132 25243.158242475714
      vertex 12.98524272305189 21082.766580600186 25256.143485198765
      vertex 0 21069.781337877132 25256.143485198765
    endloop
  endfacet
  facet normal -0.57735026918964638 -0.57735026918953458 0.57735026918969634
    outer loop
      vertex 12.98524272305189 21069.781337877132 25243.158242475714
      vertex 25.970485446103773 21069.781337877132 25256.143485198765
      vertex 12.98524272305189 21082.766580600186 25256.143485198765
    endloop
  endfacet
  facet normal 0.57735026918964638 0.57735026918953458 0.57735026918969634
    outer loop
      vertex 12.98524272305189 21082.766580600186 25256.143485198765
      vertex 25.970485446103773 21069.781337877132 25256.143485198765
      vertex 25.970485446103773 21082.766580600186 25243.158242475714
    endloop
  endfacet
  facet normal 0.57735026918964638 -0.57735026918953458 -0.57735026918969634
    outer loop
      vertex 12.98524272305189 21069.781337877132 25243.158242475714
      vertex 25.970485446103773 21082.766580600186 25243.158242475714
      vertex 25.970485446103773 21069.781337877132 25256.143485198765
    endloop
  endfacet
  facet normal -0.5773502691895922 -0.5773502691896425 -0.5773502691896425
    outer loop
      vertex 0 21069.781337877132 25256.143485198765
      vertex 12.98524272305189 21069.781337877132 25243.158242475714
      vertex 12.98524272305189 21056.796095154081 25256.143485198765
    endloop
  endfacet
  facet normal -0.57735026918964616 -0.57735026918953469 -0.57735026918969645
    outer loop
      vertex 0 21069.781337877132 25256.143485198765
      vertex 0 21082.766580600186 25243.158242475714
      vertex 12.98524272305189 21069.781337877132 25243.158242475714
    endloop
  endfacet
  facet normal -0.57735026918964616 0.57735026918953469 0.57735026918969645
    outer loop
      vertex 0 21069.781337877132 25256.143485198765
      vertex 12.98524272305189 21069.781337877132 25269.128727921816
      vertex 12.98524272305189 21082.766580600186 25256.143485198765
    endloop
  endfacet
  facet normal -0.57735026918964616 0.57735026918953469 0.57735026918969645
    outer loop
      vertex 0 21069.781337877132 25256.143485198765
      vertex 12.98524272305189 21082.766580600186 25256.143485198765
      vertex 0 21082.766580600186 25243.158242475714
    endloop
  endfacet
  facet normal -0.5773502691895922 0.5773502691896425 0.5773502691896425
    outer loop
      vertex 0 21069.781337877132 25256.143485198765
      vertex 0 21056.796095154081 25269.128727921816
      vertex 12.98524272305189 21069.781337877132 25269.128727921816
    endloop
  endfacet
  facet normal -0.5773502691895922 -0.5773502691896425 -0.5773502691896425
    outer loop
      vertex 0 21069.781337877132 25256.143485198765
      vertex 12.98524272305189 21056.796095154081 25256.143485198765
      vertex 0 21056.796095154081 25269.128727921816
    endloop
  endfacet
  facet normal 0.57735026918964616 0.57735026918953469 -0.57735026918969645
    outer loop
      vertex 12.98524272305189 21069.781337877132 25243.158242475714
      vertex 0 21082.766580600186 25243.158242475714
      vertex 12.98524272305189 21082.766580600186 25256.143485198765
    endloop
  endfacet
  facet normal -0.57735026918964638 0.57735026918953458 -0.57735026918969634
    outer loop
      vertex 12.98524272305189 21069.781337877132 25243.158242475714
      vertex 12.98524272305189 21082.766580600186 25256.143485198765
      vertex 25.970485446103773 21082.766580600186 25243.158242475714
    endloop
  endfacet
  facet normal 0.57735026918959254 -0.5773502691896425 -0.5773502691896425
    outer loop
      vertex 12.98524272305189 21069.781337877132 25243.158242475714
      vertex 25.970485446103773 21069.781337877132 25256.143485198765
      vertex 12.98524272305189 21056.796095154081 25256.143485198765
    endloop
  endfacet
  facet normal 0.57735026918964638 -0.57735026918953458 -0.57735026918969634
    outer loop
      vertex 12.98524272305189 21069.781337877132 25243.158242475714
      vertex 25.970485446103773 21082.766580600186 25243.158242475714
      vertex 25.970485446103773 21069.781337877132 25256.143485198765
    endloop
  endfacet
  facet normal 0.57735026918964638 0.57735026918953458 0.57735026918969634
    outer loop
      vertex 12.98524272305189 21082.766580600186 25256.143485198765
      vertex 12.98524272305189 21069.781337877132 25269.128727921816
      vertex 25.970485446103773 21069.781337877132 25256.143485198765
    endloop
  endfacet
  facet normal 0.57735026918964638 0.57735026918953458 0.57735026918969634
    outer loop
      vertex 12.98524272305189 21082.766580600186 25256.143485198765
      vertex 25.970485446103773 21069.781337877132 25256.143485198765
      vertex 25.970485446103773 21082.766580600186 25243.158242475714
    endloop
  endfacet
  facet normal 0.5773502691895922 -0.5773502691896425 0.5773502691896425
    outer loop
      vertex 12.98524272305189 21056.796095154081 25256.143485198765
      vertex 12.98524272305189 21069.781337877132 25269.128727921816
      vertex 0 21056.796095154081 25269.128727921816
    endloop
  endfacet
  facet normal -0.57735026918959254 -0.5773502691896425 0.5773502691896425
    outer loop
      vertex 12.98524272305189 21056.796095154081 25256.143485198765
      vertex 25.970485446103773 21056.796095154081 25269.128727921816
      vertex 12.98524272305189 21069.781337877132 25269.128727921816
    endloop
  endfacet
  facet normal 0.57735026918959254 0.5773502691896425 0.5773502691896425
    outer loop
      vertex 12.98524272305189 21069.781337877132 25269.128727921816
      vertex 25.970485446103773 21056.796095154081 25269.128727921816
      vertex 25.970485446103773 21069.781337877132 25256.143485198765
    endloop
  endfacet
  facet normal 0.57735026918959254 -0.5773502691896425 -0.5773502691896425
    outer loop
      vertex 12.98524272305189 21056.796095154081 25256.143485198765
      vertex 25.970485446103773 21069.781337877132 25256.143485198765
      vertex 25.970485446103773 21056.796095154081 25269.128727921816
    endloop
  endfacet
  facet normal -0.57735026918959242 -0.5773502691896425 0.5773502691896425
    outer loop
      vertex 0 21069.781337877132 25282.11397064487
      vertex 12.985242723051886 21056.796095154081 25282.11397064487
      vertex 12.985242723051886 21069.781337877132 25295.099213367921
    endloop
  endfacet
  facet normal -0.57735026918964627 -0.57735026918969634 0.57735026918953458
    outer loop
      vertex 0 21069.781337877132 25282.11397064487
      vertex 0 21056.796095154081 25269.128727921816
      vertex 12.985242723051886 21056.796095154081 25282.11397064487
    endloop
  endfacet
  facet normal -0.57735026918970023 0.57735026918958854 -0.57735026918958854
    outer loop
      vertex 0 21069.781337877132 25282.11397064487
      vertex 12.985242723051886 21082.766580600186 25282.11397064487
      vertex 12.985242723051886 21069.781337877132 25269.128727921816
    endloop
  endfacet
  facet normal -0.57735026918964627 0.57735026918969634 -0.57735026918953458
    outer loop
      vertex 0 21069.781337877132 25282.11397064487
      vertex 12.985242723051886 21069.781337877132 25269.128727921816
      vertex 0 21056.796095154081 25269.128727921816
    endloop
  endfacet
  facet normal -0.57735026918964627 0.57735026918953458 -0.57735026918969634
    outer loop
      vertex 0 21069.781337877132 25282.11397064487
      vertex 0 21082.766580600186 25295.099213367921
      vertex 12.985242723051886 21082.766580600186 25282.11397064487
    endloop
  endfacet
  facet normal -0.57735026918964627 -0.57735026918953458 0.57735026918969634
    outer loop
      vertex 0 21069.781337877132 25282.11397064487
      vertex 12.985242723051886 21069.781337877132 25295.099213367921
      vertex 0 21082.766580600186 25295.099213367921
    endloop
  endfacet
  facet normal 0.57735026918964627 -0.57735026918969634 -0.57735026918953458
    outer loop
      vertex 12.985242723051886 21056.796095154081 25282.11397064487
      vertex 0 21056.796095154081 25269.128727921816
      vertex 12.985242723051886 21069.781337877132 25269.128727921816
    endloop
  endfacet
  facet normal -0.57735026918964627 -0.57735026918969634 -0.57735026918953458
    outer loop
      vertex 12.985242723051886 21056.796095154081 25282.11397064487
      vertex 12.985242723051886 21069.781337877132 25269.128727921816
      vertex 25.970485446103773 21056.796095154081 25269.128727921816
    endloop
  endfacet
  facet normal 0.57735026918959242 -0.5773502691896425 0.5773502691896425
    outer loop
      vertex 12.985242723051886 21056.796095154081 25282.11397064487
      vertex 25.970485446103773 21069.781337877132 25282.11397064487
      vertex 12.985242723051886 21069.781337877132 25295.099213367921
    endloop
  endfacet
  facet normal 0.57735026918964627 -0.57735026918969634 0.57735026918953458
    outer loop
      vertex 12.985242723051886 21056.796095154081 25282.11397064487
      vertex 25.970485446103773 21056.796095154081 25269.128727921816
      vertex 25.970485446103773 21069.781337877132 25282.11397064487
    endloop
  endfacet
  facet normal 0.57735026918970023 0.57735026918958854 -0.57735026918958854
    outer loop
      vertex 12.985242723051886 21069.781337877132 25269.128727921816
      vertex 12.985242723051886 21082.766580600186 25282.11397064487
      vertex 25.970485446103773 21069.781337877132 25282.11397064487
    endloop
  endfacet
  facet normal 0.57735026918964627 0.57735026918969634 -0.57735026918953458
    outer loop
      vertex 12.985242723051886 21069.781337877132 25269.128727921816
      vertex 25.970485446103773 21069.781337877132 25282.11397064487
      vertex 25.970485446103773 21056.796095154081 25269.128727921816
    endloop
  endfacet
  facet normal 0.57735026918964627 0.57735026918953458 0.57735026918969634
    outer loop
      vertex 12.985242723051886 21069.781337877132 25295.099213367921
      vertex 12.985242723051886 21082.766580600186 25282.11397064487
      vertex 0 21082.766580600186 25295.099213367921
    endloop
  endfacet
  facet normal -0.57735026918964627 0.57735026918953458 0.57735026918969634
    outer loop
      vertex 12.985242723051886 21069.781337877132 25295.099213367921
      vertex 25.970485446103773 21082.766580600186 25295.099213367921
      vertex 12.985242723051886 21082.766580600186 25282.11397064487
    endloop
  endfacet
  facet normal 0.57735026918964627 0.57735026918953458 -0.57735026918969634
    outer loop
      vertex 12.985242723051886 21082.766580600186 25282.11397064487
      vertex 25.970485446103773 21082.766580600186 25295.099213367921
      vertex 25.970485446103773 21069.781337877132 25282.11397064487
    endloop
  endfacet
  facet normal 0.57735026918964627 -0.57735026918953458 0.57735026918969634
    outer loop
      vertex 12.985242723051886 21069.781337877132 25295.099213367921
      vertex 25.970485446103773 21069.781337877132 25282.11397064487
      vertex 25.970485446103773 21082.766580600186 25295.099213367921
    endloop
  endfacet
  facet normal 0.57746926534620668 -0.57733417539383114 0.57724734516742215
    outer loop
      vertex 6.4926214218139648 21050.302734375 25256.142578125
      vertex 12.98524284362793 21056.796875 25256.142578125
      vertex 12.98524284362793 21069.78125 25269.12890625
    endloop
  endfacet
  facet normal 0.57732454426984159 -0.57736313121969418 0.57736313121969418
    outer loop
      vertex 6.4926214218139648 21050.302734375 25256.142578125
      vertex 12.98524284362793 21069.78125 25269.12890625
      vertex 6.4926214218139648 21063.2890625 25269.12890625
    endloop
  endfacet
  facet normal 0.57732454426984159 -0.57736313121969418 0.57736313121969418
    outer loop
      vertex 0 21043.810546875 25256.142578125
      vertex 6.4926214218139648 21050.302734375 25256.142578125
      vertex 6.4926214218139648 21063.2890625 25269.12890625
    endloop
  endfacet
  facet normal 0.57732454426984159 -0.57736313121969418 0.57736313121969418
    outer loop
      vertex 0 21043.810546875 25256.142578125
      vertex 6.4926214218139648 21063.2890625 25269.12890625
      vertex 0 21056.796875 25269.12890625
    endloop
  endfacet
  facet normal 0.57732448773345002 0.5773631594859987 -0.5773631594859987
    outer loop
      vertex 19.477863311767578 21050.302734375 25256.142578125
      vertex 19.477863311767578 21063.2890625 25269.12890625
      vertex 25.970485687255859 21056.796875 25269.12890625
    endloop
  endfacet
  facet normal 0.57732448773345002 0.5773631594859987 -0.5773631594859987
    outer loop
      vertex 19.477863311767578 21050.302734375 25256.142578125
      vertex 25.970485687255859 21056.796875 25269.12890625
      vertex 25.970485687255859 21043.810546875 25256.142578125
    endloop
  endfacet
  facet normal 0.57735354502173786 0.57739204909918596 -0.57730521016865521
    outer loop
      vertex 12.98524284362793 21056.796875 25256.142578125
      vertex 12.98524284362793 21069.78125 25269.12890625
      vertex 19.477863311767578 21063.2890625 25269.12890625
    endloop
  endfacet
  facet normal 0.5774403776685153 0.57730520967597487 -0.57730520967597487
    outer loop
      vertex 12.98524284362793 21056.796875 25256.142578125
      vertex 19.477863311767578 21063.2890625 25269.12890625
      vertex 19.477863311767578 21050.302734375 25256.142578125
    endloop
  endfacet
  facet normal 0.57735348848533785 0.57730523843496773 -0.5773920773697504
    outer loop
      vertex 6.4926214218139648 21043.810546875 25262.63671875
      vertex 6.4926214218139648 21056.796875 25275.62109375
      vertex 12.98524284362793 21056.796875 25282.11328125
    endloop
  endfacet
  facet normal 0.57735348848533785 0.57730523843496773 -0.5773920773697504
    outer loop
      vertex 6.4926214218139648 21043.810546875 25262.63671875
      vertex 12.98524284362793 21056.796875 25282.11328125
      vertex 12.98524284362793 21043.810546875 25269.12890625
    endloop
  endfacet
  facet normal 0.5773245442698417 0.57736313121969429 -0.57736313121969429
    outer loop
      vertex 0 21043.810546875 25256.142578125
      vertex 0 21056.796875 25269.12890625
      vertex 6.4926214218139648 21056.796875 25275.62109375
    endloop
  endfacet
  facet normal 0.57746926534620668 0.57724734516742215 -0.57733417539383114
    outer loop
      vertex 0 21043.810546875 25256.142578125
      vertex 6.4926214218139648 21056.796875 25275.62109375
      vertex 6.4926214218139648 21043.810546875 25262.63671875
    endloop
  endfacet
  facet normal 0.57735354502173786 -0.57730521016865521 0.57739204909918596
    outer loop
      vertex 19.477863311767578 21043.810546875 25262.63671875
      vertex 19.477863311767578 21056.796875 25275.62109375
      vertex 12.98524284362793 21056.796875 25282.11328125
    endloop
  endfacet
  facet normal 0.57735354502173786 -0.57730521016865521 0.57739204909918596
    outer loop
      vertex 19.477863311767578 21043.810546875 25262.63671875
      vertex 12.98524284362793 21056.796875 25282.11328125
      vertex 12.98524284362793 21043.810546875 25269.12890625
    endloop
  endfacet
  facet normal 0.57732448773345002 -0.5773631594859987 0.5773631594859987
    outer loop
      vertex 25.970485687255859 21043.810546875 25256.142578125
      vertex 25.970485687255859 21056.796875 25269.12890625
      vertex 19.477863311767578 21056.796875 25275.62109375
    endloop
  endfacet
  facet normal 0.57746920880981867 -0.57724737344222843 0.57733420367289057
    outer loop
      vertex 25.970485687255859 21043.810546875 25256.142578125
      vertex 19.477863311767578 21056.796875 25275.62109375
      vertex 19.477863311767578 21043.810546875 25262.63671875
    endloop
  endfacet
  facet normal -0.57738236745873661 -0.57724738262423902 0.57742104308832576
    outer loop
      vertex 16.23155403137207 21050.302734375 25252.896484375
      vertex 12.98524284362793 21056.796875 25256.142578125
      vertex 12.98524284362793 21050.302734375 25249.650390625
    endloop
  endfacet
  facet normal -0.57738253708493781 -0.5772473826317962 0.577420873465881
    outer loop
      vertex 19.477863311767578 21050.302734375 25256.142578125
      vertex 12.98524284362793 21056.796875 25256.142578125
      vertex 16.23155403137207 21050.302734375 25252.896484375
    endloop
  endfacet
  facet normal -0.57732454426983748 -0.5773630464132069 0.57736321602617324
    outer loop
      vertex 19.477863311767578 21043.810546875 25249.650390625
      vertex 16.23155403137207 21050.302734375 25252.896484375
      vertex 12.98524284362793 21050.302734375 25249.650390625
    endloop
  endfacet
  facet normal -0.57732460080624159 -0.57736310295338145 0.57736310295338145
    outer loop
      vertex 19.477863311767578 21043.810546875 25249.650390625
      vertex 12.98524284362793 21050.302734375 25249.650390625
      vertex 12.98524284362793 21043.810546875 25243.158203125
    endloop
  endfacet
  facet normal -0.57732460080622494 -0.57736327256634778 0.57736293334038169
    outer loop
      vertex 25.970485687255859 21043.810546875 25256.142578125
      vertex 19.477863311767578 21050.302734375 25256.142578125
      vertex 16.23155403137207 21050.302734375 25252.896484375
    endloop
  endfacet
  facet normal -0.57732454426983748 -0.5773630464132069 0.57736321602617324
    outer loop
      vertex 25.970485687255859 21043.810546875 25256.142578125
      vertex 16.23155403137207 21050.302734375 25252.896484375
      vertex 19.477863311767578 21043.810546875 25249.650390625
    endloop
  endfacet
  facet normal -0.57738236745873661 0.57724738262423902 -0.57742104308832576
    outer loop
      vertex 9.7389316558837891 21050.302734375 25252.896484375
      vertex 12.98524284362793 21056.796875 25256.142578125
      vertex 12.98524284362793 21050.302734375 25249.650390625
    endloop
  endfacet
  facet normal -0.57738245227182883 0.57724738262802167 -0.57742095827711992
    outer loop
      vertex 6.4926214218139648 21050.302734375 25256.142578125
      vertex 12.98524284362793 21056.796875 25256.142578125
      vertex 9.7389316558837891 21050.302734375 25252.896484375
    endloop
  endfacet
  facet normal -0.57732451600164369 0.57736310294960691 -0.57736318775608597
    outer loop
      vertex 6.4926214218139648 21043.810546875 25249.650390625
      vertex 9.7389316558837891 21050.302734375 25252.896484375
      vertex 12.98524284362793 21050.302734375 25249.650390625
    endloop
  endfacet
  facet normal -0.57732454426984159 0.57736313121969418 -0.57736313121969418
    outer loop
      vertex 6.4926214218139648 21043.810546875 25249.650390625
      vertex 12.98524284362793 21050.302734375 25249.650390625
      vertex 12.98524284362793 21043.810546875 25243.158203125
    endloop
  endfacet
  facet normal -0.57732457253803959 0.57736315948978156 -0.57736307468329418
    outer loop
      vertex 0 21043.810546875 25256.142578125
      vertex 6.4926214218139648 21050.302734375 25256.142578125
      vertex 9.7389316558837891 21050.302734375 25252.896484375
    endloop
  endfacet
  facet normal -0.57732455840394059 0.57736310295149518 -0.57736314535473787
    outer loop
      vertex 0 21043.810546875 25256.142578125
      vertex 9.7389316558837891 21050.302734375 25252.896484375
      vertex 6.4926214218139648 21043.810546875 25249.650390625
    endloop
  endfacet
  facet normal -0.57732454426984159 0.57736313121969418 -0.57736313121969418
    outer loop
      vertex 3.2463107109069824 21040.564453125 25249.650390625
      vertex 0 21043.810546875 25256.142578125
      vertex 6.4926214218139648 21043.810546875 25249.650390625
    endloop
  endfacet
  facet normal -0.57732454426984159 0.57736313121969418 -0.57736313121969418
    outer loop
      vertex 0 21037.318359375 25249.650390625
      vertex 0 21043.810546875 25256.142578125
      vertex 3.2463107109069824 21040.564453125 25249.650390625
    endloop
  endfacet
  facet normal -0.57732454426984159 0.57736313121969418 -0.57736313121969418
    outer loop
      vertex 6.4926214218139648 21037.318359375 25243.158203125
      vertex 3.2463107109069824 21040.564453125 25249.650390625
      vertex 6.4926214218139648 21043.810546875 25249.650390625
    endloop
  endfacet
  facet normal -0.57732454426984159 0.57736313121969418 -0.57736313121969418
    outer loop
      vertex 6.4926214218139648 21037.318359375 25243.158203125
      vertex 6.4926214218139648 21043.810546875 25249.650390625
      vertex 12.98524284362793 21043.810546875 25243.158203125
    endloop
  endfacet
  facet normal -0.57732454426984159 0.57736313121969418 -0.57736313121969418
    outer loop
      vertex 0 21030.826171875 25243.158203125
      vertex 0 21037.318359375 25249.650390625
      vertex 3.2463107109069824 21040.564453125 25249.650390625
    endloop
  endfacet
  facet normal -0.57732454426984159 0.57736313121969418 -0.57736313121969418
    outer loop
      vertex 0 21030.826171875 25243.158203125
      vertex 3.2463107109069824 21040.564453125 25249.650390625
      vertex 6.4926214218139648 21037.318359375 25243.158203125
    endloop
  endfacet
  facet normal 0.57732460080624159 0.57736310295338145 -0.57736310295338145
    outer loop
      vertex 19.477863311767578 21037.318359375 25243.158203125
      vertex 12.98524284362793 21043.810546875 25243.158203125
      vertex 19.477863311767578 21043.810546875 25249.650390625
    endloop
  endfacet
  facet normal 0.57732448773345002 0.5773631594859987 -0.5773631594859987
    outer loop
      vertex 25.970485687255859 21030.826171875 25243.158203125
      vertex 19.477863311767578 21037.318359375 25243.158203125
      vertex 19.477863311767578 21043.810546875 25249.650390625
    endloop
  endfacet
  facet normal 0.57732448773345002 0.5773631594859987 -0.5773631594859987
    outer loop
      vertex 25.970485687255859 21030.826171875 25243.158203125
      vertex 19.477863311767578 21043.810546875 25249.650390625
      vertex 25.970485687255859 21043.810546875 25256.142578125
    endloop
  endfacet
  facet normal -0.57732451600164369 -0.57736310294960691 -0.57736318775608597
    outer loop
      vertex 19.477863311767578 21030.826171875 25249.650390625
      vertex 12.98524284362793 21043.810546875 25243.158203125
      vertex 25.970485687255859 21030.826171875 25243.158203125
    endloop
  endfacet
  facet normal -0.57732460080624159 -0.57736310295338145 -0.57736310295338145
    outer loop
      vertex 12.98524284362793 21030.826171875 25256.142578125
      vertex 12.98524284362793 21043.810546875 25243.158203125
      vertex 19.477863311767578 21030.826171875 25249.650390625
    endloop
  endfacet
  facet normal 0.57732454426984159 -0.57736313121969418 -0.57736313121969418
    outer loop
      vertex 6.4926214218139648 21030.826171875 25249.650390625
      vertex 12.98524284362793 21043.810546875 25243.158203125
      vertex 12.98524284362793 21030.826171875 25256.142578125
    endloop
  endfacet
  facet normal 0.57732454426984159 -0.57736313121969418 -0.57736313121969418
    outer loop
      vertex 0 21030.826171875 25243.158203125
      vertex 12.98524284362793 21043.810546875 25243.158203125
      vertex 6.4926214218139648 21030.826171875 25249.650390625
    endloop
  endfacet
  facet normal 0.57732448773345002 -0.5773631594859987 0.5773631594859987
    outer loop
      vertex 19.477863311767578 21030.826171875 25249.650390625
      vertex 25.970485687255859 21030.826171875 25243.158203125
      vertex 25.970485687255859 21037.318359375 25249.650390625
    endloop
  endfacet
  facet normal 0.57732454426983748 -0.57736321602617324 0.5773630464132069
    outer loop
      vertex 12.98524284362793 21030.826171875 25256.142578125
      vertex 19.477863311767578 21030.826171875 25249.650390625
      vertex 25.970485687255859 21037.318359375 25249.650390625
    endloop
  endfacet
  facet normal 0.57732454426984159 -0.57736313121969418 0.57736313121969418
    outer loop
      vertex 12.98524284362793 21030.826171875 25256.142578125
      vertex 25.970485687255859 21037.318359375 25249.650390625
      vertex 25.970485687255859 21043.810546875 25256.142578125
    endloop
  endfacet
  facet normal -0.57732454426984159 -0.57736313121969418 0.57736313121969418
    outer loop
      vertex 6.4926214218139648 21030.826171875 25249.650390625
      vertex 0 21043.810546875 25256.142578125
      vertex 0 21030.826171875 25243.158203125
    endloop
  endfacet
  facet normal -0.57732454426984159 -0.57736313121969418 0.57736313121969418
    outer loop
      vertex 12.98524284362793 21030.826171875 25256.142578125
      vertex 0 21043.810546875 25256.142578125
      vertex 6.4926214218139648 21030.826171875 25249.650390625
    endloop
  endfacet
  facet normal -0.57738242399512807 -0.57742101481351882 0.57724735435793584
    outer loop
      vertex 6.4926214218139648 21043.810546875 25262.63671875
      vertex 0 21043.810546875 25256.142578125
      vertex 6.4926214218139648 21037.318359375 25256.142578125
    endloop
  endfacet
  facet normal -0.57726664713265841 -0.57747890807990065 0.577305230212809
    outer loop
      vertex 12.98524284362793 21043.810546875 25269.12890625
      vertex 6.4926214218139648 21043.810546875 25262.63671875
      vertex 6.4926214218139648 21037.318359375 25256.142578125
    endloop
  endfacet
  facet normal -0.57735348848533774 -0.5773920773697504 0.57730523843496773
    outer loop
      vertex 12.98524284362793 21043.810546875 25269.12890625
      vertex 6.4926214218139648 21037.318359375 25256.142578125
      vertex 12.98524284362793 21030.826171875 25256.142578125
    endloop
  endfacet
  facet normal 0.57732460080624159 -0.57736310295338145 0.57736310295338145
    outer loop
      vertex 19.477863311767578 21043.810546875 25262.63671875
      vertex 12.98524284362793 21043.810546875 25269.12890625
      vertex 12.98524284362793 21037.318359375 25262.63671875
    endloop
  endfacet
  facet normal 0.5773824240121298 -0.57742093001553629 0.57724743916441079
    outer loop
      vertex 25.970485687255859 21043.810546875 25256.142578125
      vertex 19.477863311767578 21043.810546875 25262.63671875
      vertex 12.98524284362793 21037.318359375 25262.63671875
    endloop
  endfacet
  facet normal 0.57738242399512807 -0.57742101481351882 0.57724735435793573
    outer loop
      vertex 25.970485687255859 21043.810546875 25256.142578125
      vertex 12.98524284362793 21037.318359375 25262.63671875
      vertex 12.98524284362793 21030.826171875 25256.142578125
    endloop
  endfacet
  facet normal -0.57735026918964616 -0.57735026918953469 -0.57735026918969645
    outer loop
      vertex 0 21043.81085243103 25230.17299975266
      vertex 12.98524272305189 21043.81085243103 25217.187757029609
      vertex 12.98524272305189 21030.825609707976 25230.17299975266
    endloop
  endfacet
  facet normal -0.5773502691895922 -0.5773502691896425 -0.5773502691896425
    outer loop
      vertex 0 21043.81085243103 25230.17299975266
      vertex 0 21056.796095154081 25217.187757029609
      vertex 12.98524272305189 21043.81085243103 25217.187757029609
    endloop
  endfacet
  facet normal -0.57735026918964616 0.57735026918969645 0.57735026918953469
    outer loop
      vertex 0 21043.81085243103 25230.17299975266
      vertex 12.98524272305189 21043.81085243103 25243.158242475714
      vertex 12.98524272305189 21056.796095154081 25230.17299975266
    endloop
  endfacet
  facet normal -0.5773502691895922 0.5773502691896425 0.5773502691896425
    outer loop
      vertex 0 21043.81085243103 25230.17299975266
      vertex 12.98524272305189 21056.796095154081 25230.17299975266
      vertex 0 21056.796095154081 25217.187757029609
    endloop
  endfacet
  facet normal -0.57735026918970012 0.57735026918958854 0.57735026918958854
    outer loop
      vertex 0 21043.81085243103 25230.17299975266
      vertex 0 21030.825609707976 25243.158242475714
      vertex 12.98524272305189 21043.81085243103 25243.158242475714
    endloop
  endfacet
  facet normal -0.57735026918970012 -0.57735026918958854 -0.57735026918958854
    outer loop
      vertex 0 21043.81085243103 25230.17299975266
      vertex 12.98524272305189 21030.825609707976 25230.17299975266
      vertex 0 21030.825609707976 25243.158242475714
    endloop
  endfacet
  facet normal 0.5773502691895922 0.5773502691896425 -0.5773502691896425
    outer loop
      vertex 12.98524272305189 21043.81085243103 25217.187757029609
      vertex 0 21056.796095154081 25217.187757029609
      vertex 12.98524272305189 21056.796095154081 25230.17299975266
    endloop
  endfacet
  facet normal -0.5773502691895922 0.5773502691896425 -0.5773502691896425
    outer loop
      vertex 12.98524272305189 21043.81085243103 25217.187757029609
      vertex 12.98524272305189 21056.796095154081 25230.17299975266
      vertex 25.97048544610378 21056.796095154081 25217.187757029609
    endloop
  endfacet
  facet normal 0.57735026918964616 -0.57735026918953469 -0.57735026918969645
    outer loop
      vertex 12.98524272305189 21043.81085243103 25217.187757029609
      vertex 25.97048544610378 21043.81085243103 25230.17299975266
      vertex 12.98524272305189 21030.825609707976 25230.17299975266
    endloop
  endfacet
  facet normal 0.5773502691895922 -0.5773502691896425 -0.5773502691896425
    outer loop
      vertex 12.98524272305189 21043.81085243103 25217.187757029609
      vertex 25.97048544610378 21056.796095154081 25217.187757029609
      vertex 25.97048544610378 21043.81085243103 25230.17299975266
    endloop
  endfacet
  facet normal 0.57735026918964616 0.57735026918969645 0.57735026918953469
    outer loop
      vertex 12.98524272305189 21056.796095154081 25230.17299975266
      vertex 12.98524272305189 21043.81085243103 25243.158242475714
      vertex 25.97048544610378 21043.81085243103 25230.17299975266
    endloop
  endfacet
  facet normal 0.5773502691895922 0.5773502691896425 0.5773502691896425
    outer loop
      vertex 12.98524272305189 21056.796095154081 25230.17299975266
      vertex 25.97048544610378 21043.81085243103 25230.17299975266
      vertex 25.97048544610378 21056.796095154081 25217.187757029609
    endloop
  endfacet
  facet normal 0.57735026918970012 -0.57735026918958854 0.57735026918958854
    outer loop
      vertex 12.98524272305189 21030.825609707976 25230.17299975266
      vertex 12.98524272305189 21043.81085243103 25243.158242475714
      vertex 0 21030.825609707976 25243.158242475714
    endloop
  endfacet
  facet normal -0.57735026918970012 -0.57735026918958854 0.57735026918958854
    outer loop
      vertex 12.98524272305189 21030.825609707976 25230.17299975266
      vertex 25.97048544610378 21030.825609707976 25243.158242475714
      vertex 12.98524272305189 21043.81085243103 25243.158242475714
    endloop
  endfacet
  facet normal 0.57735026918970012 0.57735026918958854 0.57735026918958854
    outer loop
      vertex 12.98524272305189 21043.81085243103 25243.158242475714
      vertex 25.97048544610378 21030.825609707976 25243.158242475714
      vertex 25.97048544610378 21043.81085243103 25230.17299975266
    endloop
  endfacet
  facet normal 0.57735026918970012 -0.57735026918958854 -0.57735026918958854
    outer loop
      vertex 12.98524272305189 21030.825609707976 25230.17299975266
      vertex 25.97048544610378 21043.81085243103 25230.17299975266
      vertex 25.97048544610378 21030.825609707976 25243.158242475714
    endloop
  endfacet
  facet normal -0.57735026918970012 -0.57735026918958854 -0.57735026918958854
    outer loop
      vertex 0 21030.825609707979 25243.158242475714
      vertex 12.98524272305189 21030.825609707979 25230.17299975266
      vertex 12.98524272305189 21017.840366984925 25243.158242475714
    endloop
  endfacet
  facet normal -0.57735026918964616 -0.57735026918969645 -0.57735026918953469
    outer loop
      vertex 0 21030.825609707979 25243.158242475714
      vertex 0 21043.81085243103 25230.17299975266
      vertex 12.98524272305189 21030.825609707979 25230.17299975266
    endloop
  endfacet
  facet normal -0.5773502691895922 0.5773502691896425 0.5773502691896425
    outer loop
      vertex 0 21030.825609707979 25243.158242475714
      vertex 12.98524272305189 21030.825609707979 25256.143485198765
      vertex 12.98524272305189 21043.81085243103 25243.158242475714
    endloop
  endfacet
  facet normal -0.57735026918964616 0.57735026918969645 0.57735026918953469
    outer loop
      vertex 0 21030.825609707979 25243.158242475714
      vertex 12.98524272305189 21043.81085243103 25243.158242475714
      vertex 0 21043.81085243103 25230.17299975266
    endloop
  endfacet
  facet normal -0.57735026918964616 0.57735026918953469 0.57735026918969645
    outer loop
      vertex 0 21030.825609707979 25243.158242475714
      vertex 0 21017.840366984925 25256.143485198765
      vertex 12.98524272305189 21030.825609707979 25256.143485198765
    endloop
  endfacet
  facet normal -0.57735026918964616 -0.57735026918953469 -0.57735026918969645
    outer loop
      vertex 0 21030.825609707979 25243.158242475714
      vertex 12.98524272305189 21017.840366984925 25243.158242475714
      vertex 0 21017.840366984925 25256.143485198765
    endloop
  endfacet
  facet normal 0.57735026918964616 0.57735026918969645 -0.57735026918953469
    outer loop
      vertex 12.98524272305189 21030.825609707979 25230.17299975266
      vertex 0 21043.81085243103 25230.17299975266
      vertex 12.98524272305189 21043.81085243103 25243.158242475714
    endloop
  endfacet
  facet normal -0.57735026918964616 0.57735026918969645 -0.57735026918953469
    outer loop
      vertex 12.98524272305189 21030.825609707979 25230.17299975266
      vertex 12.98524272305189 21043.81085243103 25243.158242475714
      vertex 25.97048544610378 21043.81085243103 25230.17299975266
    endloop
  endfacet
  facet normal 0.57735026918970012 -0.57735026918958854 -0.57735026918958854
    outer loop
      vertex 12.98524272305189 21030.825609707979 25230.17299975266
      vertex 25.97048544610378 21030.825609707979 25243.158242475714
      vertex 12.98524272305189 21017.840366984925 25243.158242475714
    endloop
  endfacet
  facet normal 0.57735026918964616 -0.57735026918969645 -0.57735026918953469
    outer loop
      vertex 12.98524272305189 21030.825609707979 25230.17299975266
      vertex 25.97048544610378 21043.81085243103 25230.17299975266
      vertex 25.97048544610378 21030.825609707979 25243.158242475714
    endloop
  endfacet
  facet normal 0.5773502691895922 0.5773502691896425 0.5773502691896425
    outer loop
      vertex 12.98524272305189 21043.81085243103 25243.158242475714
      vertex 12.98524272305189 21030.825609707979 25256.143485198765
      vertex 25.97048544610378 21030.825609707979 25243.158242475714
    endloop
  endfacet
  facet normal 0.57735026918964616 0.57735026918969645 0.57735026918953469
    outer loop
      vertex 12.98524272305189 21043.81085243103 25243.158242475714
      vertex 25.97048544610378 21030.825609707979 25243.158242475714
      vertex 25.97048544610378 21043.81085243103 25230.17299975266
    endloop
  endfacet
  facet normal 0.57735026918964616 -0.57735026918953469 0.57735026918969645
    outer loop
      vertex 12.98524272305189 21017.840366984925 25243.158242475714
      vertex 12.98524272305189 21030.825609707979 25256.143485198765
      vertex 0 21017.840366984925 25256.143485198765
    endloop
  endfacet
  facet normal -0.57735026918964616 -0.57735026918953469 0.57735026918969645
    outer loop
      vertex 12.98524272305189 21017.840366984925 25243.158242475714
      vertex 25.97048544610378 21017.840366984925 25256.143485198765
      vertex 12.98524272305189 21030.825609707979 25256.143485198765
    endloop
  endfacet
  facet normal 0.57735026918964616 0.57735026918953469 0.57735026918969645
    outer loop
      vertex 12.98524272305189 21030.825609707979 25256.143485198765
      vertex 25.97048544610378 21017.840366984925 25256.143485198765
      vertex 25.97048544610378 21030.825609707979 25243.158242475714
    endloop
  endfacet
  facet normal 0.57735026918964616 -0.57735026918953469 -0.57735026918969645
    outer loop
      vertex 12.98524272305189 21017.840366984925 25243.158242475714
      vertex 25.97048544610378 21030.825609707979 25243.158242475714
      vertex 25.97048544610378 21017.840366984925 25256.143485198765
    endloop
  endfacet
  facet normal -0.5773502691895922 -0.5773502691896425 -0.5773502691896425
    outer loop
      vertex 0 21017.840366984925 25256.143485198765
      vertex 12.98524272305189 21017.840366984925 25243.158242475714
      vertex 12.98524272305189 21004.855124261874 25256.143485198765
    endloop
  endfacet
  facet normal -0.57735026918964616 -0.57735026918953469 -0.57735026918969645
    outer loop
      vertex 0 21017.840366984925 25256.143485198765
      vertex 0 21030.825609707979 25243.158242475714
      vertex 12.98524272305189 21017.840366984925 25243.158242475714
    endloop
  endfacet
  facet normal -0.57735026918964616 0.57735026918953469 0.57735026918969645
    outer loop
      vertex 0 21017.840366984925 25256.143485198765
      vertex 12.98524272305189 21017.840366984925 25269.128727921816
      vertex 12.98524272305189 21030.825609707979 25256.143485198765
    endloop
  endfacet
  facet normal -0.57735026918964616 0.57735026918953469 0.57735026918969645
    outer loop
      vertex 0 21017.840366984925 25256.143485198765
      vertex 12.98524272305189 21030.825609707979 25256.143485198765
      vertex 0 21030.825609707979 25243.158242475714
    endloop
  endfacet
  facet normal -0.5773502691895922 0.5773502691896425 0.5773502691896425
    outer loop
      vertex 0 21017.840366984925 25256.143485198765
      vertex 0 21004.855124261874 25269.128727921816
      vertex 12.98524272305189 21017.840366984925 25269.128727921816
    endloop
  endfacet
  facet normal -0.5773502691895922 -0.5773502691896425 -0.5773502691896425
    outer loop
      vertex 0 21017.840366984925 25256.143485198765
      vertex 12.98524272305189 21004.855124261874 25256.143485198765
      vertex 0 21004.855124261874 25269.128727921816
    endloop
  endfacet
  facet normal 0.57735026918964616 0.57735026918953469 -0.57735026918969645
    outer loop
      vertex 12.98524272305189 21017.840366984925 25243.158242475714
      vertex 0 21030.825609707979 25243.158242475714
      vertex 12.98524272305189 21030.825609707979 25256.143485198765
    endloop
  endfacet
  facet normal -0.57735026918964616 0.57735026918953469 -0.57735026918969645
    outer loop
      vertex 12.98524272305189 21017.840366984925 25243.158242475714
      vertex 12.98524272305189 21030.825609707979 25256.143485198765
      vertex 25.97048544610378 21030.825609707979 25243.158242475714
    endloop
  endfacet
  facet normal 0.5773502691895922 -0.5773502691896425 -0.5773502691896425
    outer loop
      vertex 12.98524272305189 21017.840366984925 25243.158242475714
      vertex 25.97048544610378 21017.840366984925 25256.143485198765
      vertex 12.98524272305189 21004.855124261874 25256.143485198765
    endloop
  endfacet
  facet normal 0.57735026918964616 -0.57735026918953469 -0.57735026918969645
    outer loop
      vertex 12.98524272305189 21017.840366984925 25243.158242475714
      vertex 25.97048544610378 21030.825609707979 25243.158242475714
      vertex 25.97048544610378 21017.840366984925 25256.143485198765
    endloop
  endfacet
  facet normal 0.57735026918964616 0.57735026918953469 0.57735026918969645
    outer loop
      vertex 12.98524272305189 21030.825609707979 25256.143485198765
      vertex 12.98524272305189 21017.840366984925 25269.128727921816
      vertex 25.97048544610378 21017.840366984925 25256.143485198765
    endloop
  endfacet
  facet normal 0.57735026918964616 0.57735026918953469 0.57735026918969645
    outer loop
      vertex 12.98524272305189 21030.825609707979 25256.143485198765
      vertex 25.97048544610378 21017.840366984925 25256.143485198765
      vertex 25.97048544610378 21030.825609707979 25243.158242475714
    endloop
  endfacet
  facet normal 0.5773502691895922 -0.5773502691896425 0.5773502691896425
    outer loop
      vertex 12.98524272305189 21004.855124261874 25256.143485198765
      vertex 12.98524272305189 21017.840366984925 25269.128727921816
      vertex 0 21004.855124261874 25269.128727921816
    endloop
  endfacet
  facet normal -0.5773502691895922 -0.5773502691896425 0.5773502691896425
    outer loop
      vertex 12.98524272305189 21004.855124261874 25256.143485198765
      vertex 25.97048544610378 21004.855124261874 25269.128727921816
      vertex 12.98524272305189 21017.840366984925 25269.128727921816
    endloop
  endfacet
  facet normal 0.5773502691895922 0.5773502691896425 0.5773502691896425
    outer loop
      vertex 12.98524272305189 21017.840366984925 25269.128727921816
      vertex 25.97048544610378 21004.855124261874 25269.128727921816
      vertex 25.97048544610378 21017.840366984925 25256.143485198765
    endloop
  endfacet
  facet normal 0.5773502691895922 -0.5773502691896425 -0.5773502691896425
    outer loop
      vertex 12.98524272305189 21004.855124261874 25256.143485198765
      vertex 25.97048544610378 21017.840366984925 25256.143485198765
      vertex 25.97048544610378 21004.855124261874 25269.128727921816
    endloop
  endfacet
endsolid OBJECT
