solid OBJECT
  facet normal -0.5773502691895922 -0.5773502691896425 -0.5773502691896425
    outer loop
      vertex 0 25224.256227019636 24633.785394887353
      vertex 12.98524272305189 25224.256227019636 24620.800152164302
      vertex 12.98524272305189 25211.270984296585 24633.785394887353
    endloop
  endfacet
  facet normal -0.5773502691895922 -0.5773502691896425 -0.5773502691896425
    outer loop
      vertex 0 25224.256227019636 24633.785394887353
      vertex 0 25237.241469742687 24620.800152164302
      vertex 12.98524272305189 25224.256227019636 24620.800152164302
    endloop
  endfacet
  facet normal -0.57735026918964616 0.57735026918969645 0.57735026918953469
    outer loop
      vertex 0 25224.256227019636 24633.785394887353
      vertex 12.98524272305189 25224.256227019636 24646.770637610407
      vertex 12.98524272305189 25237.241469742687 24633.785394887353
    endloop
  endfacet
  facet normal -0.5773502691895922 0.5773502691896425 0.5773502691896425
    outer loop
      vertex 0 25224.256227019636 24633.785394887353
      vertex 12.98524272305189 25237.241469742687 24633.785394887353
      vertex 0 25237.241469742687 24620.800152164302
    endloop
  endfacet
  facet normal -0.57735026918964616 0.57735026918969645 0.57735026918953469
    outer loop
      vertex 0 25224.256227019636 24633.785394887353
      vertex 0 25211.270984296585 24646.770637610407
      vertex 12.98524272305189 25224.256227019636 24646.770637610407
    endloop
  endfacet
  facet normal -0.57735026918964616 -0.57735026918969645 -0.57735026918953469
    outer loop
      vertex 0 25224.256227019636 24633.785394887353
      vertex 12.98524272305189 25211.270984296585 24633.785394887353
      vertex 0 25211.270984296585 24646.770637610407
    endloop
  endfacet
  facet normal 0.5773502691895922 0.5773502691896425 -0.5773502691896425
    outer loop
      vertex 12.98524272305189 25224.256227019636 24620.800152164302
      vertex 0 25237.241469742687 24620.800152164302
      vertex 12.98524272305189 25237.241469742687 24633.785394887353
    endloop
  endfacet
  facet normal -0.57735026918959254 0.5773502691896425 -0.5773502691896425
    outer loop
      vertex 12.98524272305189 25224.256227019636 24620.800152164302
      vertex 12.98524272305189 25237.241469742687 24633.785394887353
      vertex 25.970485446103773 25237.241469742687 24620.800152164302
    endloop
  endfacet
  facet normal 0.57735026918959254 -0.5773502691896425 -0.5773502691896425
    outer loop
      vertex 12.98524272305189 25224.256227019636 24620.800152164302
      vertex 25.970485446103773 25224.256227019636 24633.785394887353
      vertex 12.98524272305189 25211.270984296585 24633.785394887353
    endloop
  endfacet
  facet normal 0.57735026918959254 -0.5773502691896425 -0.5773502691896425
    outer loop
      vertex 12.98524272305189 25224.256227019636 24620.800152164302
      vertex 25.970485446103773 25237.241469742687 24620.800152164302
      vertex 25.970485446103773 25224.256227019636 24633.785394887353
    endloop
  endfacet
  facet normal 0.57735026918964638 0.57735026918969634 0.57735026918953458
    outer loop
      vertex 12.98524272305189 25237.241469742687 24633.785394887353
      vertex 12.98524272305189 25224.256227019636 24646.770637610407
      vertex 25.970485446103773 25224.256227019636 24633.785394887353
    endloop
  endfacet
  facet normal 0.57735026918959254 0.5773502691896425 0.5773502691896425
    outer loop
      vertex 12.98524272305189 25237.241469742687 24633.785394887353
      vertex 25.970485446103773 25224.256227019636 24633.785394887353
      vertex 25.970485446103773 25237.241469742687 24620.800152164302
    endloop
  endfacet
  facet normal 0.57735026918964616 -0.57735026918969645 0.57735026918953469
    outer loop
      vertex 12.98524272305189 25211.270984296585 24633.785394887353
      vertex 12.98524272305189 25224.256227019636 24646.770637610407
      vertex 0 25211.270984296585 24646.770637610407
    endloop
  endfacet
  facet normal -0.57735026918964638 -0.57735026918969634 0.57735026918953458
    outer loop
      vertex 12.98524272305189 25211.270984296585 24633.785394887353
      vertex 25.970485446103773 25211.270984296585 24646.770637610407
      vertex 12.98524272305189 25224.256227019636 24646.770637610407
    endloop
  endfacet
  facet normal 0.57735026918964638 0.57735026918969634 0.57735026918953458
    outer loop
      vertex 12.98524272305189 25224.256227019636 24646.770637610407
      vertex 25.970485446103773 25211.270984296585 24646.770637610407
      vertex 25.970485446103773 25224.256227019636 24633.785394887353
    endloop
  endfacet
  facet normal 0.57735026918964638 -0.57735026918969634 -0.57735026918953458
    outer loop
      vertex 12.98524272305189 25211.270984296585 24633.785394887353
      vertex 25.970485446103773 25224.256227019636 24633.785394887353
      vertex 25.970485446103773 25211.270984296585 24646.770637610407
    endloop
  endfacet
  facet normal -0.57735026918964616 -0.57735026918953469 -0.57735026918969645
    outer loop
      vertex 0 25250.226712465741 24607.814909441251
      vertex 12.98524272305189 25250.226712465741 24594.8296667182
      vertex 12.98524272305189 25237.241469742687 24607.814909441251
    endloop
  endfacet
  facet normal -0.5773502691895922 -0.5773502691896425 -0.5773502691896425
    outer loop
      vertex 0 25250.226712465741 24607.814909441251
      vertex 0 25263.211955188792 24594.8296667182
      vertex 12.98524272305189 25250.226712465741 24594.8296667182
    endloop
  endfacet
  facet normal -0.5773502691895922 0.5773502691896425 0.5773502691896425
    outer loop
      vertex 0 25250.226712465741 24607.814909441251
      vertex 12.98524272305189 25250.226712465741 24620.800152164302
      vertex 12.98524272305189 25263.211955188792 24607.814909441251
    endloop
  endfacet
  facet normal -0.5773502691895922 0.5773502691896425 0.5773502691896425
    outer loop
      vertex 0 25250.226712465741 24607.814909441251
      vertex 12.98524272305189 25263.211955188792 24607.814909441251
      vertex 0 25263.211955188792 24594.8296667182
    endloop
  endfacet
  facet normal -0.57735026918964616 0.57735026918953469 0.57735026918969645
    outer loop
      vertex 0 25250.226712465741 24607.814909441251
      vertex 0 25237.241469742687 24620.800152164302
      vertex 12.98524272305189 25250.226712465741 24620.800152164302
    endloop
  endfacet
  facet normal -0.57735026918964616 -0.57735026918953469 -0.57735026918969645
    outer loop
      vertex 0 25250.226712465741 24607.814909441251
      vertex 12.98524272305189 25237.241469742687 24607.814909441251
      vertex 0 25237.241469742687 24620.800152164302
    endloop
  endfacet
  facet normal 0.5773502691895922 0.5773502691896425 -0.5773502691896425
    outer loop
      vertex 12.98524272305189 25250.226712465741 24594.8296667182
      vertex 0 25263.211955188792 24594.8296667182
      vertex 12.98524272305189 25263.211955188792 24607.814909441251
    endloop
  endfacet
  facet normal -0.57735026918959254 0.5773502691896425 -0.5773502691896425
    outer loop
      vertex 12.98524272305189 25250.226712465741 24594.8296667182
      vertex 12.98524272305189 25263.211955188792 24607.814909441251
      vertex 25.970485446103773 25263.211955188792 24594.8296667182
    endloop
  endfacet
  facet normal 0.57735026918964638 -0.57735026918953458 -0.57735026918969634
    outer loop
      vertex 12.98524272305189 25250.226712465741 24594.8296667182
      vertex 25.970485446103773 25250.226712465741 24607.814909441251
      vertex 12.98524272305189 25237.241469742687 24607.814909441251
    endloop
  endfacet
  facet normal 0.57735026918959254 -0.5773502691896425 -0.5773502691896425
    outer loop
      vertex 12.98524272305189 25250.226712465741 24594.8296667182
      vertex 25.970485446103773 25263.211955188792 24594.8296667182
      vertex 25.970485446103773 25250.226712465741 24607.814909441251
    endloop
  endfacet
  facet normal 0.57735026918959254 0.5773502691896425 0.5773502691896425
    outer loop
      vertex 12.98524272305189 25263.211955188792 24607.814909441251
      vertex 12.98524272305189 25250.226712465741 24620.800152164302
      vertex 25.970485446103773 25250.226712465741 24607.814909441251
    endloop
  endfacet
  facet normal 0.57735026918959254 0.5773502691896425 0.5773502691896425
    outer loop
      vertex 12.98524272305189 25263.211955188792 24607.814909441251
      vertex 25.970485446103773 25250.226712465741 24607.814909441251
      vertex 25.970485446103773 25263.211955188792 24594.8296667182
    endloop
  endfacet
  facet normal 0.57735026918964616 -0.57735026918953469 0.57735026918969645
    outer loop
      vertex 12.98524272305189 25237.241469742687 24607.814909441251
      vertex 12.98524272305189 25250.226712465741 24620.800152164302
      vertex 0 25237.241469742687 24620.800152164302
    endloop
  endfacet
  facet normal -0.57735026918964638 -0.57735026918953458 0.57735026918969634
    outer loop
      vertex 12.98524272305189 25237.241469742687 24607.814909441251
      vertex 25.970485446103773 25237.241469742687 24620.800152164302
      vertex 12.98524272305189 25250.226712465741 24620.800152164302
    endloop
  endfacet
  facet normal 0.57735026918964638 0.57735026918953458 0.57735026918969634
    outer loop
      vertex 12.98524272305189 25250.226712465741 24620.800152164302
      vertex 25.970485446103773 25237.241469742687 24620.800152164302
      vertex 25.970485446103773 25250.226712465741 24607.814909441251
    endloop
  endfacet
  facet normal 0.57735026918964638 -0.57735026918953458 -0.57735026918969634
    outer loop
      vertex 12.98524272305189 25237.241469742687 24607.814909441251
      vertex 25.970485446103773 25250.226712465741 24607.814909441251
      vertex 25.970485446103773 25237.241469742687 24620.800152164302
    endloop
  endfacet
  facet normal -0.5773502691895922 -0.5773502691896425 -0.5773502691896425
    outer loop
      vertex 0 25237.241469742687 24620.800152164302
      vertex 12.98524272305189 25237.241469742687 24607.814909441251
      vertex 12.98524272305189 25224.256227019636 24620.800152164302
    endloop
  endfacet
  facet normal -0.57735026918964616 -0.57735026918953469 -0.57735026918969645
    outer loop
      vertex 0 25237.241469742687 24620.800152164302
      vertex 0 25250.226712465741 24607.814909441251
      vertex 12.98524272305189 25237.241469742687 24607.814909441251
    endloop
  endfacet
  facet normal -0.57735026918964616 0.57735026918953469 0.57735026918969645
    outer loop
      vertex 0 25237.241469742687 24620.800152164302
      vertex 12.98524272305189 25237.241469742687 24633.785394887353
      vertex 12.98524272305189 25250.226712465741 24620.800152164302
    endloop
  endfacet
  facet normal -0.57735026918964616 0.57735026918953469 0.57735026918969645
    outer loop
      vertex 0 25237.241469742687 24620.800152164302
      vertex 12.98524272305189 25250.226712465741 24620.800152164302
      vertex 0 25250.226712465741 24607.814909441251
    endloop
  endfacet
  facet normal -0.5773502691895922 0.5773502691896425 0.5773502691896425
    outer loop
      vertex 0 25237.241469742687 24620.800152164302
      vertex 0 25224.256227019636 24633.785394887353
      vertex 12.98524272305189 25237.241469742687 24633.785394887353
    endloop
  endfacet
  facet normal -0.5773502691895922 -0.5773502691896425 -0.5773502691896425
    outer loop
      vertex 0 25237.241469742687 24620.800152164302
      vertex 12.98524272305189 25224.256227019636 24620.800152164302
      vertex 0 25224.256227019636 24633.785394887353
    endloop
  endfacet
  facet normal 0.57735026918964616 0.57735026918953469 -0.57735026918969645
    outer loop
      vertex 12.98524272305189 25237.241469742687 24607.814909441251
      vertex 0 25250.226712465741 24607.814909441251
      vertex 12.98524272305189 25250.226712465741 24620.800152164302
    endloop
  endfacet
  facet normal -0.57735026918964638 0.57735026918953458 -0.57735026918969634
    outer loop
      vertex 12.98524272305189 25237.241469742687 24607.814909441251
      vertex 12.98524272305189 25250.226712465741 24620.800152164302
      vertex 25.970485446103773 25250.226712465741 24607.814909441251
    endloop
  endfacet
  facet normal 0.57735026918959254 -0.5773502691896425 -0.5773502691896425
    outer loop
      vertex 12.98524272305189 25237.241469742687 24607.814909441251
      vertex 25.970485446103773 25237.241469742687 24620.800152164302
      vertex 12.98524272305189 25224.256227019636 24620.800152164302
    endloop
  endfacet
  facet normal 0.57735026918964638 -0.57735026918953458 -0.57735026918969634
    outer loop
      vertex 12.98524272305189 25237.241469742687 24607.814909441251
      vertex 25.970485446103773 25250.226712465741 24607.814909441251
      vertex 25.970485446103773 25237.241469742687 24620.800152164302
    endloop
  endfacet
  facet normal 0.57735026918964638 0.57735026918953458 0.57735026918969634
    outer loop
      vertex 12.98524272305189 25250.226712465741 24620.800152164302
      vertex 12.98524272305189 25237.241469742687 24633.785394887353
      vertex 25.970485446103773 25237.241469742687 24620.800152164302
    endloop
  endfacet
  facet normal 0.57735026918964638 0.57735026918953458 0.57735026918969634
    outer loop
      vertex 12.98524272305189 25250.226712465741 24620.800152164302
      vertex 25.970485446103773 25237.241469742687 24620.800152164302
      vertex 25.970485446103773 25250.226712465741 24607.814909441251
    endloop
  endfacet
  facet normal 0.5773502691895922 -0.5773502691896425 0.5773502691896425
    outer loop
      vertex 12.98524272305189 25224.256227019636 24620.800152164302
      vertex 12.98524272305189 25237.241469742687 24633.785394887353
      vertex 0 25224.256227019636 24633.785394887353
    endloop
  endfacet
  facet normal -0.57735026918959254 -0.5773502691896425 0.5773502691896425
    outer loop
      vertex 12.98524272305189 25224.256227019636 24620.800152164302
      vertex 25.970485446103773 25224.256227019636 24633.785394887353
      vertex 12.98524272305189 25237.241469742687 24633.785394887353
    endloop
  endfacet
  facet normal 0.57735026918959254 0.5773502691896425 0.5773502691896425
    outer loop
      vertex 12.98524272305189 25237.241469742687 24633.785394887353
      vertex 25.970485446103773 25224.256227019636 24633.785394887353
      vertex 25.970485446103773 25237.241469742687 24620.800152164302
    endloop
  endfacet
  facet normal 0.57735026918959254 -0.5773502691896425 -0.5773502691896425
    outer loop
      vertex 12.98524272305189 25224.256227019636 24620.800152164302
      vertex 25.970485446103773 25237.241469742687 24620.800152164302
      vertex 25.970485446103773 25224.256227019636 24633.785394887353
    endloop
  endfacet
  facet normal -0.5773502691895922 -0.5773502691896425 0.5773502691896425
    outer loop
      vertex 0 25211.270984296585 24646.770637610407
      vertex 12.98524272305189 25198.285741573534 24646.770637610407
      vertex 12.98524272305189 25211.270984296585 24659.755880333458
    endloop
  endfacet
  facet normal -0.57735026918964616 -0.57735026918969645 0.57735026918953469
    outer loop
      vertex 0 25211.270984296585 24646.770637610407
      vertex 0 25198.285741573534 24633.785394887353
      vertex 12.98524272305189 25198.285741573534 24646.770637610407
    endloop
  endfacet
  facet normal -0.57735026918964616 0.57735026918969645 -0.57735026918953469
    outer loop
      vertex 0 25211.270984296585 24646.770637610407
      vertex 12.98524272305189 25224.256227019636 24646.770637610407
      vertex 12.98524272305189 25211.270984296585 24633.785394887353
    endloop
  endfacet
  facet normal -0.57735026918964616 0.57735026918969645 -0.57735026918953469
    outer loop
      vertex 0 25211.270984296585 24646.770637610407
      vertex 12.98524272305189 25211.270984296585 24633.785394887353
      vertex 0 25198.285741573534 24633.785394887353
    endloop
  endfacet
  facet normal -0.5773502691895922 0.5773502691896425 -0.5773502691896425
    outer loop
      vertex 0 25211.270984296585 24646.770637610407
      vertex 0 25224.256227019636 24659.755880333458
      vertex 12.98524272305189 25224.256227019636 24646.770637610407
    endloop
  endfacet
  facet normal -0.5773502691895922 -0.5773502691896425 0.5773502691896425
    outer loop
      vertex 0 25211.270984296585 24646.770637610407
      vertex 12.98524272305189 25211.270984296585 24659.755880333458
      vertex 0 25224.256227019636 24659.755880333458
    endloop
  endfacet
  facet normal 0.57735026918964616 -0.57735026918969645 -0.57735026918953469
    outer loop
      vertex 12.98524272305189 25198.285741573534 24646.770637610407
      vertex 0 25198.285741573534 24633.785394887353
      vertex 12.98524272305189 25211.270984296585 24633.785394887353
    endloop
  endfacet
  facet normal -0.57735026918964638 -0.57735026918969634 -0.57735026918953458
    outer loop
      vertex 12.98524272305189 25198.285741573534 24646.770637610407
      vertex 12.98524272305189 25211.270984296585 24633.785394887353
      vertex 25.970485446103773 25198.285741573534 24633.785394887353
    endloop
  endfacet
  facet normal 0.57735026918959254 -0.5773502691896425 0.5773502691896425
    outer loop
      vertex 12.98524272305189 25198.285741573534 24646.770637610407
      vertex 25.970485446103773 25211.270984296585 24646.770637610407
      vertex 12.98524272305189 25211.270984296585 24659.755880333458
    endloop
  endfacet
  facet normal 0.57735026918964638 -0.57735026918969634 0.57735026918953458
    outer loop
      vertex 12.98524272305189 25198.285741573534 24646.770637610407
      vertex 25.970485446103773 25198.285741573534 24633.785394887353
      vertex 25.970485446103773 25211.270984296585 24646.770637610407
    endloop
  endfacet
  facet normal 0.57735026918964638 0.57735026918969634 -0.57735026918953458
    outer loop
      vertex 12.98524272305189 25211.270984296585 24633.785394887353
      vertex 12.98524272305189 25224.256227019636 24646.770637610407
      vertex 25.970485446103773 25211.270984296585 24646.770637610407
    endloop
  endfacet
  facet normal 0.57735026918964638 0.57735026918969634 -0.57735026918953458
    outer loop
      vertex 12.98524272305189 25211.270984296585 24633.785394887353
      vertex 25.970485446103773 25211.270984296585 24646.770637610407
      vertex 25.970485446103773 25198.285741573534 24633.785394887353
    endloop
  endfacet
  facet normal 0.5773502691895922 0.5773502691896425 0.5773502691896425
    outer loop
      vertex 12.98524272305189 25211.270984296585 24659.755880333458
      vertex 12.98524272305189 25224.256227019636 24646.770637610407
      vertex 0 25224.256227019636 24659.755880333458
    endloop
  endfacet
  facet normal -0.57735026918959254 0.5773502691896425 0.5773502691896425
    outer loop
      vertex 12.98524272305189 25211.270984296585 24659.755880333458
      vertex 25.970485446103773 25224.256227019636 24659.755880333458
      vertex 12.98524272305189 25224.256227019636 24646.770637610407
    endloop
  endfacet
  facet normal 0.57735026918959254 0.5773502691896425 -0.5773502691896425
    outer loop
      vertex 12.98524272305189 25224.256227019636 24646.770637610407
      vertex 25.970485446103773 25224.256227019636 24659.755880333458
      vertex 25.970485446103773 25211.270984296585 24646.770637610407
    endloop
  endfacet
  facet normal 0.57735026918959254 -0.5773502691896425 0.5773502691896425
    outer loop
      vertex 12.98524272305189 25211.270984296585 24659.755880333458
      vertex 25.970485446103773 25211.270984296585 24646.770637610407
      vertex 25.970485446103773 25224.256227019636 24659.755880333458
    endloop
  endfacet
  facet normal -0.57735026918970012 -0.57735026918958854 0.57735026918958854
    outer loop
      vertex 0 25198.285741573534 24633.785394887353
      vertex 12.98524272305189 25185.30049885048 24633.785394887353
      vertex 12.98524272305189 25198.285741573534 24646.770637610407
    endloop
  endfacet
  facet normal -0.57735026918964616 -0.57735026918953469 0.57735026918969645
    outer loop
      vertex 0 25198.285741573534 24633.785394887353
      vertex 0 25185.30049885048 24620.800152164302
      vertex 12.98524272305189 25185.30049885048 24633.785394887353
    endloop
  endfacet
  facet normal -0.5773502691895922 0.5773502691896425 -0.5773502691896425
    outer loop
      vertex 0 25198.285741573534 24633.785394887353
      vertex 12.98524272305189 25211.270984296585 24633.785394887353
      vertex 12.98524272305189 25198.285741573534 24620.800152164302
    endloop
  endfacet
  facet normal -0.57735026918964616 0.57735026918953469 -0.57735026918969645
    outer loop
      vertex 0 25198.285741573534 24633.785394887353
      vertex 12.98524272305189 25198.285741573534 24620.800152164302
      vertex 0 25185.30049885048 24620.800152164302
    endloop
  endfacet
  facet normal -0.57735026918964616 0.57735026918969645 -0.57735026918953469
    outer loop
      vertex 0 25198.285741573534 24633.785394887353
      vertex 0 25211.270984296585 24646.770637610407
      vertex 12.98524272305189 25211.270984296585 24633.785394887353
    endloop
  endfacet
  facet normal -0.57735026918964616 -0.57735026918969645 0.57735026918953469
    outer loop
      vertex 0 25198.285741573534 24633.785394887353
      vertex 12.98524272305189 25198.285741573534 24646.770637610407
      vertex 0 25211.270984296585 24646.770637610407
    endloop
  endfacet
  facet normal 0.57735026918964616 -0.57735026918953469 -0.57735026918969645
    outer loop
      vertex 12.98524272305189 25185.30049885048 24633.785394887353
      vertex 0 25185.30049885048 24620.800152164302
      vertex 12.98524272305189 25198.285741573534 24620.800152164302
    endloop
  endfacet
  facet normal -0.57735026918964638 -0.57735026918953458 -0.57735026918969634
    outer loop
      vertex 12.98524272305189 25185.30049885048 24633.785394887353
      vertex 12.98524272305189 25198.285741573534 24620.800152164302
      vertex 25.970485446103773 25185.30049885048 24620.800152164302
    endloop
  endfacet
  facet normal 0.57735026918970023 -0.57735026918958843 0.57735026918958843
    outer loop
      vertex 12.98524272305189 25185.30049885048 24633.785394887353
      vertex 25.970485446103773 25198.285741573534 24633.785394887353
      vertex 12.98524272305189 25198.285741573534 24646.770637610407
    endloop
  endfacet
  facet normal 0.57735026918964638 -0.57735026918953458 0.57735026918969634
    outer loop
      vertex 12.98524272305189 25185.30049885048 24633.785394887353
      vertex 25.970485446103773 25185.30049885048 24620.800152164302
      vertex 25.970485446103773 25198.285741573534 24633.785394887353
    endloop
  endfacet
  facet normal 0.57735026918959254 0.5773502691896425 -0.5773502691896425
    outer loop
      vertex 12.98524272305189 25198.285741573534 24620.800152164302
      vertex 12.98524272305189 25211.270984296585 24633.785394887353
      vertex 25.970485446103773 25198.285741573534 24633.785394887353
    endloop
  endfacet
  facet normal 0.57735026918964638 0.57735026918953458 -0.57735026918969634
    outer loop
      vertex 12.98524272305189 25198.285741573534 24620.800152164302
      vertex 25.970485446103773 25198.285741573534 24633.785394887353
      vertex 25.970485446103773 25185.30049885048 24620.800152164302
    endloop
  endfacet
  facet normal 0.57735026918964616 0.57735026918969645 0.57735026918953469
    outer loop
      vertex 12.98524272305189 25198.285741573534 24646.770637610407
      vertex 12.98524272305189 25211.270984296585 24633.785394887353
      vertex 0 25211.270984296585 24646.770637610407
    endloop
  endfacet
  facet normal -0.57735026918964638 0.57735026918969634 0.57735026918953458
    outer loop
      vertex 12.98524272305189 25198.285741573534 24646.770637610407
      vertex 25.970485446103773 25211.270984296585 24646.770637610407
      vertex 12.98524272305189 25211.270984296585 24633.785394887353
    endloop
  endfacet
  facet normal 0.57735026918964638 0.57735026918969634 -0.57735026918953458
    outer loop
      vertex 12.98524272305189 25211.270984296585 24633.785394887353
      vertex 25.970485446103773 25211.270984296585 24646.770637610407
      vertex 25.970485446103773 25198.285741573534 24633.785394887353
    endloop
  endfacet
  facet normal 0.57735026918964638 -0.57735026918969634 0.57735026918953458
    outer loop
      vertex 12.98524272305189 25198.285741573534 24646.770637610407
      vertex 25.970485446103773 25198.285741573534 24633.785394887353
      vertex 25.970485446103773 25211.270984296585 24646.770637610407
    endloop
  endfacet
  facet normal -0.5773502691895922 -0.5773502691896425 0.5773502691896425
    outer loop
      vertex 0 25185.30049885048 24620.800152164302
      vertex 12.98524272305189 25172.315256127429 24620.800152164302
      vertex 12.98524272305189 25185.30049885048 24633.785394887353
    endloop
  endfacet
  facet normal -0.5773502691895922 -0.5773502691896425 0.5773502691896425
    outer loop
      vertex 0 25185.30049885048 24620.800152164302
      vertex 0 25172.315256127429 24607.814909441251
      vertex 12.98524272305189 25172.315256127429 24620.800152164302
    endloop
  endfacet
  facet normal -0.57735026918964616 0.57735026918953469 -0.57735026918969645
    outer loop
      vertex 0 25185.30049885048 24620.800152164302
      vertex 12.98524272305189 25198.285741573534 24620.800152164302
      vertex 12.98524272305189 25185.30049885048 24607.814909441251
    endloop
  endfacet
  facet normal -0.5773502691895922 0.5773502691896425 -0.5773502691896425
    outer loop
      vertex 0 25185.30049885048 24620.800152164302
      vertex 12.98524272305189 25185.30049885048 24607.814909441251
      vertex 0 25172.315256127429 24607.814909441251
    endloop
  endfacet
  facet normal -0.57735026918964616 0.57735026918953469 -0.57735026918969645
    outer loop
      vertex 0 25185.30049885048 24620.800152164302
      vertex 0 25198.285741573534 24633.785394887353
      vertex 12.98524272305189 25198.285741573534 24620.800152164302
    endloop
  endfacet
  facet normal -0.57735026918964616 -0.57735026918953469 0.57735026918969645
    outer loop
      vertex 0 25185.30049885048 24620.800152164302
      vertex 12.98524272305189 25185.30049885048 24633.785394887353
      vertex 0 25198.285741573534 24633.785394887353
    endloop
  endfacet
  facet normal 0.5773502691895922 -0.5773502691896425 -0.5773502691896425
    outer loop
      vertex 12.98524272305189 25172.315256127429 24620.800152164302
      vertex 0 25172.315256127429 24607.814909441251
      vertex 12.98524272305189 25185.30049885048 24607.814909441251
    endloop
  endfacet
  facet normal -0.57735026918959254 -0.5773502691896425 -0.5773502691896425
    outer loop
      vertex 12.98524272305189 25172.315256127429 24620.800152164302
      vertex 12.98524272305189 25185.30049885048 24607.814909441251
      vertex 25.970485446103773 25172.315256127429 24607.814909441251
    endloop
  endfacet
  facet normal 0.57735026918959254 -0.5773502691896425 0.5773502691896425
    outer loop
      vertex 12.98524272305189 25172.315256127429 24620.800152164302
      vertex 25.970485446103773 25185.30049885048 24620.800152164302
      vertex 12.98524272305189 25185.30049885048 24633.785394887353
    endloop
  endfacet
  facet normal 0.57735026918959254 -0.5773502691896425 0.5773502691896425
    outer loop
      vertex 12.98524272305189 25172.315256127429 24620.800152164302
      vertex 25.970485446103773 25172.315256127429 24607.814909441251
      vertex 25.970485446103773 25185.30049885048 24620.800152164302
    endloop
  endfacet
  facet normal 0.57735026918964638 0.57735026918953458 -0.57735026918969634
    outer loop
      vertex 12.98524272305189 25185.30049885048 24607.814909441251
      vertex 12.98524272305189 25198.285741573534 24620.800152164302
      vertex 25.970485446103773 25185.30049885048 24620.800152164302
    endloop
  endfacet
  facet normal 0.57735026918959254 0.5773502691896425 -0.5773502691896425
    outer loop
      vertex 12.98524272305189 25185.30049885048 24607.814909441251
      vertex 25.970485446103773 25185.30049885048 24620.800152164302
      vertex 25.970485446103773 25172.315256127429 24607.814909441251
    endloop
  endfacet
  facet normal 0.57735026918964616 0.57735026918953469 0.57735026918969645
    outer loop
      vertex 12.98524272305189 25185.30049885048 24633.785394887353
      vertex 12.98524272305189 25198.285741573534 24620.800152164302
      vertex 0 25198.285741573534 24633.785394887353
    endloop
  endfacet
  facet normal -0.57735026918964638 0.57735026918953458 0.57735026918969634
    outer loop
      vertex 12.98524272305189 25185.30049885048 24633.785394887353
      vertex 25.970485446103773 25198.285741573534 24633.785394887353
      vertex 12.98524272305189 25198.285741573534 24620.800152164302
    endloop
  endfacet
  facet normal 0.57735026918964638 0.57735026918953458 -0.57735026918969634
    outer loop
      vertex 12.98524272305189 25198.285741573534 24620.800152164302
      vertex 25.970485446103773 25198.285741573534 24633.785394887353
      vertex 25.970485446103773 25185.30049885048 24620.800152164302
    endloop
  endfacet
  facet normal 0.57735026918964638 -0.57735026918953458 0.57735026918969634
    outer loop
      vertex 12.98524272305189 25185.30049885048 24633.785394887353
      vertex 25.970485446103773 25185.30049885048 24620.800152164302
      vertex 25.970485446103773 25198.285741573534 24633.785394887353
    endloop
  endfacet
  facet normal -0.57735026918964616 -0.57735026918953469 -0.57735026918969645
    outer loop
      vertex 0 25198.285741573534 24581.844423995146
      vertex 12.98524272305189 25198.285741573534 24568.859181272095
      vertex 12.98524272305189 25185.30049885048 24581.844423995146
    endloop
  endfacet
  facet normal -0.5773502691895922 -0.5773502691896425 -0.5773502691896425
    outer loop
      vertex 0 25198.285741573534 24581.844423995146
      vertex 0 25211.270984296585 24568.859181272095
      vertex 12.98524272305189 25198.285741573534 24568.859181272095
    endloop
  endfacet
  facet normal -0.57735026918964616 0.57735026918969645 0.57735026918953469
    outer loop
      vertex 0 25198.285741573534 24581.844423995146
      vertex 12.98524272305189 25198.285741573534 24594.8296667182
      vertex 12.98524272305189 25211.270984296585 24581.844423995146
    endloop
  endfacet
  facet normal -0.5773502691895922 0.5773502691896425 0.5773502691896425
    outer loop
      vertex 0 25198.285741573534 24581.844423995146
      vertex 12.98524272305189 25211.270984296585 24581.844423995146
      vertex 0 25211.270984296585 24568.859181272095
    endloop
  endfacet
  facet normal -0.57735026918970012 0.57735026918958854 0.57735026918958854
    outer loop
      vertex 0 25198.285741573534 24581.844423995146
      vertex 0 25185.30049885048 24594.8296667182
      vertex 12.98524272305189 25198.285741573534 24594.8296667182
    endloop
  endfacet
  facet normal -0.57735026918970012 -0.57735026918958854 -0.57735026918958854
    outer loop
      vertex 0 25198.285741573534 24581.844423995146
      vertex 12.98524272305189 25185.30049885048 24581.844423995146
      vertex 0 25185.30049885048 24594.8296667182
    endloop
  endfacet
  facet normal 0.5773502691895922 0.5773502691896425 -0.5773502691896425
    outer loop
      vertex 12.98524272305189 25198.285741573534 24568.859181272095
      vertex 0 25211.270984296585 24568.859181272095
      vertex 12.98524272305189 25211.270984296585 24581.844423995146
    endloop
  endfacet
  facet normal -0.57735026918959254 0.5773502691896425 -0.5773502691896425
    outer loop
      vertex 12.98524272305189 25198.285741573534 24568.859181272095
      vertex 12.98524272305189 25211.270984296585 24581.844423995146
      vertex 25.970485446103773 25211.270984296585 24568.859181272095
    endloop
  endfacet
  facet normal 0.57735026918964638 -0.57735026918953458 -0.57735026918969634
    outer loop
      vertex 12.98524272305189 25198.285741573534 24568.859181272095
      vertex 25.970485446103773 25198.285741573534 24581.844423995146
      vertex 12.98524272305189 25185.30049885048 24581.844423995146
    endloop
  endfacet
  facet normal 0.57735026918959254 -0.5773502691896425 -0.5773502691896425
    outer loop
      vertex 12.98524272305189 25198.285741573534 24568.859181272095
      vertex 25.970485446103773 25211.270984296585 24568.859181272095
      vertex 25.970485446103773 25198.285741573534 24581.844423995146
    endloop
  endfacet
  facet normal 0.57735026918964638 0.57735026918969634 0.57735026918953458
    outer loop
      vertex 12.98524272305189 25211.270984296585 24581.844423995146
      vertex 12.98524272305189 25198.285741573534 24594.8296667182
      vertex 25.970485446103773 25198.285741573534 24581.844423995146
    endloop
  endfacet
  facet normal 0.57735026918959254 0.5773502691896425 0.5773502691896425
    outer loop
      vertex 12.98524272305189 25211.270984296585 24581.844423995146
      vertex 25.970485446103773 25198.285741573534 24581.844423995146
      vertex 25.970485446103773 25211.270984296585 24568.859181272095
    endloop
  endfacet
  facet normal 0.57735026918970012 -0.57735026918958854 0.57735026918958854
    outer loop
      vertex 12.98524272305189 25185.30049885048 24581.844423995146
      vertex 12.98524272305189 25198.285741573534 24594.8296667182
      vertex 0 25185.30049885048 24594.8296667182
    endloop
  endfacet
  facet normal -0.57735026918970023 -0.57735026918958843 0.57735026918958843
    outer loop
      vertex 12.98524272305189 25185.30049885048 24581.844423995146
      vertex 25.970485446103773 25185.30049885048 24594.8296667182
      vertex 12.98524272305189 25198.285741573534 24594.8296667182
    endloop
  endfacet
  facet normal 0.57735026918970023 0.57735026918958843 0.57735026918958843
    outer loop
      vertex 12.98524272305189 25198.285741573534 24594.8296667182
      vertex 25.970485446103773 25185.30049885048 24594.8296667182
      vertex 25.970485446103773 25198.285741573534 24581.844423995146
    endloop
  endfacet
  facet normal 0.57735026918970023 -0.57735026918958843 -0.57735026918958843
    outer loop
      vertex 12.98524272305189 25185.30049885048 24581.844423995146
      vertex 25.970485446103773 25198.285741573534 24581.844423995146
      vertex 25.970485446103773 25185.30049885048 24594.8296667182
    endloop
  endfacet
  facet normal -0.57735026918964616 -0.57735026918969645 -0.57735026918953469
    outer loop
      vertex 0 25185.30049885048 24594.8296667182
      vertex 12.98524272305189 25185.30049885048 24581.844423995146
      vertex 12.98524272305189 25172.315256127429 24594.8296667182
    endloop
  endfacet
  facet normal -0.57735026918970012 -0.57735026918958854 -0.57735026918958854
    outer loop
      vertex 0 25185.30049885048 24594.8296667182
      vertex 0 25198.285741573534 24581.844423995146
      vertex 12.98524272305189 25185.30049885048 24581.844423995146
    endloop
  endfacet
  facet normal -0.57735026918964616 0.57735026918953469 0.57735026918969645
    outer loop
      vertex 0 25185.30049885048 24594.8296667182
      vertex 12.98524272305189 25185.30049885048 24607.814909441251
      vertex 12.98524272305189 25198.285741573534 24594.8296667182
    endloop
  endfacet
  facet normal -0.57735026918970012 0.57735026918958854 0.57735026918958854
    outer loop
      vertex 0 25185.30049885048 24594.8296667182
      vertex 12.98524272305189 25198.285741573534 24594.8296667182
      vertex 0 25198.285741573534 24581.844423995146
    endloop
  endfacet
  facet normal -0.5773502691895922 0.5773502691896425 0.5773502691896425
    outer loop
      vertex 0 25185.30049885048 24594.8296667182
      vertex 0 25172.315256127429 24607.814909441251
      vertex 12.98524272305189 25185.30049885048 24607.814909441251
    endloop
  endfacet
  facet normal -0.5773502691895922 -0.5773502691896425 -0.5773502691896425
    outer loop
      vertex 0 25185.30049885048 24594.8296667182
      vertex 12.98524272305189 25172.315256127429 24594.8296667182
      vertex 0 25172.315256127429 24607.814909441251
    endloop
  endfacet
  facet normal 0.57735026918970012 0.57735026918958854 -0.57735026918958854
    outer loop
      vertex 12.98524272305189 25185.30049885048 24581.844423995146
      vertex 0 25198.285741573534 24581.844423995146
      vertex 12.98524272305189 25198.285741573534 24594.8296667182
    endloop
  endfacet
  facet normal -0.57735026918970023 0.57735026918958843 -0.57735026918958843
    outer loop
      vertex 12.98524272305189 25185.30049885048 24581.844423995146
      vertex 12.98524272305189 25198.285741573534 24594.8296667182
      vertex 25.970485446103773 25198.285741573534 24581.844423995146
    endloop
  endfacet
  facet normal 0.57735026918964638 -0.57735026918969634 -0.57735026918953458
    outer loop
      vertex 12.98524272305189 25185.30049885048 24581.844423995146
      vertex 25.970485446103773 25185.30049885048 24594.8296667182
      vertex 12.98524272305189 25172.315256127429 24594.8296667182
    endloop
  endfacet
  facet normal 0.57735026918970023 -0.57735026918958843 -0.57735026918958843
    outer loop
      vertex 12.98524272305189 25185.30049885048 24581.844423995146
      vertex 25.970485446103773 25198.285741573534 24581.844423995146
      vertex 25.970485446103773 25185.30049885048 24594.8296667182
    endloop
  endfacet
  facet normal 0.57735026918964638 0.57735026918953458 0.57735026918969634
    outer loop
      vertex 12.98524272305189 25198.285741573534 24594.8296667182
      vertex 12.98524272305189 25185.30049885048 24607.814909441251
      vertex 25.970485446103773 25185.30049885048 24594.8296667182
    endloop
  endfacet
  facet normal 0.57735026918970023 0.57735026918958843 0.57735026918958843
    outer loop
      vertex 12.98524272305189 25198.285741573534 24594.8296667182
      vertex 25.970485446103773 25185.30049885048 24594.8296667182
      vertex 25.970485446103773 25198.285741573534 24581.844423995146
    endloop
  endfacet
  facet normal 0.5773502691895922 -0.5773502691896425 0.5773502691896425
    outer loop
      vertex 12.98524272305189 25172.315256127429 24594.8296667182
      vertex 12.98524272305189 25185.30049885048 24607.814909441251
      vertex 0 25172.315256127429 24607.814909441251
    endloop
  endfacet
  facet normal -0.57735026918959254 -0.5773502691896425 0.5773502691896425
    outer loop
      vertex 12.98524272305189 25172.315256127429 24594.8296667182
      vertex 25.970485446103773 25172.315256127429 24607.814909441251
      vertex 12.98524272305189 25185.30049885048 24607.814909441251
    endloop
  endfacet
  facet normal 0.57735026918959254 0.5773502691896425 0.5773502691896425
    outer loop
      vertex 12.98524272305189 25185.30049885048 24607.814909441251
      vertex 25.970485446103773 25172.315256127429 24607.814909441251
      vertex 25.970485446103773 25185.30049885048 24594.8296667182
    endloop
  endfacet
  facet normal 0.57735026918959254 -0.5773502691896425 -0.5773502691896425
    outer loop
      vertex 12.98524272305189 25172.315256127429 24594.8296667182
      vertex 25.970485446103773 25185.30049885048 24594.8296667182
      vertex 25.970485446103773 25172.315256127429 24607.814909441251
    endloop
  endfacet
  facet normal -0.5773502691895922 -0.5773502691896425 -0.5773502691896425
    outer loop
      vertex 0 25172.315256127429 24607.814909441251
      vertex 12.98524272305189 25172.315256127429 24594.8296667182
      vertex 12.98524272305189 25159.330013404378 24607.814909441251
    endloop
  endfacet
  facet normal -0.5773502691895922 -0.5773502691896425 -0.5773502691896425
    outer loop
      vertex 0 25172.315256127429 24607.814909441251
      vertex 0 25185.30049885048 24594.8296667182
      vertex 12.98524272305189 25172.315256127429 24594.8296667182
    endloop
  endfacet
  facet normal -0.5773502691895922 0.5773502691896425 0.5773502691896425
    outer loop
      vertex 0 25172.315256127429 24607.814909441251
      vertex 12.98524272305189 25172.315256127429 24620.800152164302
      vertex 12.98524272305189 25185.30049885048 24607.814909441251
    endloop
  endfacet
  facet normal -0.5773502691895922 0.5773502691896425 0.5773502691896425
    outer loop
      vertex 0 25172.315256127429 24607.814909441251
      vertex 12.98524272305189 25185.30049885048 24607.814909441251
      vertex 0 25185.30049885048 24594.8296667182
    endloop
  endfacet
  facet normal -0.5773502691895922 0.5773502691896425 0.5773502691896425
    outer loop
      vertex 0 25172.315256127429 24607.814909441251
      vertex 0 25159.330013404378 24620.800152164302
      vertex 12.98524272305189 25172.315256127429 24620.800152164302
    endloop
  endfacet
  facet normal -0.5773502691895922 -0.5773502691896425 -0.5773502691896425
    outer loop
      vertex 0 25172.315256127429 24607.814909441251
      vertex 12.98524272305189 25159.330013404378 24607.814909441251
      vertex 0 25159.330013404378 24620.800152164302
    endloop
  endfacet
  facet normal 0.5773502691895922 0.5773502691896425 -0.5773502691896425
    outer loop
      vertex 12.98524272305189 25172.315256127429 24594.8296667182
      vertex 0 25185.30049885048 24594.8296667182
      vertex 12.98524272305189 25185.30049885048 24607.814909441251
    endloop
  endfacet
  facet normal -0.57735026918959254 0.5773502691896425 -0.5773502691896425
    outer loop
      vertex 12.98524272305189 25172.315256127429 24594.8296667182
      vertex 12.98524272305189 25185.30049885048 24607.814909441251
      vertex 25.970485446103773 25185.30049885048 24594.8296667182
    endloop
  endfacet
  facet normal 0.57735026918959254 -0.5773502691896425 -0.5773502691896425
    outer loop
      vertex 12.98524272305189 25172.315256127429 24594.8296667182
      vertex 25.970485446103773 25172.315256127429 24607.814909441251
      vertex 12.98524272305189 25159.330013404378 24607.814909441251
    endloop
  endfacet
  facet normal 0.57735026918959254 -0.5773502691896425 -0.5773502691896425
    outer loop
      vertex 12.98524272305189 25172.315256127429 24594.8296667182
      vertex 25.970485446103773 25185.30049885048 24594.8296667182
      vertex 25.970485446103773 25172.315256127429 24607.814909441251
    endloop
  endfacet
  facet normal 0.57735026918959254 0.5773502691896425 0.5773502691896425
    outer loop
      vertex 12.98524272305189 25185.30049885048 24607.814909441251
      vertex 12.98524272305189 25172.315256127429 24620.800152164302
      vertex 25.970485446103773 25172.315256127429 24607.814909441251
    endloop
  endfacet
  facet normal 0.57735026918959254 0.5773502691896425 0.5773502691896425
    outer loop
      vertex 12.98524272305189 25185.30049885048 24607.814909441251
      vertex 25.970485446103773 25172.315256127429 24607.814909441251
      vertex 25.970485446103773 25185.30049885048 24594.8296667182
    endloop
  endfacet
  facet normal 0.5773502691895922 -0.5773502691896425 0.5773502691896425
    outer loop
      vertex 12.98524272305189 25159.330013404378 24607.814909441251
      vertex 12.98524272305189 25172.315256127429 24620.800152164302
      vertex 0 25159.330013404378 24620.800152164302
    endloop
  endfacet
  facet normal -0.57735026918959254 -0.5773502691896425 0.5773502691896425
    outer loop
      vertex 12.98524272305189 25159.330013404378 24607.814909441251
      vertex 25.970485446103773 25159.330013404378 24620.800152164302
      vertex 12.98524272305189 25172.315256127429 24620.800152164302
    endloop
  endfacet
  facet normal 0.57735026918959254 0.5773502691896425 0.5773502691896425
    outer loop
      vertex 12.98524272305189 25172.315256127429 24620.800152164302
      vertex 25.970485446103773 25159.330013404378 24620.800152164302
      vertex 25.970485446103773 25172.315256127429 24607.814909441251
    endloop
  endfacet
  facet normal 0.57735026918959254 -0.5773502691896425 -0.5773502691896425
    outer loop
      vertex 12.98524272305189 25159.330013404378 24607.814909441251
      vertex 25.970485446103773 25172.315256127429 24607.814909441251
      vertex 25.970485446103773 25159.330013404378 24620.800152164302
    endloop
  endfacet
  facet normal -0.5773502691895922 -0.5773502691896425 0.5773502691896425
    outer loop
      vertex 0 25211.270984296585 24568.859181272095
      vertex 12.98524272305189 25198.285741573534 24568.859181272095
      vertex 12.98524272305189 25211.270984296585 24581.844423995146
    endloop
  endfacet
  facet normal -0.5773502691895922 -0.5773502691896425 0.5773502691896425
    outer loop
      vertex 0 25211.270984296585 24568.859181272095
      vertex 0 25198.285741573534 24555.873938549044
      vertex 12.98524272305189 25198.285741573534 24568.859181272095
    endloop
  endfacet
  facet normal -0.5773502691895922 0.5773502691896425 -0.5773502691896425
    outer loop
      vertex 0 25211.270984296585 24568.859181272095
      vertex 12.98524272305189 25224.256227019636 24568.859181272095
      vertex 12.98524272305189 25211.270984296585 24555.873938549044
    endloop
  endfacet
  facet normal -0.5773502691895922 0.5773502691896425 -0.5773502691896425
    outer loop
      vertex 0 25211.270984296585 24568.859181272095
      vertex 12.98524272305189 25211.270984296585 24555.873938549044
      vertex 0 25198.285741573534 24555.873938549044
    endloop
  endfacet
  facet normal -0.5773502691895922 0.5773502691896425 -0.5773502691896425
    outer loop
      vertex 0 25211.270984296585 24568.859181272095
      vertex 0 25224.256227019636 24581.844423995146
      vertex 12.98524272305189 25224.256227019636 24568.859181272095
    endloop
  endfacet
  facet normal -0.5773502691895922 -0.5773502691896425 0.5773502691896425
    outer loop
      vertex 0 25211.270984296585 24568.859181272095
      vertex 12.98524272305189 25211.270984296585 24581.844423995146
      vertex 0 25224.256227019636 24581.844423995146
    endloop
  endfacet
  facet normal 0.5773502691895922 -0.5773502691896425 -0.5773502691896425
    outer loop
      vertex 12.98524272305189 25198.285741573534 24568.859181272095
      vertex 0 25198.285741573534 24555.873938549044
      vertex 12.98524272305189 25211.270984296585 24555.873938549044
    endloop
  endfacet
  facet normal -0.57735026918959254 -0.5773502691896425 -0.5773502691896425
    outer loop
      vertex 12.98524272305189 25198.285741573534 24568.859181272095
      vertex 12.98524272305189 25211.270984296585 24555.873938549044
      vertex 25.970485446103773 25198.285741573534 24555.873938549044
    endloop
  endfacet
  facet normal 0.57735026918959254 -0.5773502691896425 0.5773502691896425
    outer loop
      vertex 12.98524272305189 25198.285741573534 24568.859181272095
      vertex 25.970485446103773 25211.270984296585 24568.859181272095
      vertex 12.98524272305189 25211.270984296585 24581.844423995146
    endloop
  endfacet
  facet normal 0.57735026918959254 -0.5773502691896425 0.5773502691896425
    outer loop
      vertex 12.98524272305189 25198.285741573534 24568.859181272095
      vertex 25.970485446103773 25198.285741573534 24555.873938549044
      vertex 25.970485446103773 25211.270984296585 24568.859181272095
    endloop
  endfacet
  facet normal 0.57735026918959254 0.5773502691896425 -0.5773502691896425
    outer loop
      vertex 12.98524272305189 25211.270984296585 24555.873938549044
      vertex 12.98524272305189 25224.256227019636 24568.859181272095
      vertex 25.970485446103773 25211.270984296585 24568.859181272095
    endloop
  endfacet
  facet normal 0.57735026918959254 0.5773502691896425 -0.5773502691896425
    outer loop
      vertex 12.98524272305189 25211.270984296585 24555.873938549044
      vertex 25.970485446103773 25211.270984296585 24568.859181272095
      vertex 25.970485446103773 25198.285741573534 24555.873938549044
    endloop
  endfacet
  facet normal 0.5773502691895922 0.5773502691896425 0.5773502691896425
    outer loop
      vertex 12.98524272305189 25211.270984296585 24581.844423995146
      vertex 12.98524272305189 25224.256227019636 24568.859181272095
      vertex 0 25224.256227019636 24581.844423995146
    endloop
  endfacet
  facet normal -0.57735026918959254 0.5773502691896425 0.5773502691896425
    outer loop
      vertex 12.98524272305189 25211.270984296585 24581.844423995146
      vertex 25.970485446103773 25224.256227019636 24581.844423995146
      vertex 12.98524272305189 25224.256227019636 24568.859181272095
    endloop
  endfacet
  facet normal 0.57735026918959254 0.5773502691896425 -0.5773502691896425
    outer loop
      vertex 12.98524272305189 25224.256227019636 24568.859181272095
      vertex 25.970485446103773 25224.256227019636 24581.844423995146
      vertex 25.970485446103773 25211.270984296585 24568.859181272095
    endloop
  endfacet
  facet normal 0.57735026918959254 -0.5773502691896425 0.5773502691896425
    outer loop
      vertex 12.98524272305189 25211.270984296585 24581.844423995146
      vertex 25.970485446103773 25211.270984296585 24568.859181272095
      vertex 25.970485446103773 25224.256227019636 24581.844423995146
    endloop
  endfacet
  facet normal -0.57735026918964616 -0.57735026918969645 0.57735026918953469
    outer loop
      vertex 0 25224.256227019636 24581.844423995146
      vertex 12.98524272305189 25211.270984296585 24581.844423995146
      vertex 12.98524272305189 25224.256227019636 24594.8296667182
    endloop
  endfacet
  facet normal -0.5773502691895922 -0.5773502691896425 0.5773502691896425
    outer loop
      vertex 0 25224.256227019636 24581.844423995146
      vertex 0 25211.270984296585 24568.859181272095
      vertex 12.98524272305189 25211.270984296585 24581.844423995146
    endloop
  endfacet
  facet normal -0.5773502691895922 0.5773502691896425 -0.5773502691896425
    outer loop
      vertex 0 25224.256227019636 24581.844423995146
      vertex 12.98524272305189 25237.241469742687 24581.844423995146
      vertex 12.98524272305189 25224.256227019636 24568.859181272095
    endloop
  endfacet
  facet normal -0.5773502691895922 0.5773502691896425 -0.5773502691896425
    outer loop
      vertex 0 25224.256227019636 24581.844423995146
      vertex 12.98524272305189 25224.256227019636 24568.859181272095
      vertex 0 25211.270984296585 24568.859181272095
    endloop
  endfacet
  facet normal -0.57735026918964616 0.57735026918969645 -0.57735026918953469
    outer loop
      vertex 0 25224.256227019636 24581.844423995146
      vertex 0 25237.241469742687 24594.8296667182
      vertex 12.98524272305189 25237.241469742687 24581.844423995146
    endloop
  endfacet
  facet normal -0.57735026918964616 -0.57735026918969645 0.57735026918953469
    outer loop
      vertex 0 25224.256227019636 24581.844423995146
      vertex 12.98524272305189 25224.256227019636 24594.8296667182
      vertex 0 25237.241469742687 24594.8296667182
    endloop
  endfacet
  facet normal 0.5773502691895922 -0.5773502691896425 -0.5773502691896425
    outer loop
      vertex 12.98524272305189 25211.270984296585 24581.844423995146
      vertex 0 25211.270984296585 24568.859181272095
      vertex 12.98524272305189 25224.256227019636 24568.859181272095
    endloop
  endfacet
  facet normal -0.57735026918959254 -0.5773502691896425 -0.5773502691896425
    outer loop
      vertex 12.98524272305189 25211.270984296585 24581.844423995146
      vertex 12.98524272305189 25224.256227019636 24568.859181272095
      vertex 25.970485446103773 25211.270984296585 24568.859181272095
    endloop
  endfacet
  facet normal 0.57735026918964638 -0.57735026918969634 0.57735026918953458
    outer loop
      vertex 12.98524272305189 25211.270984296585 24581.844423995146
      vertex 25.970485446103773 25224.256227019636 24581.844423995146
      vertex 12.98524272305189 25224.256227019636 24594.8296667182
    endloop
  endfacet
  facet normal 0.57735026918959254 -0.5773502691896425 0.5773502691896425
    outer loop
      vertex 12.98524272305189 25211.270984296585 24581.844423995146
      vertex 25.970485446103773 25211.270984296585 24568.859181272095
      vertex 25.970485446103773 25224.256227019636 24581.844423995146
    endloop
  endfacet
  facet normal 0.57735026918959254 0.5773502691896425 -0.5773502691896425
    outer loop
      vertex 12.98524272305189 25224.256227019636 24568.859181272095
      vertex 12.98524272305189 25237.241469742687 24581.844423995146
      vertex 25.970485446103773 25224.256227019636 24581.844423995146
    endloop
  endfacet
  facet normal 0.57735026918959254 0.5773502691896425 -0.5773502691896425
    outer loop
      vertex 12.98524272305189 25224.256227019636 24568.859181272095
      vertex 25.970485446103773 25224.256227019636 24581.844423995146
      vertex 25.970485446103773 25211.270984296585 24568.859181272095
    endloop
  endfacet
  facet normal 0.57735026918964616 0.57735026918969645 0.57735026918953469
    outer loop
      vertex 12.98524272305189 25224.256227019636 24594.8296667182
      vertex 12.98524272305189 25237.241469742687 24581.844423995146
      vertex 0 25237.241469742687 24594.8296667182
    endloop
  endfacet
  facet normal -0.57735026918964638 0.57735026918969634 0.57735026918953458
    outer loop
      vertex 12.98524272305189 25224.256227019636 24594.8296667182
      vertex 25.970485446103773 25237.241469742687 24594.8296667182
      vertex 12.98524272305189 25237.241469742687 24581.844423995146
    endloop
  endfacet
  facet normal 0.57735026918964638 0.57735026918969634 -0.57735026918953458
    outer loop
      vertex 12.98524272305189 25237.241469742687 24581.844423995146
      vertex 25.970485446103773 25237.241469742687 24594.8296667182
      vertex 25.970485446103773 25224.256227019636 24581.844423995146
    endloop
  endfacet
  facet normal 0.57735026918964638 -0.57735026918969634 0.57735026918953458
    outer loop
      vertex 12.98524272305189 25224.256227019636 24594.8296667182
      vertex 25.970485446103773 25224.256227019636 24581.844423995146
      vertex 25.970485446103773 25237.241469742687 24594.8296667182
    endloop
  endfacet
  facet normal -0.5773502691895922 -0.5773502691896425 0.5773502691896425
    outer loop
      vertex 0 25237.241469742687 24594.8296667182
      vertex 12.98524272305189 25224.256227019636 24594.8296667182
      vertex 12.98524272305189 25237.241469742687 24607.814909441251
    endloop
  endfacet
  facet normal -0.57735026918964616 -0.57735026918969645 0.57735026918953469
    outer loop
      vertex 0 25237.241469742687 24594.8296667182
      vertex 0 25224.256227019636 24581.844423995146
      vertex 12.98524272305189 25224.256227019636 24594.8296667182
    endloop
  endfacet
  facet normal -0.57735026918970012 0.57735026918958854 -0.57735026918958854
    outer loop
      vertex 0 25237.241469742687 24594.8296667182
      vertex 12.98524272305189 25250.226712465741 24594.8296667182
      vertex 12.98524272305189 25237.241469742687 24581.844423995146
    endloop
  endfacet
  facet normal -0.57735026918964616 0.57735026918969645 -0.57735026918953469
    outer loop
      vertex 0 25237.241469742687 24594.8296667182
      vertex 12.98524272305189 25237.241469742687 24581.844423995146
      vertex 0 25224.256227019636 24581.844423995146
    endloop
  endfacet
  facet normal -0.57735026918964616 0.57735026918953469 -0.57735026918969645
    outer loop
      vertex 0 25237.241469742687 24594.8296667182
      vertex 0 25250.226712465741 24607.814909441251
      vertex 12.98524272305189 25250.226712465741 24594.8296667182
    endloop
  endfacet
  facet normal -0.57735026918964616 -0.57735026918953469 0.57735026918969645
    outer loop
      vertex 0 25237.241469742687 24594.8296667182
      vertex 12.98524272305189 25237.241469742687 24607.814909441251
      vertex 0 25250.226712465741 24607.814909441251
    endloop
  endfacet
  facet normal 0.57735026918964616 -0.57735026918969645 -0.57735026918953469
    outer loop
      vertex 12.98524272305189 25224.256227019636 24594.8296667182
      vertex 0 25224.256227019636 24581.844423995146
      vertex 12.98524272305189 25237.241469742687 24581.844423995146
    endloop
  endfacet
  facet normal -0.57735026918964638 -0.57735026918969634 -0.57735026918953458
    outer loop
      vertex 12.98524272305189 25224.256227019636 24594.8296667182
      vertex 12.98524272305189 25237.241469742687 24581.844423995146
      vertex 25.970485446103773 25224.256227019636 24581.844423995146
    endloop
  endfacet
  facet normal 0.57735026918959254 -0.5773502691896425 0.5773502691896425
    outer loop
      vertex 12.98524272305189 25224.256227019636 24594.8296667182
      vertex 25.970485446103773 25237.241469742687 24594.8296667182
      vertex 12.98524272305189 25237.241469742687 24607.814909441251
    endloop
  endfacet
  facet normal 0.57735026918964638 -0.57735026918969634 0.57735026918953458
    outer loop
      vertex 12.98524272305189 25224.256227019636 24594.8296667182
      vertex 25.970485446103773 25224.256227019636 24581.844423995146
      vertex 25.970485446103773 25237.241469742687 24594.8296667182
    endloop
  endfacet
  facet normal 0.57735026918970023 0.57735026918958843 -0.57735026918958843
    outer loop
      vertex 12.98524272305189 25237.241469742687 24581.844423995146
      vertex 12.98524272305189 25250.226712465741 24594.8296667182
      vertex 25.970485446103773 25237.241469742687 24594.8296667182
    endloop
  endfacet
  facet normal 0.57735026918964638 0.57735026918969634 -0.57735026918953458
    outer loop
      vertex 12.98524272305189 25237.241469742687 24581.844423995146
      vertex 25.970485446103773 25237.241469742687 24594.8296667182
      vertex 25.970485446103773 25224.256227019636 24581.844423995146
    endloop
  endfacet
  facet normal 0.57735026918964616 0.57735026918953469 0.57735026918969645
    outer loop
      vertex 12.98524272305189 25237.241469742687 24607.814909441251
      vertex 12.98524272305189 25250.226712465741 24594.8296667182
      vertex 0 25250.226712465741 24607.814909441251
    endloop
  endfacet
  facet normal -0.57735026918964638 0.57735026918953458 0.57735026918969634
    outer loop
      vertex 12.98524272305189 25237.241469742687 24607.814909441251
      vertex 25.970485446103773 25250.226712465741 24607.814909441251
      vertex 12.98524272305189 25250.226712465741 24594.8296667182
    endloop
  endfacet
  facet normal 0.57735026918964638 0.57735026918953458 -0.57735026918969634
    outer loop
      vertex 12.98524272305189 25250.226712465741 24594.8296667182
      vertex 25.970485446103773 25250.226712465741 24607.814909441251
      vertex 25.970485446103773 25237.241469742687 24594.8296667182
    endloop
  endfacet
  facet normal 0.57735026918964638 -0.57735026918953458 0.57735026918969634
    outer loop
      vertex 12.98524272305189 25237.241469742687 24607.814909441251
      vertex 25.970485446103773 25237.241469742687 24594.8296667182
      vertex 25.970485446103773 25250.226712465741 24607.814909441251
    endloop
  endfacet
endsolid OBJECT
