solid OBJECT
  facet normal -0.57735026918964616 -0.57735026918969645 0.57735026918953469
    outer loop
      vertex 27.127378346782841 24010.781606548258 24968.199981475238
      vertex 40.112621069834731 23997.796363825208 24968.199981475238
      vertex 40.112621069834731 24010.781606548258 24981.185224198292
    endloop
  endfacet
  facet normal -0.5773502691895922 -0.5773502691896425 0.5773502691896425
    outer loop
      vertex 27.127378346782841 24010.781606548258 24968.199981475238
      vertex 27.127378346782841 23997.796363825208 24955.214738752187
      vertex 40.112621069834731 23997.796363825208 24968.199981475238
    endloop
  endfacet
  facet normal -0.5773502691895922 0.5773502691896425 -0.5773502691896425
    outer loop
      vertex 27.127378346782841 24010.781606548258 24968.199981475238
      vertex 40.112621069834731 24023.766849271309 24968.199981475238
      vertex 40.112621069834731 24010.781606548258 24955.214738752187
    endloop
  endfacet
  facet normal -0.5773502691895922 0.5773502691896425 -0.5773502691896425
    outer loop
      vertex 27.127378346782841 24010.781606548258 24968.199981475238
      vertex 40.112621069834731 24010.781606548258 24955.214738752187
      vertex 27.127378346782841 23997.796363825208 24955.214738752187
    endloop
  endfacet
  facet normal -0.57735026918964616 0.57735026918969645 -0.57735026918953469
    outer loop
      vertex 27.127378346782841 24010.781606548258 24968.199981475238
      vertex 27.127378346782841 24023.766849271309 24981.185224198292
      vertex 40.112621069834731 24023.766849271309 24968.199981475238
    endloop
  endfacet
  facet normal -0.57735026918964616 -0.57735026918969645 0.57735026918953469
    outer loop
      vertex 27.127378346782841 24010.781606548258 24968.199981475238
      vertex 40.112621069834731 24010.781606548258 24981.185224198292
      vertex 27.127378346782841 24023.766849271309 24981.185224198292
    endloop
  endfacet
  facet normal 0.5773502691895922 -0.5773502691896425 -0.5773502691896425
    outer loop
      vertex 40.112621069834731 23997.796363825208 24968.199981475238
      vertex 27.127378346782841 23997.796363825208 24955.214738752187
      vertex 40.112621069834731 24010.781606548258 24955.214738752187
    endloop
  endfacet
  facet normal -0.57735026918959254 -0.5773502691896425 -0.5773502691896425
    outer loop
      vertex 40.112621069834731 23997.796363825208 24968.199981475238
      vertex 40.112621069834731 24010.781606548258 24955.214738752187
      vertex 53.097863792886614 23997.796363825208 24955.214738752187
    endloop
  endfacet
  facet normal 0.57735026918964638 -0.57735026918969634 0.57735026918953458
    outer loop
      vertex 40.112621069834731 23997.796363825208 24968.199981475238
      vertex 53.097863792886614 24010.781606548258 24968.199981475238
      vertex 40.112621069834731 24010.781606548258 24981.185224198292
    endloop
  endfacet
  facet normal 0.57735026918959254 -0.5773502691896425 0.5773502691896425
    outer loop
      vertex 40.112621069834731 23997.796363825208 24968.199981475238
      vertex 53.097863792886614 23997.796363825208 24955.214738752187
      vertex 53.097863792886614 24010.781606548258 24968.199981475238
    endloop
  endfacet
  facet normal 0.57735026918959254 0.5773502691896425 -0.5773502691896425
    outer loop
      vertex 40.112621069834731 24010.781606548258 24955.214738752187
      vertex 40.112621069834731 24023.766849271309 24968.199981475238
      vertex 53.097863792886614 24010.781606548258 24968.199981475238
    endloop
  endfacet
  facet normal 0.57735026918959254 0.5773502691896425 -0.5773502691896425
    outer loop
      vertex 40.112621069834731 24010.781606548258 24955.214738752187
      vertex 53.097863792886614 24010.781606548258 24968.199981475238
      vertex 53.097863792886614 23997.796363825208 24955.214738752187
    endloop
  endfacet
  facet normal 0.57735026918964616 0.57735026918969645 0.57735026918953469
    outer loop
      vertex 40.112621069834731 24010.781606548258 24981.185224198292
      vertex 40.112621069834731 24023.766849271309 24968.199981475238
      vertex 27.127378346782841 24023.766849271309 24981.185224198292
    endloop
  endfacet
  facet normal -0.57735026918964638 0.57735026918969634 0.57735026918953458
    outer loop
      vertex 40.112621069834731 24010.781606548258 24981.185224198292
      vertex 53.097863792886614 24023.766849271309 24981.185224198292
      vertex 40.112621069834731 24023.766849271309 24968.199981475238
    endloop
  endfacet
  facet normal 0.57735026918964638 0.57735026918969634 -0.57735026918953458
    outer loop
      vertex 40.112621069834731 24023.766849271309 24968.199981475238
      vertex 53.097863792886614 24023.766849271309 24981.185224198292
      vertex 53.097863792886614 24010.781606548258 24968.199981475238
    endloop
  endfacet
  facet normal 0.57735026918964638 -0.57735026918969634 0.57735026918953458
    outer loop
      vertex 40.112621069834731 24010.781606548258 24981.185224198292
      vertex 53.097863792886614 24010.781606548258 24968.199981475238
      vertex 53.097863792886614 24023.766849271309 24981.185224198292
    endloop
  endfacet
  facet normal -0.57735026918964616 -0.57735026918969645 -0.57735026918953469
    outer loop
      vertex 27.127378346782841 24023.766849271309 24981.185224198292
      vertex 40.112621069834731 24023.766849271309 24968.199981475238
      vertex 40.112621069834731 24010.781606548258 24981.185224198292
    endloop
  endfacet
  facet normal -0.57735026918970012 -0.57735026918958854 -0.57735026918958854
    outer loop
      vertex 27.127378346782841 24023.766849271309 24981.185224198292
      vertex 27.127378346782841 24036.752091994364 24968.199981475238
      vertex 40.112621069834731 24023.766849271309 24968.199981475238
    endloop
  endfacet
  facet normal -0.57735026918964616 0.57735026918953469 0.57735026918969645
    outer loop
      vertex 27.127378346782841 24023.766849271309 24981.185224198292
      vertex 40.112621069834731 24023.766849271309 24994.170466921343
      vertex 40.112621069834731 24036.752091994364 24981.185224198292
    endloop
  endfacet
  facet normal -0.57735026918970012 0.57735026918958854 0.57735026918958854
    outer loop
      vertex 27.127378346782841 24023.766849271309 24981.185224198292
      vertex 40.112621069834731 24036.752091994364 24981.185224198292
      vertex 27.127378346782841 24036.752091994364 24968.199981475238
    endloop
  endfacet
  facet normal -0.5773502691895922 0.5773502691896425 0.5773502691896425
    outer loop
      vertex 27.127378346782841 24023.766849271309 24981.185224198292
      vertex 27.127378346782841 24010.781606548258 24994.170466921343
      vertex 40.112621069834731 24023.766849271309 24994.170466921343
    endloop
  endfacet
  facet normal -0.5773502691895922 -0.5773502691896425 -0.5773502691896425
    outer loop
      vertex 27.127378346782841 24023.766849271309 24981.185224198292
      vertex 40.112621069834731 24010.781606548258 24981.185224198292
      vertex 27.127378346782841 24010.781606548258 24994.170466921343
    endloop
  endfacet
  facet normal 0.57735026918970012 0.57735026918958854 -0.57735026918958854
    outer loop
      vertex 40.112621069834731 24023.766849271309 24968.199981475238
      vertex 27.127378346782841 24036.752091994364 24968.199981475238
      vertex 40.112621069834731 24036.752091994364 24981.185224198292
    endloop
  endfacet
  facet normal -0.57735026918970023 0.57735026918958843 -0.57735026918958843
    outer loop
      vertex 40.112621069834731 24023.766849271309 24968.199981475238
      vertex 40.112621069834731 24036.752091994364 24981.185224198292
      vertex 53.097863792886614 24036.752091994364 24968.199981475238
    endloop
  endfacet
  facet normal 0.57735026918964638 -0.57735026918969634 -0.57735026918953458
    outer loop
      vertex 40.112621069834731 24023.766849271309 24968.199981475238
      vertex 53.097863792886614 24023.766849271309 24981.185224198292
      vertex 40.112621069834731 24010.781606548258 24981.185224198292
    endloop
  endfacet
  facet normal 0.57735026918970023 -0.57735026918958843 -0.57735026918958843
    outer loop
      vertex 40.112621069834731 24023.766849271309 24968.199981475238
      vertex 53.097863792886614 24036.752091994364 24968.199981475238
      vertex 53.097863792886614 24023.766849271309 24981.185224198292
    endloop
  endfacet
  facet normal 0.57735026918964638 0.57735026918953458 0.57735026918969634
    outer loop
      vertex 40.112621069834731 24036.752091994364 24981.185224198292
      vertex 40.112621069834731 24023.766849271309 24994.170466921343
      vertex 53.097863792886614 24023.766849271309 24981.185224198292
    endloop
  endfacet
  facet normal 0.57735026918970023 0.57735026918958843 0.57735026918958843
    outer loop
      vertex 40.112621069834731 24036.752091994364 24981.185224198292
      vertex 53.097863792886614 24023.766849271309 24981.185224198292
      vertex 53.097863792886614 24036.752091994364 24968.199981475238
    endloop
  endfacet
  facet normal 0.5773502691895922 -0.5773502691896425 0.5773502691896425
    outer loop
      vertex 40.112621069834731 24010.781606548258 24981.185224198292
      vertex 40.112621069834731 24023.766849271309 24994.170466921343
      vertex 27.127378346782841 24010.781606548258 24994.170466921343
    endloop
  endfacet
  facet normal -0.57735026918959254 -0.5773502691896425 0.5773502691896425
    outer loop
      vertex 40.112621069834731 24010.781606548258 24981.185224198292
      vertex 53.097863792886614 24010.781606548258 24994.170466921343
      vertex 40.112621069834731 24023.766849271309 24994.170466921343
    endloop
  endfacet
  facet normal 0.57735026918959254 0.5773502691896425 0.5773502691896425
    outer loop
      vertex 40.112621069834731 24023.766849271309 24994.170466921343
      vertex 53.097863792886614 24010.781606548258 24994.170466921343
      vertex 53.097863792886614 24023.766849271309 24981.185224198292
    endloop
  endfacet
  facet normal 0.57735026918959254 -0.5773502691896425 -0.5773502691896425
    outer loop
      vertex 40.112621069834731 24010.781606548258 24981.185224198292
      vertex 53.097863792886614 24023.766849271309 24981.185224198292
      vertex 53.097863792886614 24010.781606548258 24994.170466921343
    endloop
  endfacet
  facet normal -0.5773502691895922 -0.5773502691896425 0.5773502691896425
    outer loop
      vertex 27.127378346782841 24010.781606548258 24994.170466921343
      vertex 40.112621069834731 23997.796363825208 24994.170466921343
      vertex 40.112621069834731 24010.781606548258 25007.155709644394
    endloop
  endfacet
  facet normal -0.5773502691895922 -0.5773502691896425 0.5773502691896425
    outer loop
      vertex 27.127378346782841 24010.781606548258 24994.170466921343
      vertex 27.127378346782841 23997.796363825208 24981.185224198292
      vertex 40.112621069834731 23997.796363825208 24994.170466921343
    endloop
  endfacet
  facet normal -0.5773502691895922 0.5773502691896425 -0.5773502691896425
    outer loop
      vertex 27.127378346782841 24010.781606548258 24994.170466921343
      vertex 40.112621069834731 24023.766849271309 24994.170466921343
      vertex 40.112621069834731 24010.781606548258 24981.185224198292
    endloop
  endfacet
  facet normal -0.5773502691895922 0.5773502691896425 -0.5773502691896425
    outer loop
      vertex 27.127378346782841 24010.781606548258 24994.170466921343
      vertex 40.112621069834731 24010.781606548258 24981.185224198292
      vertex 27.127378346782841 23997.796363825208 24981.185224198292
    endloop
  endfacet
  facet normal -0.5773502691895922 0.5773502691896425 -0.5773502691896425
    outer loop
      vertex 27.127378346782841 24010.781606548258 24994.170466921343
      vertex 27.127378346782841 24023.766849271309 25007.155709644394
      vertex 40.112621069834731 24023.766849271309 24994.170466921343
    endloop
  endfacet
  facet normal -0.5773502691895922 -0.5773502691896425 0.5773502691896425
    outer loop
      vertex 27.127378346782841 24010.781606548258 24994.170466921343
      vertex 40.112621069834731 24010.781606548258 25007.155709644394
      vertex 27.127378346782841 24023.766849271309 25007.155709644394
    endloop
  endfacet
  facet normal 0.5773502691895922 -0.5773502691896425 -0.5773502691896425
    outer loop
      vertex 40.112621069834731 23997.796363825208 24994.170466921343
      vertex 27.127378346782841 23997.796363825208 24981.185224198292
      vertex 40.112621069834731 24010.781606548258 24981.185224198292
    endloop
  endfacet
  facet normal -0.57735026918959254 -0.5773502691896425 -0.5773502691896425
    outer loop
      vertex 40.112621069834731 23997.796363825208 24994.170466921343
      vertex 40.112621069834731 24010.781606548258 24981.185224198292
      vertex 53.097863792886614 23997.796363825208 24981.185224198292
    endloop
  endfacet
  facet normal 0.57735026918959254 -0.5773502691896425 0.5773502691896425
    outer loop
      vertex 40.112621069834731 23997.796363825208 24994.170466921343
      vertex 53.097863792886614 24010.781606548258 24994.170466921343
      vertex 40.112621069834731 24010.781606548258 25007.155709644394
    endloop
  endfacet
  facet normal 0.57735026918959254 -0.5773502691896425 0.5773502691896425
    outer loop
      vertex 40.112621069834731 23997.796363825208 24994.170466921343
      vertex 53.097863792886614 23997.796363825208 24981.185224198292
      vertex 53.097863792886614 24010.781606548258 24994.170466921343
    endloop
  endfacet
  facet normal 0.57735026918959254 0.5773502691896425 -0.5773502691896425
    outer loop
      vertex 40.112621069834731 24010.781606548258 24981.185224198292
      vertex 40.112621069834731 24023.766849271309 24994.170466921343
      vertex 53.097863792886614 24010.781606548258 24994.170466921343
    endloop
  endfacet
  facet normal 0.57735026918959254 0.5773502691896425 -0.5773502691896425
    outer loop
      vertex 40.112621069834731 24010.781606548258 24981.185224198292
      vertex 53.097863792886614 24010.781606548258 24994.170466921343
      vertex 53.097863792886614 23997.796363825208 24981.185224198292
    endloop
  endfacet
  facet normal 0.5773502691895922 0.5773502691896425 0.5773502691896425
    outer loop
      vertex 40.112621069834731 24010.781606548258 25007.155709644394
      vertex 40.112621069834731 24023.766849271309 24994.170466921343
      vertex 27.127378346782841 24023.766849271309 25007.155709644394
    endloop
  endfacet
  facet normal -0.57735026918959254 0.5773502691896425 0.5773502691896425
    outer loop
      vertex 40.112621069834731 24010.781606548258 25007.155709644394
      vertex 53.097863792886614 24023.766849271309 25007.155709644394
      vertex 40.112621069834731 24023.766849271309 24994.170466921343
    endloop
  endfacet
  facet normal 0.57735026918959254 0.5773502691896425 -0.5773502691896425
    outer loop
      vertex 40.112621069834731 24023.766849271309 24994.170466921343
      vertex 53.097863792886614 24023.766849271309 25007.155709644394
      vertex 53.097863792886614 24010.781606548258 24994.170466921343
    endloop
  endfacet
  facet normal 0.57735026918959254 -0.5773502691896425 0.5773502691896425
    outer loop
      vertex 40.112621069834731 24010.781606548258 25007.155709644394
      vertex 53.097863792886614 24010.781606548258 24994.170466921343
      vertex 53.097863792886614 24023.766849271309 25007.155709644394
    endloop
  endfacet
  facet normal -0.57735026918970012 -0.57735026918958854 -0.57735026918958854
    outer loop
      vertex 27.127378346782841 23997.796363825208 24981.185224198292
      vertex 40.112621069834731 23997.796363825208 24968.199981475238
      vertex 40.112621069834731 23984.811121102153 24981.185224198292
    endloop
  endfacet
  facet normal -0.57735026918964616 -0.57735026918969645 -0.57735026918953469
    outer loop
      vertex 27.127378346782841 23997.796363825208 24981.185224198292
      vertex 27.127378346782841 24010.781606548258 24968.199981475238
      vertex 40.112621069834731 23997.796363825208 24968.199981475238
    endloop
  endfacet
  facet normal -0.5773502691895922 0.5773502691896425 0.5773502691896425
    outer loop
      vertex 27.127378346782841 23997.796363825208 24981.185224198292
      vertex 40.112621069834731 23997.796363825208 24994.170466921343
      vertex 40.112621069834731 24010.781606548258 24981.185224198292
    endloop
  endfacet
  facet normal -0.57735026918964616 0.57735026918969645 0.57735026918953469
    outer loop
      vertex 27.127378346782841 23997.796363825208 24981.185224198292
      vertex 40.112621069834731 24010.781606548258 24981.185224198292
      vertex 27.127378346782841 24010.781606548258 24968.199981475238
    endloop
  endfacet
  facet normal -0.57735026918964616 0.57735026918953469 0.57735026918969645
    outer loop
      vertex 27.127378346782841 23997.796363825208 24981.185224198292
      vertex 27.127378346782841 23984.811121102153 24994.170466921343
      vertex 40.112621069834731 23997.796363825208 24994.170466921343
    endloop
  endfacet
  facet normal -0.57735026918964616 -0.57735026918953469 -0.57735026918969645
    outer loop
      vertex 27.127378346782841 23997.796363825208 24981.185224198292
      vertex 40.112621069834731 23984.811121102153 24981.185224198292
      vertex 27.127378346782841 23984.811121102153 24994.170466921343
    endloop
  endfacet
  facet normal 0.57735026918964616 0.57735026918969645 -0.57735026918953469
    outer loop
      vertex 40.112621069834731 23997.796363825208 24968.199981475238
      vertex 27.127378346782841 24010.781606548258 24968.199981475238
      vertex 40.112621069834731 24010.781606548258 24981.185224198292
    endloop
  endfacet
  facet normal -0.57735026918964638 0.57735026918969634 -0.57735026918953458
    outer loop
      vertex 40.112621069834731 23997.796363825208 24968.199981475238
      vertex 40.112621069834731 24010.781606548258 24981.185224198292
      vertex 53.097863792886614 24010.781606548258 24968.199981475238
    endloop
  endfacet
  facet normal 0.57735026918970023 -0.57735026918958843 -0.57735026918958843
    outer loop
      vertex 40.112621069834731 23997.796363825208 24968.199981475238
      vertex 53.097863792886614 23997.796363825208 24981.185224198292
      vertex 40.112621069834731 23984.811121102153 24981.185224198292
    endloop
  endfacet
  facet normal 0.57735026918964638 -0.57735026918969634 -0.57735026918953458
    outer loop
      vertex 40.112621069834731 23997.796363825208 24968.199981475238
      vertex 53.097863792886614 24010.781606548258 24968.199981475238
      vertex 53.097863792886614 23997.796363825208 24981.185224198292
    endloop
  endfacet
  facet normal 0.57735026918959254 0.5773502691896425 0.5773502691896425
    outer loop
      vertex 40.112621069834731 24010.781606548258 24981.185224198292
      vertex 40.112621069834731 23997.796363825208 24994.170466921343
      vertex 53.097863792886614 23997.796363825208 24981.185224198292
    endloop
  endfacet
  facet normal 0.57735026918964638 0.57735026918969634 0.57735026918953458
    outer loop
      vertex 40.112621069834731 24010.781606548258 24981.185224198292
      vertex 53.097863792886614 23997.796363825208 24981.185224198292
      vertex 53.097863792886614 24010.781606548258 24968.199981475238
    endloop
  endfacet
  facet normal 0.57735026918964616 -0.57735026918953469 0.57735026918969645
    outer loop
      vertex 40.112621069834731 23984.811121102153 24981.185224198292
      vertex 40.112621069834731 23997.796363825208 24994.170466921343
      vertex 27.127378346782841 23984.811121102153 24994.170466921343
    endloop
  endfacet
  facet normal -0.57735026918964638 -0.57735026918953458 0.57735026918969634
    outer loop
      vertex 40.112621069834731 23984.811121102153 24981.185224198292
      vertex 53.097863792886614 23984.811121102153 24994.170466921343
      vertex 40.112621069834731 23997.796363825208 24994.170466921343
    endloop
  endfacet
  facet normal 0.57735026918964638 0.57735026918953458 0.57735026918969634
    outer loop
      vertex 40.112621069834731 23997.796363825208 24994.170466921343
      vertex 53.097863792886614 23984.811121102153 24994.170466921343
      vertex 53.097863792886614 23997.796363825208 24981.185224198292
    endloop
  endfacet
  facet normal 0.57735026918964638 -0.57735026918953458 -0.57735026918969634
    outer loop
      vertex 40.112621069834731 23984.811121102153 24981.185224198292
      vertex 53.097863792886614 23997.796363825208 24981.185224198292
      vertex 53.097863792886614 23984.811121102153 24994.170466921343
    endloop
  endfacet
endsolid OBJECT
