solid OBJECT
  facet normal -1 0 0
    outer loop
      vertex 0.20000000298023224 0 6.2897340964829613
      vertex 0.20000000298023224 0.5 6.5897340935027291
      vertex 0.20000000298023224 0.20000000298023224 6.0897340935027291
    endloop
  endfacet
  facet normal -1 0 -0
    outer loop
      vertex 0.20000000298023224 0 6.2897340964829613
      vertex 0.20000000298023224 0.80000001192092896 7.0897340935027291
      vertex 0.20000000298023224 0.5 6.5897340935027291
    endloop
  endfacet
  facet normal -1 0 -0
    outer loop
      vertex 0.20000000298023224 0.20000000298023224 6.0897340935027291
      vertex 0.20000000298023224 0.5 6.5897340935027291
      vertex 0.20000000298023224 1 6.8897341054236581
    endloop
  endfacet
  facet normal -1 0 -0
    outer loop
      vertex 0.20000000298023224 1 6.8897341054236581
      vertex 0.20000000298023224 0.5 6.5897340935027291
      vertex 0.20000000298023224 0.80000001192092896 7.0897340935027291
    endloop
  endfacet
  facet normal -0.57735027874872502 -0.57735025903308279 0.57735026978706938
    outer loop
      vertex 0.20000000298023224 0 6.2897340964829613
      vertex 0.5 0.25 6.8397340935027291
      vertex 0.20000000298023224 0.80000001192092896 7.0897340935027291
    endloop
  endfacet
  facet normal -0.57735026918962584 -0.57735026918962584 0.57735026918962584
    outer loop
      vertex 0.20000000298023224 0 6.2897340964829613
      vertex 0.80000001192092896 0 6.8897341054236581
      vertex 0.5 0.25 6.8397340935027291
    endloop
  endfacet
  facet normal -0.57735025771870663 -0.57735025771870663 0.5773502921314636
    outer loop
      vertex 0.20000000298023224 0.80000001192092896 7.0897340935027291
      vertex 0.5 0.25 6.8397340935027291
      vertex 0.80000001192092896 0.20000000298023224 7.0897340935027291
    endloop
  endfacet
  facet normal -0.57735025963052666 -0.57735025246120053 0.577350295477149
    outer loop
      vertex 0.80000001192092896 0.20000000298023224 7.0897340935027291
      vertex 0.5 0.25 6.8397340935027291
      vertex 0.80000001192092896 0 6.8897341054236581
    endloop
  endfacet
  facet normal -0.57735027874872502 0.57735026978706938 -0.57735025903308279
    outer loop
      vertex 0.20000000298023224 0.20000000298023224 6.0897340935027291
      vertex 0.20000000298023224 1 6.8897341054236581
      vertex 0.5 0.75 6.3397340935027291
    endloop
  endfacet
  facet normal -0.57735026918962584 0.57735026918962584 -0.57735026918962584
    outer loop
      vertex 0.20000000298023224 0.20000000298023224 6.0897340935027291
      vertex 0.5 0.75 6.3397340935027291
      vertex 0.80000001192092896 0.80000001192092896 6.0897340935027291
    endloop
  endfacet
  facet normal -0.57735025771870663 0.5773502921314636 -0.57735025771870663
    outer loop
      vertex 0.20000000298023224 1 6.8897341054236581
      vertex 0.80000001192092896 1 6.2897340964829613
      vertex 0.5 0.75 6.3397340935027291
    endloop
  endfacet
  facet normal -0.57735025963052677 0.57735029547714911 -0.57735025246120064
    outer loop
      vertex 0.80000001192092896 1 6.2897340964829613
      vertex 0.80000001192092896 0.80000001192092896 6.0897340935027291
      vertex 0.5 0.75 6.3397340935027291
    endloop
  endfacet
  facet normal 1 -0 -0
    outer loop
      vertex 0.80000001192092896 0.20000000298023224 7.0897340935027291
      vertex 0.80000001192092896 0 6.8897341054236581
      vertex 0.80000001192092896 0.5 6.5897340935027291
    endloop
  endfacet
  facet normal 1 0 0
    outer loop
      vertex 0.80000001192092896 0.20000000298023224 7.0897340935027291
      vertex 0.80000001192092896 0.5 6.5897340935027291
      vertex 0.80000001192092896 1 6.2897340964829613
    endloop
  endfacet
  facet normal 1 0 0
    outer loop
      vertex 0.80000001192092896 0 6.8897341054236581
      vertex 0.80000001192092896 0.80000001192092896 6.0897340935027291
      vertex 0.80000001192092896 0.5 6.5897340935027291
    endloop
  endfacet
  facet normal 1 0 -0
    outer loop
      vertex 0.80000001192092896 1 6.2897340964829613
      vertex 0.80000001192092896 0.5 6.5897340935027291
      vertex 0.80000001192092896 0.80000001192092896 6.0897340935027291
    endloop
  endfacet
  facet normal 0.57735026918962584 -0.57735026918962584 -0.57735026918962584
    outer loop
      vertex 0.20000000298023224 0 6.2897340964829613
      vertex 0.20000000298023224 0.20000000298023224 6.0897340935027291
      vertex 0.5 0.25 6.3397340935027291
    endloop
  endfacet
  facet normal 0.57735026918962584 -0.57735026918962584 -0.57735026918962584
    outer loop
      vertex 0.20000000298023224 0 6.2897340964829613
      vertex 0.5 0.25 6.3397340935027291
      vertex 0.80000001192092896 0 6.8897341054236581
    endloop
  endfacet
  facet normal 0.57735026918962584 -0.57735026918962584 -0.57735026918962584
    outer loop
      vertex 0.20000000298023224 0.20000000298023224 6.0897340935027291
      vertex 0.80000001192092896 0.80000001192092896 6.0897340935027291
      vertex 0.5 0.25 6.3397340935027291
    endloop
  endfacet
  facet normal 0.57735026918962584 -0.57735026918962584 -0.57735026918962584
    outer loop
      vertex 0.80000001192092896 0 6.8897341054236581
      vertex 0.5 0.25 6.3397340935027291
      vertex 0.80000001192092896 0.80000001192092896 6.0897340935027291
    endloop
  endfacet
  facet normal 0.5773502883078242 0.57735025963052633 0.57735025963052633
    outer loop
      vertex 0.20000000298023224 1 6.8897341054236581
      vertex 0.20000000298023224 0.80000001192092896 7.0897340935027291
      vertex 0.5 0.75 6.8397340935027291
    endloop
  endfacet
  facet normal 0.57735028066054495 0.57735024624778652 0.57735028066054495
    outer loop
      vertex 0.20000000298023224 1 6.8897341054236581
      vertex 0.5 0.75 6.8397340935027291
      vertex 0.80000001192092896 1 6.2897340964829613
    endloop
  endfacet
  facet normal 0.57735028066054495 0.57735028066054495 0.57735024624778652
    outer loop
      vertex 0.20000000298023224 0.80000001192092896 7.0897340935027291
      vertex 0.80000001192092896 0.20000000298023224 7.0897340935027291
      vertex 0.5 0.75 6.8397340935027291
    endloop
  endfacet
  facet normal 0.57735025007142726 0.57735027874872469 0.57735027874872469
    outer loop
      vertex 0.80000001192092896 0.20000000298023224 7.0897340935027291
      vertex 0.80000001192092896 1 6.2897340964829613
      vertex 0.5 0.75 6.8397340935027291
    endloop
  endfacet
endsolid OBJECT
