solid OBJECT
  facet normal -0 0.8164965924921388 -0.57735025283507624
    outer loop
      vertex 3160.6940097325155 17434.68770994879 -655.55387831220162
      vertex 3656.0445161514258 17434.68770994879 -655.55387831220162
      vertex 3408.3692555606731 17187.012478883225 -1005.8195640319303
    endloop
  endfacet
  facet normal 0.81649656004748139 0 -0.57735029871874988
    outer loop
      vertex 3656.0445161514258 17434.68770994879 -655.55387831220162
      vertex 3656.0445161514258 16939.33723305507 -655.55387831220162
      vertex 3408.3692555606731 17187.012478883225 -1005.8195640319303
    endloop
  endfacet
  facet normal -0 -0.81649657626981387 -0.57735027577690845
    outer loop
      vertex 3656.0445161514258 16939.33723305507 -655.55387831220162
      vertex 3160.6940097325155 16939.33723305507 -655.55387831220162
      vertex 3408.3692555606731 17187.012478883225 -1005.8195640319303
    endloop
  endfacet
  facet normal -0.81649657626981131 0 -0.577350275776912
    outer loop
      vertex 3160.6940097325155 17434.68770994879 -655.55387831220162
      vertex 3408.3692555606731 17187.012478883225 -1005.8195640319303
      vertex 3160.6940097325155 16939.33723305507 -655.55387831220162
    endloop
  endfacet
  facet normal 0 0.8164965924921388 0.57735025283507624
    outer loop
      vertex 3160.6940097325155 17434.68770994879 -655.55387831220162
      vertex 3408.3692555606731 17187.012478883225 -305.28819259247291
      vertex 3656.0445161514258 17434.68770994879 -655.55387831220162
    endloop
  endfacet
  facet normal 0.81649656004748139 -0 0.57735029871874988
    outer loop
      vertex 3656.0445161514258 17434.68770994879 -655.55387831220162
      vertex 3408.3692555606731 17187.012478883225 -305.28819259247291
      vertex 3656.0445161514258 16939.33723305507 -655.55387831220162
    endloop
  endfacet
  facet normal 0 -0.81649657626981387 0.57735027577690845
    outer loop
      vertex 3656.0445161514258 16939.33723305507 -655.55387831220162
      vertex 3408.3692555606731 17187.012478883225 -305.28819259247291
      vertex 3160.6940097325155 16939.33723305507 -655.55387831220162
    endloop
  endfacet
  facet normal -0.81649657626981131 -0 0.577350275776912
    outer loop
      vertex 3160.6940097325155 17434.68770994879 -655.55387831220162
      vertex 3160.6940097325155 16939.33723305507 -655.55387831220162
      vertex 3408.3692555606731 17187.012478883225 -305.28819259247291
    endloop
  endfacet
  facet normal -0 0.8164965924921388 -0.57735025283507624
    outer loop
      vertex 3804.6496400281681 17434.68770994879 -655.55387831220162
      vertex 4300.0001907348633 17434.68770994879 -655.55387831220162
      vertex 4052.3248858563256 17187.012478883225 -1005.8195640319303
    endloop
  endfacet
  facet normal 0.81649651138049206 0 -0.57735036754425462
    outer loop
      vertex 4300.0001907348633 17434.68770994879 -655.55387831220162
      vertex 4300.0001907348633 16939.33723305507 -655.55387831220162
      vertex 4052.3248858563256 17187.012478883225 -1005.8195640319303
    endloop
  endfacet
  facet normal -0 -0.81649657626981387 -0.57735027577690845
    outer loop
      vertex 4300.0001907348633 16939.33723305507 -655.55387831220162
      vertex 3804.6496400281681 16939.33723305507 -655.55387831220162
      vertex 4052.3248858563256 17187.012478883225 -1005.8195640319303
    endloop
  endfacet
  facet normal -0.81649657626981131 0 -0.577350275776912
    outer loop
      vertex 3804.6496400281681 17434.68770994879 -655.55387831220162
      vertex 4052.3248858563256 17187.012478883225 -1005.8195640319303
      vertex 3804.6496400281681 16939.33723305507 -655.55387831220162
    endloop
  endfacet
  facet normal 0 0.8164965924921388 0.57735025283507624
    outer loop
      vertex 3804.6496400281681 17434.68770994879 -655.55387831220162
      vertex 4052.3248858563256 17187.012478883225 -305.28819259247291
      vertex 4300.0001907348633 17434.68770994879 -655.55387831220162
    endloop
  endfacet
  facet normal 0.81649651138049206 -0 0.57735036754425462
    outer loop
      vertex 4300.0001907348633 17434.68770994879 -655.55387831220162
      vertex 4052.3248858563256 17187.012478883225 -305.28819259247291
      vertex 4300.0001907348633 16939.33723305507 -655.55387831220162
    endloop
  endfacet
  facet normal 0 -0.81649657626981387 0.57735027577690845
    outer loop
      vertex 4300.0001907348633 16939.33723305507 -655.55387831220162
      vertex 4052.3248858563256 17187.012478883225 -305.28819259247291
      vertex 3804.6496400281681 16939.33723305507 -655.55387831220162
    endloop
  endfacet
  facet normal -0.81649657626981131 -0 0.577350275776912
    outer loop
      vertex 3804.6496400281681 17434.68770994879 -655.55387831220162
      vertex 3804.6496400281681 16939.33723305507 -655.55387831220162
      vertex 4052.3248858563256 17187.012478883225 -305.28819259247291
    endloop
  endfacet
  facet normal -0 0.81649657626980976 -0.577350275776914
    outer loop
      vertex 3804.6496400281681 18078.643340244442 -655.55387831220162
      vertex 4300.0001907348633 18078.643340244442 -655.55387831220162
      vertex 4052.3248858563256 17830.968094416283 -1005.8195640319303
    endloop
  endfacet
  facet normal 0.81649651138049206 0 -0.57735036754425462
    outer loop
      vertex 4300.0001907348633 18078.643340244442 -655.55387831220162
      vertex 4300.0001907348633 17583.292863350722 -655.55387831220162
      vertex 4052.3248858563256 17830.968094416283 -1005.8195640319303
    endloop
  endfacet
  facet normal -0 -0.81649659249214268 -0.57735025283507058
    outer loop
      vertex 4300.0001907348633 17583.292863350722 -655.55387831220162
      vertex 3804.6496400281681 17583.292863350722 -655.55387831220162
      vertex 4052.3248858563256 17830.968094416283 -1005.8195640319303
    endloop
  endfacet
  facet normal -0.81649657626981131 0 -0.577350275776912
    outer loop
      vertex 3804.6496400281681 18078.643340244442 -655.55387831220162
      vertex 4052.3248858563256 17830.968094416283 -1005.8195640319303
      vertex 3804.6496400281681 17583.292863350722 -655.55387831220162
    endloop
  endfacet
  facet normal 0 0.81649657626980976 0.577350275776914
    outer loop
      vertex 3804.6496400281681 18078.643340244442 -655.55387831220162
      vertex 4052.3248858563256 17830.968094416283 -305.28819259247291
      vertex 4300.0001907348633 18078.643340244442 -655.55387831220162
    endloop
  endfacet
  facet normal 0.81649651138049206 -0 0.57735036754425462
    outer loop
      vertex 4300.0001907348633 18078.643340244442 -655.55387831220162
      vertex 4052.3248858563256 17830.968094416283 -305.28819259247291
      vertex 4300.0001907348633 17583.292863350722 -655.55387831220162
    endloop
  endfacet
  facet normal 0 -0.81649659249214268 0.57735025283507058
    outer loop
      vertex 4300.0001907348633 17583.292863350722 -655.55387831220162
      vertex 4052.3248858563256 17830.968094416283 -305.28819259247291
      vertex 3804.6496400281681 17583.292863350722 -655.55387831220162
    endloop
  endfacet
  facet normal -0.81649657626981131 -0 0.577350275776912
    outer loop
      vertex 3804.6496400281681 18078.643340244442 -655.55387831220162
      vertex 3804.6496400281681 17583.292863350722 -655.55387831220162
      vertex 4052.3248858563256 17830.968094416283 -305.28819259247291
    endloop
  endfacet
  facet normal -0 0.81649657626980976 -0.577350275776914
    outer loop
      vertex 3160.6940097325155 18078.643340244442 -655.55387831220162
      vertex 3656.0445161514258 18078.643340244442 -655.55387831220162
      vertex 3408.3692555606731 17830.968094416283 -1005.8195640319303
    endloop
  endfacet
  facet normal 0.81649656004748139 0 -0.57735029871874988
    outer loop
      vertex 3656.0445161514258 18078.643340244442 -655.55387831220162
      vertex 3656.0445161514258 17583.292863350722 -655.55387831220162
      vertex 3408.3692555606731 17830.968094416283 -1005.8195640319303
    endloop
  endfacet
  facet normal -0 -0.81649659249214268 -0.57735025283507058
    outer loop
      vertex 3656.0445161514258 17583.292863350722 -655.55387831220162
      vertex 3160.6940097325155 17583.292863350722 -655.55387831220162
      vertex 3408.3692555606731 17830.968094416283 -1005.8195640319303
    endloop
  endfacet
  facet normal -0.81649657626981131 0 -0.577350275776912
    outer loop
      vertex 3160.6940097325155 18078.643340244442 -655.55387831220162
      vertex 3408.3692555606731 17830.968094416283 -1005.8195640319303
      vertex 3160.6940097325155 17583.292863350722 -655.55387831220162
    endloop
  endfacet
  facet normal 0 0.81649657626980976 0.577350275776914
    outer loop
      vertex 3160.6940097325155 18078.643340244442 -655.55387831220162
      vertex 3408.3692555606731 17830.968094416283 -305.28819259247291
      vertex 3656.0445161514258 18078.643340244442 -655.55387831220162
    endloop
  endfacet
  facet normal 0.81649656004748139 -0 0.57735029871874988
    outer loop
      vertex 3656.0445161514258 18078.643340244442 -655.55387831220162
      vertex 3408.3692555606731 17830.968094416283 -305.28819259247291
      vertex 3656.0445161514258 17583.292863350722 -655.55387831220162
    endloop
  endfacet
  facet normal 0 -0.81649659249214268 0.57735025283507058
    outer loop
      vertex 3656.0445161514258 17583.292863350722 -655.55387831220162
      vertex 3408.3692555606731 17830.968094416283 -305.28819259247291
      vertex 3160.6940097325155 17583.292863350722 -655.55387831220162
    endloop
  endfacet
  facet normal -0.81649657626981131 -0 0.577350275776912
    outer loop
      vertex 3160.6940097325155 18078.643340244442 -655.55387831220162
      vertex 3160.6940097325155 17583.292863350722 -655.55387831220162
      vertex 3408.3692555606731 17830.968094416283 -305.28819259247291
    endloop
  endfacet
  facet normal -0 0.81649657626981387 -0.57735027577690845
    outer loop
      vertex 3482.6718322616393 17756.665532477913 -200.20848392403525
      vertex 3978.0223239179545 17756.665532477913 -200.20848392403525
      vertex 3730.3470780897969 17508.990286649758 -550.47416964376396
    endloop
  endfacet
  facet normal 0.81649657626981131 0 -0.577350275776912
    outer loop
      vertex 3978.0223239179545 17756.665532477913 -200.20848392403525
      vertex 3978.0223239179545 17261.315040821599 -200.20848392403525
      vertex 3730.3470780897969 17508.990286649758 -550.47416964376396
    endloop
  endfacet
  facet normal -0 -0.81649657626980976 -0.577350275776914
    outer loop
      vertex 3978.0223239179545 17261.315040821599 -200.20848392403525
      vertex 3482.6718322616393 17261.315040821599 -200.20848392403525
      vertex 3730.3470780897969 17508.990286649758 -550.47416964376396
    endloop
  endfacet
  facet normal -0.81649657626981131 0 -0.577350275776912
    outer loop
      vertex 3482.6718322616393 17756.665532477913 -200.20848392403525
      vertex 3730.3470780897969 17508.990286649758 -550.47416964376396
      vertex 3482.6718322616393 17261.315040821599 -200.20848392403525
    endloop
  endfacet
  facet normal 0 0.81649659921165119 0.57735024333224993
    outer loop
      vertex 3482.6718322616393 17756.665532477913 -200.20848392403525
      vertex 3730.3470780897969 17508.990286649758 150.05723132088372
      vertex 3978.0223239179545 17756.665532477913 -200.20848392403525
    endloop
  endfacet
  facet normal 0.81649659921164874 -0 0.57735024333225349
    outer loop
      vertex 3978.0223239179545 17756.665532477913 -200.20848392403525
      vertex 3730.3470780897969 17508.990286649758 150.05723132088372
      vertex 3978.0223239179545 17261.315040821599 -200.20848392403525
    endloop
  endfacet
  facet normal 0 -0.8164965992116473 0.5773502433322556
    outer loop
      vertex 3978.0223239179545 17261.315040821599 -200.20848392403525
      vertex 3730.3470780897969 17508.990286649758 150.05723132088372
      vertex 3482.6718322616393 17261.315040821599 -200.20848392403525
    endloop
  endfacet
  facet normal -0.81649659921164874 -0 0.57735024333225349
    outer loop
      vertex 3482.6718322616393 17756.665532477913 -200.20848392403525
      vertex 3482.6718322616393 17261.315040821599 -200.20848392403525
      vertex 3730.3470780897969 17508.990286649758 150.05723132088372
    endloop
  endfacet
  facet normal -0 0.81649659921165141 -0.5773502433322496
    outer loop
      vertex 3482.6718322616393 17756.665532477913 -1110.8992727003679
      vertex 3978.0223239179545 17756.665532477913 -1110.8992727003679
      vertex 3730.3470780897969 17508.990286649758 -1461.1649879452871
    endloop
  endfacet
  facet normal 0.81649659921164885 0 -0.57735024333225315
    outer loop
      vertex 3978.0223239179545 17756.665532477913 -1110.8992727003679
      vertex 3978.0223239179545 17261.315040821599 -1110.8992727003679
      vertex 3730.3470780897969 17508.990286649758 -1461.1649879452871
    endloop
  endfacet
  facet normal 0 -0.81649659921164741 -0.57735024333225526
    outer loop
      vertex 3978.0223239179545 17261.315040821599 -1110.8992727003679
      vertex 3482.6718322616393 17261.315040821599 -1110.8992727003679
      vertex 3730.3470780897969 17508.990286649758 -1461.1649879452871
    endloop
  endfacet
  facet normal -0.81649659921164885 0 -0.57735024333225315
    outer loop
      vertex 3482.6718322616393 17756.665532477913 -1110.8992727003679
      vertex 3730.3470780897969 17508.990286649758 -1461.1649879452871
      vertex 3482.6718322616393 17261.315040821599 -1110.8992727003679
    endloop
  endfacet
  facet normal 0 0.81649657626981376 0.57735027577690856
    outer loop
      vertex 3482.6718322616393 17756.665532477913 -1110.8992727003679
      vertex 3730.3470780897969 17508.990286649758 -760.63358698063928
      vertex 3978.0223239179545 17756.665532477913 -1110.8992727003679
    endloop
  endfacet
  facet normal 0.8164965762698112 -0 0.57735027577691211
    outer loop
      vertex 3978.0223239179545 17756.665532477913 -1110.8992727003679
      vertex 3730.3470780897969 17508.990286649758 -760.63358698063928
      vertex 3978.0223239179545 17261.315040821599 -1110.8992727003679
    endloop
  endfacet
  facet normal 0 -0.81649657626980976 0.57735027577691422
    outer loop
      vertex 3978.0223239179545 17261.315040821599 -1110.8992727003679
      vertex 3730.3470780897969 17508.990286649758 -760.63358698063928
      vertex 3482.6718322616393 17261.315040821599 -1110.8992727003679
    endloop
  endfacet
  facet normal -0.8164965762698112 -0 0.57735027577691211
    outer loop
      vertex 3482.6718322616393 17756.665532477913 -1110.8992727003679
      vertex 3482.6718322616393 17261.315040821599 -1110.8992727003679
      vertex 3730.3470780897969 17508.990286649758 -760.63358698063928
    endloop
  endfacet
  facet normal 0 0.81649660396305745 -0.57735023661274643
    outer loop
      vertex 3482.6718322616393 17187.012478883225 -1058.3594331287445
      vertex 3730.3470780897969 17434.68770994879 -708.09373264642045
      vertex 3978.0223239179545 17187.012478883225 -1058.3594331287445
    endloop
  endfacet
  facet normal 0 -0.81649658774073319 -0.57735025955457864
    outer loop
      vertex 3482.6718322616393 17187.012478883225 -1058.3594331287445
      vertex 3978.0223239179545 17187.012478883225 -1058.3594331287445
      vertex 3730.3470780897969 16939.33723305507 -708.09373264642045
    endloop
  endfacet
  facet normal -0.81649658774073064 0 0.57735025955458208
    outer loop
      vertex 3482.6718322616393 17187.012478883225 -1058.3594331287445
      vertex 3730.3470780897969 16939.33723305507 -708.09373264642045
      vertex 3730.3470780897969 17434.68770994879 -708.09373264642045
    endloop
  endfacet
  facet normal 0.81649658774073064 0 0.57735025955458208
    outer loop
      vertex 3978.0223239179545 17187.012478883225 -1058.3594331287445
      vertex 3730.3470780897969 17434.68770994879 -708.09373264642045
      vertex 3730.3470780897969 16939.33723305507 -708.09373264642045
    endloop
  endfacet
  facet normal 0 0.8164965877407292 -0.57735025955458419
    outer loop
      vertex 3482.6718322616393 17830.968094416283 -1058.3594331287445
      vertex 3730.3470780897969 18078.643340244442 -708.09373264642045
      vertex 3978.0223239179545 17830.968094416283 -1058.3594331287445
    endloop
  endfacet
  facet normal 0 -0.81649660396306134 -0.57735023661274065
    outer loop
      vertex 3482.6718322616393 17830.968094416283 -1058.3594331287445
      vertex 3978.0223239179545 17830.968094416283 -1058.3594331287445
      vertex 3730.3470780897969 17583.292863350722 -708.09373264642045
    endloop
  endfacet
  facet normal -0.81649658774073064 0 0.57735025955458208
    outer loop
      vertex 3482.6718322616393 17830.968094416283 -1058.3594331287445
      vertex 3730.3470780897969 17583.292863350722 -708.09373264642045
      vertex 3730.3470780897969 18078.643340244442 -708.09373264642045
    endloop
  endfacet
  facet normal 0.81649658774073064 0 0.57735025955458208
    outer loop
      vertex 3978.0223239179545 17830.968094416283 -1058.3594331287445
      vertex 3730.3470780897969 18078.643340244442 -708.09373264642045
      vertex 3730.3470780897969 17583.292863350722 -708.09373264642045
    endloop
  endfacet
  facet normal 0 0.81649658774073308 -0.57735025955457886
    outer loop
      vertex 3160.6940097325155 17508.990286649758 -603.0140239779829
      vertex 3408.3692555606731 17756.665532477913 -252.74832349565906
      vertex 3656.0445161514258 17508.990286649758 -603.0140239779829
    endloop
  endfacet
  facet normal 0 -0.81649658774072909 -0.57735025955458452
    outer loop
      vertex 3160.6940097325155 17508.990286649758 -603.0140239779829
      vertex 3656.0445161514258 17508.990286649758 -603.0140239779829
      vertex 3408.3692555606731 17261.315040821599 -252.74832349565906
    endloop
  endfacet
  facet normal -0.81649658774073053 0 0.5773502595545823
    outer loop
      vertex 3160.6940097325155 17508.990286649758 -603.0140239779829
      vertex 3408.3692555606731 17261.315040821599 -252.74832349565906
      vertex 3408.3692555606731 17756.665532477913 -252.74832349565906
    endloop
  endfacet
  facet normal 0.81649657151840116 0 0.57735028249642018
    outer loop
      vertex 3656.0445161514258 17508.990286649758 -603.0140239779829
      vertex 3408.3692555606731 17756.665532477913 -252.74832349565906
      vertex 3408.3692555606731 17261.315040821599 -252.74832349565906
    endloop
  endfacet
  facet normal 0 0.81649658774073308 -0.57735025955457886
    outer loop
      vertex 3804.6496400281681 17508.990286649758 -603.0140239779829
      vertex 4052.3248858563256 17756.665532477913 -252.74832349565906
      vertex 4300.0001907348633 17508.990286649758 -603.0140239779829
    endloop
  endfacet
  facet normal 0 -0.81649658774072909 -0.57735025955458452
    outer loop
      vertex 3804.6496400281681 17508.990286649758 -603.0140239779829
      vertex 4300.0001907348633 17508.990286649758 -603.0140239779829
      vertex 4052.3248858563256 17261.315040821599 -252.74832349565906
    endloop
  endfacet
  facet normal -0.81649658774073053 0 0.5773502595545823
    outer loop
      vertex 3804.6496400281681 17508.990286649758 -603.0140239779829
      vertex 4052.3248858563256 17261.315040821599 -252.74832349565906
      vertex 4052.3248858563256 17756.665532477913 -252.74832349565906
    endloop
  endfacet
  facet normal 0.81649652285141405 0 0.57735035132192514
    outer loop
      vertex 4300.0001907348633 17508.990286649758 -603.0140239779829
      vertex 4052.3248858563256 17756.665532477913 -252.74832349565906
      vertex 4052.3248858563256 17261.315040821599 -252.74832349565906
    endloop
  endfacet
  facet normal -0 0.81649660396305734 0.57735023661274665
    outer loop
      vertex 3482.6718322616393 17187.012478883225 -252.74832349565906
      vertex 3978.0223239179545 17187.012478883225 -252.74832349565906
      vertex 3730.3470780897969 17434.68770994879 -603.0140239779829
    endloop
  endfacet
  facet normal -0 -0.81649658774073308 0.57735025955457886
    outer loop
      vertex 3482.6718322616393 17187.012478883225 -252.74832349565906
      vertex 3730.3470780897969 16939.33723305507 -603.0140239779829
      vertex 3978.0223239179545 17187.012478883225 -252.74832349565906
    endloop
  endfacet
  facet normal -0.81649658774073064 0 -0.57735025955458241
    outer loop
      vertex 3482.6718322616393 17187.012478883225 -252.74832349565906
      vertex 3730.3470780897969 17434.68770994879 -603.0140239779829
      vertex 3730.3470780897969 16939.33723305507 -603.0140239779829
    endloop
  endfacet
  facet normal 0.81649658774073064 0 -0.57735025955458241
    outer loop
      vertex 3978.0223239179545 17187.012478883225 -252.74832349565906
      vertex 3730.3470780897969 16939.33723305507 -603.0140239779829
      vertex 3730.3470780897969 17434.68770994879 -603.0140239779829
    endloop
  endfacet
  facet normal -0 0.81649658774072909 0.57735025955458452
    outer loop
      vertex 3482.6718322616393 17830.968094416283 -252.74832349565906
      vertex 3978.0223239179545 17830.968094416283 -252.74832349565906
      vertex 3730.3470780897969 18078.643340244442 -603.0140239779829
    endloop
  endfacet
  facet normal -0 -0.81649660396306123 0.57735023661274087
    outer loop
      vertex 3482.6718322616393 17830.968094416283 -252.74832349565906
      vertex 3730.3470780897969 17583.292863350722 -603.0140239779829
      vertex 3978.0223239179545 17830.968094416283 -252.74832349565906
    endloop
  endfacet
  facet normal -0.81649658774073053 -0 -0.5773502595545823
    outer loop
      vertex 3482.6718322616393 17830.968094416283 -252.74832349565906
      vertex 3730.3470780897969 18078.643340244442 -603.0140239779829
      vertex 3730.3470780897969 17583.292863350722 -603.0140239779829
    endloop
  endfacet
  facet normal 0.81649658774073053 -0 -0.5773502595545823
    outer loop
      vertex 3978.0223239179545 17830.968094416283 -252.74832349565906
      vertex 3730.3470780897969 17583.292863350722 -603.0140239779829
      vertex 3730.3470780897969 18078.643340244442 -603.0140239779829
    endloop
  endfacet
  facet normal -0 0.81649658774073319 0.57735025955457864
    outer loop
      vertex 3160.6940097325155 17508.990286649758 -708.09373264642045
      vertex 3656.0445161514258 17508.990286649758 -708.09373264642045
      vertex 3408.3692555606731 17756.665532477913 -1058.3594331287445
    endloop
  endfacet
  facet normal 0 -0.81649658774072909 0.57735025955458419
    outer loop
      vertex 3160.6940097325155 17508.990286649758 -708.09373264642045
      vertex 3408.3692555606731 17261.315040821599 -1058.3594331287445
      vertex 3656.0445161514258 17508.990286649758 -708.09373264642045
    endloop
  endfacet
  facet normal -0.81649658774073064 -0 -0.57735025955458208
    outer loop
      vertex 3160.6940097325155 17508.990286649758 -708.09373264642045
      vertex 3408.3692555606731 17756.665532477913 -1058.3594331287445
      vertex 3408.3692555606731 17261.315040821599 -1058.3594331287445
    endloop
  endfacet
  facet normal 0.81649657151840149 -0 -0.57735028249642006
    outer loop
      vertex 3656.0445161514258 17508.990286649758 -708.09373264642045
      vertex 3408.3692555606731 17261.315040821599 -1058.3594331287445
      vertex 3408.3692555606731 17756.665532477913 -1058.3594331287445
    endloop
  endfacet
  facet normal -0 0.81649658774073319 0.57735025955457864
    outer loop
      vertex 3804.6496400281681 17508.990286649758 -708.09373264642045
      vertex 4300.0001907348633 17508.990286649758 -708.09373264642045
      vertex 4052.3248858563256 17756.665532477913 -1058.3594331287445
    endloop
  endfacet
  facet normal -0 -0.8164965877407292 0.57735025955458419
    outer loop
      vertex 3804.6496400281681 17508.990286649758 -708.09373264642045
      vertex 4052.3248858563256 17261.315040821599 -1058.3594331287445
      vertex 4300.0001907348633 17508.990286649758 -708.09373264642045
    endloop
  endfacet
  facet normal -0.81649658774073064 -0 -0.57735025955458208
    outer loop
      vertex 3804.6496400281681 17508.990286649758 -708.09373264642045
      vertex 4052.3248858563256 17756.665532477913 -1058.3594331287445
      vertex 4052.3248858563256 17261.315040821599 -1058.3594331287445
    endloop
  endfacet
  facet normal 0.81649652285141416 -0 -0.5773503513219248
    outer loop
      vertex 4300.0001907348633 17508.990286649758 -708.09373264642045
      vertex 4052.3248858563256 17261.315040821599 -1058.3594331287445
      vertex 4052.3248858563256 17756.665532477913 -1058.3594331287445
    endloop
  endfacet
endsolid OBJECT
