solid OBJECT
  facet normal -0 0.81649657626981265 -0.57735027577690978
    outer loop
      vertex 155.77454213338319 23923.584083240366 45965.178703032594
      vertex 1458.1487686037701 23923.584083240366 45965.178703032594
      vertex 806.96165536857666 23272.396970005171 45044.261071613626
    endloop
  endfacet
  facet normal 0.81649657626981353 0 -0.57735027577690878
    outer loop
      vertex 1458.1487686037701 23923.584083240366 45965.178703032594
      vertex 1458.1487686037701 22621.20985676998 45965.178703032594
      vertex 806.96165536857666 23272.396970005171 45044.261071613626
    endloop
  endfacet
  facet normal -0 -0.81649657626981431 -0.57735027577690767
    outer loop
      vertex 1458.1487686037701 22621.20985676998 45965.178703032594
      vertex 155.77454213338319 22621.20985676998 45965.178703032594
      vertex 806.96165536857666 23272.396970005171 45044.261071613626
    endloop
  endfacet
  facet normal -0.81649657626981353 0 -0.57735027577690878
    outer loop
      vertex 155.77454213338319 23923.584083240366 45965.178703032594
      vertex 806.96165536857666 23272.396970005171 45044.261071613626
      vertex 155.77454213338319 22621.20985676998 45965.178703032594
    endloop
  endfacet
  facet normal 0 0.81649657626980854 0.577350275776916
    outer loop
      vertex 155.77454213338319 23923.584083240366 45965.178703032594
      vertex 806.96165536857666 23272.396970005171 46886.096334451548
      vertex 1458.1487686037701 23923.584083240366 45965.178703032594
    endloop
  endfacet
  facet normal 0.81649657626980932 -0 0.57735027577691489
    outer loop
      vertex 1458.1487686037701 23923.584083240366 45965.178703032594
      vertex 806.96165536857666 23272.396970005171 46886.096334451548
      vertex 1458.1487686037701 22621.20985676998 45965.178703032594
    endloop
  endfacet
  facet normal 0 -0.81649657626980998 0.57735027577691378
    outer loop
      vertex 1458.1487686037701 22621.20985676998 45965.178703032594
      vertex 806.96165536857666 23272.396970005171 46886.096334451548
      vertex 155.77454213338319 22621.20985676998 45965.178703032594
    endloop
  endfacet
  facet normal -0.81649657626980932 -0 0.57735027577691489
    outer loop
      vertex 155.77454213338319 23923.584083240366 45965.178703032594
      vertex 155.77454213338319 22621.20985676998 45965.178703032594
      vertex 806.96165536857666 23272.396970005171 46886.096334451548
    endloop
  endfacet
  facet normal 0 0.81649658774073008 -0.57735025955458286
    outer loop
      vertex -690.76867402134712 23272.396970005171 44906.123384205632
      vertex -39.581599599930172 23923.584083240366 45827.04105443837
      vertex 611.60551363526338 23272.396970005171 44906.123384205632
    endloop
  endfacet
  facet normal 0 -0.81649658774073153 -0.57735025955458064
    outer loop
      vertex -690.76867402134712 23272.396970005171 44906.123384205632
      vertex 611.60551363526338 23272.396970005171 44906.123384205632
      vertex -39.581599599930172 22621.20985676998 45827.04105443837
    endloop
  endfacet
  facet normal -0.8164966039630599 0 0.57735023661274254
    outer loop
      vertex -690.76867402134712 23272.396970005171 44906.123384205632
      vertex -39.581599599930172 22621.20985676998 45827.04105443837
      vertex -39.581599599930172 23923.584083240366 45827.04105443837
    endloop
  endfacet
  facet normal 0.81649658774073086 0 0.57735025955458186
    outer loop
      vertex 611.60551363526338 23272.396970005171 44906.123384205632
      vertex -39.581599599930172 23923.584083240366 45827.04105443837
      vertex -39.581599599930172 22621.20985676998 45827.04105443837
    endloop
  endfacet
  facet normal 0 0.81649658774073008 -0.57735025955458286
    outer loop
      vertex 1002.3177582881135 23272.396970005171 44906.123384205632
      vertex 1653.504871523307 23923.584083240366 45827.04105443837
      vertex 2304.6919847585004 23272.396970005171 44906.123384205632
    endloop
  endfacet
  facet normal 0 -0.81649658774073153 -0.57735025955458064
    outer loop
      vertex 1002.3177582881135 23272.396970005171 44906.123384205632
      vertex 2304.6919847585004 23272.396970005171 44906.123384205632
      vertex 1653.504871523307 22621.20985676998 45827.04105443837
    endloop
  endfacet
  facet normal -0.81649658774073086 0 0.57735025955458175
    outer loop
      vertex 1002.3177582881135 23272.396970005171 44906.123384205632
      vertex 1653.504871523307 22621.20985676998 45827.04105443837
      vertex 1653.504871523307 23923.584083240366 45827.04105443837
    endloop
  endfacet
  facet normal 0.81649658774073086 0 0.57735025955458175
    outer loop
      vertex 2304.6919847585004 23272.396970005171 44906.123384205632
      vertex 1653.504871523307 23923.584083240366 45827.04105443837
      vertex 1653.504871523307 22621.20985676998 45827.04105443837
    endloop
  endfacet
  facet normal 0 0.81649660396305979 -0.57735023661274298
    outer loop
      vertex 155.77454213338319 24118.940224973678 46103.316351626811
      vertex 806.96165536857666 24770.127299395095 47024.234021859549
      vertex 1458.1487686037701 24118.940224973678 46103.316351626811
    endloop
  endfacet
  facet normal 0 -0.81649658774073153 -0.57735025955458064
    outer loop
      vertex 155.77454213338319 24118.940224973678 46103.316351626811
      vertex 1458.1487686037701 24118.940224973678 46103.316351626811
      vertex 806.96165536857666 23467.753111738486 47024.234021859549
    endloop
  endfacet
  facet normal -0.81649658774073086 0 0.57735025955458175
    outer loop
      vertex 155.77454213338319 24118.940224973678 46103.316351626811
      vertex 806.96165536857666 23467.753111738486 47024.234021859549
      vertex 806.96165536857666 24770.127299395095 47024.234021859549
    endloop
  endfacet
  facet normal 0.81649658774073086 0 0.57735025955458175
    outer loop
      vertex 1458.1487686037701 24118.940224973678 46103.316351626811
      vertex 806.96165536857666 24770.127299395095 47024.234021859549
      vertex 806.96165536857666 23467.753111738486 47024.234021859549
    endloop
  endfacet
  facet normal 0 0.81649658774073008 -0.57735025955458286
    outer loop
      vertex 155.77454213338319 22425.853753850442 46103.316351626811
      vertex 806.96165536857666 23077.040867085638 47024.234021859549
      vertex 1458.1487686037701 22425.853753850442 46103.316351626811
    endloop
  endfacet
  facet normal 0 -0.81649658774073008 -0.57735025955458286
    outer loop
      vertex 155.77454213338319 22425.853753850442 46103.316351626811
      vertex 1458.1487686037701 22425.853753850442 46103.316351626811
      vertex 806.96165536857666 21774.666640615247 47024.234021859549
    endloop
  endfacet
  facet normal -0.81649658774073086 0 0.57735025955458175
    outer loop
      vertex 155.77454213338319 22425.853753850442 46103.316351626811
      vertex 806.96165536857666 21774.666640615247 47024.234021859549
      vertex 806.96165536857666 23077.040867085638 47024.234021859549
    endloop
  endfacet
  facet normal 0.81649658774073086 0 0.57735025955458175
    outer loop
      vertex 1458.1487686037701 22425.853753850442 46103.316351626811
      vertex 806.96165536857666 23077.040867085638 47024.234021859549
      vertex 806.96165536857666 21774.666640615247 47024.234021859549
    endloop
  endfacet
endsolid OBJECT
