solid OBJECT
  facet normal 0.57735027600048405 0.57735026202030126 -0.57735026954809188
    outer loop
      vertex -9.8039130541874826 1.0000000055879452 32.473977885681222
      vertex -8.8039130653633535 1.0000000055879452 33.473977885681222
      vertex -8.8039130653633535 -7.4505708269612114e-09 32.473977885681222
    endloop
  endfacet
  facet normal -0.57735027600048405 -0.57735026202030126 -0.57735026954809188
    outer loop
      vertex -9.8039130541874826 1.0000000055879452 32.473977885681222
      vertex -8.8039130653633535 -7.4505708269612114e-09 32.473977885681222
      vertex -9.8039130541874826 -7.4505708269612114e-09 33.473977885681222
    endloop
  endfacet
  facet normal 0.57735027600048405 -0.57735026202030126 0.57735026954809188
    outer loop
      vertex -8.8039130653633535 -7.4505708269612114e-09 32.473977885681222
      vertex -8.8039130653633535 1.0000000055879452 33.473977885681222
      vertex -9.8039130541874826 -7.4505708269612114e-09 33.473977885681222
    endloop
  endfacet
  facet normal -0.57735027600048405 0.57735026202030126 0.57735026954809188
    outer loop
      vertex -9.8039130541874826 1.0000000055879452 32.473977885681222
      vertex -9.8039130541874826 -7.4505708269612114e-09 33.473977885681222
      vertex -8.8039130653633535 1.0000000055879452 33.473977885681222
    endloop
  endfacet
  facet normal -0.57735025628484204 -0.57735027134042372 -0.57735027994361121
    outer loop
      vertex -9.8039130672260022 7.4505939196001236e-09 33.4739778558789
      vertex -8.8039130541874844 2.2351750228466472e-08 32.473977868917416
      vertex -8.8039130690886509 -0.9999999608844421 33.473977852153617
    endloop
  endfacet
  facet normal 0.5773502541340394 -0.57735029284839723 0.57735026058643968
    outer loop
      vertex -8.8039130690886509 -0.9999999608844421 33.473977852153617
      vertex -7.8039130672260004 3.7252969598000618e-09 33.473977881955939
      vertex -8.80391308026452 -1.1175859460088589e-08 34.473977868917416
    endloop
  endfacet
  facet normal -0.57735027134042605 -0.57735029069759469 0.57735024553085557
    outer loop
      vertex -9.8039130672260022 7.4505939196001236e-09 33.4739778558789
      vertex -8.8039130690886509 -0.9999999608844421 33.473977852153617
      vertex -8.80391308026452 -1.1175859460088589e-08 34.473977868917416
    endloop
  endfacet
  facet normal 0.57735026918962506 -0.57735027349122492 -0.57735026488802743
    outer loop
      vertex -8.8039130690886509 -0.9999999608844421 33.473977852153617
      vertex -8.8039130541874844 2.2351750228466472e-08 32.473977868917416
      vertex -7.8039130672260004 3.7252969598000618e-09 33.473977881955939
    endloop
  endfacet
  facet normal -0.57735027564201657 0.57735026058643912 0.57735027134042161
    outer loop
      vertex -9.8039130672260022 7.4505939196001236e-09 33.4739778558789
      vertex -8.80391308026452 -1.1175859460088589e-08 34.473977868917416
      vertex -8.8039130653633535 1.0000000055879452 33.473977885681222
    endloop
  endfacet
  facet normal 0.57735027779281911 0.57735027779281212 -0.57735025198324574
    outer loop
      vertex -8.8039130541874844 2.2351750228466472e-08 32.473977868917416
      vertex -8.8039130653633535 1.0000000055879452 33.473977885681222
      vertex -7.8039130672260004 3.7252969598000618e-09 33.473977881955939
    endloop
  endfacet
  facet normal -0.57735026058643368 0.5773502799436141 -0.5773502670388293
    outer loop
      vertex -9.8039130672260022 7.4505939196001236e-09 33.4739778558789
      vertex -8.8039130653633535 1.0000000055879452 33.473977885681222
      vertex -8.8039130541874844 2.2351750228466472e-08 32.473977868917416
    endloop
  endfacet
  facet normal 0.577350262737232 0.57735025843563859 0.57735028639600627
    outer loop
      vertex -8.8039130653633535 1.0000000055879452 33.473977885681222
      vertex -8.80391308026452 -1.1175859460088589e-08 34.473977868917416
      vertex -7.8039130672260004 3.7252969598000618e-09 33.473977881955939
    endloop
  endfacet
  facet normal -0.57735026273723455 -0.57735028209440953 -0.57735026273723322
    outer loop
      vertex -8.8039130653633535 -0.99999999999999156 33.473977880093294
      vertex -7.8039130653633553 -0.99999999999999201 32.473977880093294
      vertex -7.8039130653633553 -1.99999996647238 33.473977880093294
    endloop
  endfacet
  facet normal 0.57735026273723322 -0.57735028209441086 0.57735026273723311
    outer loop
      vertex -7.8039130653633553 -1.99999996647238 33.473977880093294
      vertex -6.8039130653633544 -0.99999999999999356 33.473977880093294
      vertex -7.8039130653633535 -0.99999999999999289 34.473977880093294
    endloop
  endfacet
  facet normal -0.57735026273723433 -0.57735028209440931 0.57735026273723355
    outer loop
      vertex -8.8039130653633535 -0.99999999999999156 33.473977880093294
      vertex -7.8039130653633553 -1.99999996647238 33.473977880093294
      vertex -7.8039130653633535 -0.99999999999999289 34.473977880093294
    endloop
  endfacet
  facet normal 0.57735026273723267 -0.57735028209441042 -0.57735026273723411
    outer loop
      vertex -7.8039130653633553 -1.99999996647238 33.473977880093294
      vertex -7.8039130653633553 -0.99999999999999201 32.473977880093294
      vertex -6.8039130653633544 -0.99999999999999356 33.473977880093294
    endloop
  endfacet
  facet normal -0.57735026918962506 0.57735026918962618 0.57735026918962584
    outer loop
      vertex -8.8039130653633535 -0.99999999999999156 33.473977880093294
      vertex -7.8039130653633535 -0.99999999999999289 34.473977880093294
      vertex -7.8039130653633526 7.5495165674510645e-15 33.473977880093294
    endloop
  endfacet
  facet normal 0.57735026918962651 0.57735026918962484 -0.57735026918962618
    outer loop
      vertex -7.8039130653633553 -0.99999999999999201 32.473977880093294
      vertex -7.8039130653633526 7.5495165674510645e-15 33.473977880093294
      vertex -6.8039130653633544 -0.99999999999999356 33.473977880093294
    endloop
  endfacet
  facet normal -0.57735026918962573 0.57735026918962673 -0.57735026918962495
    outer loop
      vertex -8.8039130653633535 -0.99999999999999156 33.473977880093294
      vertex -7.8039130653633526 7.5495165674510645e-15 33.473977880093294
      vertex -7.8039130653633553 -0.99999999999999201 32.473977880093294
    endloop
  endfacet
  facet normal 0.57735026918962662 0.57735026918962495 0.57735026918962573
    outer loop
      vertex -7.8039130653633526 7.5495165674510645e-15 33.473977880093294
      vertex -7.8039130653633535 -0.99999999999999289 34.473977880093294
      vertex -6.8039130653633544 -0.99999999999999356 33.473977880093294
    endloop
  endfacet
  facet normal 0.57735026918962473 -0.57735026918962573 -0.57735026918962673
    outer loop
      vertex -7.8039130653633535 -0.99999999999999822 32.473977880093287
      vertex -7.8039130653633535 3.5527136788005009e-15 31.473977880093287
      vertex -6.8039130653633535 0 32.473977880093287
    endloop
  endfacet
  facet normal 0.57735026918962473 -0.57735026918962573 -0.57735026918962673
    outer loop
      vertex -7.8039130653633535 -0.99999999999999822 32.473977880093287
      vertex -6.8039130653633535 0 32.473977880093287
      vertex -6.8039130653633535 -1.0000000000000018 33.473977880093287
    endloop
  endfacet
  facet normal 0.57735026918962673 0.57735026918962573 -0.57735026918962473
    outer loop
      vertex -7.8039130653633535 1.0000000000000018 32.473977880093287
      vertex -6.8039130653633535 0 32.473977880093287
      vertex -7.8039130653633535 3.5527136788005009e-15 31.473977880093287
    endloop
  endfacet
  facet normal 0.57735026918962606 0.57735026918962506 0.57735026918962606
    outer loop
      vertex -7.8039130653633535 0 33.473977880093287
      vertex -6.8039130653633535 -1.0000000000000018 33.473977880093287
      vertex -6.8039130653633535 0 32.473977880093287
    endloop
  endfacet
  facet normal -0.57735026918962673 -0.57735026918962573 0.57735026918962473
    outer loop
      vertex -7.8039130653633535 0 33.473977880093287
      vertex -7.8039130653633535 -0.99999999999999822 32.473977880093287
      vertex -6.8039130653633535 -1.0000000000000018 33.473977880093287
    endloop
  endfacet
  facet normal 0.57735026918962551 -0.57735026918962651 0.57735026918962551
    outer loop
      vertex -7.8039130653633535 0 33.473977880093287
      vertex -8.8039130653633535 -0.99999999999999822 33.473977880093287
      vertex -7.8039130653633535 -0.99999999999999822 32.473977880093287
    endloop
  endfacet
  facet normal 0.57735026918962606 0.57735026918962506 0.57735026918962606
    outer loop
      vertex -7.8039130653633535 0 33.473977880093287
      vertex -6.8039130653633535 0 32.473977880093287
      vertex -7.8039130653633535 1.0000000000000018 32.473977880093287
    endloop
  endfacet
  facet normal -0.57735026918962606 -0.57735026918962506 -0.57735026918962606
    outer loop
      vertex -8.8039130653633535 3.5527136788005009e-15 32.473977880093287
      vertex -7.8039130653633535 3.5527136788005009e-15 31.473977880093287
      vertex -7.8039130653633535 -0.99999999999999822 32.473977880093287
    endloop
  endfacet
  facet normal -0.57735026918962606 -0.57735026918962506 -0.57735026918962606
    outer loop
      vertex -8.8039130653633535 3.5527136788005009e-15 32.473977880093287
      vertex -7.8039130653633535 -0.99999999999999822 32.473977880093287
      vertex -8.8039130653633535 -0.99999999999999822 33.473977880093287
    endloop
  endfacet
  facet normal -0.57735026918962551 0.57735026918962651 -0.57735026918962551
    outer loop
      vertex -8.8039130653633535 3.5527136788005009e-15 32.473977880093287
      vertex -7.8039130653633535 1.0000000000000018 32.473977880093287
      vertex -7.8039130653633535 3.5527136788005009e-15 31.473977880093287
    endloop
  endfacet
  facet normal -0.57735026918962473 0.57735026918962573 0.57735026918962673
    outer loop
      vertex -8.8039130653633535 3.5527136788005009e-15 32.473977880093287
      vertex -8.8039130653633535 -0.99999999999999822 33.473977880093287
      vertex -7.8039130653633535 0 33.473977880093287
    endloop
  endfacet
  facet normal -0.57735026918962473 0.57735026918962573 0.57735026918962673
    outer loop
      vertex -8.8039130653633535 3.5527136788005009e-15 32.473977880093287
      vertex -7.8039130653633535 0 33.473977880093287
      vertex -7.8039130653633535 1.0000000000000018 32.473977880093287
    endloop
  endfacet
  facet normal 0.57735026918962473 -0.57735026918962473 0.57735026918962784
    outer loop
      vertex -7.8039130653633535 8.8817841970012523e-15 33.473977880093287
      vertex -7.8039130653633535 -0.99999999999999645 32.473977880093287
      vertex -6.8039130653633535 3.5527136788005009e-15 32.473977880093287
    endloop
  endfacet
  facet normal 0.57735026918962651 -0.57735026918962651 -0.57735026918962451
    outer loop
      vertex -7.8039130653633535 0 31.473977880093287
      vertex -6.8039130653633535 3.5527136788005009e-15 32.473977880093287
      vertex -7.8039130653633535 -0.99999999999999645 32.473977880093287
    endloop
  endfacet
  facet normal 0.5773502691896274 0.5773502691896254 0.5773502691896244
    outer loop
      vertex -7.8039130653633535 1.0000000000000071 32.473977880093287
      vertex -8.8039130653633535 1.0000000000000124 33.473977880093287
      vertex -7.8039130653633535 8.8817841970012523e-15 33.473977880093287
    endloop
  endfacet
  facet normal 0.57735026918962584 0.57735026918962373 -0.57735026918962784
    outer loop
      vertex -7.8039130653633535 1.0000000000000071 32.473977880093287
      vertex -6.8039130653633535 3.5527136788005009e-15 32.473977880093287
      vertex -7.8039130653633535 0 31.473977880093287
    endloop
  endfacet
  facet normal -0.57735026918962473 -0.57735026918962473 0.57735026918962784
    outer loop
      vertex -8.8039130653633535 3.5527136788005009e-15 32.473977880093287
      vertex -7.8039130653633535 -0.99999999999999645 32.473977880093287
      vertex -7.8039130653633535 8.8817841970012523e-15 33.473977880093287
    endloop
  endfacet
  facet normal -0.5773502691896254 -0.5773502691896234 0.57735026918962851
    outer loop
      vertex -8.8039130653633535 3.5527136788005009e-15 32.473977880093287
      vertex -7.8039130653633535 8.8817841970012523e-15 33.473977880093287
      vertex -8.8039130653633535 1.0000000000000124 33.473977880093287
    endloop
  endfacet
  facet normal -0.57735026918962651 -0.57735026918962651 -0.57735026918962451
    outer loop
      vertex -8.8039130653633535 3.5527136788005009e-15 32.473977880093287
      vertex -7.8039130653633535 0 31.473977880093287
      vertex -7.8039130653633535 -0.99999999999999645 32.473977880093287
    endloop
  endfacet
  facet normal -0.5773502691896254 0.5773502691896234 -0.57735026918962851
    outer loop
      vertex -8.8039130653633535 3.5527136788005009e-15 32.473977880093287
      vertex -8.8039130653633535 1.0000000000000124 33.473977880093287
      vertex -7.8039130653633535 1.0000000000000071 32.473977880093287
    endloop
  endfacet
  facet normal -0.57735026918962584 0.57735026918962373 -0.57735026918962784
    outer loop
      vertex -8.8039130653633535 3.5527136788005009e-15 32.473977880093287
      vertex -7.8039130653633535 1.0000000000000071 32.473977880093287
      vertex -7.8039130653633535 0 31.473977880093287
    endloop
  endfacet
  facet normal -0.57735026918962584 0.57735026918962373 -0.57735026918962784
    outer loop
      vertex 0.10454823113611234 3.5527136788005009e-15 32.797321382450235
      vertex 1.1045482311361123 1.0000000000000071 32.797321382450235
      vertex 1.1045482311361123 0 31.797321382450235
    endloop
  endfacet
  facet normal -0.5773502691896254 0.5773502691896234 -0.57735026918962851
    outer loop
      vertex 0.10454823113611234 3.5527136788005009e-15 32.797321382450235
      vertex 0.10454823113611234 1.0000000000000124 33.797321382450235
      vertex 1.1045482311361123 1.0000000000000071 32.797321382450235
    endloop
  endfacet
  facet normal -0.57735026918962651 -0.57735026918962651 -0.57735026918962451
    outer loop
      vertex 0.10454823113611234 3.5527136788005009e-15 32.797321382450235
      vertex 1.1045482311361123 0 31.797321382450235
      vertex 1.1045482311361123 -0.99999999999999645 32.797321382450235
    endloop
  endfacet
  facet normal -0.5773502691896254 -0.5773502691896234 0.57735026918962851
    outer loop
      vertex 0.10454823113611234 3.5527136788005009e-15 32.797321382450235
      vertex 1.1045482311361123 8.8817841970012523e-15 33.797321382450235
      vertex 0.10454823113611234 1.0000000000000124 33.797321382450235
    endloop
  endfacet
  facet normal -0.57735026918962473 -0.57735026918962473 0.57735026918962784
    outer loop
      vertex 0.10454823113611234 3.5527136788005009e-15 32.797321382450235
      vertex 1.1045482311361123 -0.99999999999999645 32.797321382450235
      vertex 1.1045482311361123 8.8817841970012523e-15 33.797321382450235
    endloop
  endfacet
  facet normal 0.57735026918962584 0.57735026918962373 -0.57735026918962784
    outer loop
      vertex 1.1045482311361123 1.0000000000000071 32.797321382450235
      vertex 2.1045482311361123 3.5527136788005009e-15 32.797321382450235
      vertex 1.1045482311361123 0 31.797321382450235
    endloop
  endfacet
  facet normal 0.5773502691896274 0.5773502691896254 0.5773502691896244
    outer loop
      vertex 1.1045482311361123 1.0000000000000071 32.797321382450235
      vertex 0.10454823113611234 1.0000000000000124 33.797321382450235
      vertex 1.1045482311361123 8.8817841970012523e-15 33.797321382450235
    endloop
  endfacet
  facet normal -0.57735026918962673 0.57735026918962573 0.57735026918962473
    outer loop
      vertex 1.1045482311361123 1.0000000000000071 32.797321382450235
      vertex 1.1045482311361123 8.8817841970012523e-15 33.797321382450235
      vertex 2.1045482311361123 1.0000000000000107 33.797321382450235
    endloop
  endfacet
  facet normal 0.57735026918962584 0.57735026918962373 -0.57735026918962784
    outer loop
      vertex 1.1045482311361123 1.0000000000000071 32.797321382450235
      vertex 2.1045482311361123 1.0000000000000107 33.797321382450235
      vertex 2.1045482311361123 3.5527136788005009e-15 32.797321382450235
    endloop
  endfacet
  facet normal 0.57735026918962651 -0.57735026918962651 -0.57735026918962451
    outer loop
      vertex 1.1045482311361123 0 31.797321382450235
      vertex 2.1045482311361123 3.5527136788005009e-15 32.797321382450235
      vertex 1.1045482311361123 -0.99999999999999645 32.797321382450235
    endloop
  endfacet
  facet normal 0.57735026918962506 -0.57735026918962407 0.57735026918962817
    outer loop
      vertex 1.1045482311361123 8.8817841970012523e-15 33.797321382450235
      vertex 2.1045482311361123 3.5527136788005009e-15 32.797321382450235
      vertex 2.1045482311361123 1.0000000000000107 33.797321382450235
    endloop
  endfacet
  facet normal 0.57735026918962473 -0.57735026918962473 0.57735026918962784
    outer loop
      vertex 1.1045482311361123 8.8817841970012523e-15 33.797321382450235
      vertex 1.1045482311361123 -0.99999999999999645 32.797321382450235
      vertex 2.1045482311361123 3.5527136788005009e-15 32.797321382450235
    endloop
  endfacet
  facet normal -0.57735026918962473 0.57735026918962573 0.57735026918962673
    outer loop
      vertex 0.10454823113611234 3.5527136788005009e-15 32.797321382450235
      vertex 1.1045482311361123 0 33.797321382450235
      vertex 1.1045482311361123 1.0000000000000018 32.797321382450235
    endloop
  endfacet
  facet normal -0.57735026918962473 0.57735026918962573 0.57735026918962673
    outer loop
      vertex 0.10454823113611234 3.5527136788005009e-15 32.797321382450235
      vertex 0.10454823113611234 -0.99999999999999822 33.797321382450235
      vertex 1.1045482311361123 0 33.797321382450235
    endloop
  endfacet
  facet normal -0.57735026918962551 0.57735026918962651 -0.57735026918962551
    outer loop
      vertex 0.10454823113611234 3.5527136788005009e-15 32.797321382450235
      vertex 1.1045482311361123 1.0000000000000018 32.797321382450235
      vertex 1.1045482311361123 3.5527136788005009e-15 31.797321382450235
    endloop
  endfacet
  facet normal -0.57735026918962606 -0.57735026918962506 -0.57735026918962606
    outer loop
      vertex 0.10454823113611234 3.5527136788005009e-15 32.797321382450235
      vertex 1.1045482311361123 -0.99999999999999822 32.797321382450235
      vertex 0.10454823113611234 -0.99999999999999822 33.797321382450235
    endloop
  endfacet
  facet normal -0.57735026918962606 -0.57735026918962506 -0.57735026918962606
    outer loop
      vertex 0.10454823113611234 3.5527136788005009e-15 32.797321382450235
      vertex 1.1045482311361123 3.5527136788005009e-15 31.797321382450235
      vertex 1.1045482311361123 -0.99999999999999822 32.797321382450235
    endloop
  endfacet
  facet normal 0.57735026918962606 0.57735026918962506 0.57735026918962606
    outer loop
      vertex 1.1045482311361123 0 33.797321382450235
      vertex 2.1045482311361123 0 32.797321382450235
      vertex 1.1045482311361123 1.0000000000000018 32.797321382450235
    endloop
  endfacet
  facet normal 0.57735026918962551 -0.57735026918962651 0.57735026918962551
    outer loop
      vertex 1.1045482311361123 0 33.797321382450235
      vertex 0.10454823113611234 -0.99999999999999822 33.797321382450235
      vertex 1.1045482311361123 -0.99999999999999822 32.797321382450235
    endloop
  endfacet
  facet normal -0.57735026918962673 -0.57735026918962573 0.57735026918962473
    outer loop
      vertex 1.1045482311361123 0 33.797321382450235
      vertex 1.1045482311361123 -0.99999999999999822 32.797321382450235
      vertex 2.1045482311361123 -1.0000000000000018 33.797321382450235
    endloop
  endfacet
  facet normal 0.57735026918962606 0.57735026918962506 0.57735026918962606
    outer loop
      vertex 1.1045482311361123 0 33.797321382450235
      vertex 2.1045482311361123 -1.0000000000000018 33.797321382450235
      vertex 2.1045482311361123 0 32.797321382450235
    endloop
  endfacet
  facet normal 0.57735026918962673 0.57735026918962573 -0.57735026918962473
    outer loop
      vertex 1.1045482311361123 1.0000000000000018 32.797321382450235
      vertex 2.1045482311361123 0 32.797321382450235
      vertex 1.1045482311361123 3.5527136788005009e-15 31.797321382450235
    endloop
  endfacet
  facet normal 0.57735026918962473 -0.57735026918962573 -0.57735026918962673
    outer loop
      vertex 1.1045482311361123 -0.99999999999999822 32.797321382450235
      vertex 2.1045482311361123 0 32.797321382450235
      vertex 2.1045482311361123 -1.0000000000000018 33.797321382450235
    endloop
  endfacet
  facet normal 0.57735026918962473 -0.57735026918962573 -0.57735026918962673
    outer loop
      vertex 1.1045482311361123 -0.99999999999999822 32.797321382450235
      vertex 1.1045482311361123 3.5527136788005009e-15 31.797321382450235
      vertex 2.1045482311361123 0 32.797321382450235
    endloop
  endfacet
  facet normal -0.57735026918962384 -0.57735026918962262 0.57735026918963084
    outer loop
      vertex -7.8039130653633553 -0.99999999999999367 32.473977880093294
      vertex -7.8039130653633544 1.2434497875801753e-14 33.473977880093287
      vertex -8.803913065363357 2.9420910152566648e-15 32.473977880093287
    endloop
  endfacet
  facet normal -0.57735026918962395 -0.57735026918962284 0.57735026918963039
    outer loop
      vertex -7.8039130653633553 -0.99999999999999367 32.473977880093294
      vertex -8.803913065363357 2.9420910152566648e-15 32.473977880093287
      vertex -8.803913065363357 -1.0000000000000031 31.473977880093294
    endloop
  endfacet
  facet normal -0.57735026918962773 0.57735026918962584 0.57735026918962384
    outer loop
      vertex -7.803913065363357 1.0000000000000062 32.473977880093287
      vertex -8.803913065363357 2.9420910152566648e-15 32.473977880093287
      vertex -7.8039130653633544 1.2434497875801753e-14 33.473977880093287
    endloop
  endfacet
  facet normal -0.57735026918962717 0.57735026918962129 -0.57735026918962884
    outer loop
      vertex -7.803913065363357 0 31.473977880093287
      vertex -8.803913065363357 -1.0000000000000031 31.473977880093294
      vertex -8.803913065363357 2.9420910152566648e-15 32.473977880093287
    endloop
  endfacet
  facet normal 0.57735026918962651 -0.57735026918962884 -0.57735026918962207
    outer loop
      vertex -7.803913065363357 0 31.473977880093287
      vertex -7.8039130653633553 -0.99999999999999367 32.473977880093294
      vertex -8.803913065363357 -1.0000000000000031 31.473977880093294
    endloop
  endfacet
  facet normal -0.5773502691896244 -0.57735026918963084 -0.57735026918962207
    outer loop
      vertex -7.803913065363357 0 31.473977880093287
      vertex -6.8039130653633562 -0.99999999999999678 31.473977880093294
      vertex -7.8039130653633553 -0.99999999999999367 32.473977880093294
    endloop
  endfacet
  facet normal -0.57735026918962584 0.57735026918962395 -0.57735026918962751
    outer loop
      vertex -7.803913065363357 0 31.473977880093287
      vertex -8.803913065363357 2.9420910152566648e-15 32.473977880093287
      vertex -7.803913065363357 1.0000000000000062 32.473977880093287
    endloop
  endfacet
  facet normal 0.57735026918962762 -0.57735026918962118 0.5773502691896284
    outer loop
      vertex -6.8039130653633562 9.4924068605450884e-15 32.473977880093287
      vertex -7.8039130653633544 1.2434497875801753e-14 33.473977880093287
      vertex -7.8039130653633553 -0.99999999999999367 32.473977880093294
    endloop
  endfacet
  facet normal 0.5773502691896274 -0.57735026918962107 0.57735026918962873
    outer loop
      vertex -6.8039130653633562 9.4924068605450884e-15 32.473977880093287
      vertex -7.8039130653633553 -0.99999999999999367 32.473977880093294
      vertex -6.8039130653633562 -0.99999999999999678 31.473977880093294
    endloop
  endfacet
  facet normal 0.57735026918962584 0.57735026918962828 0.57735026918962318
    outer loop
      vertex -6.8039130653633562 9.4924068605450884e-15 32.473977880093287
      vertex -7.803913065363357 1.0000000000000062 32.473977880093287
      vertex -7.8039130653633544 1.2434497875801753e-14 33.473977880093287
    endloop
  endfacet
  facet normal 0.5773502691896244 0.57735026918962273 -0.57735026918963039
    outer loop
      vertex -6.8039130653633562 9.4924068605450884e-15 32.473977880093287
      vertex -6.8039130653633562 -0.99999999999999678 31.473977880093294
      vertex -7.803913065363357 0 31.473977880093287
    endloop
  endfacet
  facet normal 0.57735026918962296 0.5773502691896254 -0.57735026918962895
    outer loop
      vertex -6.8039130653633562 9.4924068605450884e-15 32.473977880093287
      vertex -7.803913065363357 0 31.473977880093287
      vertex -7.803913065363357 1.0000000000000062 32.473977880093287
    endloop
  endfacet
  facet normal -0.57735026918962329 -0.57735026918962928 -0.57735026918962473
    outer loop
      vertex -7.803913065363357 8.8817841970012523e-15 31.473977880093287
      vertex -7.8039130653633553 -0.9999999999999919 32.473977880093294
      vertex -8.803913065363357 6.4948046940571658e-15 32.473977880093287
    endloop
  endfacet
  facet normal -0.57735026918962506 -0.57735026918962584 -0.57735026918962651
    outer loop
      vertex -7.803913065363357 8.8817841970012523e-15 31.473977880093287
      vertex -8.803913065363357 6.4948046940571658e-15 32.473977880093287
      vertex -8.8039130653633588 1.0000000000000093 31.473977880093287
    endloop
  endfacet
  facet normal -0.57735026918962551 -0.57735026918962329 0.5773502691896284
    outer loop
      vertex -7.8039130653633544 8.8817841970012523e-15 33.473977880093287
      vertex -8.803913065363357 6.4948046940571658e-15 32.473977880093287
      vertex -7.8039130653633553 -0.9999999999999919 32.473977880093294
    endloop
  endfacet
  facet normal -0.57735026918962684 0.57735026918962384 0.57735026918962651
    outer loop
      vertex -7.803913065363357 1.0000000000000115 32.473977880093287
      vertex -8.8039130653633588 1.0000000000000093 31.473977880093287
      vertex -8.803913065363357 6.4948046940571658e-15 32.473977880093287
    endloop
  endfacet
  facet normal 0.57735026918962473 0.57735026918962551 -0.57735026918962706
    outer loop
      vertex -7.803913065363357 1.0000000000000115 32.473977880093287
      vertex -7.803913065363357 8.8817841970012523e-15 31.473977880093287
      vertex -8.8039130653633588 1.0000000000000093 31.473977880093287
    endloop
  endfacet
  facet normal -0.57735026918963106 0.5773502691896224 -0.57735026918962395
    outer loop
      vertex -7.803913065363357 1.0000000000000115 32.473977880093287
      vertex -6.8039130653633597 1.000000000000014 31.47397788009328
      vertex -7.803913065363357 8.8817841970012523e-15 31.473977880093287
    endloop
  endfacet
  facet normal -0.57735026918962673 0.57735026918962373 0.57735026918962684
    outer loop
      vertex -7.803913065363357 1.0000000000000115 32.473977880093287
      vertex -8.803913065363357 6.4948046940571658e-15 32.473977880093287
      vertex -7.8039130653633544 8.8817841970012523e-15 33.473977880093287
    endloop
  endfacet
  facet normal 0.57735026918962484 -0.57735026918962751 -0.57735026918962495
    outer loop
      vertex -6.8039130653633562 9.4924068605450884e-15 32.473977880093287
      vertex -7.8039130653633553 -0.9999999999999919 32.473977880093294
      vertex -7.803913065363357 8.8817841970012523e-15 31.473977880093287
    endloop
  endfacet
  facet normal 0.57735026918962584 -0.5773502691896254 -0.57735026918962595
    outer loop
      vertex -6.8039130653633562 9.4924068605450884e-15 32.473977880093287
      vertex -7.803913065363357 8.8817841970012523e-15 31.473977880093287
      vertex -6.8039130653633597 1.000000000000014 31.47397788009328
    endloop
  endfacet
  facet normal 0.57735026918962806 -0.57735026918962262 0.57735026918962673
    outer loop
      vertex -6.8039130653633562 9.4924068605450884e-15 32.473977880093287
      vertex -7.8039130653633544 8.8817841970012523e-15 33.473977880093287
      vertex -7.8039130653633553 -0.9999999999999919 32.473977880093294
    endloop
  endfacet
  facet normal 0.57735026918962729 0.57735026918962673 0.57735026918962307
    outer loop
      vertex -6.8039130653633562 9.4924068605450884e-15 32.473977880093287
      vertex -6.8039130653633597 1.000000000000014 31.47397788009328
      vertex -7.803913065363357 1.0000000000000115 32.473977880093287
    endloop
  endfacet
  facet normal 0.57735026918962629 0.57735026918962562 0.57735026918962562
    outer loop
      vertex -6.8039130653633562 9.4924068605450884e-15 32.473977880093287
      vertex -7.803913065363357 1.0000000000000115 32.473977880093287
      vertex -7.8039130653633544 8.8817841970012523e-15 33.473977880093287
    endloop
  endfacet
  facet normal -0.57735027384968662 -0.57735025986950383 0.57735027384968662
    outer loop
      vertex -5.3153233584635728 -0.013636363670229912 30.39194110932295
      vertex -4.3153233696394437 -0.013636363670229912 31.391941098147079
      vertex -5.3153233584635728 0.98636364936828613 31.391941098147079
    endloop
  endfacet
  facet normal -0.57735027384968662 0.57735025986950383 -0.57735027384968662
    outer loop
      vertex -5.3153233584635728 -0.013636363670229912 30.39194110932295
      vertex -5.3153233584635728 0.98636364936828613 31.391941098147079
      vertex -4.3153233696394437 0.98636364936828613 30.39194110932295
    endloop
  endfacet
  facet normal 0.57735027384968662 0.57735025986950383 0.57735027384968662
    outer loop
      vertex -5.3153233584635728 0.98636364936828613 31.391941098147079
      vertex -4.3153233696394437 -0.013636363670229912 31.391941098147079
      vertex -4.3153233696394437 0.98636364936828613 30.39194110932295
    endloop
  endfacet
  facet normal 0.57735027384968662 -0.57735025986950383 -0.57735027384968662
    outer loop
      vertex -5.3153233584635728 -0.013636363670229912 30.39194110932295
      vertex -4.3153233696394437 0.98636364936828613 30.39194110932295
      vertex -4.3153233696394437 -0.013636363670229912 31.391941098147079
    endloop
  endfacet
  facet normal -0.57735026954809188 0.57735026202030126 0.57735027600048405
    outer loop
      vertex -4.2153234054022306 -0.013636363670229912 31.391941098147079
      vertex -3.2153234054022306 0.98636364936828613 31.391941098147079
      vertex -4.2153234054022306 0.98636364936828613 30.39194110932295
    endloop
  endfacet
  facet normal -0.57735026954809188 -0.57735026202030126 -0.57735027600048405
    outer loop
      vertex -4.2153234054022306 -0.013636363670229912 31.391941098147079
      vertex -4.2153234054022306 0.98636364936828613 30.39194110932295
      vertex -3.2153234054022306 -0.013636363670229912 30.39194110932295
    endloop
  endfacet
  facet normal 0.57735026954809188 0.57735026202030126 -0.57735027600048405
    outer loop
      vertex -4.2153234054022306 0.98636364936828613 30.39194110932295
      vertex -3.2153234054022306 0.98636364936828613 31.391941098147079
      vertex -3.2153234054022306 -0.013636363670229912 30.39194110932295
    endloop
  endfacet
  facet normal 0.57735026954809188 -0.57735026202030126 0.57735027600048405
    outer loop
      vertex -4.2153234054022306 -0.013636363670229912 31.391941098147079
      vertex -3.2153234054022306 -0.013636363670229912 30.39194110932295
      vertex -3.2153234054022306 0.98636364936828613 31.391941098147079
    endloop
  endfacet
  facet normal 0.57735027600048405 0.57735026202030126 -0.57735026954809188
    outer loop
      vertex -5.3153233584635728 0.98636364936828613 31.491941062384292
      vertex -4.3153233696394437 0.98636364936828613 32.491941062384292
      vertex -4.3153233696394437 -0.013636363670229912 31.491941062384292
    endloop
  endfacet
  facet normal -0.57735027600048405 -0.57735026202030126 -0.57735026954809188
    outer loop
      vertex -5.3153233584635728 0.98636364936828613 31.491941062384292
      vertex -4.3153233696394437 -0.013636363670229912 31.491941062384292
      vertex -5.3153233584635728 -0.013636363670229912 32.491941062384292
    endloop
  endfacet
  facet normal 0.57735027600048405 -0.57735026202030126 0.57735026954809188
    outer loop
      vertex -4.3153233696394437 -0.013636363670229912 31.491941062384292
      vertex -4.3153233696394437 0.98636364936828613 32.491941062384292
      vertex -5.3153233584635728 -0.013636363670229912 32.491941062384292
    endloop
  endfacet
  facet normal -0.57735027600048405 0.57735026202030126 0.57735026954809188
    outer loop
      vertex -5.3153233584635728 0.98636364936828613 31.491941062384292
      vertex -5.3153233584635728 -0.013636363670229912 32.491941062384292
      vertex -4.3153233696394437 0.98636364936828613 32.491941062384292
    endloop
  endfacet
  facet normal -0.57735027169888931 -0.57735026417109858 0.57735027169888931
    outer loop
      vertex -4.2153234054022306 -0.013636363670229912 31.491941062384292
      vertex -3.2153234054022306 -0.013636363670229912 32.491941062384292
      vertex -4.2153234054022306 0.98636364936828613 32.491941062384292
    endloop
  endfacet
  facet normal -0.57735027169888931 0.57735026417109858 -0.57735027169888931
    outer loop
      vertex -4.2153234054022306 -0.013636363670229912 31.491941062384292
      vertex -4.2153234054022306 0.98636364936828613 32.491941062384292
      vertex -3.2153234054022306 0.98636364936828613 31.491941062384292
    endloop
  endfacet
  facet normal 0.57735027169888931 0.57735026417109858 0.57735027169888931
    outer loop
      vertex -4.2153234054022306 0.98636364936828613 32.491941062384292
      vertex -3.2153234054022306 -0.013636363670229912 32.491941062384292
      vertex -3.2153234054022306 0.98636364936828613 31.491941062384292
    endloop
  endfacet
  facet normal 0.57735027169888931 -0.57735026417109858 -0.57735027169888931
    outer loop
      vertex -4.2153234054022306 -0.013636363670229912 31.491941062384292
      vertex -3.2153234054022306 0.98636364936828613 31.491941062384292
      vertex -3.2153234054022306 -0.013636363670229912 32.491941062384292
    endloop
  endfacet
  facet normal -0.57735026273723355 -0.57735028209441019 -0.57735026273723355
    outer loop
      vertex -5.2653233577185148 1.0363636016845703 31.441941110068008
      vertex -4.2653233577185148 1.0363636016845703 30.441941110068008
      vertex -4.2653233577185148 0.036363635212182999 31.441941110068008
    endloop
  endfacet
  facet normal 0.57735026273723355 -0.57735028209441019 0.57735026273723355
    outer loop
      vertex -4.2653233577185148 0.036363635212182999 31.441941110068008
      vertex -3.2653233577185148 1.0363636016845703 31.441941110068008
      vertex -4.2653233577185148 1.0363636016845703 32.441941110068008
    endloop
  endfacet
  facet normal -0.57735026273723355 -0.57735028209441019 0.57735026273723355
    outer loop
      vertex -5.2653233577185148 1.0363636016845703 31.441941110068008
      vertex -4.2653233577185148 0.036363635212182999 31.441941110068008
      vertex -4.2653233577185148 1.0363636016845703 32.441941110068008
    endloop
  endfacet
  facet normal 0.57735026273723355 -0.57735028209441019 -0.57735026273723355
    outer loop
      vertex -4.2653233577185148 0.036363635212182999 31.441941110068008
      vertex -4.2653233577185148 1.0363636016845703 30.441941110068008
      vertex -3.2653233577185148 1.0363636016845703 31.441941110068008
    endloop
  endfacet
  facet normal -0.57735026918962584 0.57735026918962584 0.57735026918962584
    outer loop
      vertex -5.2653233577185148 1.0363636016845703 31.441941110068008
      vertex -4.2653233577185148 1.0363636016845703 32.441941110068008
      vertex -4.2653233577185148 2.0363636016845703 31.441941110068008
    endloop
  endfacet
  facet normal 0.57735026918962584 0.57735026918962584 -0.57735026918962584
    outer loop
      vertex -4.2653233577185148 1.0363636016845703 30.441941110068008
      vertex -4.2653233577185148 2.0363636016845703 31.441941110068008
      vertex -3.2653233577185148 1.0363636016845703 31.441941110068008
    endloop
  endfacet
  facet normal -0.57735026918962584 0.57735026918962584 -0.57735026918962584
    outer loop
      vertex -5.2653233577185148 1.0363636016845703 31.441941110068008
      vertex -4.2653233577185148 2.0363636016845703 31.441941110068008
      vertex -4.2653233577185148 1.0363636016845703 30.441941110068008
    endloop
  endfacet
  facet normal 0.57735026918962584 0.57735026918962584 0.57735026918962584
    outer loop
      vertex -4.2653233577185148 2.0363636016845703 31.441941110068008
      vertex -4.2653233577185148 1.0363636016845703 32.441941110068008
      vertex -3.2653233577185148 1.0363636016845703 31.441941110068008
    endloop
  endfacet
  facet normal -0.5773502685175016 -0.57735027053387411 -0.5773502685175016
    outer loop
      vertex -2.5037593167388157 1.003636360168457 31.669002008438333
      vertex -1.5037593167388157 1.003636360168457 30.669002008438333
      vertex -1.5037593167388157 0.0036363636609166861 31.669002008438333
    endloop
  endfacet
  facet normal 0.5773502685175016 -0.57735027053387411 0.5773502685175016
    outer loop
      vertex -1.5037593167388157 0.0036363636609166861 31.669002008438333
      vertex -0.50375931673881569 1.003636360168457 31.669002008438333
      vertex -1.5037593167388157 1.003636360168457 32.669002008438333
    endloop
  endfacet
  facet normal -0.5773502685175016 -0.57735027053387411 0.5773502685175016
    outer loop
      vertex -2.5037593167388157 1.003636360168457 31.669002008438333
      vertex -1.5037593167388157 0.0036363636609166861 31.669002008438333
      vertex -1.5037593167388157 1.003636360168457 32.669002008438333
    endloop
  endfacet
  facet normal 0.5773502685175016 -0.57735027053387411 -0.5773502685175016
    outer loop
      vertex -1.5037593167388157 0.0036363636609166861 31.669002008438333
      vertex -1.5037593167388157 1.003636360168457 30.669002008438333
      vertex -0.50375931673881569 1.003636360168457 31.669002008438333
    endloop
  endfacet
  facet normal -0.57735026918962584 0.57735026918962584 0.57735026918962584
    outer loop
      vertex -2.5037593167388157 1.003636360168457 31.669002008438333
      vertex -1.5037593167388157 1.003636360168457 32.669002008438333
      vertex -1.5037593167388157 2.003636360168457 31.669002008438333
    endloop
  endfacet
  facet normal 0.57735026918962584 0.57735026918962584 -0.57735026918962584
    outer loop
      vertex -1.5037593167388157 1.003636360168457 30.669002008438333
      vertex -1.5037593167388157 2.003636360168457 31.669002008438333
      vertex -0.50375931673881569 1.003636360168457 31.669002008438333
    endloop
  endfacet
  facet normal -0.57735026918962584 0.57735026918962584 -0.57735026918962584
    outer loop
      vertex -2.5037593167388157 1.003636360168457 31.669002008438333
      vertex -1.5037593167388157 2.003636360168457 31.669002008438333
      vertex -1.5037593167388157 1.003636360168457 30.669002008438333
    endloop
  endfacet
  facet normal 0.57735026918962584 0.57735026918962584 0.57735026918962584
    outer loop
      vertex -1.5037593167388157 2.003636360168457 31.669002008438333
      vertex -1.5037593167388157 1.003636360168457 32.669002008438333
      vertex -0.50375931673881569 1.003636360168457 31.669002008438333
    endloop
  endfacet
  facet normal 0.57735029058557596 0.57735029253473613 -0.57735022444856265
    outer loop
      vertex -2.508759316627057 0.99863636493682861 31.674002003669962
      vertex -1.5087593119704441 0.99863636493682861 32.674002122879251
      vertex -1.5087593119704441 -0.0013636363437399268 31.674002003669962
    endloop
  endfacet
  facet normal -0.57735029058557596 -0.57735029253473613 -0.57735022444856265
    outer loop
      vertex -2.508759316627057 0.99863636493682861 31.674002003669962
      vertex -1.5087593119704441 -0.0013636363437399268 31.674002003669962
      vertex -2.508759316627057 -0.0013636363437399268 32.674002122879251
    endloop
  endfacet
  facet normal 0.57735029058557585 -0.57735029253473602 0.57735022444856254
    outer loop
      vertex -1.5087593119704441 -0.0013636363437399268 31.674002003669962
      vertex -1.5087593119704441 0.99863636493682861 32.674002122879251
      vertex -2.508759316627057 -0.0013636363437399268 32.674002122879251
    endloop
  endfacet
  facet normal -0.57735029058557585 0.57735029253473602 0.57735022444856254
    outer loop
      vertex -2.508759316627057 0.99863636493682861 31.674002003669962
      vertex -2.508759316627057 -0.0013636363437399268 32.674002122879251
      vertex -1.5087593119704441 0.99863636493682861 32.674002122879251
    endloop
  endfacet
  facet normal -0.57735022444856254 0.57735029253473602 0.57735029058557585
    outer loop
      vertex -1.4987593215071873 -0.0013636363437399268 31.664002013206705
      vertex -0.49875920229789772 0.99863636493682861 31.664002013206705
      vertex -1.4987593215071873 0.99863636493682861 30.664002008550092
    endloop
  endfacet
  facet normal -0.57735022444856254 -0.57735029253473602 -0.57735029058557585
    outer loop
      vertex -1.4987593215071873 -0.0013636363437399268 31.664002013206705
      vertex -1.4987593215071873 0.99863636493682861 30.664002008550092
      vertex -0.49875920229789772 -0.0013636363437399268 30.664002008550092
    endloop
  endfacet
  facet normal 0.57735022444856265 0.57735029253473613 -0.57735029058557596
    outer loop
      vertex -1.4987593215071873 0.99863636493682861 30.664002008550092
      vertex -0.49875920229789772 0.99863636493682861 31.664002013206705
      vertex -0.49875920229789772 -0.0013636363437399268 30.664002008550092
    endloop
  endfacet
  facet normal 0.57735022444856265 -0.57735029253473613 0.57735029058557596
    outer loop
      vertex -1.4987593215071873 -0.0013636363437399268 31.664002013206705
      vertex -0.49875920229789772 -0.0013636363437399268 30.664002008550092
      vertex -0.49875920229789772 0.99863636493682861 31.664002013206705
    endloop
  endfacet
  facet normal -0.57735026853990579 -0.57735027048906584 0.57735026853990579
    outer loop
      vertex -2.508759316627057 -0.0013636363437399268 30.664002008550092
      vertex -1.5087593119704441 -0.0013636363437399268 31.664002013206705
      vertex -2.508759316627057 0.99863636493682861 31.664002013206705
    endloop
  endfacet
  facet normal -0.57735026853990579 0.57735027048906584 -0.57735026853990579
    outer loop
      vertex -2.508759316627057 -0.0013636363437399268 30.664002008550092
      vertex -2.508759316627057 0.99863636493682861 31.664002013206705
      vertex -1.5087593119704441 0.99863636493682861 30.664002008550092
    endloop
  endfacet
  facet normal 0.57735026853990579 0.57735027048906584 0.57735026853990579
    outer loop
      vertex -2.508759316627057 0.99863636493682861 31.664002013206705
      vertex -1.5087593119704441 -0.0013636363437399268 31.664002013206705
      vertex -1.5087593119704441 0.99863636493682861 30.664002008550092
    endloop
  endfacet
  facet normal 0.57735026853990579 -0.57735027048906584 -0.57735026853990579
    outer loop
      vertex -2.508759316627057 -0.0013636363437399268 30.664002008550092
      vertex -1.5087593119704441 0.99863636493682861 30.664002008550092
      vertex -1.5087593119704441 -0.0013636363437399268 31.664002013206705
    endloop
  endfacet
  facet normal -0.57735024649423283 -0.57735031458040886 0.57735024649423283
    outer loop
      vertex -1.0395096479686905 -0.0013636363437399268 31.220095724152785
      vertex -0.039509528759400947 -0.0013636363437399268 32.220095843362074
      vertex -1.0395096479686905 0.99863636493682861 32.220095843362074
    endloop
  endfacet
  facet normal -0.57735024649423283 0.57735031458040886 -0.57735024649423283
    outer loop
      vertex -1.0395096479686905 -0.0013636363437399268 31.220095724152785
      vertex -1.0395096479686905 0.99863636493682861 32.220095843362074
      vertex -0.039509528759400947 0.99863636493682861 31.220095724152785
    endloop
  endfacet
  facet normal 0.57735024649423283 0.57735031458040886 0.57735024649423283
    outer loop
      vertex -1.0395096479686905 0.99863636493682861 32.220095843362074
      vertex -0.039509528759400947 -0.0013636363437399268 32.220095843362074
      vertex -0.039509528759400947 0.99863636493682861 31.220095724152785
    endloop
  endfacet
  facet normal 0.57735024649423283 -0.57735031458040886 -0.57735024649423283
    outer loop
      vertex -1.0395096479686905 -0.0013636363437399268 31.220095724152785
      vertex -0.039509528759400947 0.99863636493682861 31.220095724152785
      vertex -0.039509528759400947 -0.0013636363437399268 32.220095843362074
    endloop
  endfacet
  facet normal -0.57735025628483994 -0.57735028209441142 -0.57735026918962562
    outer loop
      vertex -9.803913065363357 0.99999997764826354 32.473977880093287
      vertex -8.8039130653633588 1.0000000000000093 31.473977880093287
      vertex -8.8039130541874844 2.2351750228466472e-08 32.473977868917416
    endloop
  endfacet
  facet normal 0.57735026918962751 -0.57735028209440886 0.57735025628484071
    outer loop
      vertex -8.8039130541874844 2.2351750228466472e-08 32.473977868917416
      vertex -7.803913065363357 1.0000000000000118 32.473977880093287
      vertex -8.803913065363357 0.99999997764826598 33.473977880093287
    endloop
  endfacet
  facet normal -0.5773502562848396 -0.57735029499919577 0.57735025628484105
    outer loop
      vertex -9.803913065363357 0.99999997764826354 32.473977880093287
      vertex -8.8039130541874844 2.2351750228466472e-08 32.473977868917416
      vertex -8.803913065363357 0.99999997764826598 33.473977880093287
    endloop
  endfacet
  facet normal 0.57735026918962695 -0.57735026918962395 -0.57735026918962662
    outer loop
      vertex -8.8039130541874844 2.2351750228466472e-08 32.473977868917416
      vertex -8.8039130653633588 1.0000000000000093 31.473977880093287
      vertex -7.803913065363357 1.0000000000000118 32.473977880093287
    endloop
  endfacet
  facet normal -0.57735027564201957 0.57735025628483949 0.57735027564201813
    outer loop
      vertex -9.803913065363357 0.99999997764826354 32.473977880093287
      vertex -8.803913065363357 0.99999997764826598 33.473977880093287
      vertex -8.8039130765392315 1.9999999888241375 32.473977891269158
    endloop
  endfacet
  facet normal 0.57735026273723156 0.57735028209441175 -0.577350262737234
    outer loop
      vertex -8.8039130653633588 1.0000000000000093 31.473977880093287
      vertex -8.8039130765392315 1.9999999888241375 32.473977891269158
      vertex -7.803913065363357 1.0000000000000118 32.473977880093287
    endloop
  endfacet
  facet normal -0.57735027564202024 0.57735026918962418 -0.57735026273723278
    outer loop
      vertex -9.803913065363357 0.99999997764826354 32.473977880093287
      vertex -8.8039130765392315 1.9999999888241375 32.473977891269158
      vertex -8.8039130653633588 1.0000000000000093 31.473977880093287
    endloop
  endfacet
  facet normal 0.57735026273723156 0.57735026918962751 0.57735027564201802
    outer loop
      vertex -8.8039130765392315 1.9999999888241375 32.473977891269158
      vertex -8.803913065363357 0.99999997764826598 33.473977880093287
      vertex -7.803913065363357 1.0000000000000118 32.473977880093287
    endloop
  endfacet
  facet normal -0.57735027707588593 -0.57735026954808999 0.57735026094490127
    outer loop
      vertex -8.8039130653633535 -0.99999999999999156 33.473977880093294
      vertex -7.8039130774705523 -1.0000000037252772 34.473977892200494
      vertex -8.8039130802645182 6.5192713449846451e-09 34.473977886612552
    endloop
  endfacet
  facet normal -0.57735026632189368 0.57735026632189479 -0.57735027492508895
    outer loop
      vertex -8.8039130653633535 -0.99999999999999156 33.473977880093294
      vertex -8.8039130802645182 6.5192713449846451e-09 34.473977886612552
      vertex -7.8039130681573203 1.5832491540024307e-08 33.473977898719745
    endloop
  endfacet
  facet normal 0.57735026309569892 0.57735026202030337 0.57735028245287456
    outer loop
      vertex -8.8039130802645182 6.5192713449846451e-09 34.473977886612552
      vertex -7.8039130774705523 -1.0000000037252772 34.473977892200494
      vertex -7.8039130681573203 1.5832491540024307e-08 33.473977898719745
    endloop
  endfacet
  facet normal 0.5773502803020818 -0.57735025879410917 -0.57735026847268622
    outer loop
      vertex -8.8039130653633535 -0.99999999999999156 33.473977880093294
      vertex -7.8039130681573203 1.5832491540024307e-08 33.473977898719745
      vertex -7.8039130774705523 -1.0000000037252772 34.473977892200494
    endloop
  endfacet
endsolid OBJECT
