solid OBJECT
  facet normal -0.57811924440756368 -0.57696539724910179 0.57696539724910179
    outer loop
      vertex -2000 86532.159758381749 38867.004908971314
      vertex -1000 86532.159758381749 39869.004764012818
      vertex -2000 87534.159613423253 39869.004764012818
    endloop
  endfacet
  facet normal -0.57696539724910179 -0.57811924440756368 0.57696539724910179
    outer loop
      vertex 1998.0001449584961 82534.159613423253 38867.004908971314
      vertex 3000 82534.159613423253 39869.004764012818
      vertex 1998.0001449584961 83534.159613423253 39869.004764012818
    endloop
  endfacet
  facet normal -0.57811933599150778 -0.57696535136554705 0.57696535136554705
    outer loop
      vertex -2000 84532.159758381749 36867.004908971314
      vertex -1000 84532.159758381749 37869.005002431397
      vertex -2000 85534.159851841832 37869.005002431397
    endloop
  endfacet
  facet normal -0.57696535136554705 -0.57811933599150778 0.57696535136554705
    outer loop
      vertex -1.9998550415039062 82534.159613423253 36867.004908971314
      vertex 1000.0002384185791 82534.159613423253 37869.005002431397
      vertex -1.9998550415039062 83534.159613423253 37869.005002431397
    endloop
  endfacet
  facet normal -0.57734795957116725 -0.57619551469050567 -0.57850502368566614
    outer loop
      vertex -2000 84532.159758381749 38867.004908971314
      vertex -2000 85534.159851841832 37869.005002431397
      vertex -1000 84532.159758381749 37869.005002431397
    endloop
  endfacet
  facet normal -0.57619551469050567 -0.57734795957116725 -0.57850502368566614
    outer loop
      vertex -1.9998550415039062 82534.159613423253 38867.004908971314
      vertex -1.9998550415039062 83534.159613423253 37869.005002431397
      vertex 1000.0002384185791 82534.159613423253 37869.005002431397
    endloop
  endfacet
  facet normal 0.5785049317349642 -0.57734800573069911 0.57619556075789846
    outer loop
      vertex -1.9998550415039062 83534.159613423253 37869.005002431397
      vertex -1000 82534.159613423253 37869.005002431397
      vertex -1.9998550415039062 82534.159613423253 36867.004908971314
    endloop
  endfacet
  facet normal 0.57773509506171328 -0.57657970861920038 -0.57773523308054431
    outer loop
      vertex -1000 82534.159613423253 37869.005002431397
      vertex -1.9998550415039062 83534.159613423253 37869.005002431397
      vertex -1.9998550415039062 82534.159613423253 38867.004908971314
    endloop
  endfacet
  facet normal 0.57773523308054431 -0.57657970861920038 -0.57773509506171328
    outer loop
      vertex 1000.0002384185791 82534.159613423253 39869.004764012818
      vertex 1998.0001449584961 83534.159613423253 39869.004764012818
      vertex 1998.0001449584961 82534.159613423253 40867.004908971314
    endloop
  endfacet
  facet normal -0.57734800573069911 0.5785049317349642 0.57619556075789846
    outer loop
      vertex -2000 83534.159613423253 37869.005002431397
      vertex -1000 84532.159758381749 37869.005002431397
      vertex -2000 84532.159758381749 36867.004908971314
    endloop
  endfacet
  facet normal -0.57657970861920038 0.57773523308054431 -0.57773509506171328
    outer loop
      vertex -2000 85534.159851841832 39869.004764012818
      vertex -2000 86532.159758381749 40867.004908971314
      vertex -1000 86532.159758381749 39869.004764012818
    endloop
  endfacet
  facet normal -0.57657970861920038 0.57773509506171328 -0.57773523308054431
    outer loop
      vertex -2000 83534.159613423253 37869.005002431397
      vertex -2000 84532.159758381749 38867.004908971314
      vertex -1000 84532.159758381749 37869.005002431397
    endloop
  endfacet
  facet normal -0.57696539724910179 0.57696539724910179 -0.57811924440756368
    outer loop
      vertex 1998.0001449584961 87534.159613423253 35869.004764012818
      vertex 3000 87534.159613423253 34869.004764012818
      vertex 1998.0001449584961 86532.159758381749 34869.004764012818
    endloop
  endfacet
  facet normal -0.57811924440756368 0.57696539724910179 -0.57696539724910179
    outer loop
      vertex -2000 87534.159613423253 39869.004764012818
      vertex -1000 87534.159613423253 38867.004908971314
      vertex -2000 86532.159758381749 38867.004908971314
    endloop
  endfacet
  facet normal -0.57811933599150778 0.57696535136554705 -0.57696535136554705
    outer loop
      vertex -2000 85534.159851841832 37869.005002431397
      vertex -1000 85534.159851841832 36867.004908971314
      vertex -2000 84532.159758381749 36867.004908971314
    endloop
  endfacet
  facet normal -0.57696535136554705 0.57696535136554705 -0.57811933599150778
    outer loop
      vertex -1.9998550415039062 85534.159851841832 35869.004764012818
      vertex 1000.0002384185791 85534.159851841832 34869.004764012818
      vertex -1.9998550415039062 84532.159758381749 34869.004764012818
    endloop
  endfacet
  facet normal -0.57734795957116725 -0.57850502368566614 -0.57619551469050567
    outer loop
      vertex -2000 86532.159758381749 36867.004908971314
      vertex -1000 85534.159851841832 36867.004908971314
      vertex -2000 85534.159851841832 37869.005002431397
    endloop
  endfacet
  facet normal -0.57619551469050567 -0.57850502368566614 -0.57734795957116725
    outer loop
      vertex -1.9998550415039062 86532.159758381749 34869.004764012818
      vertex 1000.0002384185791 85534.159851841832 34869.004764012818
      vertex -1.9998550415039062 85534.159851841832 35869.004764012818
    endloop
  endfacet
  facet normal 0.5785049317349642 0.57619556075789846 -0.57734800573069911
    outer loop
      vertex -1000 85534.159851841832 34869.004764012818
      vertex -1.9998550415039062 85534.159851841832 35869.004764012818
      vertex -1.9998550415039062 84532.159758381749 34869.004764012818
    endloop
  endfacet
  facet normal 0.57773523308054431 -0.57773509506171328 -0.57657970861920038
    outer loop
      vertex 1000.0002384185791 87534.159613423253 34869.004764012818
      vertex 1998.0001449584961 88532.159758381749 34869.004764012818
      vertex 1998.0001449584961 87534.159613423253 35869.004764012818
    endloop
  endfacet
  facet normal 0.57773509506171328 -0.57773523308054431 -0.57657970861920038
    outer loop
      vertex -1000 85534.159851841832 34869.004764012818
      vertex -1.9998550415039062 86532.159758381749 34869.004764012818
      vertex -1.9998550415039062 85534.159851841832 35869.004764012818
    endloop
  endfacet
  facet normal -0.57734800573069911 0.57619556075789846 0.5785049317349642
    outer loop
      vertex -1000 85534.159851841832 36867.004908971314
      vertex -2000 85534.159851841832 35869.004764012818
      vertex -2000 84532.159758381749 36867.004908971314
    endloop
  endfacet
  facet normal -0.57657970861920038 -0.57773509506171328 0.57773523308054431
    outer loop
      vertex -1000 87534.159613423253 38867.004908971314
      vertex -2000 88532.159758381749 38867.004908971314
      vertex -2000 87534.159613423253 37869.005002431397
    endloop
  endfacet
  facet normal -0.57657970861920038 -0.57773523308054431 0.57773509506171328
    outer loop
      vertex -1000 85534.159851841832 36867.004908971314
      vertex -2000 86532.159758381749 36867.004908971314
      vertex -2000 85534.159851841832 35869.004764012818
    endloop
  endfacet
  facet normal -0.57581064591947106 0.57811847417177975 -0.57811861228219863
    outer loop
      vertex -1.9998550415039062 87534.159613423253 37869.005002431397
      vertex -1.9998550415039062 88532.159758381749 38867.004908971314
      vertex 1000.0002384185791 88532.159758381749 37869.005002431397
    endloop
  endfacet
  facet normal -0.57657898490953285 0.57888975489412942 0.57657898490953285
    outer loop
      vertex 3000 88532.159758381749 39869.004764012818
      vertex 1998.0001449584961 88532.159758381749 38867.004908971314
      vertex 1998.0001449584961 87534.159613423253 39869.004764012818
    endloop
  endfacet
  facet normal -0.57657893893440226 0.57888984647733965 0.57657893893440226
    outer loop
      vertex 1000.0002384185791 88532.159758381749 37869.005002431397
      vertex -1.9998550415039062 88532.159758381749 36867.004908971314
      vertex -1.9998550415039062 87534.159613423253 37869.005002431397
    endloop
  endfacet
  facet normal 0.57735022321399321 0.57735036114087979 -0.57735022321399321
    outer loop
      vertex 3998.0001449584961 86532.159758381749 40867.004908971314
      vertex 3998.0001449584961 85534.159851841832 39869.004764012818
      vertex 3000 86532.159758381749 39869.004764012818
    endloop
  endfacet
  facet normal 0.57735022321399321 0.57735022321399321 -0.57735036114087979
    outer loop
      vertex 3998.0001449584961 84532.159758381749 38867.004908971314
      vertex 3998.0001449584961 83534.159613423253 37869.005002431397
      vertex 3000 84532.159758381749 37869.005002431397
    endloop
  endfacet
  facet normal 0.57735036114087979 0.57735022321399321 -0.57735022321399321
    outer loop
      vertex 1998.0001449584961 88532.159758381749 40867.004908971314
      vertex 1998.0001449584961 87534.159613423253 39869.004764012818
      vertex 1000.0002384185791 88532.159758381749 39869.004764012818
    endloop
  endfacet
  facet normal 0.57735022321399321 0.57735022321399321 -0.57735036114087979
    outer loop
      vertex -1.9998550415039062 88532.159758381749 38867.004908971314
      vertex -1.9998550415039062 87534.159613423253 37869.005002431397
      vertex -1000 88532.159758381749 37869.005002431397
    endloop
  endfacet
  facet normal 0.57811852033118893 0.57811852033118893 0.57581069189461354
    outer loop
      vertex 3000 84532.159758381749 37869.005002431397
      vertex 3998.0001449584961 83534.159613423253 37869.005002431397
      vertex 3998.0001449584961 84532.159758381749 36867.004908971314
    endloop
  endfacet
  facet normal 0.57811852033118893 0.57811852033118893 0.57581069189461354
    outer loop
      vertex -1000 88532.159758381749 37869.005002431397
      vertex -1.9998550415039062 87534.159613423253 37869.005002431397
      vertex -1.9998550415039062 88532.159758381749 36867.004908971314
    endloop
  endfacet
  facet normal -0.57657975459471011 0.57773514112935165 -0.57773514112935165
    outer loop
      vertex -2000 83534.159613423253 35869.004764012818
      vertex -2000 84532.159758381749 36867.004908971314
      vertex -1000 84532.159758381749 35869.004764012818
    endloop
  endfacet
  facet normal -0.57657966264370175 0.57773518701290605 -0.57773518701290605
    outer loop
      vertex -2000 85534.159851841832 37869.005002431397
      vertex -2000 86532.159758381749 38867.004908971314
      vertex -1000 86532.159758381749 37869.005002431397
    endloop
  endfacet
  facet normal -0.57734795957116725 0.57850502368566614 0.57619551469050567
    outer loop
      vertex -1000 86532.159758381749 37869.005002431397
      vertex -2000 86532.159758381749 36867.004908971314
      vertex -2000 85534.159851841832 37869.005002431397
    endloop
  endfacet
  facet normal -0.57619560627414423 -0.57734791396224394 -0.57850497798533795
    outer loop
      vertex 1998.0001449584961 82534.159613423253 38867.004908971314
      vertex 1998.0001449584961 83534.159613423253 37869.005002431397
      vertex 3000 82534.159613423253 37869.005002431397
    endloop
  endfacet
  facet normal -0.57734791396224394 -0.57619560627414423 -0.57850497798533795
    outer loop
      vertex -2000 86532.159758381749 38867.004908971314
      vertex -2000 87534.159613423253 37869.005002431397
      vertex -1000 86532.159758381749 37869.005002431397
    endloop
  endfacet
  facet normal -0.57696544294967378 -0.57811929019953023 0.57696530566497495
    outer loop
      vertex 1998.0001449584961 82534.159613423253 36867.004908971314
      vertex 3000 82534.159613423253 37869.005002431397
      vertex 1998.0001449584961 83534.159613423253 37869.005002431397
    endloop
  endfacet
  facet normal -0.57658120238728938 -0.57773441867939102 0.57773441867939102
    outer loop
      vertex -1.9998550415039062 82534.159613423253 34869.004764012818
      vertex 1000.0002384185791 82534.159613423253 35869.004764012818
      vertex -1.9998550415039062 83534.159613423253 35869.004764012818
    endloop
  endfacet
  facet normal -0.57811929019953023 -0.57696544294967378 0.57696530566497495
    outer loop
      vertex -2000 86532.159758381749 36867.004908971314
      vertex -1000 86532.159758381749 37869.005002431397
      vertex -2000 87534.159613423253 37869.005002431397
    endloop
  endfacet
  facet normal -0.57773441867939102 -0.57658120238728938 0.57773441867939102
    outer loop
      vertex -2000 84532.159758381749 34869.004764012818
      vertex -1000 84532.159758381749 35869.004764012818
      vertex -2000 85534.159851841832 35869.004764012818
    endloop
  endfacet
  facet normal -0.57657898490953285 0.57657898490953285 0.57888975489412942
    outer loop
      vertex 1998.0001449584961 86532.159758381749 40867.004908971314
      vertex 3000 87534.159613423253 40867.004908971314
      vertex 1998.0001449584961 87534.159613423253 39869.004764012818
    endloop
  endfacet
  facet normal -0.57657893893440226 0.57657893893440226 0.57888984647733965
    outer loop
      vertex -1.9998550415039062 84532.159758381749 40867.004908971314
      vertex 1000.0002384185791 85534.159851841832 40867.004908971314
      vertex -1.9998550415039062 85534.159851841832 39869.004764012818
    endloop
  endfacet
  facet normal -0.57581064591947106 -0.57811861228219863 0.57811847417177975
    outer loop
      vertex -1.9998550415039062 86532.159758381749 40867.004908971314
      vertex -1.9998550415039062 85534.159851841832 39869.004764012818
      vertex 1000.0002384185791 85534.159851841832 40867.004908971314
    endloop
  endfacet
  facet normal 0.57811852033118893 0.57581069189461354 0.57811852033118893
    outer loop
      vertex -1000 85534.159851841832 40867.004908971314
      vertex -1.9998550415039062 84532.159758381749 40867.004908971314
      vertex -1.9998550415039062 85534.159851841832 39869.004764012818
    endloop
  endfacet
  facet normal 0.57811852033118893 0.57581069189461354 0.57811852033118893
    outer loop
      vertex 3000 85534.159851841832 36867.004908971314
      vertex 3998.0001449584961 84532.159758381749 36867.004908971314
      vertex 3998.0001449584961 85534.159851841832 35869.004764012818
    endloop
  endfacet
  facet normal 0.57735036114087979 -0.57735022321399321 0.57735022321399321
    outer loop
      vertex 1998.0001449584961 87534.159613423253 39869.004764012818
      vertex 1998.0001449584961 88532.159758381749 40867.004908971314
      vertex 1000.0002384185791 87534.159613423253 40867.004908971314
    endloop
  endfacet
  facet normal 0.57735022321399321 -0.57735022321399321 0.57735036114087979
    outer loop
      vertex 3998.0001449584961 87534.159613423253 37869.005002431397
      vertex 3998.0001449584961 88532.159758381749 38867.004908971314
      vertex 3000 87534.159613423253 38867.004908971314
    endloop
  endfacet
  facet normal 0.57735022321399321 -0.57735036114087979 0.57735022321399321
    outer loop
      vertex 3998.0001449584961 85534.159851841832 35869.004764012818
      vertex 3998.0001449584961 86532.159758381749 36867.004908971314
      vertex 3000 85534.159851841832 36867.004908971314
    endloop
  endfacet
  facet normal 0.57735022321399321 -0.57735036114087979 0.57735022321399321
    outer loop
      vertex -1.9998550415039062 85534.159851841832 39869.004764012818
      vertex -1.9998550415039062 86532.159758381749 40867.004908971314
      vertex -1000 85534.159851841832 40867.004908971314
    endloop
  endfacet
  facet normal -0.57734795957116725 0.57619551469050567 0.57850502368566614
    outer loop
      vertex -2000 84532.159758381749 38867.004908971314
      vertex -1000 85534.159851841832 38867.004908971314
      vertex -2000 85534.159851841832 37869.005002431397
    endloop
  endfacet
  facet normal -0.57657966264370175 -0.57773518701290605 0.57773518701290605
    outer loop
      vertex -1000 85534.159851841832 38867.004908971314
      vertex -2000 86532.159758381749 38867.004908971314
      vertex -2000 85534.159851841832 37869.005002431397
    endloop
  endfacet
  facet normal -0.57657975459471011 -0.57773514112935165 0.57773514112935165
    outer loop
      vertex -1000 83534.159613423253 36867.004908971314
      vertex -2000 84532.159758381749 36867.004908971314
      vertex -2000 83534.159613423253 35869.004764012818
    endloop
  endfacet
  facet normal -0.57773441867939102 0.57773441867939102 -0.57658120238728938
    outer loop
      vertex -2000 83534.159613423253 37869.005002431397
      vertex -1000 83534.159613423253 36867.004908971314
      vertex -2000 82534.159613423253 36867.004908971314
    endloop
  endfacet
  facet normal -0.57658120238728938 0.57773441867939102 -0.57773441867939102
    outer loop
      vertex -1.9998550415039062 83534.159613423253 35869.004764012818
      vertex 1000.0002384185791 83534.159613423253 34869.004764012818
      vertex -1.9998550415039062 82534.159613423253 34869.004764012818
    endloop
  endfacet
  facet normal -0.57696544294967378 0.57696530566497495 -0.57811929019953023
    outer loop
      vertex 1998.0001449584961 85534.159851841832 35869.004764012818
      vertex 3000 85534.159851841832 34869.004764012818
      vertex 1998.0001449584961 84532.159758381749 34869.004764012818
    endloop
  endfacet
  facet normal -0.57811929019953023 0.57696530566497495 -0.57696544294967378
    outer loop
      vertex -2000 85534.159851841832 39869.004764012818
      vertex -1000 85534.159851841832 38867.004908971314
      vertex -2000 84532.159758381749 38867.004908971314
    endloop
  endfacet
  facet normal -0.57619560627414423 -0.57850497798533795 -0.57734791396224394
    outer loop
      vertex 1998.0001449584961 86532.159758381749 34869.004764012818
      vertex 3000 85534.159851841832 34869.004764012818
      vertex 1998.0001449584961 85534.159851841832 35869.004764012818
    endloop
  endfacet
  facet normal -0.57734791396224394 -0.57850497798533795 -0.57619560627414423
    outer loop
      vertex -2000 86532.159758381749 38867.004908971314
      vertex -1000 85534.159851841832 38867.004908971314
      vertex -2000 85534.159851841832 39869.004764012818
    endloop
  endfacet
  facet normal 0.57696539724910179 -0.57696539724910179 -0.57811924440756368
    outer loop
      vertex 1998.0001449584961 86532.159758381749 34869.004764012818
      vertex 3000 87534.159613423253 34869.004764012818
      vertex 3000 86532.159758381749 35869.004764012818
    endloop
  endfacet
  facet normal 0.57696535136554705 -0.57811933599150778 -0.57696535136554705
    outer loop
      vertex -1.9998550415039062 82534.159613423253 36867.004908971314
      vertex 1000.0002384185791 83534.159613423253 36867.004908971314
      vertex 1000.0002384185791 82534.159613423253 37869.005002431397
    endloop
  endfacet
  facet normal 0.57696539724910179 -0.57811924440756368 -0.57696539724910179
    outer loop
      vertex 1998.0001449584961 82534.159613423253 38867.004908971314
      vertex 3000 83534.159613423253 38867.004908971314
      vertex 3000 82534.159613423253 39869.004764012818
    endloop
  endfacet
  facet normal 0.57696535136554705 -0.57696535136554705 -0.57811933599150778
    outer loop
      vertex -1.9998550415039062 84532.159758381749 34869.004764012818
      vertex 1000.0002384185791 85534.159851841832 34869.004764012818
      vertex 1000.0002384185791 84532.159758381749 35869.004764012818
    endloop
  endfacet
  facet normal -0.57850502368566614 -0.57734795957116725 -0.57619551469050567
    outer loop
      vertex 1998.0001449584961 82534.159613423253 36867.004908971314
      vertex 1000.0002384185791 82534.159613423253 37869.005002431397
      vertex 1000.0002384185791 83534.159613423253 36867.004908971314
    endloop
  endfacet
  facet normal -0.57850502368566614 -0.57619551469050567 -0.57734795957116725
    outer loop
      vertex 1998.0001449584961 84532.159758381749 34869.004764012818
      vertex 1000.0002384185791 84532.159758381749 35869.004764012818
      vertex 1000.0002384185791 85534.159851841832 34869.004764012818
    endloop
  endfacet
  facet normal 0.57619556075789846 0.5785049317349642 -0.57734800573069911
    outer loop
      vertex 1000.0002384185791 84532.159758381749 35869.004764012818
      vertex 1000.0002384185791 83534.159613423253 34869.004764012818
      vertex -1.9998550415039062 84532.159758381749 34869.004764012818
    endloop
  endfacet
  facet normal -0.57773509506171328 0.57773523308054431 -0.57657970861920038
    outer loop
      vertex 3000 86532.159758381749 35869.004764012818
      vertex 3998.0001449584961 86532.159758381749 34869.004764012818
      vertex 3000 85534.159851841832 34869.004764012818
    endloop
  endfacet
  facet normal -0.57773523308054431 0.57773509506171328 -0.57657970861920038
    outer loop
      vertex 1000.0002384185791 84532.159758381749 35869.004764012818
      vertex 1998.0001449584961 84532.159758381749 34869.004764012818
      vertex 1000.0002384185791 83534.159613423253 34869.004764012818
    endloop
  endfacet
  facet normal 0.57619556075789846 -0.57734800573069911 0.5785049317349642
    outer loop
      vertex 1000.0002384185791 82534.159613423253 35869.004764012818
      vertex 1000.0002384185791 83534.159613423253 36867.004908971314
      vertex -1.9998550415039062 82534.159613423253 36867.004908971314
    endloop
  endfacet
  facet normal -0.57773509506171328 -0.57657970861920038 0.57773523308054431
    outer loop
      vertex 3000 82534.159613423253 37869.005002431397
      vertex 3998.0001449584961 82534.159613423253 38867.004908971314
      vertex 3000 83534.159613423253 38867.004908971314
    endloop
  endfacet
  facet normal -0.57773523308054431 -0.57657970861920038 0.57773509506171328
    outer loop
      vertex 1000.0002384185791 82534.159613423253 35869.004764012818
      vertex 1998.0001449584961 82534.159613423253 36867.004908971314
      vertex 1000.0002384185791 83534.159613423253 36867.004908971314
    endloop
  endfacet
  facet normal -0.57811861228219863 -0.57581064591947106 0.57811847417177975
    outer loop
      vertex 1000.0002384185791 84532.159758381749 39869.004764012818
      vertex 1998.0001449584961 84532.159758381749 40867.004908971314
      vertex 1000.0002384185791 85534.159851841832 40867.004908971314
    endloop
  endfacet
  facet normal 0.57657898490953285 -0.57657898490953285 0.57888975489412942
    outer loop
      vertex 3000 87534.159613423253 40867.004908971314
      vertex 1998.0001449584961 86532.159758381749 40867.004908971314
      vertex 3000 86532.159758381749 39869.004764012818
    endloop
  endfacet
  facet normal 0.57657893893440226 -0.57657893893440226 0.57888984647733965
    outer loop
      vertex 1000.0002384185791 85534.159851841832 40867.004908971314
      vertex -1.9998550415039062 84532.159758381749 40867.004908971314
      vertex 1000.0002384185791 84532.159758381749 39869.004764012818
    endloop
  endfacet
  facet normal -0.57735022321399321 0.57735036114087979 0.57735022321399321
    outer loop
      vertex 3998.0001449584961 86532.159758381749 40867.004908971314
      vertex 3000 86532.159758381749 39869.004764012818
      vertex 3000 85534.159851841832 40867.004908971314
    endloop
  endfacet
  facet normal -0.57735036114087979 0.57735022321399321 0.57735022321399321
    outer loop
      vertex 1998.0001449584961 88532.159758381749 36867.004908971314
      vertex 1000.0002384185791 88532.159758381749 35869.004764012818
      vertex 1000.0002384185791 87534.159613423253 36867.004908971314
    endloop
  endfacet
  facet normal -0.57735022321399321 0.57735022321399321 0.57735036114087979
    outer loop
      vertex 3998.0001449584961 88532.159758381749 38867.004908971314
      vertex 3000 88532.159758381749 37869.005002431397
      vertex 3000 87534.159613423253 38867.004908971314
    endloop
  endfacet
  facet normal -0.57735036114087979 0.57735022321399321 0.57735022321399321
    outer loop
      vertex 1998.0001449584961 84532.159758381749 40867.004908971314
      vertex 1000.0002384185791 84532.159758381749 39869.004764012818
      vertex 1000.0002384185791 83534.159613423253 40867.004908971314
    endloop
  endfacet
  facet normal 0.57581069189461354 0.57811852033118893 0.57811852033118893
    outer loop
      vertex 1000.0002384185791 87534.159613423253 36867.004908971314
      vertex 1000.0002384185791 88532.159758381749 35869.004764012818
      vertex -1.9998550415039062 88532.159758381749 36867.004908971314
    endloop
  endfacet
  facet normal 0.57581069189461354 0.57811852033118893 0.57811852033118893
    outer loop
      vertex 1000.0002384185791 83534.159613423253 40867.004908971314
      vertex 1000.0002384185791 84532.159758381749 39869.004764012818
      vertex -1.9998550415039062 84532.159758381749 40867.004908971314
    endloop
  endfacet
  facet normal -0.57773518701290605 -0.57657966264370175 0.57773518701290605
    outer loop
      vertex 1000.0002384185791 82534.159613423253 37869.005002431397
      vertex 1998.0001449584961 82534.159613423253 38867.004908971314
      vertex 1000.0002384185791 83534.159613423253 38867.004908971314
    endloop
  endfacet
  facet normal -0.57773514112935165 -0.57657975459471011 0.57773514112935165
    outer loop
      vertex -1000 82534.159613423253 35869.004764012818
      vertex -1.9998550415039062 82534.159613423253 36867.004908971314
      vertex -1000 83534.159613423253 36867.004908971314
    endloop
  endfacet
  facet normal 0.57619551469050567 -0.57734795957116725 0.57850502368566614
    outer loop
      vertex 1000.0002384185791 83534.159613423253 38867.004908971314
      vertex -1.9998550415039062 82534.159613423253 38867.004908971314
      vertex 1000.0002384185791 82534.159613423253 37869.005002431397
    endloop
  endfacet
  facet normal -0.57850497798533795 -0.57619560627414423 -0.57734791396224394
    outer loop
      vertex 1998.0001449584961 86532.159758381749 34869.004764012818
      vertex 1000.0002384185791 86532.159758381749 35869.004764012818
      vertex 1000.0002384185791 87534.159613423253 34869.004764012818
    endloop
  endfacet
  facet normal -0.57850497798533795 -0.57734791396224394 -0.57619560627414423
    outer loop
      vertex 1998.0001449584961 82534.159613423253 38867.004908971314
      vertex 1000.0002384185791 82534.159613423253 39869.004764012818
      vertex 1000.0002384185791 83534.159613423253 38867.004908971314
    endloop
  endfacet
  facet normal 0.57773441867939102 -0.57658120238728938 -0.57773441867939102
    outer loop
      vertex -2000 84532.159758381749 34869.004764012818
      vertex -1000 85534.159851841832 34869.004764012818
      vertex -1000 84532.159758381749 35869.004764012818
    endloop
  endfacet
  facet normal 0.57696530566497495 -0.57811929019953023 -0.57696544294967378
    outer loop
      vertex -1.9998550415039062 82534.159613423253 38867.004908971314
      vertex 1000.0002384185791 83534.159613423253 38867.004908971314
      vertex 1000.0002384185791 82534.159613423253 39869.004764012818
    endloop
  endfacet
  facet normal 0.57773441867939102 -0.57773441867939102 -0.57658120238728938
    outer loop
      vertex -2000 82534.159613423253 36867.004908971314
      vertex -1000 83534.159613423253 36867.004908971314
      vertex -1000 82534.159613423253 37869.005002431397
    endloop
  endfacet
  facet normal 0.57696530566497495 -0.57696544294967378 -0.57811929019953023
    outer loop
      vertex -1.9998550415039062 86532.159758381749 34869.004764012818
      vertex 1000.0002384185791 87534.159613423253 34869.004764012818
      vertex 1000.0002384185791 86532.159758381749 35869.004764012818
    endloop
  endfacet
  facet normal 0.57811847417177975 -0.57581064591947106 -0.57811861228219863
    outer loop
      vertex 3998.0001449584961 84532.159758381749 38867.004908971314
      vertex 3000 84532.159758381749 37869.005002431397
      vertex 3998.0001449584961 85534.159851841832 37869.005002431397
    endloop
  endfacet
  facet normal 0.57888975489412942 -0.57657898490953285 0.57657898490953285
    outer loop
      vertex 3998.0001449584961 86532.159758381749 38867.004908971314
      vertex 3998.0001449584961 87534.159613423253 39869.004764012818
      vertex 3000 86532.159758381749 39869.004764012818
    endloop
  endfacet
  facet normal 0.57888984647733965 -0.57657893893440226 0.57657893893440226
    outer loop
      vertex 3998.0001449584961 84532.159758381749 36867.004908971314
      vertex 3998.0001449584961 85534.159851841832 37869.005002431397
      vertex 3000 84532.159758381749 37869.005002431397
    endloop
  endfacet
  facet normal 0.57773518701290605 -0.57657966264370175 -0.57773518701290605
    outer loop
      vertex 1000.0002384185791 82534.159613423253 37869.005002431397
      vertex 1998.0001449584961 83534.159613423253 37869.005002431397
      vertex 1998.0001449584961 82534.159613423253 38867.004908971314
    endloop
  endfacet
  facet normal 0.57773514112935165 -0.57657975459471011 -0.57773514112935165
    outer loop
      vertex -1000 82534.159613423253 35869.004764012818
      vertex -1.9998550415039062 83534.159613423253 35869.004764012818
      vertex -1.9998550415039062 82534.159613423253 36867.004908971314
    endloop
  endfacet
  facet normal 0.57850502368566614 -0.57734795957116725 0.57619551469050567
    outer loop
      vertex 1998.0001449584961 82534.159613423253 36867.004908971314
      vertex 1998.0001449584961 83534.159613423253 37869.005002431397
      vertex 1000.0002384185791 82534.159613423253 37869.005002431397
    endloop
  endfacet
  facet normal -0.57811861228219863 0.57811847417177975 -0.57581064591947106
    outer loop
      vertex 1998.0001449584961 88532.159758381749 36867.004908971314
      vertex 1000.0002384185791 87534.159613423253 36867.004908971314
      vertex 1000.0002384185791 88532.159758381749 37869.005002431397
    endloop
  endfacet
  facet normal 0.57657898490953285 0.57888975489412942 -0.57657898490953285
    outer loop
      vertex 1998.0001449584961 88532.159758381749 38867.004908971314
      vertex 3000 88532.159758381749 39869.004764012818
      vertex 3000 87534.159613423253 38867.004908971314
    endloop
  endfacet
  facet normal 0.57657893893440226 0.57888984647733965 -0.57657893893440226
    outer loop
      vertex -1.9998550415039062 88532.159758381749 36867.004908971314
      vertex 1000.0002384185791 88532.159758381749 37869.005002431397
      vertex 1000.0002384185791 87534.159613423253 36867.004908971314
    endloop
  endfacet
  facet normal -0.57773518701290605 0.57773518701290605 -0.57657966264370175
    outer loop
      vertex 1000.0002384185791 86532.159758381749 35869.004764012818
      vertex 1998.0001449584961 86532.159758381749 34869.004764012818
      vertex 1000.0002384185791 85534.159851841832 34869.004764012818
    endloop
  endfacet
  facet normal -0.57773514112935165 0.57773514112935165 -0.57657975459471011
    outer loop
      vertex -1000 84532.159758381749 35869.004764012818
      vertex -1.9998550415039062 84532.159758381749 34869.004764012818
      vertex -1000 83534.159613423253 34869.004764012818
    endloop
  endfacet
  facet normal 0.57619551469050567 0.57850502368566614 -0.57734795957116725
    outer loop
      vertex -1.9998550415039062 86532.159758381749 34869.004764012818
      vertex 1000.0002384185791 86532.159758381749 35869.004764012818
      vertex 1000.0002384185791 85534.159851841832 34869.004764012818
    endloop
  endfacet
  facet normal 0.57888975489412942 0.57657898490953285 -0.57657898490953285
    outer loop
      vertex 3998.0001449584961 87534.159613423253 39869.004764012818
      vertex 3998.0001449584961 86532.159758381749 38867.004908971314
      vertex 3000 87534.159613423253 38867.004908971314
    endloop
  endfacet
  facet normal 0.57888984647733965 0.57657893893440226 -0.57657893893440226
    outer loop
      vertex 3998.0001449584961 85534.159851841832 37869.005002431397
      vertex 3998.0001449584961 84532.159758381749 36867.004908971314
      vertex 3000 85534.159851841832 36867.004908971314
    endloop
  endfacet
  facet normal 0.57811847417177975 -0.57811861228219863 -0.57581064591947106
    outer loop
      vertex 3000 85534.159851841832 36867.004908971314
      vertex 3998.0001449584961 86532.159758381749 36867.004908971314
      vertex 3998.0001449584961 85534.159851841832 37869.005002431397
    endloop
  endfacet
  facet normal 0.57850502368566614 0.57619551469050567 -0.57734795957116725
    outer loop
      vertex 1998.0001449584961 85534.159851841832 35869.004764012818
      vertex 1998.0001449584961 84532.159758381749 34869.004764012818
      vertex 1000.0002384185791 85534.159851841832 34869.004764012818
    endloop
  endfacet
  facet normal 0.57773514112935165 -0.57773514112935165 -0.57657975459471011
    outer loop
      vertex -1000 83534.159613423253 34869.004764012818
      vertex -1.9998550415039062 84532.159758381749 34869.004764012818
      vertex -1.9998550415039062 83534.159613423253 35869.004764012818
    endloop
  endfacet
  facet normal 0.57773518701290605 -0.57773518701290605 -0.57657966264370175
    outer loop
      vertex 1000.0002384185791 85534.159851841832 34869.004764012818
      vertex 1998.0001449584961 86532.159758381749 34869.004764012818
      vertex 1998.0001449584961 85534.159851841832 35869.004764012818
    endloop
  endfacet
  facet normal 0.57581064591947106 0.57811847417177975 0.57811861228219863
    outer loop
      vertex 1000.0002384185791 87534.159613423253 38867.004908971314
      vertex 1000.0002384185791 88532.159758381749 37869.005002431397
      vertex -1.9998550415039062 88532.159758381749 38867.004908971314
    endloop
  endfacet
  facet normal 0.57581064591947106 0.57811861228219863 0.57811847417177975
    outer loop
      vertex 1000.0002384185791 85534.159851841832 40867.004908971314
      vertex 1000.0002384185791 86532.159758381749 39869.004764012818
      vertex -1.9998550415039062 86532.159758381749 40867.004908971314
    endloop
  endfacet
  facet normal -0.57735026918962584 0.57735026918962584 0.57735026918962584
    outer loop
      vertex -1.9998550415039062 88532.159758381749 36867.004908971314
      vertex -1000 88532.159758381749 35869.004764012818
      vertex -1000 87534.159613423253 36867.004908971314
    endloop
  endfacet
  facet normal -0.57735026918962584 0.57735026918962584 0.57735026918962584
    outer loop
      vertex -1.9998550415039062 84532.159758381749 40867.004908971314
      vertex -1000 84532.159758381749 39869.004764012818
      vertex -1000 83534.159613423253 40867.004908971314
    endloop
  endfacet
  facet normal -0.57735031516524726 0.57735031516524726 0.57735017723837168
    outer loop
      vertex 1998.0001449584961 86532.159758381749 40867.004908971314
      vertex 1000.0002384185791 86532.159758381749 39869.004764012818
      vertex 1000.0002384185791 85534.159851841832 40867.004908971314
    endloop
  endfacet
  facet normal -0.57735031516524726 0.57735017723837168 0.57735031516524726
    outer loop
      vertex 1998.0001449584961 88532.159758381749 38867.004908971314
      vertex 1000.0002384185791 88532.159758381749 37869.005002431397
      vertex 1000.0002384185791 87534.159613423253 38867.004908971314
    endloop
  endfacet
  facet normal 0.57734800573069911 -0.57619556075789846 0.5785049317349642
    outer loop
      vertex -1000 85534.159851841832 40867.004908971314
      vertex -2000 84532.159758381749 40867.004908971314
      vertex -1000 84532.159758381749 39869.004764012818
    endloop
  endfacet
  facet normal 0.57657889332559009 -0.57657903051834491 0.57888980068572904
    outer loop
      vertex 1000.0002384185791 87534.159613423253 40867.004908971314
      vertex -1.9998550415039062 86532.159758381749 40867.004908971314
      vertex 1000.0002384185791 86532.159758381749 39869.004764012818
    endloop
  endfacet
  facet normal -0.57811856667338557 -0.57581073750268275 0.57811842856297757
    outer loop
      vertex 1000.0002384185791 87534.159613423253 40867.004908971314
      vertex 1000.0002384185791 86532.159758381749 39869.004764012818
      vertex 1998.0001449584961 86532.159758381749 40867.004908971314
    endloop
  endfacet
  facet normal 0.57734800573069911 0.5785049317349642 -0.57619556075789846
    outer loop
      vertex -2000 88532.159758381749 36867.004908971314
      vertex -1000 88532.159758381749 37869.005002431397
      vertex -1000 87534.159613423253 36867.004908971314
    endloop
  endfacet
  facet normal 0.57657889332559009 0.57888980068572904 -0.57657903051834491
    outer loop
      vertex -1.9998550415039062 88532.159758381749 38867.004908971314
      vertex 1000.0002384185791 88532.159758381749 39869.004764012818
      vertex 1000.0002384185791 87534.159613423253 38867.004908971314
    endloop
  endfacet
  facet normal -0.57811856667338557 0.57811842856297757 -0.57581073750268275
    outer loop
      vertex 1000.0002384185791 87534.159613423253 38867.004908971314
      vertex 1000.0002384185791 88532.159758381749 39869.004764012818
      vertex 1998.0001449584961 88532.159758381749 38867.004908971314
    endloop
  endfacet
  facet normal 0.57811861228219863 0.57811847417177975 0.57581064591947106
    outer loop
      vertex 1000.0002384185791 88532.159758381749 37869.005002431397
      vertex 1998.0001449584961 87534.159613423253 37869.005002431397
      vertex 1998.0001449584961 88532.159758381749 36867.004908971314
    endloop
  endfacet
  facet normal 0.57811847417177975 0.57811861228219863 0.57581064591947106
    outer loop
      vertex 3000 86532.159758381749 37869.005002431397
      vertex 3998.0001449584961 85534.159851841832 37869.005002431397
      vertex 3998.0001449584961 86532.159758381749 36867.004908971314
    endloop
  endfacet
  facet normal 0.57735031516524726 0.57735017723837168 -0.57735031516524726
    outer loop
      vertex 1998.0001449584961 88532.159758381749 38867.004908971314
      vertex 1998.0001449584961 87534.159613423253 37869.005002431397
      vertex 1000.0002384185791 88532.159758381749 37869.005002431397
    endloop
  endfacet
  facet normal 0.57735026918962584 0.57735026918962584 -0.57735026918962584
    outer loop
      vertex -1.9998550415039062 88532.159758381749 36867.004908971314
      vertex -1.9998550415039062 87534.159613423253 35869.004764012818
      vertex -1000 88532.159758381749 35869.004764012818
    endloop
  endfacet
  facet normal 0.57735026918962584 0.57735026918962584 -0.57735026918962584
    outer loop
      vertex 3998.0001449584961 84532.159758381749 36867.004908971314
      vertex 3998.0001449584961 83534.159613423253 35869.004764012818
      vertex 3000 84532.159758381749 35869.004764012818
    endloop
  endfacet
  facet normal 0.57735017723837168 0.57735031516524726 -0.57735031516524726
    outer loop
      vertex 3998.0001449584961 86532.159758381749 38867.004908971314
      vertex 3998.0001449584961 85534.159851841832 37869.005002431397
      vertex 3000 86532.159758381749 37869.005002431397
    endloop
  endfacet
  facet normal 0.5785049317349642 -0.57619556075789846 0.57734800573069911
    outer loop
      vertex 3998.0001449584961 84532.159758381749 34869.004764012818
      vertex 3998.0001449584961 85534.159851841832 35869.004764012818
      vertex 3000 84532.159758381749 35869.004764012818
    endloop
  endfacet
  facet normal 0.57888980068572904 -0.57657903051834491 0.57657889332559009
    outer loop
      vertex 3998.0001449584961 86532.159758381749 36867.004908971314
      vertex 3998.0001449584961 87534.159613423253 37869.005002431397
      vertex 3000 86532.159758381749 37869.005002431397
    endloop
  endfacet
  facet normal 0.57811842856297757 -0.57581073750268275 -0.57811856667338557
    outer loop
      vertex 3000 86532.159758381749 37869.005002431397
      vertex 3998.0001449584961 87534.159613423253 37869.005002431397
      vertex 3998.0001449584961 86532.159758381749 38867.004908971314
    endloop
  endfacet
  facet normal -0.57619556075789846 0.5785049317349642 0.57734800573069911
    outer loop
      vertex 1000.0002384185791 88532.159758381749 35869.004764012818
      vertex -1.9998550415039062 88532.159758381749 34869.004764012818
      vertex -1.9998550415039062 87534.159613423253 35869.004764012818
    endloop
  endfacet
  facet normal -0.57657903051834491 0.57888980068572904 0.57657889332559009
    outer loop
      vertex 3000 88532.159758381749 37869.005002431397
      vertex 1998.0001449584961 88532.159758381749 36867.004908971314
      vertex 1998.0001449584961 87534.159613423253 37869.005002431397
    endloop
  endfacet
  facet normal -0.57581073750268275 0.57811842856297757 -0.57811856667338557
    outer loop
      vertex 3000 88532.159758381749 37869.005002431397
      vertex 1998.0001449584961 87534.159613423253 37869.005002431397
      vertex 1998.0001449584961 88532.159758381749 38867.004908971314
    endloop
  endfacet
  facet normal 0.57811861228219863 0.57581064591947106 0.57811847417177975
    outer loop
      vertex 1000.0002384185791 85534.159851841832 40867.004908971314
      vertex 1998.0001449584961 84532.159758381749 40867.004908971314
      vertex 1998.0001449584961 85534.159851841832 39869.004764012818
    endloop
  endfacet
  facet normal 0.57811847417177975 0.57581064591947106 0.57811861228219863
    outer loop
      vertex 3000 85534.159851841832 38867.004908971314
      vertex 3998.0001449584961 84532.159758381749 38867.004908971314
      vertex 3998.0001449584961 85534.159851841832 37869.005002431397
    endloop
  endfacet
  facet normal 0.57735026918962584 -0.57735026918962584 0.57735026918962584
    outer loop
      vertex 3998.0001449584961 83534.159613423253 35869.004764012818
      vertex 3998.0001449584961 84532.159758381749 36867.004908971314
      vertex 3000 83534.159613423253 36867.004908971314
    endloop
  endfacet
  facet normal 0.57735026918962584 -0.57735026918962584 0.57735026918962584
    outer loop
      vertex -1.9998550415039062 83534.159613423253 39869.004764012818
      vertex -1.9998550415039062 84532.159758381749 40867.004908971314
      vertex -1000 83534.159613423253 40867.004908971314
    endloop
  endfacet
  facet normal 0.57735017723837168 -0.57735031516524726 0.57735031516524726
    outer loop
      vertex 3998.0001449584961 85534.159851841832 37869.005002431397
      vertex 3998.0001449584961 86532.159758381749 38867.004908971314
      vertex 3000 85534.159851841832 38867.004908971314
    endloop
  endfacet
  facet normal 0.57735031516524726 -0.57735031516524726 0.57735017723837168
    outer loop
      vertex 1998.0001449584961 85534.159851841832 39869.004764012818
      vertex 1998.0001449584961 86532.159758381749 40867.004908971314
      vertex 1000.0002384185791 85534.159851841832 40867.004908971314
    endloop
  endfacet
  facet normal 0.5785049317349642 0.57734800573069911 -0.57619556075789846
    outer loop
      vertex 3998.0001449584961 83534.159613423253 37869.005002431397
      vertex 3998.0001449584961 82534.159613423253 36867.004908971314
      vertex 3000 83534.159613423253 36867.004908971314
    endloop
  endfacet
  facet normal 0.57888980068572904 0.57657889332559009 -0.57657903051834491
    outer loop
      vertex 3998.0001449584961 85534.159851841832 39869.004764012818
      vertex 3998.0001449584961 84532.159758381749 38867.004908971314
      vertex 3000 85534.159851841832 38867.004908971314
    endloop
  endfacet
  facet normal 0.57811842856297757 -0.57811856667338557 -0.57581073750268275
    outer loop
      vertex 3998.0001449584961 85534.159851841832 39869.004764012818
      vertex 3000 85534.159851841832 38867.004908971314
      vertex 3998.0001449584961 86532.159758381749 38867.004908971314
    endloop
  endfacet
  facet normal -0.57619556075789846 0.57734800573069911 0.5785049317349642
    outer loop
      vertex -1.9998550415039062 82534.159613423253 40867.004908971314
      vertex 1000.0002384185791 83534.159613423253 40867.004908971314
      vertex -1.9998550415039062 83534.159613423253 39869.004764012818
    endloop
  endfacet
  facet normal -0.57657903051834491 0.57657889332559009 0.57888980068572904
    outer loop
      vertex 1998.0001449584961 84532.159758381749 40867.004908971314
      vertex 3000 85534.159851841832 40867.004908971314
      vertex 1998.0001449584961 85534.159851841832 39869.004764012818
    endloop
  endfacet
  facet normal -0.57581073750268275 -0.57811856667338557 0.57811842856297757
    outer loop
      vertex 1998.0001449584961 85534.159851841832 39869.004764012818
      vertex 3000 85534.159851841832 40867.004908971314
      vertex 1998.0001449584961 86532.159758381749 40867.004908971314
    endloop
  endfacet
  facet normal -0.57735026918962584 -0.57735026918962584 -0.57735026918962584
    outer loop
      vertex -1.9998550415039062 83534.159613423253 35869.004764012818
      vertex -1000 83534.159613423253 36867.004908971314
      vertex -1000 84532.159758381749 35869.004764012818
    endloop
  endfacet
  facet normal 0.57657975459471011 -0.57773514112935165 -0.57773514112935165
    outer loop
      vertex -1000 83534.159613423253 36867.004908971314
      vertex -2000 83534.159613423253 35869.004764012818
      vertex -1000 84532.159758381749 35869.004764012818
    endloop
  endfacet
  facet normal -0.57773514112935165 0.57657975459471011 -0.57773514112935165
    outer loop
      vertex -1000 82534.159613423253 35869.004764012818
      vertex -1000 83534.159613423253 36867.004908971314
      vertex -1.9998550415039062 83534.159613423253 35869.004764012818
    endloop
  endfacet
  facet normal -0.5785049317349642 -0.57619556075789846 -0.57734800573069911
    outer loop
      vertex -1.9998550415039062 84532.159758381749 34869.004764012818
      vertex -1000 84532.159758381749 35869.004764012818
      vertex -1000 85534.159851841832 34869.004764012818
    endloop
  endfacet
  facet normal -0.5785049317349642 -0.57734800573069911 -0.57619556075789846
    outer loop
      vertex -1.9998550415039062 82534.159613423253 36867.004908971314
      vertex -1000 82534.159613423253 37869.005002431397
      vertex -1000 83534.159613423253 36867.004908971314
    endloop
  endfacet
  facet normal -0.57619556075789846 -0.5785049317349642 -0.57734800573069911
    outer loop
      vertex -1.9998550415039062 84532.159758381749 34869.004764012818
      vertex 1000.0002384185791 83534.159613423253 34869.004764012818
      vertex -1.9998550415039062 83534.159613423253 35869.004764012818
    endloop
  endfacet
  facet normal -0.57734800573069911 -0.5785049317349642 -0.57619556075789846
    outer loop
      vertex -2000 84532.159758381749 36867.004908971314
      vertex -1000 83534.159613423253 36867.004908971314
      vertex -2000 83534.159613423253 37869.005002431397
    endloop
  endfacet
  facet normal -0.57773514112935165 -0.57773514112935165 0.57657975459471011
    outer loop
      vertex -1000 84532.159758381749 35869.004764012818
      vertex -1000 83534.159613423253 34869.004764012818
      vertex -1.9998550415039062 83534.159613423253 35869.004764012818
    endloop
  endfacet
  facet normal -0.57619556075789846 -0.57734800573069911 -0.5785049317349642
    outer loop
      vertex -1.9998550415039062 82534.159613423253 36867.004908971314
      vertex -1.9998550415039062 83534.159613423253 35869.004764012818
      vertex 1000.0002384185791 82534.159613423253 35869.004764012818
    endloop
  endfacet
  facet normal -0.57734800573069911 -0.57619556075789846 -0.5785049317349642
    outer loop
      vertex -2000 84532.159758381749 36867.004908971314
      vertex -2000 85534.159851841832 35869.004764012818
      vertex -1000 84532.159758381749 35869.004764012818
    endloop
  endfacet
  facet normal 0.57657898490953285 -0.57888975489412942 0.57657898490953285
    outer loop
      vertex 3000 84532.159758381749 39869.004764012818
      vertex 1998.0001449584961 83534.159613423253 39869.004764012818
      vertex 3000 83534.159613423253 38867.004908971314
    endloop
  endfacet
  facet normal 0.57811924440756368 0.57696539724910179 0.57696539724910179
    outer loop
      vertex -2000 87534.159613423253 39869.004764012818
      vertex -1000 86532.159758381749 39869.004764012818
      vertex -1000 87534.159613423253 38867.004908971314
    endloop
  endfacet
  facet normal 0.57696539724910179 0.57696539724910179 0.57811924440756368
    outer loop
      vertex 1998.0001449584961 87534.159613423253 35869.004764012818
      vertex 3000 86532.159758381749 35869.004764012818
      vertex 3000 87534.159613423253 34869.004764012818
    endloop
  endfacet
  facet normal 0.57696539724910179 0.57811924440756368 0.57696539724910179
    outer loop
      vertex 1998.0001449584961 83534.159613423253 39869.004764012818
      vertex 3000 82534.159613423253 39869.004764012818
      vertex 3000 83534.159613423253 38867.004908971314
    endloop
  endfacet
  facet normal 0.57581078347782544 -0.57811847472237599 -0.57811847472237599
    outer loop
      vertex 1998.0001449584961 87534.159613423253 35869.004764012818
      vertex 3000 88532.159758381749 35869.004764012818
      vertex 3000 87534.159613423253 36867.004908971314
    endloop
  endfacet
  facet normal 0.57581078347782544 -0.57811847472237599 -0.57811847472237599
    outer loop
      vertex 1998.0001449584961 83534.159613423253 39869.004764012818
      vertex 3000 84532.159758381749 39869.004764012818
      vertex 3000 83534.159613423253 40867.004908971314
    endloop
  endfacet
  facet normal 0.57735022321399321 -0.57735036114087979 0.57735022321399321
    outer loop
      vertex 3998.0001449584961 85534.159851841832 39869.004764012818
      vertex 3998.0001449584961 86532.159758381749 40867.004908971314
      vertex 3000 85534.159851841832 40867.004908971314
    endloop
  endfacet
  facet normal 0.57735022321399321 -0.57735022321399321 0.57735036114087979
    outer loop
      vertex 3998.0001449584961 83534.159613423253 37869.005002431397
      vertex 3998.0001449584961 84532.159758381749 38867.004908971314
      vertex 3000 83534.159613423253 38867.004908971314
    endloop
  endfacet
  facet normal 0.57735036114087979 -0.57735022321399321 0.57735022321399321
    outer loop
      vertex 1998.0001449584961 83534.159613423253 39869.004764012818
      vertex 1998.0001449584961 84532.159758381749 40867.004908971314
      vertex 1000.0002384185791 83534.159613423253 40867.004908971314
    endloop
  endfacet
  facet normal -0.57581078347782544 -0.57811847472237599 0.57811847472237599
    outer loop
      vertex 1998.0001449584961 83534.159613423253 39869.004764012818
      vertex 3000 83534.159613423253 40867.004908971314
      vertex 1998.0001449584961 84532.159758381749 40867.004908971314
    endloop
  endfacet
  facet normal 0.57850497798533795 -0.57734791396224394 0.57619560627414423
    outer loop
      vertex 1998.0001449584961 83534.159613423253 39869.004764012818
      vertex 1000.0002384185791 82534.159613423253 39869.004764012818
      vertex 1998.0001449584961 82534.159613423253 38867.004908971314
    endloop
  endfacet
  facet normal 0.57773509506171328 0.57657970861920038 0.57773523308054431
    outer loop
      vertex 3000 83534.159613423253 38867.004908971314
      vertex 3998.0001449584961 82534.159613423253 38867.004908971314
      vertex 3998.0001449584961 83534.159613423253 37869.005002431397
    endloop
  endfacet
  facet normal 0.57773523308054431 0.57657970861920038 0.57773509506171328
    outer loop
      vertex 1000.0002384185791 83534.159613423253 40867.004908971314
      vertex 1998.0001449584961 82534.159613423253 40867.004908971314
      vertex 1998.0001449584961 83534.159613423253 39869.004764012818
    endloop
  endfacet
  facet normal -0.57811847472237599 -0.57811847472237599 0.57581078347782544
    outer loop
      vertex -1000 87534.159613423253 38867.004908971314
      vertex -1.9998550415039062 87534.159613423253 39869.004764012818
      vertex -1000 88532.159758381749 39869.004764012818
    endloop
  endfacet
  facet normal -0.57811847472237599 -0.57811847472237599 0.57581078347782544
    outer loop
      vertex 3000 83534.159613423253 38867.004908971314
      vertex 3998.0001449584961 83534.159613423253 39869.004764012818
      vertex 3000 84532.159758381749 39869.004764012818
    endloop
  endfacet
  facet normal 0.57619560627414423 -0.57734791396224394 0.57850497798533795
    outer loop
      vertex 3000 82534.159613423253 37869.005002431397
      vertex 3000 83534.159613423253 38867.004908971314
      vertex 1998.0001449584961 82534.159613423253 38867.004908971314
    endloop
  endfacet
  facet normal 0.57811847472237599 -0.57811847472237599 -0.57581078347782544
    outer loop
      vertex 3998.0001449584961 83534.159613423253 39869.004764012818
      vertex 3000 83534.159613423253 38867.004908971314
      vertex 3998.0001449584961 84532.159758381749 38867.004908971314
    endloop
  endfacet
  facet normal 0.57619556075789846 -0.57734800573069911 0.5785049317349642
    outer loop
      vertex 1000.0002384185791 83534.159613423253 40867.004908971314
      vertex -1.9998550415039062 82534.159613423253 40867.004908971314
      vertex 1000.0002384185791 82534.159613423253 39869.004764012818
    endloop
  endfacet
  facet normal 0.57657903051834491 -0.57657889332559009 0.57888980068572904
    outer loop
      vertex 3000 85534.159851841832 40867.004908971314
      vertex 1998.0001449584961 84532.159758381749 40867.004908971314
      vertex 3000 84532.159758381749 39869.004764012818
    endloop
  endfacet
  facet normal 0.57581078347782544 0.57811847472237599 0.57811847472237599
    outer loop
      vertex 3000 87534.159613423253 36867.004908971314
      vertex 3000 88532.159758381749 35869.004764012818
      vertex 1998.0001449584961 88532.159758381749 36867.004908971314
    endloop
  endfacet
  facet normal 0.57581078347782544 0.57811847472237599 0.57811847472237599
    outer loop
      vertex 3000 83534.159613423253 40867.004908971314
      vertex 3000 84532.159758381749 39869.004764012818
      vertex 1998.0001449584961 84532.159758381749 40867.004908971314
    endloop
  endfacet
  facet normal 0.5785049317349642 -0.57734800573069911 0.57619556075789846
    outer loop
      vertex 3998.0001449584961 82534.159613423253 36867.004908971314
      vertex 3998.0001449584961 83534.159613423253 37869.005002431397
      vertex 3000 82534.159613423253 37869.005002431397
    endloop
  endfacet
  facet normal 0.57888980068572904 -0.57657889332559009 0.57657903051834491
    outer loop
      vertex 3998.0001449584961 84532.159758381749 38867.004908971314
      vertex 3998.0001449584961 85534.159851841832 39869.004764012818
      vertex 3000 84532.159758381749 39869.004764012818
    endloop
  endfacet
  facet normal 0.57811847472237599 0.57811847472237599 0.57581078347782544
    outer loop
      vertex -1000 88532.159758381749 39869.004764012818
      vertex -1.9998550415039062 87534.159613423253 39869.004764012818
      vertex -1.9998550415039062 88532.159758381749 38867.004908971314
    endloop
  endfacet
  facet normal 0.57811847472237599 0.57811847472237599 0.57581078347782544
    outer loop
      vertex 3000 84532.159758381749 39869.004764012818
      vertex 3998.0001449584961 83534.159613423253 39869.004764012818
      vertex 3998.0001449584961 84532.159758381749 38867.004908971314
    endloop
  endfacet
  facet normal -0.57811852033118893 -0.57581069189461354 0.57811852033118893
    outer loop
      vertex 3000 84532.159758381749 39869.004764012818
      vertex 3998.0001449584961 84532.159758381749 40867.004908971314
      vertex 3000 85534.159851841832 40867.004908971314
    endloop
  endfacet
  facet normal 0.57811852033118893 -0.57581069189461354 -0.57811852033118893
    outer loop
      vertex 3998.0001449584961 84532.159758381749 40867.004908971314
      vertex 3000 84532.159758381749 39869.004764012818
      vertex 3998.0001449584961 85534.159851841832 39869.004764012818
    endloop
  endfacet
  facet normal -0.57811847472237599 -0.57811847472237599 0.57581078347782544
    outer loop
      vertex -1000 83534.159613423253 38867.004908971314
      vertex -1.9998550415039062 83534.159613423253 39869.004764012818
      vertex -1000 84532.159758381749 39869.004764012818
    endloop
  endfacet
  facet normal 0.57619565234153713 -0.57850488603463601 0.57734796012176504
    outer loop
      vertex 3000 84532.159758381749 35869.004764012818
      vertex 1998.0001449584961 83534.159613423253 35869.004764012818
      vertex 3000 83534.159613423253 34869.004764012818
    endloop
  endfacet
  facet normal 0.57734796012176504 -0.57850488603463601 0.57619565234153713
    outer loop
      vertex -1000 84532.159758381749 39869.004764012818
      vertex -2000 83534.159613423253 39869.004764012818
      vertex -1000 83534.159613423253 38867.004908971314
    endloop
  endfacet
  facet normal -0.57850488603463601 0.57619565234153713 0.57734796012176504
    outer loop
      vertex -1.9998550415039062 87534.159613423253 35869.004764012818
      vertex -1000 87534.159613423253 34869.004764012818
      vertex -1000 86532.159758381749 35869.004764012818
    endloop
  endfacet
  facet normal -0.57850488603463601 0.57734796012176504 0.57619565234153713
    outer loop
      vertex -1.9998550415039062 83534.159613423253 39869.004764012818
      vertex -1000 83534.159613423253 38867.004908971314
      vertex -1000 82534.159613423253 39869.004764012818
    endloop
  endfacet
  facet normal -0.57773523308054431 -0.57657970861920038 0.57773509506171328
    outer loop
      vertex 1000.0002384185791 82534.159613423253 39869.004764012818
      vertex 1998.0001449584961 82534.159613423253 40867.004908971314
      vertex 1000.0002384185791 83534.159613423253 40867.004908971314
    endloop
  endfacet
  facet normal -0.57773509506171328 -0.57657970861920038 0.57773523308054431
    outer loop
      vertex -1000 82534.159613423253 37869.005002431397
      vertex -1.9998550415039062 82534.159613423253 38867.004908971314
      vertex -1000 83534.159613423253 38867.004908971314
    endloop
  endfacet
  facet normal -0.57850488603463601 -0.57619565234153713 -0.57734796012176504
    outer loop
      vertex -1.9998550415039062 86532.159758381749 34869.004764012818
      vertex -1000 86532.159758381749 35869.004764012818
      vertex -1000 87534.159613423253 34869.004764012818
    endloop
  endfacet
  facet normal -0.57850488603463601 -0.57734796012176504 -0.57619565234153713
    outer loop
      vertex -1.9998550415039062 82534.159613423253 38867.004908971314
      vertex -1000 82534.159613423253 39869.004764012818
      vertex -1000 83534.159613423253 38867.004908971314
    endloop
  endfacet
  facet normal -0.57657970861920038 -0.57773523308054431 0.57773509506171328
    outer loop
      vertex -1000 85534.159851841832 40867.004908971314
      vertex -2000 86532.159758381749 40867.004908971314
      vertex -2000 85534.159851841832 39869.004764012818
    endloop
  endfacet
  facet normal -0.57657970861920038 -0.57773509506171328 0.57773523308054431
    outer loop
      vertex -1000 83534.159613423253 38867.004908971314
      vertex -2000 84532.159758381749 38867.004908971314
      vertex -2000 83534.159613423253 37869.005002431397
    endloop
  endfacet
  facet normal -0.57619565234153713 -0.57850488603463601 -0.57734796012176504
    outer loop
      vertex 1998.0001449584961 84532.159758381749 34869.004764012818
      vertex 3000 83534.159613423253 34869.004764012818
      vertex 1998.0001449584961 83534.159613423253 35869.004764012818
    endloop
  endfacet
  facet normal -0.57734796012176504 -0.57850488603463601 -0.57619565234153713
    outer loop
      vertex -2000 84532.159758381749 38867.004908971314
      vertex -1000 83534.159613423253 38867.004908971314
      vertex -2000 83534.159613423253 39869.004764012818
    endloop
  endfacet
  facet normal -0.57696457995239658 0.57696457995239658 0.57812087573509174
    outer loop
      vertex -2000 82534.159613423253 38867.004908971314
      vertex -1000 83534.159613423253 38867.004908971314
      vertex -2000 83534.159613423253 37869.005002431397
    endloop
  endfacet
  facet normal 0.57696457995239658 -0.57696457995239658 0.57812087573509174
    outer loop
      vertex -1000 83534.159613423253 38867.004908971314
      vertex -2000 82534.159613423253 38867.004908971314
      vertex -1000 82534.159613423253 37869.005002431397
    endloop
  endfacet
  facet normal -0.57735026918962584 -0.57735026918962584 -0.57735026918962584
    outer loop
      vertex -1.9998550415039062 87534.159613423253 35869.004764012818
      vertex -1000 87534.159613423253 36867.004908971314
      vertex -1000 88532.159758381749 35869.004764012818
    endloop
  endfacet
  facet normal -0.57735026918962584 -0.57735026918962584 -0.57735026918962584
    outer loop
      vertex -1.9998550415039062 83534.159613423253 39869.004764012818
      vertex -1000 83534.159613423253 40867.004908971314
      vertex -1000 84532.159758381749 39869.004764012818
    endloop
  endfacet
  facet normal -0.57735026918962584 -0.57735026918962584 -0.57735026918962584
    outer loop
      vertex 3998.0001449584961 83534.159613423253 35869.004764012818
      vertex 3000 83534.159613423253 36867.004908971314
      vertex 3000 84532.159758381749 35869.004764012818
    endloop
  endfacet
  facet normal -0.57696530566497495 -0.57811929019953023 0.57696544294967378
    outer loop
      vertex -1.9998550415039062 82534.159613423253 38867.004908971314
      vertex 1000.0002384185791 82534.159613423253 39869.004764012818
      vertex -1.9998550415039062 83534.159613423253 39869.004764012818
    endloop
  endfacet
  facet normal -0.57773441867939102 -0.57773441867939102 0.57658120238728938
    outer loop
      vertex -2000 82534.159613423253 36867.004908971314
      vertex -1000 82534.159613423253 37869.005002431397
      vertex -2000 83534.159613423253 37869.005002431397
    endloop
  endfacet
  facet normal -0.57811929019953023 -0.57696530566497495 0.57696544294967378
    outer loop
      vertex -2000 84532.159758381749 38867.004908971314
      vertex -1000 84532.159758381749 39869.004764012818
      vertex -2000 85534.159851841832 39869.004764012818
    endloop
  endfacet
  facet normal -0.57734796012176504 0.57850488603463601 0.57619565234153713
    outer loop
      vertex -2000 83534.159613423253 39869.004764012818
      vertex -1000 84532.159758381749 39869.004764012818
      vertex -2000 84532.159758381749 38867.004908971314
    endloop
  endfacet
  facet normal -0.57811852033118893 -0.57581069189461354 0.57811852033118893
    outer loop
      vertex -1000 85534.159851841832 40867.004908971314
      vertex -1000 84532.159758381749 39869.004764012818
      vertex -1.9998550415039062 84532.159758381749 40867.004908971314
    endloop
  endfacet
  facet normal -0.57619556075789846 -0.57734800573069911 -0.5785049317349642
    outer loop
      vertex -1.9998550415039062 82534.159613423253 40867.004908971314
      vertex -1.9998550415039062 83534.159613423253 39869.004764012818
      vertex 1000.0002384185791 82534.159613423253 39869.004764012818
    endloop
  endfacet
  facet normal -0.57734800573069911 -0.57619556075789846 -0.5785049317349642
    outer loop
      vertex -2000 84532.159758381749 40867.004908971314
      vertex -2000 85534.159851841832 39869.004764012818
      vertex -1000 84532.159758381749 39869.004764012818
    endloop
  endfacet
  facet normal 0.57850488603463601 -0.57734796012176504 0.57619565234153713
    outer loop
      vertex -1.9998550415039062 83534.159613423253 39869.004764012818
      vertex -1000 82534.159613423253 39869.004764012818
      vertex -1.9998550415039062 82534.159613423253 38867.004908971314
    endloop
  endfacet
  facet normal -0.57581069189461354 -0.57811852033118893 0.57811852033118893
    outer loop
      vertex -1.9998550415039062 83534.159613423253 39869.004764012818
      vertex 1000.0002384185791 83534.159613423253 40867.004908971314
      vertex -1.9998550415039062 84532.159758381749 40867.004908971314
    endloop
  endfacet
  facet normal 0.57581078347782544 -0.57811847472237599 -0.57811847472237599
    outer loop
      vertex 1998.0001449584961 83534.159613423253 35869.004764012818
      vertex 3000 84532.159758381749 35869.004764012818
      vertex 3000 83534.159613423253 36867.004908971314
    endloop
  endfacet
  facet normal 0.57734796012176504 0.57619565234153713 -0.57850488603463601
    outer loop
      vertex -1000 87534.159613423253 36867.004908971314
      vertex -1000 86532.159758381749 35869.004764012818
      vertex -2000 87534.159613423253 35869.004764012818
    endloop
  endfacet
  facet normal 0.57619565234153713 0.57734796012176504 -0.57850488603463601
    outer loop
      vertex 3000 83534.159613423253 36867.004908971314
      vertex 3000 82534.159613423253 35869.004764012818
      vertex 1998.0001449584961 83534.159613423253 35869.004764012818
    endloop
  endfacet
  facet normal 0.57773509506171328 -0.57773523308054431 -0.57657970861920038
    outer loop
      vertex 3000 85534.159851841832 34869.004764012818
      vertex 3998.0001449584961 86532.159758381749 34869.004764012818
      vertex 3998.0001449584961 85534.159851841832 35869.004764012818
    endloop
  endfacet
  facet normal 0.57773523308054431 -0.57773509506171328 -0.57657970861920038
    outer loop
      vertex 1000.0002384185791 83534.159613423253 34869.004764012818
      vertex 1998.0001449584961 84532.159758381749 34869.004764012818
      vertex 1998.0001449584961 83534.159613423253 35869.004764012818
    endloop
  endfacet
  facet normal 0.57773509506171328 -0.57657970861920038 -0.57773523308054431
    outer loop
      vertex 3000 82534.159613423253 37869.005002431397
      vertex 3998.0001449584961 83534.159613423253 37869.005002431397
      vertex 3998.0001449584961 82534.159613423253 38867.004908971314
    endloop
  endfacet
  facet normal 0.57773523308054431 -0.57657970861920038 -0.57773509506171328
    outer loop
      vertex 1000.0002384185791 82534.159613423253 35869.004764012818
      vertex 1998.0001449584961 83534.159613423253 35869.004764012818
      vertex 1998.0001449584961 82534.159613423253 36867.004908971314
    endloop
  endfacet
  facet normal -0.57734796012176504 -0.57619565234153713 -0.57850488603463601
    outer loop
      vertex -2000 86532.159758381749 36867.004908971314
      vertex -2000 87534.159613423253 35869.004764012818
      vertex -1000 86532.159758381749 35869.004764012818
    endloop
  endfacet
  facet normal -0.57619565234153713 -0.57734796012176504 -0.57850488603463601
    outer loop
      vertex 1998.0001449584961 82534.159613423253 36867.004908971314
      vertex 1998.0001449584961 83534.159613423253 35869.004764012818
      vertex 3000 82534.159613423253 35869.004764012818
    endloop
  endfacet
  facet normal 0.57812087573509174 -0.57696457995239658 0.57696457995239658
    outer loop
      vertex 1998.0001449584961 82534.159613423253 34869.004764012818
      vertex 1998.0001449584961 83534.159613423253 35869.004764012818
      vertex 1000.0002384185791 82534.159613423253 35869.004764012818
    endloop
  endfacet
  facet normal 0.57812087573509174 0.57696457995239658 -0.57696457995239658
    outer loop
      vertex 1998.0001449584961 83534.159613423253 35869.004764012818
      vertex 1998.0001449584961 82534.159613423253 34869.004764012818
      vertex 1000.0002384185791 83534.159613423253 34869.004764012818
    endloop
  endfacet
  facet normal 0.57696544294967378 -0.57811929019953023 -0.57696530566497495
    outer loop
      vertex 1998.0001449584961 82534.159613423253 36867.004908971314
      vertex 3000 83534.159613423253 36867.004908971314
      vertex 3000 82534.159613423253 37869.005002431397
    endloop
  endfacet
  facet normal 0.57658120238728938 -0.57773441867939102 -0.57773441867939102
    outer loop
      vertex -1.9998550415039062 82534.159613423253 34869.004764012818
      vertex 1000.0002384185791 83534.159613423253 34869.004764012818
      vertex 1000.0002384185791 82534.159613423253 35869.004764012818
    endloop
  endfacet
  facet normal 0.57696544294967378 -0.57696530566497495 -0.57811929019953023
    outer loop
      vertex 1998.0001449584961 84532.159758381749 34869.004764012818
      vertex 3000 85534.159851841832 34869.004764012818
      vertex 3000 84532.159758381749 35869.004764012818
    endloop
  endfacet
  facet normal 0.57619565234153713 -0.57734796012176504 0.57850488603463601
    outer loop
      vertex 3000 82534.159613423253 35869.004764012818
      vertex 3000 83534.159613423253 36867.004908971314
      vertex 1998.0001449584961 82534.159613423253 36867.004908971314
    endloop
  endfacet
  facet normal 0.57811852033118893 -0.57811852033118893 -0.57581069189461354
    outer loop
      vertex 3998.0001449584961 83534.159613423253 37869.005002431397
      vertex 3000 83534.159613423253 36867.004908971314
      vertex 3998.0001449584961 84532.159758381749 36867.004908971314
    endloop
  endfacet
  facet normal -0.5785049317349642 -0.57619556075789846 -0.57734800573069911
    outer loop
      vertex 3998.0001449584961 84532.159758381749 34869.004764012818
      vertex 3000 84532.159758381749 35869.004764012818
      vertex 3000 85534.159851841832 34869.004764012818
    endloop
  endfacet
  facet normal -0.5785049317349642 -0.57734800573069911 -0.57619556075789846
    outer loop
      vertex 3998.0001449584961 82534.159613423253 36867.004908971314
      vertex 3000 82534.159613423253 37869.005002431397
      vertex 3000 83534.159613423253 36867.004908971314
    endloop
  endfacet
  facet normal 0.57619565234153713 0.57850488603463601 -0.57734796012176504
    outer loop
      vertex 3000 84532.159758381749 35869.004764012818
      vertex 3000 83534.159613423253 34869.004764012818
      vertex 1998.0001449584961 84532.159758381749 34869.004764012818
    endloop
  endfacet
  facet normal 0.57811852033118893 -0.57581069189461354 -0.57811852033118893
    outer loop
      vertex 3000 84532.159758381749 35869.004764012818
      vertex 3998.0001449584961 85534.159851841832 35869.004764012818
      vertex 3998.0001449584961 84532.159758381749 36867.004908971314
    endloop
  endfacet
  facet normal -0.57888975489412942 0.57657898490953285 0.57657898490953285
    outer loop
      vertex -1.9998550415039062 87534.159613423253 39869.004764012818
      vertex -1000 87534.159613423253 38867.004908971314
      vertex -1000 86532.159758381749 39869.004764012818
    endloop
  endfacet
  facet normal -0.57735036114087979 0.57735022321399321 0.57735022321399321
    outer loop
      vertex 1998.0001449584961 88532.159758381749 40867.004908971314
      vertex 1000.0002384185791 88532.159758381749 39869.004764012818
      vertex 1000.0002384185791 87534.159613423253 40867.004908971314
    endloop
  endfacet
  facet normal -0.57735022321399321 0.57735036114087979 0.57735022321399321
    outer loop
      vertex -1.9998550415039062 86532.159758381749 40867.004908971314
      vertex -1000 86532.159758381749 39869.004764012818
      vertex -1000 85534.159851841832 40867.004908971314
    endloop
  endfacet
  facet normal -0.57735022321399321 0.57735022321399321 0.57735036114087979
    outer loop
      vertex -1.9998550415039062 88532.159758381749 38867.004908971314
      vertex -1000 88532.159758381749 37869.005002431397
      vertex -1000 87534.159613423253 38867.004908971314
    endloop
  endfacet
  facet normal -0.57811847472237599 0.57811847472237599 -0.57581078347782544
    outer loop
      vertex -1000 87534.159613423253 38867.004908971314
      vertex -1000 88532.159758381749 39869.004764012818
      vertex -1.9998550415039062 88532.159758381749 38867.004908971314
    endloop
  endfacet
  facet normal -0.57734791396224394 0.57619560627414423 0.57850497798533795
    outer loop
      vertex -1000 87534.159613423253 38867.004908971314
      vertex -2000 87534.159613423253 37869.005002431397
      vertex -2000 86532.159758381749 38867.004908971314
    endloop
  endfacet
  facet normal 0.57657970861920038 0.57773523308054431 0.57773509506171328
    outer loop
      vertex -1000 85534.159851841832 40867.004908971314
      vertex -1000 86532.159758381749 39869.004764012818
      vertex -2000 86532.159758381749 40867.004908971314
    endloop
  endfacet
  facet normal 0.57657970861920038 0.57773509506171328 0.57773523308054431
    outer loop
      vertex -1000 87534.159613423253 38867.004908971314
      vertex -1000 88532.159758381749 37869.005002431397
      vertex -2000 88532.159758381749 38867.004908971314
    endloop
  endfacet
  facet normal -0.57811847472237599 0.57581078347782544 -0.57811847472237599
    outer loop
      vertex 3000 87534.159613423253 36867.004908971314
      vertex 3998.0001449584961 87534.159613423253 35869.004764012818
      vertex 3000 86532.159758381749 35869.004764012818
    endloop
  endfacet
  facet normal -0.57811847472237599 0.57581078347782544 -0.57811847472237599
    outer loop
      vertex -1000 87534.159613423253 40867.004908971314
      vertex -1.9998550415039062 87534.159613423253 39869.004764012818
      vertex -1000 86532.159758381749 39869.004764012818
    endloop
  endfacet
  facet normal -0.57734791396224394 0.57850497798533795 0.57619560627414423
    outer loop
      vertex -2000 85534.159851841832 39869.004764012818
      vertex -1000 86532.159758381749 39869.004764012818
      vertex -2000 86532.159758381749 38867.004908971314
    endloop
  endfacet
  facet normal -0.57811847472237599 -0.57581078347782544 0.57811847472237599
    outer loop
      vertex -1000 87534.159613423253 40867.004908971314
      vertex -1000 86532.159758381749 39869.004764012818
      vertex -1.9998550415039062 86532.159758381749 40867.004908971314
    endloop
  endfacet
  facet normal -0.57734800573069911 0.5785049317349642 0.57619556075789846
    outer loop
      vertex -1000 88532.159758381749 37869.005002431397
      vertex -2000 88532.159758381749 36867.004908971314
      vertex -2000 87534.159613423253 37869.005002431397
    endloop
  endfacet
  facet normal -0.57657889332559009 0.57888980068572904 0.57657903051834491
    outer loop
      vertex 1000.0002384185791 88532.159758381749 39869.004764012818
      vertex -1.9998550415039062 88532.159758381749 38867.004908971314
      vertex -1.9998550415039062 87534.159613423253 39869.004764012818
    endloop
  endfacet
  facet normal -0.57734800573069911 0.57619556075789846 0.5785049317349642
    outer loop
      vertex -2000 84532.159758381749 40867.004908971314
      vertex -1000 85534.159851841832 40867.004908971314
      vertex -2000 85534.159851841832 39869.004764012818
    endloop
  endfacet
  facet normal -0.57657889332559009 0.57657903051834491 0.57888980068572904
    outer loop
      vertex -1.9998550415039062 86532.159758381749 40867.004908971314
      vertex 1000.0002384185791 87534.159613423253 40867.004908971314
      vertex -1.9998550415039062 87534.159613423253 39869.004764012818
    endloop
  endfacet
  facet normal 0.57811847472237599 0.57581078347782544 0.57811847472237599
    outer loop
      vertex -1000 87534.159613423253 40867.004908971314
      vertex -1.9998550415039062 86532.159758381749 40867.004908971314
      vertex -1.9998550415039062 87534.159613423253 39869.004764012818
    endloop
  endfacet
  facet normal 0.57811847472237599 0.57581078347782544 0.57811847472237599
    outer loop
      vertex 3000 87534.159613423253 36867.004908971314
      vertex 3998.0001449584961 86532.159758381749 36867.004908971314
      vertex 3998.0001449584961 87534.159613423253 35869.004764012818
    endloop
  endfacet
  facet normal -0.57581069189461354 0.57811852033118893 -0.57811852033118893
    outer loop
      vertex -1.9998550415039062 87534.159613423253 39869.004764012818
      vertex -1.9998550415039062 88532.159758381749 40867.004908971314
      vertex 1000.0002384185791 88532.159758381749 39869.004764012818
    endloop
  endfacet
  facet normal -0.57581069189461354 -0.57811852033118893 0.57811852033118893
    outer loop
      vertex -1.9998550415039062 88532.159758381749 40867.004908971314
      vertex -1.9998550415039062 87534.159613423253 39869.004764012818
      vertex 1000.0002384185791 87534.159613423253 40867.004908971314
    endloop
  endfacet
  facet normal 0.57657898490953285 0.57657898490953285 -0.57888975489412942
    outer loop
      vertex 1998.0001449584961 87534.159613423253 35869.004764012818
      vertex 3000 87534.159613423253 36867.004908971314
      vertex 3000 86532.159758381749 35869.004764012818
    endloop
  endfacet
  facet normal 0.57735022321399321 0.57735022321399321 -0.57735036114087979
    outer loop
      vertex 3998.0001449584961 88532.159758381749 38867.004908971314
      vertex 3998.0001449584961 87534.159613423253 37869.005002431397
      vertex 3000 88532.159758381749 37869.005002431397
    endloop
  endfacet
  facet normal 0.57735022321399321 0.57735036114087979 -0.57735022321399321
    outer loop
      vertex 3998.0001449584961 86532.159758381749 36867.004908971314
      vertex 3998.0001449584961 85534.159851841832 35869.004764012818
      vertex 3000 86532.159758381749 35869.004764012818
    endloop
  endfacet
  facet normal 0.57735036114087979 0.57735022321399321 -0.57735022321399321
    outer loop
      vertex 1998.0001449584961 88532.159758381749 36867.004908971314
      vertex 1998.0001449584961 87534.159613423253 35869.004764012818
      vertex 1000.0002384185791 88532.159758381749 35869.004764012818
    endloop
  endfacet
  facet normal -0.57581078347782544 0.57811847472237599 -0.57811847472237599
    outer loop
      vertex 3000 88532.159758381749 35869.004764012818
      vertex 1998.0001449584961 87534.159613423253 35869.004764012818
      vertex 1998.0001449584961 88532.159758381749 36867.004908971314
    endloop
  endfacet
  facet normal 0.57850497798533795 0.57619560627414423 -0.57734791396224394
    outer loop
      vertex 1000.0002384185791 87534.159613423253 34869.004764012818
      vertex 1998.0001449584961 87534.159613423253 35869.004764012818
      vertex 1998.0001449584961 86532.159758381749 34869.004764012818
    endloop
  endfacet
  facet normal 0.57773509506171328 0.57773523308054431 0.57657970861920038
    outer loop
      vertex 3000 86532.159758381749 35869.004764012818
      vertex 3998.0001449584961 85534.159851841832 35869.004764012818
      vertex 3998.0001449584961 86532.159758381749 34869.004764012818
    endloop
  endfacet
  facet normal 0.57773523308054431 0.57773509506171328 0.57657970861920038
    outer loop
      vertex 1000.0002384185791 88532.159758381749 35869.004764012818
      vertex 1998.0001449584961 87534.159613423253 35869.004764012818
      vertex 1998.0001449584961 88532.159758381749 34869.004764012818
    endloop
  endfacet
  facet normal 0.57619560627414423 0.57850497798533795 -0.57734791396224394
    outer loop
      vertex 3000 86532.159758381749 35869.004764012818
      vertex 3000 85534.159851841832 34869.004764012818
      vertex 1998.0001449584961 86532.159758381749 34869.004764012818
    endloop
  endfacet
  facet normal 0.57811847472237599 -0.57581078347782544 -0.57811847472237599
    outer loop
      vertex 3000 86532.159758381749 35869.004764012818
      vertex 3998.0001449584961 87534.159613423253 35869.004764012818
      vertex 3998.0001449584961 86532.159758381749 36867.004908971314
    endloop
  endfacet
  facet normal 0.57619556075789846 0.5785049317349642 -0.57734800573069911
    outer loop
      vertex -1.9998550415039062 88532.159758381749 34869.004764012818
      vertex 1000.0002384185791 88532.159758381749 35869.004764012818
      vertex 1000.0002384185791 87534.159613423253 34869.004764012818
    endloop
  endfacet
  facet normal 0.57657903051834491 0.57888980068572904 -0.57657889332559009
    outer loop
      vertex 1998.0001449584961 88532.159758381749 36867.004908971314
      vertex 3000 88532.159758381749 37869.005002431397
      vertex 3000 87534.159613423253 36867.004908971314
    endloop
  endfacet
  facet normal 0.5785049317349642 0.57619556075789846 -0.57734800573069911
    outer loop
      vertex 3998.0001449584961 85534.159851841832 35869.004764012818
      vertex 3998.0001449584961 84532.159758381749 34869.004764012818
      vertex 3000 85534.159851841832 34869.004764012818
    endloop
  endfacet
  facet normal 0.57888980068572904 0.57657903051834491 -0.57657889332559009
    outer loop
      vertex 3998.0001449584961 87534.159613423253 37869.005002431397
      vertex 3998.0001449584961 86532.159758381749 36867.004908971314
      vertex 3000 87534.159613423253 36867.004908971314
    endloop
  endfacet
  facet normal -0.57811852033118893 0.57811852033118893 -0.57581069189461354
    outer loop
      vertex 3998.0001449584961 88532.159758381749 36867.004908971314
      vertex 3000 87534.159613423253 36867.004908971314
      vertex 3000 88532.159758381749 37869.005002431397
    endloop
  endfacet
  facet normal 0.57811852033118893 -0.57811852033118893 -0.57581069189461354
    outer loop
      vertex 3000 87534.159613423253 36867.004908971314
      vertex 3998.0001449584961 88532.159758381749 36867.004908971314
      vertex 3998.0001449584961 87534.159613423253 37869.005002431397
    endloop
  endfacet
  facet normal -0.57811847472237599 0.57581078347782544 -0.57811847472237599
    outer loop
      vertex -1.9998550415039062 87534.159613423253 35869.004764012818
      vertex -1000 86532.159758381749 35869.004764012818
      vertex -1000 87534.159613423253 36867.004908971314
    endloop
  endfacet
  facet normal -0.57773523308054431 0.57773509506171328 -0.57657970861920038
    outer loop
      vertex 1000.0002384185791 88532.159758381749 35869.004764012818
      vertex 1998.0001449584961 88532.159758381749 34869.004764012818
      vertex 1000.0002384185791 87534.159613423253 34869.004764012818
    endloop
  endfacet
  facet normal -0.57773509506171328 0.57773523308054431 -0.57657970861920038
    outer loop
      vertex -1000 86532.159758381749 35869.004764012818
      vertex -1.9998550415039062 86532.159758381749 34869.004764012818
      vertex -1000 85534.159851841832 34869.004764012818
    endloop
  endfacet
  facet normal -0.57657970861920038 0.57773509506171328 -0.57773523308054431
    outer loop
      vertex -2000 87534.159613423253 37869.005002431397
      vertex -2000 88532.159758381749 38867.004908971314
      vertex -1000 88532.159758381749 37869.005002431397
    endloop
  endfacet
  facet normal -0.57657970861920038 0.57773523308054431 -0.57773509506171328
    outer loop
      vertex -2000 85534.159851841832 35869.004764012818
      vertex -2000 86532.159758381749 36867.004908971314
      vertex -1000 86532.159758381749 35869.004764012818
    endloop
  endfacet
  facet normal -0.57696457995239658 0.57812087573509174 0.57696457995239658
    outer loop
      vertex -1000 86532.159758381749 35869.004764012818
      vertex -2000 86532.159758381749 34869.004764012818
      vertex -2000 85534.159851841832 35869.004764012818
    endloop
  endfacet
  facet normal 0.57696457995239658 0.57812087573509174 -0.57696457995239658
    outer loop
      vertex -2000 86532.159758381749 34869.004764012818
      vertex -1000 86532.159758381749 35869.004764012818
      vertex -1000 85534.159851841832 34869.004764012818
    endloop
  endfacet
  facet normal -0.57696530566497495 0.57696544294967378 -0.57811929019953023
    outer loop
      vertex -1.9998550415039062 87534.159613423253 35869.004764012818
      vertex 1000.0002384185791 87534.159613423253 34869.004764012818
      vertex -1.9998550415039062 86532.159758381749 34869.004764012818
    endloop
  endfacet
  facet normal -0.57773441867939102 0.57658120238728938 -0.57773441867939102
    outer loop
      vertex -2000 85534.159851841832 35869.004764012818
      vertex -1000 85534.159851841832 34869.004764012818
      vertex -2000 84532.159758381749 34869.004764012818
    endloop
  endfacet
  facet normal -0.57811929019953023 0.57696544294967378 -0.57696530566497495
    outer loop
      vertex -2000 87534.159613423253 37869.005002431397
      vertex -1000 87534.159613423253 36867.004908971314
      vertex -2000 86532.159758381749 36867.004908971314
    endloop
  endfacet
  facet normal -0.57734796012176504 0.57619565234153713 0.57850488603463601
    outer loop
      vertex -1000 87534.159613423253 36867.004908971314
      vertex -2000 87534.159613423253 35869.004764012818
      vertex -2000 86532.159758381749 36867.004908971314
    endloop
  endfacet
  facet normal -0.57811852033118893 0.57811852033118893 -0.57581069189461354
    outer loop
      vertex -1000 87534.159613423253 36867.004908971314
      vertex -1000 88532.159758381749 37869.005002431397
      vertex -1.9998550415039062 88532.159758381749 36867.004908971314
    endloop
  endfacet
  facet normal -0.57619556075789846 -0.5785049317349642 -0.57734800573069911
    outer loop
      vertex -1.9998550415039062 88532.159758381749 34869.004764012818
      vertex 1000.0002384185791 87534.159613423253 34869.004764012818
      vertex -1.9998550415039062 87534.159613423253 35869.004764012818
    endloop
  endfacet
  facet normal -0.57734800573069911 -0.5785049317349642 -0.57619556075789846
    outer loop
      vertex -2000 88532.159758381749 36867.004908971314
      vertex -1000 87534.159613423253 36867.004908971314
      vertex -2000 87534.159613423253 37869.005002431397
    endloop
  endfacet
  facet normal 0.57850488603463601 0.57619565234153713 -0.57734796012176504
    outer loop
      vertex -1000 87534.159613423253 34869.004764012818
      vertex -1.9998550415039062 87534.159613423253 35869.004764012818
      vertex -1.9998550415039062 86532.159758381749 34869.004764012818
    endloop
  endfacet
  facet normal -0.57581069189461354 0.57811852033118893 -0.57811852033118893
    outer loop
      vertex 1000.0002384185791 88532.159758381749 35869.004764012818
      vertex -1.9998550415039062 87534.159613423253 35869.004764012818
      vertex -1.9998550415039062 88532.159758381749 36867.004908971314
    endloop
  endfacet
  facet normal 0.57735026918962584 0.57735026918962584 0.57735026918962584
    outer loop
      vertex 1998.0001449584961 87534.159613423253 39869.004764012818
      vertex 3000 86532.159758381749 39869.004764012818
      vertex 3000 87534.159613423253 38867.004908971314
    endloop
  endfacet
  facet normal 0.57657898490953285 -0.57888975489412942 0.57657898490953285
    outer loop
      vertex 3000 88532.159758381749 39869.004764012818
      vertex 1998.0001449584961 87534.159613423253 39869.004764012818
      vertex 3000 87534.159613423253 38867.004908971314
    endloop
  endfacet
  facet normal 0.57657898490953285 0.57657898490953285 -0.57888975489412942
    outer loop
      vertex 1998.0001449584961 87534.159613423253 39869.004764012818
      vertex 3000 87534.159613423253 40867.004908971314
      vertex 3000 86532.159758381749 39869.004764012818
    endloop
  endfacet
  facet normal 0.57811856667338557 0.57581073750268275 0.57811842856297757
    outer loop
      vertex 1000.0002384185791 87534.159613423253 40867.004908971314
      vertex 1998.0001449584961 86532.159758381749 40867.004908971314
      vertex 1998.0001449584961 87534.159613423253 39869.004764012818
    endloop
  endfacet
  facet normal 0.57811842856297757 0.57581073750268275 0.57811856667338557
    outer loop
      vertex 3000 87534.159613423253 38867.004908971314
      vertex 3998.0001449584961 86532.159758381749 38867.004908971314
      vertex 3998.0001449584961 87534.159613423253 37869.005002431397
    endloop
  endfacet
  facet normal 0.57811842856297757 0.57811856667338557 0.57581073750268275
    outer loop
      vertex 3000 86532.159758381749 39869.004764012818
      vertex 3998.0001449584961 85534.159851841832 39869.004764012818
      vertex 3998.0001449584961 86532.159758381749 38867.004908971314
    endloop
  endfacet
  facet normal 0.57811856667338557 0.57811842856297757 0.57581073750268275
    outer loop
      vertex 1000.0002384185791 88532.159758381749 39869.004764012818
      vertex 1998.0001449584961 87534.159613423253 39869.004764012818
      vertex 1998.0001449584961 88532.159758381749 38867.004908971314
    endloop
  endfacet
  facet normal -0.57888975489412942 0.57657898490953285 0.57657898490953285
    outer loop
      vertex 3998.0001449584961 87534.159613423253 39869.004764012818
      vertex 3000 87534.159613423253 38867.004908971314
      vertex 3000 86532.159758381749 39869.004764012818
    endloop
  endfacet
  facet normal 0.57581073750268275 0.57811856667338557 0.57811842856297757
    outer loop
      vertex 3000 85534.159851841832 40867.004908971314
      vertex 3000 86532.159758381749 39869.004764012818
      vertex 1998.0001449584961 86532.159758381749 40867.004908971314
    endloop
  endfacet
  facet normal 0.57581073750268275 0.57811842856297757 0.57811856667338557
    outer loop
      vertex 3000 87534.159613423253 38867.004908971314
      vertex 3000 88532.159758381749 37869.005002431397
      vertex 1998.0001449584961 88532.159758381749 38867.004908971314
    endloop
  endfacet
  facet normal -0.57696457995239658 -0.57696457995239658 -0.57812087573509174
    outer loop
      vertex -2000 82534.159613423253 38867.004908971314
      vertex -2000 83534.159613423253 37869.005002431397
      vertex -1000 82534.159613423253 37869.005002431397
    endloop
  endfacet
  facet normal -0.57696457995239658 -0.57812087573509174 -0.57696457995239658
    outer loop
      vertex -2000 85534.159851841832 35869.004764012818
      vertex -2000 86532.159758381749 34869.004764012818
      vertex -1000 85534.159851841832 34869.004764012818
    endloop
  endfacet
  facet normal -0.57812087573509174 -0.57696457995239658 -0.57696457995239658
    outer loop
      vertex 1998.0001449584961 82534.159613423253 34869.004764012818
      vertex 1000.0002384185791 82534.159613423253 35869.004764012818
      vertex 1000.0002384185791 83534.159613423253 34869.004764012818
    endloop
  endfacet
  facet normal 0.57581069189461354 0.57811852033118893 0.57811852033118893
    outer loop
      vertex 1000.0002384185791 88532.159758381749 39869.004764012818
      vertex -1.9998550415039062 88532.159758381749 40867.004908971314
      vertex 1000.0002384185791 87534.159613423253 40867.004908971314
    endloop
  endfacet
  facet normal 0.57811852033118893 0.57811852033118893 0.57581069189461354
    outer loop
      vertex 3998.0001449584961 88532.159758381749 36867.004908971314
      vertex 3000 88532.159758381749 37869.005002431397
      vertex 3998.0001449584961 87534.159613423253 37869.005002431397
    endloop
  endfacet
  facet normal 0.57811852033118893 0.57581069189461354 0.57811852033118893
    outer loop
      vertex 3000 85534.159851841832 40867.004908971314
      vertex 3998.0001449584961 84532.159758381749 40867.004908971314
      vertex 3998.0001449584961 85534.159851841832 39869.004764012818
    endloop
  endfacet
endsolid OBJECT
