solid OBJECT
  facet normal -0.57735026918962584 0.57735026918962584 0.57735026918962584
    outer loop
      vertex 7730.3470780897969 125762.76231269396 48500.176327629451
      vertex 6730.3470780897969 125762.76231269396 47500.176327629451
      vertex 6730.3470780897969 124762.76231269396 48500.176327629451
    endloop
  endfacet
  facet normal -0.57735026918962584 0.57735026918962584 -0.57735026918962584
    outer loop
      vertex 7730.3470780897969 125762.76231269396 48500.176327629451
      vertex 6730.3470780897969 124762.76231269396 48500.176327629451
      vertex 6730.3470780897969 125762.76231269396 49500.176327629451
    endloop
  endfacet
  facet normal -0.57735026918962584 -0.57735026918962584 0.57735026918962584
    outer loop
      vertex 7730.3470780897969 125762.76231269396 48500.176327629451
      vertex 6730.3470780897969 126762.76231269396 48500.176327629451
      vertex 6730.3470780897969 125762.76231269396 47500.176327629451
    endloop
  endfacet
  facet normal -0.57735026918962584 -0.57735026918962584 -0.57735026918962584
    outer loop
      vertex 7730.3470780897969 125762.76231269396 48500.176327629451
      vertex 6730.3470780897969 125762.76231269396 49500.176327629451
      vertex 6730.3470780897969 126762.76231269396 48500.176327629451
    endloop
  endfacet
  facet normal 0.57735026918962584 -0.57735026918962584 0.57735026918962584
    outer loop
      vertex 8730.3470780897969 124762.76231269396 48500.176327629451
      vertex 7730.3470780897969 123762.76231269396 48500.176327629451
      vertex 8730.3470780897969 123762.76231269396 47500.176327629451
    endloop
  endfacet
  facet normal 0.57735026918962584 -0.57735026918962584 -0.57735026918962584
    outer loop
      vertex 8730.3470780897969 124762.76231269396 48500.176327629451
      vertex 8730.3470780897969 123762.76231269396 49500.176327629451
      vertex 7730.3470780897969 123762.76231269396 48500.176327629451
    endloop
  endfacet
  facet normal -0.57735026918962584 -0.57735026918962584 0.57735026918962584
    outer loop
      vertex 8730.3470780897969 124762.76231269396 48500.176327629451
      vertex 8730.3470780897969 123762.76231269396 47500.176327629451
      vertex 9730.3470780897969 123762.76231269396 48500.176327629451
    endloop
  endfacet
  facet normal -0.57735026918962584 -0.57735026918962584 -0.57735026918962584
    outer loop
      vertex 8730.3470780897969 124762.76231269396 48500.176327629451
      vertex 9730.3470780897969 123762.76231269396 48500.176327629451
      vertex 8730.3470780897969 123762.76231269396 49500.176327629451
    endloop
  endfacet
  facet normal 0.57735026918962584 0.57735026918962584 -0.57735026918962584
    outer loop
      vertex 8730.3470780897969 125762.76231269396 47500.176327629451
      vertex 8730.3470780897969 124762.76231269396 46500.176327629451
      vertex 7730.3470780897969 125762.76231269396 46500.176327629451
    endloop
  endfacet
  facet normal 0.57735026918962584 -0.57735026918962584 -0.57735026918962584
    outer loop
      vertex 8730.3470780897969 125762.76231269396 47500.176327629451
      vertex 7730.3470780897969 125762.76231269396 46500.176327629451
      vertex 8730.3470780897969 126762.76231269396 46500.176327629451
    endloop
  endfacet
  facet normal -0.57735026918962584 0.57735026918962584 -0.57735026918962584
    outer loop
      vertex 8730.3470780897969 125762.76231269396 47500.176327629451
      vertex 9730.3470780897969 125762.76231269396 46500.176327629451
      vertex 8730.3470780897969 124762.76231269396 46500.176327629451
    endloop
  endfacet
  facet normal -0.57735026918962584 -0.57735026918962584 -0.57735026918962584
    outer loop
      vertex 8730.3470780897969 125762.76231269396 47500.176327629451
      vertex 8730.3470780897969 126762.76231269396 46500.176327629451
      vertex 9730.3470780897969 125762.76231269396 46500.176327629451
    endloop
  endfacet
  facet normal 0.57735026918962584 0.57735026918962584 0.57735026918962584
    outer loop
      vertex 8730.3470780897969 126762.76231269396 48500.176327629451
      vertex 8730.3470780897969 127762.76231269396 47500.176327629451
      vertex 7730.3470780897969 127762.76231269396 48500.176327629451
    endloop
  endfacet
  facet normal 0.57735026918962584 0.57735026918962584 -0.57735026918962584
    outer loop
      vertex 8730.3470780897969 126762.76231269396 48500.176327629451
      vertex 7730.3470780897969 127762.76231269396 48500.176327629451
      vertex 8730.3470780897969 127762.76231269396 49500.176327629451
    endloop
  endfacet
  facet normal -0.57735026918962584 0.57735026918962584 0.57735026918962584
    outer loop
      vertex 8730.3470780897969 126762.76231269396 48500.176327629451
      vertex 9730.3470780897969 127762.76231269396 48500.176327629451
      vertex 8730.3470780897969 127762.76231269396 47500.176327629451
    endloop
  endfacet
  facet normal -0.57735026918962584 0.57735026918962584 -0.57735026918962584
    outer loop
      vertex 8730.3470780897969 126762.76231269396 48500.176327629451
      vertex 8730.3470780897969 127762.76231269396 49500.176327629451
      vertex 9730.3470780897969 127762.76231269396 48500.176327629451
    endloop
  endfacet
  facet normal 0.57735026918962584 0.57735026918962584 0.57735026918962584
    outer loop
      vertex 8730.3470780897969 125762.76231269396 49500.176327629451
      vertex 7730.3470780897969 125762.76231269396 50500.176327629451
      vertex 8730.3470780897969 124762.76231269396 50500.176327629451
    endloop
  endfacet
  facet normal 0.57735026918962584 -0.57735026918962584 0.57735026918962584
    outer loop
      vertex 8730.3470780897969 125762.76231269396 49500.176327629451
      vertex 8730.3470780897969 126762.76231269396 50500.176327629451
      vertex 7730.3470780897969 125762.76231269396 50500.176327629451
    endloop
  endfacet
  facet normal -0.57735026918962584 0.57735026918962584 0.57735026918962584
    outer loop
      vertex 8730.3470780897969 125762.76231269396 49500.176327629451
      vertex 8730.3470780897969 124762.76231269396 50500.176327629451
      vertex 9730.3470780897969 125762.76231269396 50500.176327629451
    endloop
  endfacet
  facet normal -0.57735026918962584 -0.57735026918962584 0.57735026918962584
    outer loop
      vertex 8730.3470780897969 125762.76231269396 49500.176327629451
      vertex 9730.3470780897969 125762.76231269396 50500.176327629451
      vertex 8730.3470780897969 126762.76231269396 50500.176327629451
    endloop
  endfacet
  facet normal 0.57735026918962584 0.57735026918962584 0.57735026918962584
    outer loop
      vertex 9730.3470780897969 125762.76231269396 48500.176327629451
      vertex 10730.347078089797 124762.76231269396 48500.176327629451
      vertex 10730.347078089797 125762.76231269396 47500.176327629451
    endloop
  endfacet
  facet normal 0.57735026918962584 0.57735026918962584 -0.57735026918962584
    outer loop
      vertex 9730.3470780897969 125762.76231269396 48500.176327629451
      vertex 10730.347078089797 125762.76231269396 49500.176327629451
      vertex 10730.347078089797 124762.76231269396 48500.176327629451
    endloop
  endfacet
  facet normal 0.57735026918962584 -0.57735026918962584 0.57735026918962584
    outer loop
      vertex 9730.3470780897969 125762.76231269396 48500.176327629451
      vertex 10730.347078089797 125762.76231269396 47500.176327629451
      vertex 10730.347078089797 126762.76231269396 48500.176327629451
    endloop
  endfacet
  facet normal 0.57735026918962584 -0.57735026918962584 -0.57735026918962584
    outer loop
      vertex 9730.3470780897969 125762.76231269396 48500.176327629451
      vertex 10730.347078089797 126762.76231269396 48500.176327629451
      vertex 10730.347078089797 125762.76231269396 49500.176327629451
    endloop
  endfacet
  facet normal -0.57735026918962584 -0.57735026918962584 -0.57735026918962584
    outer loop
      vertex 7730.3470780897969 124762.76231269396 47500.176327629451
      vertex 8730.3470780897969 123762.76231269396 47500.176327629451
      vertex 7730.3470780897969 123762.76231269396 48500.176327629451
    endloop
  endfacet
  facet normal 0.57735026918962584 -0.57735026918962584 -0.57735026918962584
    outer loop
      vertex 7730.3470780897969 124762.76231269396 47500.176327629451
      vertex 7730.3470780897969 123762.76231269396 48500.176327629451
      vertex 6730.3470780897969 123762.76231269396 47500.176327629451
    endloop
  endfacet
  facet normal -0.57735026918962584 -0.57735026918962584 -0.57735026918962584
    outer loop
      vertex 7730.3470780897969 124762.76231269396 47500.176327629451
      vertex 6730.3470780897969 124762.76231269396 48500.176327629451
      vertex 6730.3470780897969 125762.76231269396 47500.176327629451
    endloop
  endfacet
  facet normal -0.57735026918962584 0.57735026918962584 -0.57735026918962584
    outer loop
      vertex 7730.3470780897969 124762.76231269396 47500.176327629451
      vertex 6730.3470780897969 123762.76231269396 47500.176327629451
      vertex 6730.3470780897969 124762.76231269396 48500.176327629451
    endloop
  endfacet
  facet normal -0.57735026918962584 -0.57735026918962584 -0.57735026918962584
    outer loop
      vertex 7730.3470780897969 124762.76231269396 47500.176327629451
      vertex 7730.3470780897969 125762.76231269396 46500.176327629451
      vertex 8730.3470780897969 124762.76231269396 46500.176327629451
    endloop
  endfacet
  facet normal 0.57735026918962584 -0.57735026918962584 -0.57735026918962584
    outer loop
      vertex 7730.3470780897969 124762.76231269396 47500.176327629451
      vertex 6730.3470780897969 124762.76231269396 46500.176327629451
      vertex 7730.3470780897969 125762.76231269396 46500.176327629451
    endloop
  endfacet
  facet normal -0.57735026918962584 -0.57735026918962584 0.57735026918962584
    outer loop
      vertex 7730.3470780897969 124762.76231269396 47500.176327629451
      vertex 6730.3470780897969 125762.76231269396 47500.176327629451
      vertex 6730.3470780897969 124762.76231269396 46500.176327629451
    endloop
  endfacet
  facet normal -0.57735026918962584 0.57735026918962584 -0.57735026918962584
    outer loop
      vertex 7730.3470780897969 124762.76231269396 47500.176327629451
      vertex 8730.3470780897969 124762.76231269396 46500.176327629451
      vertex 7730.3470780897969 123762.76231269396 46500.176327629451
    endloop
  endfacet
  facet normal -0.57735026918962584 -0.57735026918962584 0.57735026918962584
    outer loop
      vertex 7730.3470780897969 124762.76231269396 47500.176327629451
      vertex 7730.3470780897969 123762.76231269396 46500.176327629451
      vertex 8730.3470780897969 123762.76231269396 47500.176327629451
    endloop
  endfacet
  facet normal 0.57735026918962584 -0.57735026918962584 0.57735026918962584
    outer loop
      vertex 9730.3470780897969 124762.76231269396 49500.176327629451
      vertex 9730.3470780897969 125762.76231269396 50500.176327629451
      vertex 8730.3470780897969 124762.76231269396 50500.176327629451
    endloop
  endfacet
  facet normal 0.57735026918962584 0.57735026918962584 0.57735026918962584
    outer loop
      vertex 9730.3470780897969 124762.76231269396 49500.176327629451
      vertex 8730.3470780897969 124762.76231269396 50500.176327629451
      vertex 9730.3470780897969 123762.76231269396 50500.176327629451
    endloop
  endfacet
  facet normal 0.57735026918962584 -0.57735026918962584 0.57735026918962584
    outer loop
      vertex 9730.3470780897969 124762.76231269396 49500.176327629451
      vertex 8730.3470780897969 123762.76231269396 49500.176327629451
      vertex 9730.3470780897969 123762.76231269396 48500.176327629451
    endloop
  endfacet
  facet normal 0.57735026918962584 -0.57735026918962584 -0.57735026918962584
    outer loop
      vertex 9730.3470780897969 124762.76231269396 49500.176327629451
      vertex 9730.3470780897969 123762.76231269396 50500.176327629451
      vertex 8730.3470780897969 123762.76231269396 49500.176327629451
    endloop
  endfacet
  facet normal 0.57735026918962584 -0.57735026918962584 0.57735026918962584
    outer loop
      vertex 9730.3470780897969 124762.76231269396 49500.176327629451
      vertex 10730.347078089797 124762.76231269396 48500.176327629451
      vertex 10730.347078089797 125762.76231269396 49500.176327629451
    endloop
  endfacet
  facet normal 0.57735026918962584 0.57735026918962584 0.57735026918962584
    outer loop
      vertex 9730.3470780897969 124762.76231269396 49500.176327629451
      vertex 10730.347078089797 123762.76231269396 49500.176327629451
      vertex 10730.347078089797 124762.76231269396 48500.176327629451
    endloop
  endfacet
  facet normal -0.57735026918962584 -0.57735026918962584 0.57735026918962584
    outer loop
      vertex 9730.3470780897969 124762.76231269396 49500.176327629451
      vertex 9730.3470780897969 123762.76231269396 48500.176327629451
      vertex 10730.347078089797 123762.76231269396 49500.176327629451
    endloop
  endfacet
  facet normal 0.57735026918962584 -0.57735026918962584 -0.57735026918962584
    outer loop
      vertex 9730.3470780897969 124762.76231269396 49500.176327629451
      vertex 10730.347078089797 125762.76231269396 49500.176327629451
      vertex 10730.347078089797 124762.76231269396 50500.176327629451
    endloop
  endfacet
  facet normal -0.57735026918962584 -0.57735026918962584 0.57735026918962584
    outer loop
      vertex 9730.3470780897969 124762.76231269396 49500.176327629451
      vertex 10730.347078089797 124762.76231269396 50500.176327629451
      vertex 9730.3470780897969 125762.76231269396 50500.176327629451
    endloop
  endfacet
  facet normal -0.57735026918962584 -0.57735026918962584 0.57735026918962584
    outer loop
      vertex 7730.3470780897969 124762.76231269396 49500.176327629451
      vertex 7730.3470780897969 123762.76231269396 48500.176327629451
      vertex 8730.3470780897969 123762.76231269396 49500.176327629451
    endloop
  endfacet
  facet normal 0.57735026918962584 -0.57735026918962584 0.57735026918962584
    outer loop
      vertex 7730.3470780897969 124762.76231269396 49500.176327629451
      vertex 6730.3470780897969 123762.76231269396 49500.176327629451
      vertex 7730.3470780897969 123762.76231269396 48500.176327629451
    endloop
  endfacet
  facet normal -0.57735026918962584 -0.57735026918962584 0.57735026918962584
    outer loop
      vertex 7730.3470780897969 124762.76231269396 49500.176327629451
      vertex 6730.3470780897969 125762.76231269396 49500.176327629451
      vertex 6730.3470780897969 124762.76231269396 48500.176327629451
    endloop
  endfacet
  facet normal -0.57735026918962584 0.57735026918962584 0.57735026918962584
    outer loop
      vertex 7730.3470780897969 124762.76231269396 49500.176327629451
      vertex 6730.3470780897969 124762.76231269396 48500.176327629451
      vertex 6730.3470780897969 123762.76231269396 49500.176327629451
    endloop
  endfacet
  facet normal -0.57735026918962584 -0.57735026918962584 0.57735026918962584
    outer loop
      vertex 7730.3470780897969 124762.76231269396 49500.176327629451
      vertex 8730.3470780897969 124762.76231269396 50500.176327629451
      vertex 7730.3470780897969 125762.76231269396 50500.176327629451
    endloop
  endfacet
  facet normal 0.57735026918962584 -0.57735026918962584 0.57735026918962584
    outer loop
      vertex 7730.3470780897969 124762.76231269396 49500.176327629451
      vertex 7730.3470780897969 125762.76231269396 50500.176327629451
      vertex 6730.3470780897969 124762.76231269396 50500.176327629451
    endloop
  endfacet
  facet normal -0.57735026918962584 -0.57735026918962584 -0.57735026918962584
    outer loop
      vertex 7730.3470780897969 124762.76231269396 49500.176327629451
      vertex 6730.3470780897969 124762.76231269396 50500.176327629451
      vertex 6730.3470780897969 125762.76231269396 49500.176327629451
    endloop
  endfacet
  facet normal -0.57735026918962584 0.57735026918962584 0.57735026918962584
    outer loop
      vertex 7730.3470780897969 124762.76231269396 49500.176327629451
      vertex 7730.3470780897969 123762.76231269396 50500.176327629451
      vertex 8730.3470780897969 124762.76231269396 50500.176327629451
    endloop
  endfacet
  facet normal -0.57735026918962584 -0.57735026918962584 -0.57735026918962584
    outer loop
      vertex 7730.3470780897969 124762.76231269396 49500.176327629451
      vertex 8730.3470780897969 123762.76231269396 49500.176327629451
      vertex 7730.3470780897969 123762.76231269396 50500.176327629451
    endloop
  endfacet
  facet normal 0.57735026918962584 -0.57735026918962584 -0.57735026918962584
    outer loop
      vertex 9730.3470780897969 124762.76231269396 47500.176327629451
      vertex 8730.3470780897969 124762.76231269396 46500.176327629451
      vertex 9730.3470780897969 125762.76231269396 46500.176327629451
    endloop
  endfacet
  facet normal 0.57735026918962584 0.57735026918962584 -0.57735026918962584
    outer loop
      vertex 9730.3470780897969 124762.76231269396 47500.176327629451
      vertex 9730.3470780897969 123762.76231269396 46500.176327629451
      vertex 8730.3470780897969 124762.76231269396 46500.176327629451
    endloop
  endfacet
  facet normal 0.57735026918962584 -0.57735026918962584 -0.57735026918962584
    outer loop
      vertex 9730.3470780897969 124762.76231269396 47500.176327629451
      vertex 9730.3470780897969 123762.76231269396 48500.176327629451
      vertex 8730.3470780897969 123762.76231269396 47500.176327629451
    endloop
  endfacet
  facet normal 0.57735026918962584 -0.57735026918962584 0.57735026918962584
    outer loop
      vertex 9730.3470780897969 124762.76231269396 47500.176327629451
      vertex 8730.3470780897969 123762.76231269396 47500.176327629451
      vertex 9730.3470780897969 123762.76231269396 46500.176327629451
    endloop
  endfacet
  facet normal 0.57735026918962584 -0.57735026918962584 -0.57735026918962584
    outer loop
      vertex 9730.3470780897969 124762.76231269396 47500.176327629451
      vertex 10730.347078089797 125762.76231269396 47500.176327629451
      vertex 10730.347078089797 124762.76231269396 48500.176327629451
    endloop
  endfacet
  facet normal 0.57735026918962584 0.57735026918962584 -0.57735026918962584
    outer loop
      vertex 9730.3470780897969 124762.76231269396 47500.176327629451
      vertex 10730.347078089797 124762.76231269396 48500.176327629451
      vertex 10730.347078089797 123762.76231269396 47500.176327629451
    endloop
  endfacet
  facet normal -0.57735026918962584 -0.57735026918962584 -0.57735026918962584
    outer loop
      vertex 9730.3470780897969 124762.76231269396 47500.176327629451
      vertex 10730.347078089797 123762.76231269396 47500.176327629451
      vertex 9730.3470780897969 123762.76231269396 48500.176327629451
    endloop
  endfacet
  facet normal 0.57735026918962584 -0.57735026918962584 0.57735026918962584
    outer loop
      vertex 9730.3470780897969 124762.76231269396 47500.176327629451
      vertex 10730.347078089797 124762.76231269396 46500.176327629451
      vertex 10730.347078089797 125762.76231269396 47500.176327629451
    endloop
  endfacet
  facet normal -0.57735026918962584 -0.57735026918962584 -0.57735026918962584
    outer loop
      vertex 9730.3470780897969 124762.76231269396 47500.176327629451
      vertex 9730.3470780897969 125762.76231269396 46500.176327629451
      vertex 10730.347078089797 124762.76231269396 46500.176327629451
    endloop
  endfacet
  facet normal -0.57735026918962584 0.57735026918962584 0.57735026918962584
    outer loop
      vertex 7730.3470780897969 126762.76231269396 49500.176327629451
      vertex 8730.3470780897969 127762.76231269396 49500.176327629451
      vertex 7730.3470780897969 127762.76231269396 48500.176327629451
    endloop
  endfacet
  facet normal 0.57735026918962584 0.57735026918962584 0.57735026918962584
    outer loop
      vertex 7730.3470780897969 126762.76231269396 49500.176327629451
      vertex 7730.3470780897969 127762.76231269396 48500.176327629451
      vertex 6730.3470780897969 127762.76231269396 49500.176327629451
    endloop
  endfacet
  facet normal -0.57735026918962584 0.57735026918962584 0.57735026918962584
    outer loop
      vertex 7730.3470780897969 126762.76231269396 49500.176327629451
      vertex 6730.3470780897969 126762.76231269396 48500.176327629451
      vertex 6730.3470780897969 125762.76231269396 49500.176327629451
    endloop
  endfacet
  facet normal -0.57735026918962584 -0.57735026918962584 0.57735026918962584
    outer loop
      vertex 7730.3470780897969 126762.76231269396 49500.176327629451
      vertex 6730.3470780897969 127762.76231269396 49500.176327629451
      vertex 6730.3470780897969 126762.76231269396 48500.176327629451
    endloop
  endfacet
  facet normal -0.57735026918962584 0.57735026918962584 0.57735026918962584
    outer loop
      vertex 7730.3470780897969 126762.76231269396 49500.176327629451
      vertex 7730.3470780897969 125762.76231269396 50500.176327629451
      vertex 8730.3470780897969 126762.76231269396 50500.176327629451
    endloop
  endfacet
  facet normal 0.57735026918962584 0.57735026918962584 0.57735026918962584
    outer loop
      vertex 7730.3470780897969 126762.76231269396 49500.176327629451
      vertex 6730.3470780897969 126762.76231269396 50500.176327629451
      vertex 7730.3470780897969 125762.76231269396 50500.176327629451
    endloop
  endfacet
  facet normal -0.57735026918962584 0.57735026918962584 -0.57735026918962584
    outer loop
      vertex 7730.3470780897969 126762.76231269396 49500.176327629451
      vertex 6730.3470780897969 125762.76231269396 49500.176327629451
      vertex 6730.3470780897969 126762.76231269396 50500.176327629451
    endloop
  endfacet
  facet normal -0.57735026918962584 -0.57735026918962584 0.57735026918962584
    outer loop
      vertex 7730.3470780897969 126762.76231269396 49500.176327629451
      vertex 8730.3470780897969 126762.76231269396 50500.176327629451
      vertex 7730.3470780897969 127762.76231269396 50500.176327629451
    endloop
  endfacet
  facet normal -0.57735026918962584 0.57735026918962584 -0.57735026918962584
    outer loop
      vertex 7730.3470780897969 126762.76231269396 49500.176327629451
      vertex 7730.3470780897969 127762.76231269396 50500.176327629451
      vertex 8730.3470780897969 127762.76231269396 49500.176327629451
    endloop
  endfacet
  facet normal 0.57735026918962584 0.57735026918962584 -0.57735026918962584
    outer loop
      vertex 9730.3470780897969 126762.76231269396 47500.176327629451
      vertex 8730.3470780897969 127762.76231269396 47500.176327629451
      vertex 9730.3470780897969 127762.76231269396 48500.176327629451
    endloop
  endfacet
  facet normal 0.57735026918962584 0.57735026918962584 0.57735026918962584
    outer loop
      vertex 9730.3470780897969 126762.76231269396 47500.176327629451
      vertex 9730.3470780897969 127762.76231269396 46500.176327629451
      vertex 8730.3470780897969 127762.76231269396 47500.176327629451
    endloop
  endfacet
  facet normal 0.57735026918962584 0.57735026918962584 -0.57735026918962584
    outer loop
      vertex 9730.3470780897969 126762.76231269396 47500.176327629451
      vertex 9730.3470780897969 125762.76231269396 46500.176327629451
      vertex 8730.3470780897969 126762.76231269396 46500.176327629451
    endloop
  endfacet
  facet normal 0.57735026918962584 -0.57735026918962584 -0.57735026918962584
    outer loop
      vertex 9730.3470780897969 126762.76231269396 47500.176327629451
      vertex 8730.3470780897969 126762.76231269396 46500.176327629451
      vertex 9730.3470780897969 127762.76231269396 46500.176327629451
    endloop
  endfacet
  facet normal 0.57735026918962584 0.57735026918962584 -0.57735026918962584
    outer loop
      vertex 9730.3470780897969 126762.76231269396 47500.176327629451
      vertex 10730.347078089797 126762.76231269396 48500.176327629451
      vertex 10730.347078089797 125762.76231269396 47500.176327629451
    endloop
  endfacet
  facet normal 0.57735026918962584 0.57735026918962584 0.57735026918962584
    outer loop
      vertex 9730.3470780897969 126762.76231269396 47500.176327629451
      vertex 10730.347078089797 125762.76231269396 47500.176327629451
      vertex 10730.347078089797 126762.76231269396 46500.176327629451
    endloop
  endfacet
  facet normal -0.57735026918962584 0.57735026918962584 -0.57735026918962584
    outer loop
      vertex 9730.3470780897969 126762.76231269396 47500.176327629451
      vertex 10730.347078089797 126762.76231269396 46500.176327629451
      vertex 9730.3470780897969 125762.76231269396 46500.176327629451
    endloop
  endfacet
  facet normal 0.57735026918962584 -0.57735026918962584 -0.57735026918962584
    outer loop
      vertex 9730.3470780897969 126762.76231269396 47500.176327629451
      vertex 10730.347078089797 127762.76231269396 47500.176327629451
      vertex 10730.347078089797 126762.76231269396 48500.176327629451
    endloop
  endfacet
  facet normal -0.57735026918962584 0.57735026918962584 -0.57735026918962584
    outer loop
      vertex 9730.3470780897969 126762.76231269396 47500.176327629451
      vertex 9730.3470780897969 127762.76231269396 48500.176327629451
      vertex 10730.347078089797 127762.76231269396 47500.176327629451
    endloop
  endfacet
  facet normal -0.57735026918962584 0.57735026918962584 -0.57735026918962584
    outer loop
      vertex 7730.3470780897969 126762.76231269396 47500.176327629451
      vertex 8730.3470780897969 126762.76231269396 46500.176327629451
      vertex 7730.3470780897969 125762.76231269396 46500.176327629451
    endloop
  endfacet
  facet normal 0.57735026918962584 0.57735026918962584 -0.57735026918962584
    outer loop
      vertex 7730.3470780897969 126762.76231269396 47500.176327629451
      vertex 7730.3470780897969 125762.76231269396 46500.176327629451
      vertex 6730.3470780897969 126762.76231269396 46500.176327629451
    endloop
  endfacet
  facet normal -0.57735026918962584 0.57735026918962584 -0.57735026918962584
    outer loop
      vertex 7730.3470780897969 126762.76231269396 47500.176327629451
      vertex 6730.3470780897969 125762.76231269396 47500.176327629451
      vertex 6730.3470780897969 126762.76231269396 48500.176327629451
    endloop
  endfacet
  facet normal -0.57735026918962584 0.57735026918962584 0.57735026918962584
    outer loop
      vertex 7730.3470780897969 126762.76231269396 47500.176327629451
      vertex 6730.3470780897969 126762.76231269396 46500.176327629451
      vertex 6730.3470780897969 125762.76231269396 47500.176327629451
    endloop
  endfacet
  facet normal -0.57735026918962584 0.57735026918962584 -0.57735026918962584
    outer loop
      vertex 7730.3470780897969 126762.76231269396 47500.176327629451
      vertex 7730.3470780897969 127762.76231269396 48500.176327629451
      vertex 8730.3470780897969 127762.76231269396 47500.176327629451
    endloop
  endfacet
  facet normal 0.57735026918962584 0.57735026918962584 -0.57735026918962584
    outer loop
      vertex 7730.3470780897969 126762.76231269396 47500.176327629451
      vertex 6730.3470780897969 127762.76231269396 47500.176327629451
      vertex 7730.3470780897969 127762.76231269396 48500.176327629451
    endloop
  endfacet
  facet normal -0.57735026918962584 -0.57735026918962584 -0.57735026918962584
    outer loop
      vertex 7730.3470780897969 126762.76231269396 47500.176327629451
      vertex 6730.3470780897969 126762.76231269396 48500.176327629451
      vertex 6730.3470780897969 127762.76231269396 47500.176327629451
    endloop
  endfacet
  facet normal -0.57735026918962584 0.57735026918962584 0.57735026918962584
    outer loop
      vertex 7730.3470780897969 126762.76231269396 47500.176327629451
      vertex 8730.3470780897969 127762.76231269396 47500.176327629451
      vertex 7730.3470780897969 127762.76231269396 46500.176327629451
    endloop
  endfacet
  facet normal -0.57735026918962584 -0.57735026918962584 -0.57735026918962584
    outer loop
      vertex 7730.3470780897969 126762.76231269396 47500.176327629451
      vertex 7730.3470780897969 127762.76231269396 46500.176327629451
      vertex 8730.3470780897969 126762.76231269396 46500.176327629451
    endloop
  endfacet
  facet normal 0.57735026918962584 0.57735026918962584 0.57735026918962584
    outer loop
      vertex 9730.3470780897969 126762.76231269396 49500.176327629451
      vertex 8730.3470780897969 126762.76231269396 50500.176327629451
      vertex 9730.3470780897969 125762.76231269396 50500.176327629451
    endloop
  endfacet
  facet normal 0.57735026918962584 -0.57735026918962584 0.57735026918962584
    outer loop
      vertex 9730.3470780897969 126762.76231269396 49500.176327629451
      vertex 9730.3470780897969 127762.76231269396 50500.176327629451
      vertex 8730.3470780897969 126762.76231269396 50500.176327629451
    endloop
  endfacet
  facet normal 0.57735026918962584 0.57735026918962584 0.57735026918962584
    outer loop
      vertex 9730.3470780897969 126762.76231269396 49500.176327629451
      vertex 9730.3470780897969 127762.76231269396 48500.176327629451
      vertex 8730.3470780897969 127762.76231269396 49500.176327629451
    endloop
  endfacet
  facet normal 0.57735026918962584 0.57735026918962584 -0.57735026918962584
    outer loop
      vertex 9730.3470780897969 126762.76231269396 49500.176327629451
      vertex 8730.3470780897969 127762.76231269396 49500.176327629451
      vertex 9730.3470780897969 127762.76231269396 50500.176327629451
    endloop
  endfacet
  facet normal 0.57735026918962584 0.57735026918962584 0.57735026918962584
    outer loop
      vertex 9730.3470780897969 126762.76231269396 49500.176327629451
      vertex 10730.347078089797 125762.76231269396 49500.176327629451
      vertex 10730.347078089797 126762.76231269396 48500.176327629451
    endloop
  endfacet
  facet normal 0.57735026918962584 -0.57735026918962584 0.57735026918962584
    outer loop
      vertex 9730.3470780897969 126762.76231269396 49500.176327629451
      vertex 10730.347078089797 126762.76231269396 48500.176327629451
      vertex 10730.347078089797 127762.76231269396 49500.176327629451
    endloop
  endfacet
  facet normal -0.57735026918962584 0.57735026918962584 0.57735026918962584
    outer loop
      vertex 9730.3470780897969 126762.76231269396 49500.176327629451
      vertex 10730.347078089797 127762.76231269396 49500.176327629451
      vertex 9730.3470780897969 127762.76231269396 48500.176327629451
    endloop
  endfacet
  facet normal 0.57735026918962584 0.57735026918962584 -0.57735026918962584
    outer loop
      vertex 9730.3470780897969 126762.76231269396 49500.176327629451
      vertex 10730.347078089797 126762.76231269396 50500.176327629451
      vertex 10730.347078089797 125762.76231269396 49500.176327629451
    endloop
  endfacet
  facet normal -0.57735026918962584 0.57735026918962584 0.57735026918962584
    outer loop
      vertex 9730.3470780897969 126762.76231269396 49500.176327629451
      vertex 9730.3470780897969 125762.76231269396 50500.176327629451
      vertex 10730.347078089797 126762.76231269396 50500.176327629451
    endloop
  endfacet
  facet normal -0.57735026918962584 -0.57735026918962584 0.57735026918962584
    outer loop
      vertex 7730.3470780897969 123762.76231269396 48500.176327629451
      vertex 6730.3470780897969 124762.76231269396 48500.176327629451
      vertex 6730.3470780897969 123762.76231269396 47500.176327629451
    endloop
  endfacet
  facet normal -0.57735026918962584 -0.57735026918962584 -0.57735026918962584
    outer loop
      vertex 7730.3470780897969 123762.76231269396 48500.176327629451
      vertex 6730.3470780897969 123762.76231269396 49500.176327629451
      vertex 6730.3470780897969 124762.76231269396 48500.176327629451
    endloop
  endfacet
  facet normal -0.57735026918962584 0.57735026918962584 -0.57735026918962584
    outer loop
      vertex 7730.3470780897969 125762.76231269396 46500.176327629451
      vertex 6730.3470780897969 124762.76231269396 46500.176327629451
      vertex 6730.3470780897969 125762.76231269396 47500.176327629451
    endloop
  endfacet
  facet normal -0.57735026918962584 -0.57735026918962584 -0.57735026918962584
    outer loop
      vertex 7730.3470780897969 125762.76231269396 46500.176327629451
      vertex 6730.3470780897969 125762.76231269396 47500.176327629451
      vertex 6730.3470780897969 126762.76231269396 46500.176327629451
    endloop
  endfacet
  facet normal -0.57735026918962584 0.57735026918962584 -0.57735026918962584
    outer loop
      vertex 7730.3470780897969 127762.76231269396 48500.176327629451
      vertex 6730.3470780897969 126762.76231269396 48500.176327629451
      vertex 6730.3470780897969 127762.76231269396 49500.176327629451
    endloop
  endfacet
  facet normal -0.57735026918962584 0.57735026918962584 0.57735026918962584
    outer loop
      vertex 7730.3470780897969 127762.76231269396 48500.176327629451
      vertex 6730.3470780897969 127762.76231269396 47500.176327629451
      vertex 6730.3470780897969 126762.76231269396 48500.176327629451
    endloop
  endfacet
  facet normal -0.57735026918962584 0.57735026918962584 0.57735026918962584
    outer loop
      vertex 7730.3470780897969 125762.76231269396 50500.176327629451
      vertex 6730.3470780897969 125762.76231269396 49500.176327629451
      vertex 6730.3470780897969 124762.76231269396 50500.176327629451
    endloop
  endfacet
  facet normal -0.57735026918962584 -0.57735026918962584 0.57735026918962584
    outer loop
      vertex 7730.3470780897969 125762.76231269396 50500.176327629451
      vertex 6730.3470780897969 126762.76231269396 50500.176327629451
      vertex 6730.3470780897969 125762.76231269396 49500.176327629451
    endloop
  endfacet
  facet normal 0.57735026918962584 -0.57735026918962584 -0.57735026918962584
    outer loop
      vertex 8730.3470780897969 124762.76231269396 46500.176327629451
      vertex 8730.3470780897969 123762.76231269396 47500.176327629451
      vertex 7730.3470780897969 123762.76231269396 46500.176327629451
    endloop
  endfacet
  facet normal -0.57735026918962584 -0.57735026918962584 -0.57735026918962584
    outer loop
      vertex 8730.3470780897969 124762.76231269396 46500.176327629451
      vertex 9730.3470780897969 123762.76231269396 46500.176327629451
      vertex 8730.3470780897969 123762.76231269396 47500.176327629451
    endloop
  endfacet
  facet normal -0.57735026918962584 -0.57735026918962584 0.57735026918962584
    outer loop
      vertex 8730.3470780897969 124762.76231269396 50500.176327629451
      vertex 8730.3470780897969 123762.76231269396 49500.176327629451
      vertex 9730.3470780897969 123762.76231269396 50500.176327629451
    endloop
  endfacet
  facet normal 0.57735026918962584 -0.57735026918962584 0.57735026918962584
    outer loop
      vertex 8730.3470780897969 124762.76231269396 50500.176327629451
      vertex 7730.3470780897969 123762.76231269396 50500.176327629451
      vertex 8730.3470780897969 123762.76231269396 49500.176327629451
    endloop
  endfacet
  facet normal 0.57735026918962584 -0.57735026918962584 -0.57735026918962584
    outer loop
      vertex 10730.347078089797 124762.76231269396 48500.176327629451
      vertex 10730.347078089797 123762.76231269396 49500.176327629451
      vertex 9730.3470780897969 123762.76231269396 48500.176327629451
    endloop
  endfacet
  facet normal 0.57735026918962584 -0.57735026918962584 0.57735026918962584
    outer loop
      vertex 10730.347078089797 124762.76231269396 48500.176327629451
      vertex 9730.3470780897969 123762.76231269396 48500.176327629451
      vertex 10730.347078089797 123762.76231269396 47500.176327629451
    endloop
  endfacet
  facet normal -0.57735026918962584 0.57735026918962584 -0.57735026918962584
    outer loop
      vertex 8730.3470780897969 127762.76231269396 47500.176327629451
      vertex 9730.3470780897969 127762.76231269396 46500.176327629451
      vertex 8730.3470780897969 126762.76231269396 46500.176327629451
    endloop
  endfacet
  facet normal 0.57735026918962584 0.57735026918962584 -0.57735026918962584
    outer loop
      vertex 8730.3470780897969 127762.76231269396 47500.176327629451
      vertex 8730.3470780897969 126762.76231269396 46500.176327629451
      vertex 7730.3470780897969 127762.76231269396 46500.176327629451
    endloop
  endfacet
  facet normal 0.57735026918962584 0.57735026918962584 -0.57735026918962584
    outer loop
      vertex 10730.347078089797 125762.76231269396 47500.176327629451
      vertex 10730.347078089797 124762.76231269396 46500.176327629451
      vertex 9730.3470780897969 125762.76231269396 46500.176327629451
    endloop
  endfacet
  facet normal 0.57735026918962584 -0.57735026918962584 -0.57735026918962584
    outer loop
      vertex 10730.347078089797 125762.76231269396 47500.176327629451
      vertex 9730.3470780897969 125762.76231269396 46500.176327629451
      vertex 10730.347078089797 126762.76231269396 46500.176327629451
    endloop
  endfacet
  facet normal 0.57735026918962584 0.57735026918962584 0.57735026918962584
    outer loop
      vertex 8730.3470780897969 126762.76231269396 50500.176327629451
      vertex 8730.3470780897969 127762.76231269396 49500.176327629451
      vertex 7730.3470780897969 127762.76231269396 50500.176327629451
    endloop
  endfacet
  facet normal -0.57735026918962584 0.57735026918962584 0.57735026918962584
    outer loop
      vertex 8730.3470780897969 126762.76231269396 50500.176327629451
      vertex 9730.3470780897969 127762.76231269396 50500.176327629451
      vertex 8730.3470780897969 127762.76231269396 49500.176327629451
    endloop
  endfacet
  facet normal 0.57735026918962584 0.57735026918962584 0.57735026918962584
    outer loop
      vertex 10730.347078089797 126762.76231269396 48500.176327629451
      vertex 10730.347078089797 127762.76231269396 47500.176327629451
      vertex 9730.3470780897969 127762.76231269396 48500.176327629451
    endloop
  endfacet
  facet normal 0.57735026918962584 0.57735026918962584 -0.57735026918962584
    outer loop
      vertex 10730.347078089797 126762.76231269396 48500.176327629451
      vertex 9730.3470780897969 127762.76231269396 48500.176327629451
      vertex 10730.347078089797 127762.76231269396 49500.176327629451
    endloop
  endfacet
  facet normal 0.57735026918962584 0.57735026918962584 0.57735026918962584
    outer loop
      vertex 10730.347078089797 125762.76231269396 49500.176327629451
      vertex 9730.3470780897969 125762.76231269396 50500.176327629451
      vertex 10730.347078089797 124762.76231269396 50500.176327629451
    endloop
  endfacet
  facet normal 0.57735026918962584 -0.57735026918962584 0.57735026918962584
    outer loop
      vertex 10730.347078089797 125762.76231269396 49500.176327629451
      vertex 10730.347078089797 126762.76231269396 50500.176327629451
      vertex 9730.3470780897969 125762.76231269396 50500.176327629451
    endloop
  endfacet
endsolid OBJECT
