solid OBJECT
  facet normal 0.57735017723837168 -0.57735031516524726 -0.57735031516524726
    outer loop
      vertex 9726.34712958821 102140.15675536905 35305.188928916556
      vertex 8728.3469846297139 101142.15684882914 35305.188928916556
      vertex 8728.3469846297139 102140.15675536905 34307.189022376639
    endloop
  endfacet
  facet normal 0.57735026918962584 -0.57735026918962584 -0.57735026918962584
    outer loop
      vertex 5726.34712958821 100140.15675536905 33305.188928916556
      vertex 4728.3469846297139 99142.156610410559 33305.188928916556
      vertex 4728.3469846297139 100140.15675536905 32307.18878395806
    endloop
  endfacet
  facet normal -0.57735031516524726 0.57735017723837168 -0.57735031516524726
    outer loop
      vertex 7726.34712958821 103142.15661041056 34307.189022376639
      vertex 6728.347223048293 103142.15661041056 35305.188928916556
      vertex 7726.34712958821 104140.15675536905 35305.188928916556
    endloop
  endfacet
  facet normal -0.57735026918962584 0.57735026918962584 -0.57735026918962584
    outer loop
      vertex 5726.34712958821 99142.156610410559 32307.18878395806
      vertex 4728.3469846297139 99142.156610410559 33305.188928916556
      vertex 5726.34712958821 100140.15675536905 33305.188928916556
    endloop
  endfacet
  facet normal -0.57735031516524726 -0.57735031516524726 0.57735017723837168
    outer loop
      vertex 7726.34712958821 102140.15675536905 37305.188928916556
      vertex 6728.347223048293 102140.15675536905 36307.18878395806
      vertex 7726.34712958821 101142.15684882914 36307.18878395806
    endloop
  endfacet
  facet normal -0.57735026918962584 -0.57735026918962584 0.57735026918962584
    outer loop
      vertex 5726.34712958821 100140.15675536905 33305.188928916556
      vertex 4728.3469846297139 100140.15675536905 32307.18878395806
      vertex 5726.34712958821 99142.156610410559 32307.18878395806
    endloop
  endfacet
  facet normal 0.57657898490953285 0.57888975489412942 0.57657898490953285
    outer loop
      vertex 7726.34712958821 100140.15675536905 35305.188928916556
      vertex 7726.34712958821 99142.156610410559 36307.18878395806
      vertex 8728.3469846297139 99142.156610410559 35305.188928916556
    endloop
  endfacet
  facet normal 0.57657898490953285 -0.57888975489412942 -0.57657898490953285
    outer loop
      vertex 8728.3469846297139 100140.15675536905 36307.18878395806
      vertex 7726.34712958821 99142.156610410559 36307.18878395806
      vertex 7726.34712958821 100140.15675536905 35305.188928916556
    endloop
  endfacet
  facet normal -0.57657898490953285 -0.57888975489412942 0.57657898490953285
    outer loop
      vertex 7726.34712958821 100140.15675536905 35305.188928916556
      vertex 8728.3469846297139 99142.156610410559 35305.188928916556
      vertex 8728.3469846297139 100140.15675536905 36307.18878395806
    endloop
  endfacet
  facet normal 0.57811847472237599 -0.57811847472237599 0.57581078347782544
    outer loop
      vertex 4728.3469846297139 100140.15675536905 36307.18878395806
      vertex 4728.3469846297139 99142.156610410559 35305.188928916556
      vertex 5726.34712958821 100140.15675536905 35305.188928916556
    endloop
  endfacet
  facet normal -0.57811847472237599 0.57811847472237599 0.57581078347782544
    outer loop
      vertex 5726.34712958821 100140.15675536905 35305.188928916556
      vertex 4728.3469846297139 99142.156610410559 35305.188928916556
      vertex 5726.34712958821 99142.156610410559 36307.18878395806
    endloop
  endfacet
  facet normal -0.57811847472237599 -0.57811847472237599 -0.57581078347782544
    outer loop
      vertex 5726.34712958821 99142.156610410559 36307.18878395806
      vertex 4728.3469846297139 100140.15675536905 36307.18878395806
      vertex 5726.34712958821 100140.15675536905 35305.188928916556
    endloop
  endfacet
  facet normal 0.57581078347782544 0.57811847472237599 -0.57811847472237599
    outer loop
      vertex 8728.3469846297139 99142.156610410559 33305.188928916556
      vertex 7726.34712958821 99142.156610410559 32307.18878395806
      vertex 7726.34712958821 100140.15675536905 33305.188928916556
    endloop
  endfacet
  facet normal 0.57581078347782544 -0.57811847472237599 0.57811847472237599
    outer loop
      vertex 7726.34712958821 100140.15675536905 33305.188928916556
      vertex 7726.34712958821 99142.156610410559 32307.18878395806
      vertex 8728.3469846297139 100140.15675536905 32307.18878395806
    endloop
  endfacet
  facet normal -0.57581078347782544 -0.57811847472237599 -0.57811847472237599
    outer loop
      vertex 8728.3469846297139 100140.15675536905 32307.18878395806
      vertex 8728.3469846297139 99142.156610410559 33305.188928916556
      vertex 7726.34712958821 100140.15675536905 33305.188928916556
    endloop
  endfacet
  facet normal 0.57888975489412942 0.57657898490953285 0.57657898490953285
    outer loop
      vertex 5726.34712958821 102140.15675536905 35305.188928916556
      vertex 4728.3469846297139 103142.15661041056 35305.188928916556
      vertex 4728.3469846297139 102140.15675536905 36307.18878395806
    endloop
  endfacet
  facet normal -0.57888975489412942 -0.57657898490953285 0.57657898490953285
    outer loop
      vertex 5726.34712958821 103142.15661041056 36307.18878395806
      vertex 4728.3469846297139 103142.15661041056 35305.188928916556
      vertex 5726.34712958821 102140.15675536905 35305.188928916556
    endloop
  endfacet
  facet normal -0.57888975489412942 0.57657898490953285 -0.57657898490953285
    outer loop
      vertex 5726.34712958821 102140.15675536905 35305.188928916556
      vertex 4728.3469846297139 102140.15675536905 36307.18878395806
      vertex 5726.34712958821 103142.15661041056 36307.18878395806
    endloop
  endfacet
  facet normal 0.57657898490953285 0.57657898490953285 0.57888975489412942
    outer loop
      vertex 8728.3469846297139 102140.15675536905 32307.18878395806
      vertex 7726.34712958821 103142.15661041056 32307.18878395806
      vertex 7726.34712958821 102140.15675536905 33305.188928916556
    endloop
  endfacet
  facet normal 0.57657898490953285 -0.57657898490953285 -0.57888975489412942
    outer loop
      vertex 7726.34712958821 102140.15675536905 33305.188928916556
      vertex 7726.34712958821 103142.15661041056 32307.18878395806
      vertex 8728.3469846297139 103142.15661041056 33305.188928916556
    endloop
  endfacet
  facet normal -0.57657898490953285 0.57657898490953285 -0.57888975489412942
    outer loop
      vertex 8728.3469846297139 103142.15661041056 33305.188928916556
      vertex 8728.3469846297139 102140.15675536905 32307.18878395806
      vertex 7726.34712958821 102140.15675536905 33305.188928916556
    endloop
  endfacet
  facet normal 0.57811847472237599 0.57581078347782544 -0.57811847472237599
    outer loop
      vertex 5726.34712958821 102140.15675536905 33305.188928916556
      vertex 4728.3469846297139 102140.15675536905 32307.18878395806
      vertex 4728.3469846297139 103142.15661041056 33305.188928916556
    endloop
  endfacet
  facet normal -0.57811847472237599 0.57581078347782544 0.57811847472237599
    outer loop
      vertex 5726.34712958821 103142.15661041056 32307.18878395806
      vertex 4728.3469846297139 102140.15675536905 32307.18878395806
      vertex 5726.34712958821 102140.15675536905 33305.188928916556
    endloop
  endfacet
  facet normal -0.57811847472237599 -0.57581078347782544 -0.57811847472237599
    outer loop
      vertex 5726.34712958821 102140.15675536905 33305.188928916556
      vertex 4728.3469846297139 103142.15661041056 33305.188928916556
      vertex 5726.34712958821 103142.15661041056 32307.18878395806
    endloop
  endfacet
  facet normal 0.57735026918962584 -0.57735026918962584 0.57735026918962584
    outer loop
      vertex 7726.34712958821 103142.15661041056 36307.18878395806
      vertex 7726.34712958821 102140.15675536905 35305.188928916556
      vertex 8728.3469846297139 103142.15661041056 35305.188928916556
    endloop
  endfacet
  facet normal 0.57696535136554705 -0.57811933599150778 0.57696535136554705
    outer loop
      vertex 5726.34712958821 99142.156610410559 34307.189022376639
      vertex 5726.34712958821 98142.156610410559 33305.188928916556
      vertex 6728.347223048293 99142.156610410559 33305.188928916556
    endloop
  endfacet
  facet normal 0.57696535136554705 0.57696535136554705 -0.57811933599150778
    outer loop
      vertex 5726.34712958821 100140.15675536905 31307.18878395806
      vertex 5726.34712958821 101142.15684882914 32307.18878395806
      vertex 6728.347223048293 100140.15675536905 32307.18878395806
    endloop
  endfacet
  facet normal 0.57735026918962584 0.57735026918962584 -0.57735026918962584
    outer loop
      vertex 7726.34712958821 102140.15675536905 35305.188928916556
      vertex 7726.34712958821 103142.15661041056 36307.18878395806
      vertex 8728.3469846297139 102140.15675536905 36307.18878395806
    endloop
  endfacet
  facet normal -0.57811933599150778 0.57696535136554705 0.57696535136554705
    outer loop
      vertex 3728.3469846297139 100140.15675536905 33305.188928916556
      vertex 4728.3469846297139 100140.15675536905 34307.189022376639
      vertex 4728.3469846297139 101142.15684882914 33305.188928916556
    endloop
  endfacet
  facet normal -0.57735026918962584 0.57735026918962584 0.57735026918962584
    outer loop
      vertex 7726.34712958821 102140.15675536905 35305.188928916556
      vertex 8728.3469846297139 102140.15675536905 36307.18878395806
      vertex 8728.3469846297139 103142.15661041056 35305.188928916556
    endloop
  endfacet
  facet normal -0.57811933599150778 -0.57696535136554705 -0.57696535136554705
    outer loop
      vertex 3728.3469846297139 101142.15684882914 34307.189022376639
      vertex 4728.3469846297139 101142.15684882914 33305.188928916556
      vertex 4728.3469846297139 100140.15675536905 34307.189022376639
    endloop
  endfacet
  facet normal -0.57696535136554705 -0.57696535136554705 -0.57811933599150778
    outer loop
      vertex 5726.34712958821 101142.15684882914 32307.18878395806
      vertex 6728.347223048293 101142.15684882914 31307.18878395806
      vertex 6728.347223048293 100140.15675536905 32307.18878395806
    endloop
  endfacet
  facet normal -0.57696535136554705 -0.57811933599150778 -0.57696535136554705
    outer loop
      vertex 5726.34712958821 99142.156610410559 34307.189022376639
      vertex 6728.347223048293 99142.156610410559 33305.188928916556
      vertex 6728.347223048293 98142.156610410559 34307.189022376639
    endloop
  endfacet
  facet normal -0.57734795957116725 -0.57619551469050567 0.57850502368566614
    outer loop
      vertex 4728.3469846297139 101142.15684882914 35305.188928916556
      vertex 3728.3469846297139 101142.15684882914 34307.189022376639
      vertex 4728.3469846297139 100140.15675536905 34307.189022376639
    endloop
  endfacet
  facet normal -0.57619551469050567 -0.57734795957116725 0.57850502368566614
    outer loop
      vertex 6728.347223048293 99142.156610410559 35305.188928916556
      vertex 5726.34712958821 99142.156610410559 34307.189022376639
      vertex 6728.347223048293 98142.156610410559 34307.189022376639
    endloop
  endfacet
  facet normal 0.57619551469050567 -0.57734795957116725 -0.57850502368566614
    outer loop
      vertex 5726.34712958821 99142.156610410559 34307.189022376639
      vertex 6728.347223048293 99142.156610410559 35305.188928916556
      vertex 5726.34712958821 98142.156610410559 35305.188928916556
    endloop
  endfacet
  facet normal -0.5785049317349642 -0.57734800573069911 0.57619556075789846
    outer loop
      vertex 5726.34712958821 99142.156610410559 34307.189022376639
      vertex 4728.3469846297139 99142.156610410559 33305.188928916556
      vertex 5726.34712958821 98142.156610410559 33305.188928916556
    endloop
  endfacet
  facet normal 0.5785049317349642 -0.57619556075789846 -0.57734800573069911
    outer loop
      vertex 5726.34712958821 101142.15684882914 32307.18878395806
      vertex 4728.3469846297139 100140.15675536905 32307.18878395806
      vertex 4728.3469846297139 101142.15684882914 31307.18878395806
    endloop
  endfacet
  facet normal 0.5785049317349642 -0.57734800573069911 -0.57619556075789846
    outer loop
      vertex 5726.34712958821 99142.156610410559 34307.189022376639
      vertex 4728.3469846297139 98142.156610410559 34307.189022376639
      vertex 4728.3469846297139 99142.156610410559 33305.188928916556
    endloop
  endfacet
  facet normal -0.57811861228219863 -0.57581064591947106 -0.57811847417177975
    outer loop
      vertex 6728.347223048293 99142.156610410559 33305.188928916556
      vertex 7726.34712958821 99142.156610410559 32307.18878395806
      vertex 7726.34712958821 98140.156516950476 33305.188928916556
    endloop
  endfacet
  facet normal -0.57773509506171328 -0.57657970861920038 -0.57773523308054431
    outer loop
      vertex 4728.3469846297139 99142.156610410559 35305.188928916556
      vertex 5726.34712958821 99142.156610410559 34307.189022376639
      vertex 5726.34712958821 98142.156610410559 35305.188928916556
    endloop
  endfacet
  facet normal 0.57773509506171328 -0.57657970861920038 0.57773523308054431
    outer loop
      vertex 4728.3469846297139 99142.156610410559 35305.188928916556
      vertex 4728.3469846297139 98142.156610410559 34307.189022376639
      vertex 5726.34712958821 99142.156610410559 34307.189022376639
    endloop
  endfacet
  facet normal 0.57773523308054431 -0.57657970861920038 0.57773509506171328
    outer loop
      vertex 6728.347223048293 99142.156610410559 33305.188928916556
      vertex 6728.347223048293 98142.156610410559 32307.18878395806
      vertex 7726.34712958821 99142.156610410559 32307.18878395806
    endloop
  endfacet
  facet normal -0.57734795957116725 0.57619551469050567 -0.57850502368566614
    outer loop
      vertex 3728.3469846297139 100140.15675536905 35305.188928916556
      vertex 4728.3469846297139 101142.15684882914 35305.188928916556
      vertex 4728.3469846297139 100140.15675536905 34307.189022376639
    endloop
  endfacet
  facet normal -0.57734800573069911 -0.5785049317349642 0.57619556075789846
    outer loop
      vertex 3728.3469846297139 100140.15675536905 33305.188928916556
      vertex 4728.3469846297139 99142.156610410559 33305.188928916556
      vertex 4728.3469846297139 100140.15675536905 34307.189022376639
    endloop
  endfacet
  facet normal -0.57657893893440226 0.57888984647733965 -0.57657893893440226
    outer loop
      vertex 4728.3469846297139 100140.15675536905 34307.189022376639
      vertex 4728.3469846297139 99142.156610410559 33305.188928916556
      vertex 3726.3468911696309 99142.156610410559 34307.189022376639
    endloop
  endfacet
  facet normal -0.57619556075789846 0.5785049317349642 -0.57734800573069911
    outer loop
      vertex 6728.347223048293 100140.15675536905 32307.18878395806
      vertex 6728.347223048293 99142.156610410559 31307.18878395806
      vertex 5726.34712958821 99142.156610410559 32307.18878395806
    endloop
  endfacet
  facet normal -0.57657970861920038 -0.57773523308054431 -0.57773509506171328
    outer loop
      vertex 4728.3469846297139 101142.15684882914 33305.188928916556
      vertex 3728.3469846297139 102140.15675536905 33305.188928916556
      vertex 4728.3469846297139 102140.15675536905 32307.18878395806
    endloop
  endfacet
  facet normal -0.57657970861920038 -0.57773509506171328 -0.57773523308054431
    outer loop
      vertex 4728.3469846297139 99142.156610410559 35305.188928916556
      vertex 3728.3469846297139 100140.15675536905 35305.188928916556
      vertex 4728.3469846297139 100140.15675536905 34307.189022376639
    endloop
  endfacet
  facet normal -0.57657970861920038 0.57773523308054431 0.57773509506171328
    outer loop
      vertex 3728.3469846297139 101142.15684882914 32307.18878395806
      vertex 4728.3469846297139 101142.15684882914 33305.188928916556
      vertex 4728.3469846297139 102140.15675536905 32307.18878395806
    endloop
  endfacet
  facet normal -0.57581064591947106 0.57811847417177975 0.57811861228219863
    outer loop
      vertex 3726.3468911696309 99142.156610410559 34307.189022376639
      vertex 4728.3469846297139 99142.156610410559 35305.188928916556
      vertex 4728.3469846297139 100140.15675536905 34307.189022376639
    endloop
  endfacet
  facet normal -0.57734795957116725 0.57850502368566614 -0.57619551469050567
    outer loop
      vertex 4728.3469846297139 102140.15675536905 34307.189022376639
      vertex 4728.3469846297139 101142.15684882914 33305.188928916556
      vertex 3728.3469846297139 101142.15684882914 34307.189022376639
    endloop
  endfacet
  facet normal -0.57619551469050567 0.57850502368566614 -0.57734795957116725
    outer loop
      vertex 6728.347223048293 102140.15675536905 32307.18878395806
      vertex 6728.347223048293 101142.15684882914 31307.18878395806
      vertex 5726.34712958821 101142.15684882914 32307.18878395806
    endloop
  endfacet
  facet normal 0.57619551469050567 -0.57850502368566614 -0.57734795957116725
    outer loop
      vertex 5726.34712958821 102140.15675536905 31307.18878395806
      vertex 6728.347223048293 102140.15675536905 32307.18878395806
      vertex 5726.34712958821 101142.15684882914 32307.18878395806
    endloop
  endfacet
  facet normal -0.5785049317349642 0.57619556075789846 -0.57734800573069911
    outer loop
      vertex 5726.34712958821 100140.15675536905 31307.18878395806
      vertex 4728.3469846297139 100140.15675536905 32307.18878395806
      vertex 5726.34712958821 101142.15684882914 32307.18878395806
    endloop
  endfacet
  facet normal -0.57773523308054431 -0.57773509506171328 -0.57657970861920038
    outer loop
      vertex 6728.347223048293 100140.15675536905 32307.18878395806
      vertex 7726.34712958821 100140.15675536905 31307.18878395806
      vertex 7726.34712958821 99142.156610410559 32307.18878395806
    endloop
  endfacet
  facet normal -0.57773509506171328 -0.57773523308054431 -0.57657970861920038
    outer loop
      vertex 4728.3469846297139 102140.15675536905 32307.18878395806
      vertex 5726.34712958821 102140.15675536905 31307.18878395806
      vertex 5726.34712958821 101142.15684882914 32307.18878395806
    endloop
  endfacet
  facet normal 0.57773523308054431 0.57773509506171328 -0.57657970861920038
    outer loop
      vertex 6728.347223048293 99142.156610410559 31307.18878395806
      vertex 6728.347223048293 100140.15675536905 32307.18878395806
      vertex 7726.34712958821 99142.156610410559 32307.18878395806
    endloop
  endfacet
  facet normal 0.57773509506171328 0.57773523308054431 -0.57657970861920038
    outer loop
      vertex 4728.3469846297139 101142.15684882914 31307.18878395806
      vertex 4728.3469846297139 102140.15675536905 32307.18878395806
      vertex 5726.34712958821 101142.15684882914 32307.18878395806
    endloop
  endfacet
  facet normal -0.57734795957116725 -0.57850502368566614 0.57619551469050567
    outer loop
      vertex 4728.3469846297139 101142.15684882914 33305.188928916556
      vertex 4728.3469846297139 102140.15675536905 34307.189022376639
      vertex 3728.3469846297139 102140.15675536905 33305.188928916556
    endloop
  endfacet
  facet normal -0.57734800573069911 0.57619556075789846 -0.5785049317349642
    outer loop
      vertex 4728.3469846297139 101142.15684882914 33305.188928916556
      vertex 4728.3469846297139 100140.15675536905 32307.18878395806
      vertex 3728.3469846297139 100140.15675536905 33305.188928916556
    endloop
  endfacet
  facet normal -0.57619556075789846 -0.57734800573069911 0.5785049317349642
    outer loop
      vertex 6728.347223048293 99142.156610410559 33305.188928916556
      vertex 5726.34712958821 99142.156610410559 32307.18878395806
      vertex 6728.347223048293 98142.156610410559 32307.18878395806
    endloop
  endfacet
  facet normal -0.57734800573069911 -0.57619556075789846 0.5785049317349642
    outer loop
      vertex 4728.3469846297139 101142.15684882914 33305.188928916556
      vertex 3728.3469846297139 101142.15684882914 32307.18878395806
      vertex 4728.3469846297139 100140.15675536905 32307.18878395806
    endloop
  endfacet
  facet normal -0.57657893893440226 0.57888984647733965 -0.57657893893440226
    outer loop
      vertex 6728.347223048293 104140.15675536905 34307.189022376639
      vertex 6728.347223048293 103142.15661041056 33305.188928916556
      vertex 5726.34712958821 103142.15661041056 34307.189022376639
    endloop
  endfacet
  facet normal 0.57657893893440226 0.57888984647733965 0.57657893893440226
    outer loop
      vertex 5726.34712958821 103142.15661041056 34307.189022376639
      vertex 6728.347223048293 103142.15661041056 33305.188928916556
      vertex 5726.34712958821 104140.15675536905 33305.188928916556
    endloop
  endfacet
  facet normal -0.57581064591947106 0.57811861228219863 0.57811847417177975
    outer loop
      vertex 5726.34712958821 101142.15684882914 36307.18878395806
      vertex 6728.347223048293 101142.15684882914 37305.188928916556
      vertex 6728.347223048293 102140.15675536905 36307.18878395806
    endloop
  endfacet
  facet normal -0.57581064591947106 0.57811847417177975 0.57811861228219863
    outer loop
      vertex 5726.34712958821 103142.15661041056 34307.189022376639
      vertex 6728.347223048293 103142.15661041056 35305.188928916556
      vertex 6728.347223048293 104140.15675536905 34307.189022376639
    endloop
  endfacet
  facet normal 0.57581064591947106 0.57811847417177975 -0.57811861228219863
    outer loop
      vertex 5726.34712958821 104140.15675536905 35305.188928916556
      vertex 6728.347223048293 103142.15661041056 35305.188928916556
      vertex 5726.34712958821 103142.15661041056 34307.189022376639
    endloop
  endfacet
  facet normal -0.57735022321399321 0.57735022321399321 -0.57735036114087979
    outer loop
      vertex 5726.34712958821 103142.15661041056 34307.189022376639
      vertex 4728.3469846297139 103142.15661041056 35305.188928916556
      vertex 5726.34712958821 104140.15675536905 35305.188928916556
    endloop
  endfacet
  facet normal -0.57735036114087979 0.57735022321399321 -0.57735022321399321
    outer loop
      vertex 7726.34712958821 103142.15661041056 32307.18878395806
      vertex 6728.347223048293 103142.15661041056 33305.188928916556
      vertex 7726.34712958821 104140.15675536905 33305.188928916556
    endloop
  endfacet
  facet normal 0.57735036114087979 0.57735022321399321 0.57735022321399321
    outer loop
      vertex 7726.34712958821 103142.15661041056 32307.18878395806
      vertex 6728.347223048293 104140.15675536905 32307.18878395806
      vertex 6728.347223048293 103142.15661041056 33305.188928916556
    endloop
  endfacet
  facet normal 0.57735022321399321 0.57735036114087979 0.57735022321399321
    outer loop
      vertex 9726.34712958821 101142.15684882914 32307.18878395806
      vertex 8728.3469846297139 102140.15675536905 32307.18878395806
      vertex 8728.3469846297139 101142.15684882914 33305.188928916556
    endloop
  endfacet
  facet normal 0.57735036114087979 0.57735022321399321 0.57735022321399321
    outer loop
      vertex 7726.34712958821 99142.156610410559 36307.18878395806
      vertex 6728.347223048293 100140.15675536905 36307.18878395806
      vertex 6728.347223048293 99142.156610410559 37305.188928916556
    endloop
  endfacet
  facet normal 0.57735022321399321 0.57735022321399321 0.57735036114087979
    outer loop
      vertex 9726.34712958821 99142.156610410559 34307.189022376639
      vertex 8728.3469846297139 100140.15675536905 34307.189022376639
      vertex 8728.3469846297139 99142.156610410559 35305.188928916556
    endloop
  endfacet
  facet normal 0.57735022321399321 0.57735036114087979 0.57735022321399321
    outer loop
      vertex 5726.34712958821 101142.15684882914 36307.18878395806
      vertex 4728.3469846297139 102140.15675536905 36307.18878395806
      vertex 4728.3469846297139 101142.15684882914 37305.188928916556
    endloop
  endfacet
  facet normal 0.57735022321399321 0.57735022321399321 0.57735036114087979
    outer loop
      vertex 5726.34712958821 103142.15661041056 34307.189022376639
      vertex 4728.3469846297139 104140.15675536905 34307.189022376639
      vertex 4728.3469846297139 103142.15661041056 35305.188928916556
    endloop
  endfacet
  facet normal -0.57811852033118893 0.57811852033118893 0.57581069189461354
    outer loop
      vertex 5726.34712958821 104140.15675536905 33305.188928916556
      vertex 4728.3469846297139 103142.15661041056 33305.188928916556
      vertex 5726.34712958821 103142.15661041056 34307.189022376639
    endloop
  endfacet
  facet normal 0.57811852033118893 0.57811852033118893 -0.57581069189461354
    outer loop
      vertex 8728.3469846297139 99142.156610410559 33305.188928916556
      vertex 8728.3469846297139 100140.15675536905 34307.189022376639
      vertex 9726.34712958821 99142.156610410559 34307.189022376639
    endloop
  endfacet
  facet normal 0.57811852033118893 0.57811852033118893 -0.57581069189461354
    outer loop
      vertex 4728.3469846297139 103142.15661041056 33305.188928916556
      vertex 4728.3469846297139 104140.15675536905 34307.189022376639
      vertex 5726.34712958821 103142.15661041056 34307.189022376639
    endloop
  endfacet
  facet normal -0.57657966264370175 0.57773518701290605 0.57773518701290605
    outer loop
      vertex 3728.3469846297139 101142.15684882914 34307.189022376639
      vertex 4728.3469846297139 101142.15684882914 35305.188928916556
      vertex 4728.3469846297139 102140.15675536905 34307.189022376639
    endloop
  endfacet
  facet normal -0.57657966264370175 -0.57773518701290605 -0.57773518701290605
    outer loop
      vertex 4728.3469846297139 102140.15675536905 34307.189022376639
      vertex 4728.3469846297139 101142.15684882914 35305.188928916556
      vertex 3728.3469846297139 102140.15675536905 35305.188928916556
    endloop
  endfacet
  facet normal -0.57734791396224394 0.57619560627414423 -0.57850497798533795
    outer loop
      vertex 3728.3469846297139 102140.15675536905 35305.188928916556
      vertex 4728.3469846297139 103142.15661041056 35305.188928916556
      vertex 4728.3469846297139 102140.15675536905 34307.189022376639
    endloop
  endfacet
  facet normal -0.57619560627414423 -0.57734791396224394 0.57850497798533795
    outer loop
      vertex 8728.3469846297139 99142.156610410559 35305.188928916556
      vertex 7726.34712958821 99142.156610410559 34307.189022376639
      vertex 8728.3469846297139 98142.156610410559 34307.189022376639
    endloop
  endfacet
  facet normal -0.57734791396224394 -0.57619560627414423 0.57850497798533795
    outer loop
      vertex 4728.3469846297139 103142.15661041056 35305.188928916556
      vertex 3728.3469846297139 103142.15661041056 34307.189022376639
      vertex 4728.3469846297139 102140.15675536905 34307.189022376639
    endloop
  endfacet
  facet normal -0.57811929019953023 0.57696530566497495 0.57696544294967378
    outer loop
      vertex 3728.3469846297139 100140.15675536905 35305.188928916556
      vertex 4728.3469846297139 100140.15675536905 36307.18878395806
      vertex 4728.3469846297139 101142.15684882914 35305.188928916556
    endloop
  endfacet
  facet normal -0.57811929019953023 0.57696544294967378 0.57696530566497495
    outer loop
      vertex 3728.3469846297139 102140.15675536905 33305.188928916556
      vertex 4728.3469846297139 102140.15675536905 34307.189022376639
      vertex 4728.3469846297139 103142.15661041056 33305.188928916556
    endloop
  endfacet
  facet normal -0.57811929019953023 -0.57696530566497495 -0.57696544294967378
    outer loop
      vertex 3728.3469846297139 101142.15684882914 36307.18878395806
      vertex 4728.3469846297139 101142.15684882914 35305.188928916556
      vertex 4728.3469846297139 100140.15675536905 36307.18878395806
    endloop
  endfacet
  facet normal -0.57696544294967378 -0.57696530566497495 -0.57811929019953023
    outer loop
      vertex 7726.34712958821 101142.15684882914 32307.18878395806
      vertex 8728.3469846297139 101142.15684882914 31307.18878395806
      vertex 8728.3469846297139 100140.15675536905 32307.18878395806
    endloop
  endfacet
  facet normal -0.57811929019953023 -0.57696544294967378 -0.57696530566497495
    outer loop
      vertex 3728.3469846297139 103142.15661041056 34307.189022376639
      vertex 4728.3469846297139 103142.15661041056 33305.188928916556
      vertex 4728.3469846297139 102140.15675536905 34307.189022376639
    endloop
  endfacet
  facet normal -0.57696530566497495 -0.57696544294967378 -0.57811929019953023
    outer loop
      vertex 5726.34712958821 103142.15661041056 32307.18878395806
      vertex 6728.347223048293 103142.15661041056 31307.18878395806
      vertex 6728.347223048293 102140.15675536905 32307.18878395806
    endloop
  endfacet
  facet normal -0.57696544294967378 -0.57811929019953023 -0.57696530566497495
    outer loop
      vertex 7726.34712958821 99142.156610410559 34307.189022376639
      vertex 8728.3469846297139 99142.156610410559 33305.188928916556
      vertex 8728.3469846297139 98142.156610410559 34307.189022376639
    endloop
  endfacet
  facet normal -0.57696530566497495 -0.57811929019953023 -0.57696544294967378
    outer loop
      vertex 5726.34712958821 99142.156610410559 36307.18878395806
      vertex 6728.347223048293 99142.156610410559 35305.188928916556
      vertex 6728.347223048293 98142.156610410559 36307.18878395806
    endloop
  endfacet
  facet normal -0.57657893893440226 -0.57657893893440226 0.57888984647733965
    outer loop
      vertex 5726.34712958821 101142.15684882914 36307.18878395806
      vertex 6728.347223048293 100140.15675536905 36307.18878395806
      vertex 6728.347223048293 101142.15684882914 37305.188928916556
    endloop
  endfacet
  facet normal 0.57657893893440226 0.57657893893440226 0.57888984647733965
    outer loop
      vertex 5726.34712958821 100140.15675536905 37305.188928916556
      vertex 6728.347223048293 100140.15675536905 36307.18878395806
      vertex 5726.34712958821 101142.15684882914 36307.18878395806
    endloop
  endfacet
  facet normal 0.57581064591947106 -0.57811861228219863 0.57811847417177975
    outer loop
      vertex 5726.34712958821 101142.15684882914 36307.18878395806
      vertex 6728.347223048293 102140.15675536905 36307.18878395806
      vertex 5726.34712958821 102140.15675536905 37305.188928916556
    endloop
  endfacet
  facet normal -0.57811852033118893 0.57581069189461354 0.57811852033118893
    outer loop
      vertex 5726.34712958821 101142.15684882914 36307.18878395806
      vertex 4728.3469846297139 100140.15675536905 36307.18878395806
      vertex 5726.34712958821 100140.15675536905 37305.188928916556
    endloop
  endfacet
  facet normal 0.57811852033118893 -0.57581069189461354 0.57811852033118893
    outer loop
      vertex 8728.3469846297139 101142.15684882914 33305.188928916556
      vertex 8728.3469846297139 100140.15675536905 32307.18878395806
      vertex 9726.34712958821 101142.15684882914 32307.18878395806
    endloop
  endfacet
  facet normal 0.57811852033118893 -0.57581069189461354 0.57811852033118893
    outer loop
      vertex 4728.3469846297139 101142.15684882914 37305.188928916556
      vertex 4728.3469846297139 100140.15675536905 36307.18878395806
      vertex 5726.34712958821 101142.15684882914 36307.18878395806
    endloop
  endfacet
  facet normal -0.57735036114087979 -0.57735022321399321 0.57735022321399321
    outer loop
      vertex 7726.34712958821 100140.15675536905 37305.188928916556
      vertex 6728.347223048293 100140.15675536905 36307.18878395806
      vertex 7726.34712958821 99142.156610410559 36307.18878395806
    endloop
  endfacet
  facet normal -0.57735022321399321 -0.57735036114087979 0.57735022321399321
    outer loop
      vertex 5726.34712958821 102140.15675536905 37305.188928916556
      vertex 4728.3469846297139 102140.15675536905 36307.18878395806
      vertex 5726.34712958821 101142.15684882914 36307.18878395806
    endloop
  endfacet
  facet normal -0.57734791396224394 -0.57850497798533795 0.57619560627414423
    outer loop
      vertex 4728.3469846297139 101142.15684882914 35305.188928916556
      vertex 4728.3469846297139 102140.15675536905 36307.18878395806
      vertex 3728.3469846297139 102140.15675536905 35305.188928916556
    endloop
  endfacet
  facet normal -0.57619560627414423 0.57850497798533795 -0.57734791396224394
    outer loop
      vertex 8728.3469846297139 102140.15675536905 32307.18878395806
      vertex 8728.3469846297139 101142.15684882914 31307.18878395806
      vertex 7726.34712958821 101142.15684882914 32307.18878395806
    endloop
  endfacet
  facet normal -0.57734791396224394 0.57850497798533795 -0.57619560627414423
    outer loop
      vertex 4728.3469846297139 102140.15675536905 36307.18878395806
      vertex 4728.3469846297139 101142.15684882914 35305.188928916556
      vertex 3728.3469846297139 101142.15684882914 36307.18878395806
    endloop
  endfacet
  facet normal 0.57850502368566614 -0.57734795957116725 -0.57619551469050567
    outer loop
      vertex 7726.34712958821 99142.156610410559 34307.189022376639
      vertex 6728.347223048293 98142.156610410559 34307.189022376639
      vertex 6728.347223048293 99142.156610410559 33305.188928916556
    endloop
  endfacet
  facet normal 0.57850502368566614 -0.57619551469050567 -0.57734795957116725
    outer loop
      vertex 7726.34712958821 101142.15684882914 32307.18878395806
      vertex 6728.347223048293 100140.15675536905 32307.18878395806
      vertex 6728.347223048293 101142.15684882914 31307.18878395806
    endloop
  endfacet
  facet normal -0.57850502368566614 0.57619551469050567 -0.57734795957116725
    outer loop
      vertex 6728.347223048293 100140.15675536905 32307.18878395806
      vertex 7726.34712958821 101142.15684882914 32307.18878395806
      vertex 7726.34712958821 100140.15675536905 31307.18878395806
    endloop
  endfacet
  facet normal 0.57619556075789846 -0.5785049317349642 -0.57734800573069911
    outer loop
      vertex 6728.347223048293 100140.15675536905 32307.18878395806
      vertex 5726.34712958821 99142.156610410559 32307.18878395806
      vertex 5726.34712958821 100140.15675536905 31307.18878395806
    endloop
  endfacet
  facet normal -0.57888993842761194 -0.57657889277499386 0.57657889277499386
    outer loop
      vertex 7726.34712958821 98140.156516950476 33305.188928916556
      vertex 7726.34712958821 99142.156610410559 34307.189022376639
      vertex 6728.347223048293 99142.156610410559 33305.188928916556
    endloop
  endfacet
  facet normal 0.57619556075789846 -0.57734800573069911 -0.5785049317349642
    outer loop
      vertex 5726.34712958821 98142.156610410559 33305.188928916556
      vertex 5726.34712958821 99142.156610410559 32307.18878395806
      vertex 6728.347223048293 99142.156610410559 33305.188928916556
    endloop
  endfacet
  facet normal 0.57811847417177975 -0.57581064591947106 0.57811861228219863
    outer loop
      vertex 8728.3469846297139 101142.15684882914 35305.188928916556
      vertex 8728.3469846297139 100140.15675536905 34307.189022376639
      vertex 9726.34712958821 101142.15684882914 34307.189022376639
    endloop
  endfacet
  facet normal 0.57811861228219863 -0.57581064591947106 0.57811847417177975
    outer loop
      vertex 6728.347223048293 101142.15684882914 37305.188928916556
      vertex 6728.347223048293 100140.15675536905 36307.18878395806
      vertex 7726.34712958821 101142.15684882914 36307.18878395806
    endloop
  endfacet
  facet normal -0.57811861228219863 0.57581064591947106 0.57811847417177975
    outer loop
      vertex 7726.34712958821 100140.15675536905 37305.188928916556
      vertex 7726.34712958821 101142.15684882914 36307.18878395806
      vertex 6728.347223048293 100140.15675536905 36307.18878395806
    endloop
  endfacet
  facet normal 0.57581069189461354 -0.57811852033118893 0.57811852033118893
    outer loop
      vertex 5726.34712958821 100140.15675536905 37305.188928916556
      vertex 5726.34712958821 99142.156610410559 36307.18878395806
      vertex 6728.347223048293 100140.15675536905 36307.18878395806
    endloop
  endfacet
  facet normal -0.57581069189461354 0.57811852033118893 0.57811852033118893
    outer loop
      vertex 5726.34712958821 103142.15661041056 32307.18878395806
      vertex 6728.347223048293 103142.15661041056 33305.188928916556
      vertex 6728.347223048293 104140.15675536905 32307.18878395806
    endloop
  endfacet
  facet normal -0.57581069189461354 0.57811852033118893 0.57811852033118893
    outer loop
      vertex 5726.34712958821 99142.156610410559 36307.18878395806
      vertex 6728.347223048293 99142.156610410559 37305.188928916556
      vertex 6728.347223048293 100140.15675536905 36307.18878395806
    endloop
  endfacet
  facet normal 0.57773518701290605 -0.57657966264370175 0.57773518701290605
    outer loop
      vertex 6728.347223048293 98142.156610410559 34307.189022376639
      vertex 7726.34712958821 99142.156610410559 34307.189022376639
      vertex 6728.347223048293 99142.156610410559 35305.188928916556
    endloop
  endfacet
  facet normal -0.57811856612278933 -0.57581059994433936 -0.57811856612278933
    outer loop
      vertex 6728.347223048293 99142.156610410559 35305.188928916556
      vertex 7726.34712958821 99142.156610410559 34307.189022376639
      vertex 7726.34712958821 98140.156516950476 35305.188928916556
    endloop
  endfacet
  facet normal -0.57888989263600144 -0.57657884716619268 0.57657898435893662
    outer loop
      vertex 7726.34712958821 98140.156516950476 35305.188928916556
      vertex 7726.34712958821 99142.156610410559 36307.18878395806
      vertex 6728.347223048293 99142.156610410559 35305.188928916556
    endloop
  endfacet
  facet normal 0.57850497798533795 -0.57619560627414423 -0.57734791396224394
    outer loop
      vertex 7726.34712958821 103142.15661041056 32307.18878395806
      vertex 6728.347223048293 102140.15675536905 32307.18878395806
      vertex 6728.347223048293 103142.15661041056 31307.18878395806
    endloop
  endfacet
  facet normal 0.57850497798533795 -0.57734791396224394 -0.57619560627414423
    outer loop
      vertex 7726.34712958821 99142.156610410559 36307.18878395806
      vertex 6728.347223048293 98142.156610410559 36307.18878395806
      vertex 6728.347223048293 99142.156610410559 35305.188928916556
    endloop
  endfacet
  facet normal 0.57696530566497495 -0.57811929019953023 0.57696544294967378
    outer loop
      vertex 5726.34712958821 99142.156610410559 36307.18878395806
      vertex 5726.34712958821 98142.156610410559 35305.188928916556
      vertex 6728.347223048293 99142.156610410559 35305.188928916556
    endloop
  endfacet
  facet normal 0.57735036077381363 -0.5773502233975264 0.5773502233975264
    outer loop
      vertex 7726.34712958821 99142.156610410559 34307.189022376639
      vertex 7726.34712958821 98140.156516950476 33305.188928916556
      vertex 8728.3469846297139 99142.156610410559 33305.188928916556
    endloop
  endfacet
  facet normal 0.57888984647733965 -0.57657893893440226 -0.57657893893440226
    outer loop
      vertex 8728.3469846297139 100140.15675536905 34307.189022376639
      vertex 8728.3469846297139 101142.15684882914 33305.188928916556
      vertex 9726.34712958821 101142.15684882914 34307.189022376639
    endloop
  endfacet
  facet normal 0.57888984647733965 0.57657893893440226 0.57657893893440226
    outer loop
      vertex 9726.34712958821 100140.15675536905 33305.188928916556
      vertex 8728.3469846297139 101142.15684882914 33305.188928916556
      vertex 8728.3469846297139 100140.15675536905 34307.189022376639
    endloop
  endfacet
  facet normal 0.57811847417177975 0.57581064591947106 -0.57811861228219863
    outer loop
      vertex 8728.3469846297139 100140.15675536905 34307.189022376639
      vertex 8728.3469846297139 101142.15684882914 35305.188928916556
      vertex 9726.34712958821 100140.15675536905 35305.188928916556
    endloop
  endfacet
  facet normal 0.57735022321399321 -0.57735022321399321 -0.57735036114087979
    outer loop
      vertex 9726.34712958821 100140.15675536905 35305.188928916556
      vertex 8728.3469846297139 99142.156610410559 35305.188928916556
      vertex 8728.3469846297139 100140.15675536905 34307.189022376639
    endloop
  endfacet
  facet normal 0.57735022321399321 -0.57735036114087979 -0.57735022321399321
    outer loop
      vertex 9726.34712958821 102140.15675536905 33305.188928916556
      vertex 8728.3469846297139 101142.15684882914 33305.188928916556
      vertex 8728.3469846297139 102140.15675536905 32307.18878395806
    endloop
  endfacet
  facet normal 0.57811852033118893 -0.57811852033118893 0.57581069189461354
    outer loop
      vertex 8728.3469846297139 100140.15675536905 34307.189022376639
      vertex 8728.3469846297139 99142.156610410559 33305.188928916556
      vertex 9726.34712958821 100140.15675536905 33305.188928916556
    endloop
  endfacet
  facet normal 0.57657898435893662 -0.57657884716619268 -0.57888989263600144
    outer loop
      vertex 7726.34712958821 99142.156610410559 34307.189022376639
      vertex 8728.3469846297139 99142.156610410559 35305.188928916556
      vertex 7726.34712958821 98140.156516950476 35305.188928916556
    endloop
  endfacet
  facet normal 0.57811847417177975 0.57811861228219863 -0.57581064591947106
    outer loop
      vertex 8728.3469846297139 101142.15684882914 33305.188928916556
      vertex 8728.3469846297139 102140.15675536905 34307.189022376639
      vertex 9726.34712958821 101142.15684882914 34307.189022376639
    endloop
  endfacet
  facet normal 0.57811861228219863 0.57811847417177975 -0.57581064591947106
    outer loop
      vertex 6728.347223048293 103142.15661041056 33305.188928916556
      vertex 6728.347223048293 104140.15675536905 34307.189022376639
      vertex 7726.34712958821 103142.15661041056 34307.189022376639
    endloop
  endfacet
  facet normal -0.57811861228219863 0.57811847417177975 0.57581064591947106
    outer loop
      vertex 6728.347223048293 103142.15661041056 33305.188928916556
      vertex 7726.34712958821 103142.15661041056 34307.189022376639
      vertex 7726.34712958821 104140.15675536905 33305.188928916556
    endloop
  endfacet
  facet normal 0.57581069189461354 0.57811852033118893 -0.57811852033118893
    outer loop
      vertex 6728.347223048293 103142.15661041056 33305.188928916556
      vertex 5726.34712958821 103142.15661041056 32307.18878395806
      vertex 5726.34712958821 104140.15675536905 33305.188928916556
    endloop
  endfacet
  facet normal 0.57773518701290605 0.57773518701290605 -0.57657966264370175
    outer loop
      vertex 6728.347223048293 102140.15675536905 32307.18878395806
      vertex 7726.34712958821 101142.15684882914 32307.18878395806
      vertex 6728.347223048293 101142.15684882914 31307.18878395806
    endloop
  endfacet
  facet normal -0.57773518701290605 -0.57773518701290605 -0.57657966264370175
    outer loop
      vertex 7726.34712958821 102140.15675536905 31307.18878395806
      vertex 7726.34712958821 101142.15684882914 32307.18878395806
      vertex 6728.347223048293 102140.15675536905 32307.18878395806
    endloop
  endfacet
  facet normal -0.57850497798533795 0.57619560627414423 -0.57734791396224394
    outer loop
      vertex 6728.347223048293 102140.15675536905 32307.18878395806
      vertex 7726.34712958821 103142.15661041056 32307.18878395806
      vertex 7726.34712958821 102140.15675536905 31307.18878395806
    endloop
  endfacet
  facet normal 0.57696544294967378 0.57696530566497495 -0.57811929019953023
    outer loop
      vertex 7726.34712958821 100140.15675536905 31307.18878395806
      vertex 7726.34712958821 101142.15684882914 32307.18878395806
      vertex 8728.3469846297139 100140.15675536905 32307.18878395806
    endloop
  endfacet
  facet normal 0.57696530566497495 0.57696544294967378 -0.57811929019953023
    outer loop
      vertex 5726.34712958821 102140.15675536905 31307.18878395806
      vertex 5726.34712958821 103142.15661041056 32307.18878395806
      vertex 6728.347223048293 102140.15675536905 32307.18878395806
    endloop
  endfacet
  facet normal 0.57811847417177975 -0.57811861228219863 0.57581064591947106
    outer loop
      vertex 9726.34712958821 102140.15675536905 33305.188928916556
      vertex 8728.3469846297139 102140.15675536905 34307.189022376639
      vertex 8728.3469846297139 101142.15684882914 33305.188928916556
    endloop
  endfacet
  facet normal 0.57811852033118893 0.57581069189461354 -0.57811852033118893
    outer loop
      vertex 9726.34712958821 100140.15675536905 33305.188928916556
      vertex 8728.3469846297139 100140.15675536905 32307.18878395806
      vertex 8728.3469846297139 101142.15684882914 33305.188928916556
    endloop
  endfacet
  facet normal 0.57619560627414423 -0.57850497798533795 -0.57734791396224394
    outer loop
      vertex 7726.34712958821 102140.15675536905 31307.18878395806
      vertex 8728.3469846297139 102140.15675536905 32307.18878395806
      vertex 7726.34712958821 101142.15684882914 32307.18878395806
    endloop
  endfacet
  facet normal 0.57735031516524726 0.57735031516524726 0.57735017723837168
    outer loop
      vertex 7726.34712958821 101142.15684882914 36307.18878395806
      vertex 6728.347223048293 102140.15675536905 36307.18878395806
      vertex 6728.347223048293 101142.15684882914 37305.188928916556
    endloop
  endfacet
  facet normal 0.57735017723837168 0.57735031516524726 0.57735031516524726
    outer loop
      vertex 9726.34712958821 101142.15684882914 34307.189022376639
      vertex 8728.3469846297139 102140.15675536905 34307.189022376639
      vertex 8728.3469846297139 101142.15684882914 35305.188928916556
    endloop
  endfacet
  facet normal 0.57735031516524726 0.57735017723837168 0.57735031516524726
    outer loop
      vertex 7726.34712958821 103142.15661041056 34307.189022376639
      vertex 6728.347223048293 104140.15675536905 34307.189022376639
      vertex 6728.347223048293 103142.15661041056 35305.188928916556
    endloop
  endfacet
  facet normal 0.57657903051834491 0.57657889332559009 0.57888980068572904
    outer loop
      vertex 7726.34712958821 100140.15675536905 37305.188928916556
      vertex 8728.3469846297139 100140.15675536905 36307.18878395806
      vertex 7726.34712958821 101142.15684882914 36307.18878395806
    endloop
  endfacet
  facet normal 0.5765788933255902 0.57657903051834503 0.57888980068572915
    outer loop
      vertex 5726.34712958821 102140.15675536905 37305.188928916556
      vertex 6728.347223048293 102140.15675536905 36307.18878395806
      vertex 5726.34712958821 103142.15661041056 36307.18878395806
    endloop
  endfacet
  facet normal -0.5765788933255902 -0.57657903051834503 0.57888980068572915
    outer loop
      vertex 6728.347223048293 103142.15661041056 37305.188928916556
      vertex 5726.34712958821 103142.15661041056 36307.18878395806
      vertex 6728.347223048293 102140.15675536905 36307.18878395806
    endloop
  endfacet
  facet normal -0.57657903051834491 -0.57657889332559009 0.57888980068572904
    outer loop
      vertex 8728.3469846297139 101142.15684882914 37305.188928916556
      vertex 7726.34712958821 101142.15684882914 36307.18878395806
      vertex 8728.3469846297139 100140.15675536905 36307.18878395806
    endloop
  endfacet
  facet normal -0.57811856667338557 0.57581073750268275 0.57811842856297757
    outer loop
      vertex 7726.34712958821 102140.15675536905 37305.188928916556
      vertex 7726.34712958821 103142.15661041056 36307.18878395806
      vertex 6728.347223048293 102140.15675536905 36307.18878395806
    endloop
  endfacet
  facet normal 0.57811842856297757 -0.57581073750268275 0.57811856667338557
    outer loop
      vertex 8728.3469846297139 103142.15661041056 35305.188928916556
      vertex 8728.3469846297139 102140.15675536905 34307.189022376639
      vertex 9726.34712958821 103142.15661041056 34307.189022376639
    endloop
  endfacet
  facet normal 0.57811856667338557 -0.57581073750268275 0.57811842856297757
    outer loop
      vertex 6728.347223048293 103142.15661041056 37305.188928916556
      vertex 6728.347223048293 102140.15675536905 36307.18878395806
      vertex 7726.34712958821 103142.15661041056 36307.18878395806
    endloop
  endfacet
  facet normal 0.57657903051834503 0.57888980068572915 0.5765788933255902
    outer loop
      vertex 7726.34712958821 104140.15675536905 33305.188928916556
      vertex 7726.34712958821 103142.15661041056 34307.189022376639
      vertex 8728.3469846297139 103142.15661041056 33305.188928916556
    endloop
  endfacet
  facet normal 0.57657889332559009 0.57888980068572904 0.57657903051834491
    outer loop
      vertex 5726.34712958821 104140.15675536905 35305.188928916556
      vertex 5726.34712958821 103142.15661041056 36307.18878395806
      vertex 6728.347223048293 103142.15661041056 35305.188928916556
    endloop
  endfacet
  facet normal -0.57657903051834503 0.57888980068572915 -0.5765788933255902
    outer loop
      vertex 8728.3469846297139 104140.15675536905 34307.189022376639
      vertex 8728.3469846297139 103142.15661041056 33305.188928916556
      vertex 7726.34712958821 103142.15661041056 34307.189022376639
    endloop
  endfacet
  facet normal -0.57657889332559009 0.57888980068572904 -0.57657903051834491
    outer loop
      vertex 6728.347223048293 104140.15675536905 36307.18878395806
      vertex 6728.347223048293 103142.15661041056 35305.188928916556
      vertex 5726.34712958821 103142.15661041056 36307.18878395806
    endloop
  endfacet
  facet normal -0.57811856667338557 0.57811842856297757 0.57581073750268275
    outer loop
      vertex 6728.347223048293 103142.15661041056 35305.188928916556
      vertex 7726.34712958821 103142.15661041056 36307.18878395806
      vertex 7726.34712958821 104140.15675536905 35305.188928916556
    endloop
  endfacet
  facet normal 0.57811842856297757 0.57811856667338557 -0.57581073750268275
    outer loop
      vertex 8728.3469846297139 101142.15684882914 35305.188928916556
      vertex 8728.3469846297139 102140.15675536905 36307.18878395806
      vertex 9726.34712958821 101142.15684882914 36307.18878395806
    endloop
  endfacet
  facet normal 0.57811856667338557 0.57811842856297757 -0.57581073750268275
    outer loop
      vertex 6728.347223048293 103142.15661041056 35305.188928916556
      vertex 6728.347223048293 104140.15675536905 36307.18878395806
      vertex 7726.34712958821 103142.15661041056 36307.18878395806
    endloop
  endfacet
  facet normal 0.57888980068572915 0.5765788933255902 0.57657903051834503
    outer loop
      vertex 9726.34712958821 100140.15675536905 35305.188928916556
      vertex 8728.3469846297139 101142.15684882914 35305.188928916556
      vertex 8728.3469846297139 100140.15675536905 36307.18878395806
    endloop
  endfacet
  facet normal 0.57888980068572904 0.57657903051834491 0.57657889332559009
    outer loop
      vertex 9726.34712958821 102140.15675536905 33305.188928916556
      vertex 8728.3469846297139 103142.15661041056 33305.188928916556
      vertex 8728.3469846297139 102140.15675536905 34307.189022376639
    endloop
  endfacet
  facet normal 0.57888980068572915 -0.5765788933255902 -0.57657903051834503
    outer loop
      vertex 9726.34712958821 101142.15684882914 36307.18878395806
      vertex 8728.3469846297139 100140.15675536905 36307.18878395806
      vertex 8728.3469846297139 101142.15684882914 35305.188928916556
    endloop
  endfacet
  facet normal 0.57888980068572904 -0.57657903051834491 -0.57657889332559009
    outer loop
      vertex 9726.34712958821 103142.15661041056 34307.189022376639
      vertex 8728.3469846297139 102140.15675536905 34307.189022376639
      vertex 8728.3469846297139 103142.15661041056 33305.188928916556
    endloop
  endfacet
  facet normal 0.57811842856297757 0.57581073750268275 -0.57811856667338557
    outer loop
      vertex 8728.3469846297139 102140.15675536905 34307.189022376639
      vertex 8728.3469846297139 103142.15661041056 35305.188928916556
      vertex 9726.34712958821 102140.15675536905 35305.188928916556
    endloop
  endfacet
  facet normal 0.57581073750268275 0.57811842856297757 -0.57811856667338557
    outer loop
      vertex 7726.34712958821 104140.15675536905 35305.188928916556
      vertex 8728.3469846297139 103142.15661041056 35305.188928916556
      vertex 7726.34712958821 103142.15661041056 34307.189022376639
    endloop
  endfacet
  facet normal -0.57581073750268275 0.57811856667338557 0.57811842856297757
    outer loop
      vertex 7726.34712958821 101142.15684882914 36307.18878395806
      vertex 8728.3469846297139 101142.15684882914 37305.188928916556
      vertex 8728.3469846297139 102140.15675536905 36307.18878395806
    endloop
  endfacet
  facet normal -0.57581073750268275 0.57811842856297757 0.57811856667338557
    outer loop
      vertex 7726.34712958821 103142.15661041056 34307.189022376639
      vertex 8728.3469846297139 103142.15661041056 35305.188928916556
      vertex 8728.3469846297139 104140.15675536905 34307.189022376639
    endloop
  endfacet
  facet normal 0.57811842856297757 -0.57811856667338557 0.57581073750268275
    outer loop
      vertex 9726.34712958821 102140.15675536905 35305.188928916556
      vertex 8728.3469846297139 102140.15675536905 36307.18878395806
      vertex 8728.3469846297139 101142.15684882914 35305.188928916556
    endloop
  endfacet
  facet normal 0.57581073750268275 -0.57811856667338557 0.57811842856297757
    outer loop
      vertex 7726.34712958821 101142.15684882914 36307.18878395806
      vertex 8728.3469846297139 102140.15675536905 36307.18878395806
      vertex 7726.34712958821 102140.15675536905 37305.188928916556
    endloop
  endfacet
  facet normal -0.57657975459471011 -0.57773514112935165 -0.57773514112935165
    outer loop
      vertex 3728.3469846297139 100140.15675536905 33305.188928916556
      vertex 4728.3469846297139 100140.15675536905 32307.18878395806
      vertex 4728.3469846297139 99142.156610410559 33305.188928916556
    endloop
  endfacet
  facet normal -0.57773514112935165 -0.57657975459471011 -0.57773514112935165
    outer loop
      vertex 4728.3469846297139 99142.156610410559 33305.188928916556
      vertex 5726.34712958821 99142.156610410559 32307.18878395806
      vertex 5726.34712958821 98142.156610410559 33305.188928916556
    endloop
  endfacet
  facet normal -0.57658120238728938 -0.57773441867939102 -0.57773441867939102
    outer loop
      vertex 5726.34712958821 99142.156610410559 32307.18878395806
      vertex 6728.347223048293 99142.156610410559 31307.18878395806
      vertex 6728.347223048293 98142.156610410559 32307.18878395806
    endloop
  endfacet
  facet normal -0.57773441867939102 -0.57658120238728938 -0.57773441867939102
    outer loop
      vertex 3728.3469846297139 101142.15684882914 32307.18878395806
      vertex 4728.3469846297139 101142.15684882914 31307.18878395806
      vertex 4728.3469846297139 100140.15675536905 32307.18878395806
    endloop
  endfacet
  facet normal -0.57696535136554705 -0.57811933599150778 -0.57696535136554705
    outer loop
      vertex 3726.3468911696309 99142.156610410559 34307.189022376639
      vertex 4728.3469846297139 99142.156610410559 33305.188928916556
      vertex 4728.3469846297139 98142.156610410559 34307.189022376639
    endloop
  endfacet
  facet normal -0.57773514112935165 -0.57773514112935165 -0.57657975459471011
    outer loop
      vertex 5726.34712958821 100140.15675536905 31307.18878395806
      vertex 5726.34712958821 99142.156610410559 32307.18878395806
      vertex 4728.3469846297139 100140.15675536905 32307.18878395806
    endloop
  endfacet
  facet normal 0.5773503149817143 -0.57735017760543794 0.5773503149817143
    outer loop
      vertex 7726.34712958821 98140.156516950476 35305.188928916556
      vertex 8728.3469846297139 99142.156610410559 35305.188928916556
      vertex 7726.34712958821 99142.156610410559 36307.18878395806
    endloop
  endfacet
  facet normal 0.57581078347782544 -0.57811847472237599 0.57811847472237599
    outer loop
      vertex 7726.34712958821 99142.156610410559 36307.18878395806
      vertex 8728.3469846297139 100140.15675536905 36307.18878395806
      vertex 7726.34712958821 100140.15675536905 37305.188928916556
    endloop
  endfacet
  facet normal 0.57773509506171328 -0.57657970861920038 0.57773523308054431
    outer loop
      vertex 8728.3469846297139 99142.156610410559 35305.188928916556
      vertex 8728.3469846297139 98142.156610410559 34307.189022376639
      vertex 9726.34712958821 99142.156610410559 34307.189022376639
    endloop
  endfacet
  facet normal 0.57773523308054431 -0.57657970861920038 0.57773509506171328
    outer loop
      vertex 6728.347223048293 99142.156610410559 37305.188928916556
      vertex 6728.347223048293 98142.156610410559 36307.18878395806
      vertex 7726.34712958821 99142.156610410559 36307.18878395806
    endloop
  endfacet
  facet normal 0.57811847472237599 -0.57811847472237599 0.57581078347782544
    outer loop
      vertex 9726.34712958821 100140.15675536905 35305.188928916556
      vertex 8728.3469846297139 100140.15675536905 36307.18878395806
      vertex 8728.3469846297139 99142.156610410559 35305.188928916556
    endloop
  endfacet
  facet normal 0.57811852033118893 -0.57581069189461354 0.57811852033118893
    outer loop
      vertex 9726.34712958821 101142.15684882914 36307.18878395806
      vertex 8728.3469846297139 101142.15684882914 37305.188928916556
      vertex 8728.3469846297139 100140.15675536905 36307.18878395806
    endloop
  endfacet
  facet normal -0.57734796012176504 -0.57850488603463601 0.57619565234153713
    outer loop
      vertex 4728.3469846297139 99142.156610410559 35305.188928916556
      vertex 4728.3469846297139 100140.15675536905 36307.18878395806
      vertex 3728.3469846297139 100140.15675536905 35305.188928916556
    endloop
  endfacet
  facet normal -0.57850488603463601 -0.57734796012176504 0.57619565234153713
    outer loop
      vertex 5726.34712958821 98142.156610410559 35305.188928916556
      vertex 5726.34712958821 99142.156610410559 36307.18878395806
      vertex 4728.3469846297139 99142.156610410559 35305.188928916556
    endloop
  endfacet
  facet normal -0.57619551469050567 -0.57734795957116725 0.57850502368566614
    outer loop
      vertex 4728.3469846297139 99142.156610410559 35305.188928916556
      vertex 3726.3468911696309 99142.156610410559 34307.189022376639
      vertex 4728.3469846297139 98142.156610410559 34307.189022376639
    endloop
  endfacet
  facet normal -0.57735026918962584 -0.57735026918962584 0.57735026918962584
    outer loop
      vertex 4728.3469846297139 100140.15675536905 36307.18878395806
      vertex 5726.34712958821 99142.156610410559 36307.18878395806
      vertex 5726.34712958821 100140.15675536905 37305.188928916556
    endloop
  endfacet
  facet normal -0.57734800573069911 -0.57619556075789846 0.5785049317349642
    outer loop
      vertex 4728.3469846297139 101142.15684882914 37305.188928916556
      vertex 3728.3469846297139 101142.15684882914 36307.18878395806
      vertex 4728.3469846297139 100140.15675536905 36307.18878395806
    endloop
  endfacet
  facet normal -0.57619556075789846 -0.57734800573069911 0.5785049317349642
    outer loop
      vertex 6728.347223048293 99142.156610410559 37305.188928916556
      vertex 5726.34712958821 99142.156610410559 36307.18878395806
      vertex 6728.347223048293 98142.156610410559 36307.18878395806
    endloop
  endfacet
  facet normal 0.57657903051834491 -0.57657889332559009 -0.57888980068572904
    outer loop
      vertex 7726.34712958821 99142.156610410559 32307.18878395806
      vertex 8728.3469846297139 99142.156610410559 33305.188928916556
      vertex 7726.34712958821 98140.156516950476 33305.188928916556
    endloop
  endfacet
  facet normal 0.57619565234153713 -0.57850488603463601 -0.57734796012176504
    outer loop
      vertex 7726.34712958821 100140.15675536905 31307.18878395806
      vertex 8728.3469846297139 100140.15675536905 32307.18878395806
      vertex 7726.34712958821 99142.156610410559 32307.18878395806
    endloop
  endfacet
  facet normal 0.57812087573509174 -0.57696457995239658 -0.57696457995239658
    outer loop
      vertex 7726.34712958821 99142.156610410559 32307.18878395806
      vertex 6728.347223048293 98142.156610410559 32307.18878395806
      vertex 6728.347223048293 99142.156610410559 31307.18878395806
    endloop
  endfacet
  facet normal 0.57735026918962584 -0.57735026918962584 -0.57735026918962584
    outer loop
      vertex 8728.3469846297139 99142.156610410559 33305.188928916556
      vertex 8728.3469846297139 100140.15675536905 32307.18878395806
      vertex 9726.34712958821 100140.15675536905 33305.188928916556
    endloop
  endfacet
  facet normal 0.5785049317349642 -0.57734800573069911 -0.57619556075789846
    outer loop
      vertex 9726.34712958821 99142.156610410559 34307.189022376639
      vertex 8728.3469846297139 98142.156610410559 34307.189022376639
      vertex 8728.3469846297139 99142.156610410559 33305.188928916556
    endloop
  endfacet
  facet normal 0.5785049317349642 -0.57619556075789846 -0.57734800573069911
    outer loop
      vertex 9726.34712958821 101142.15684882914 32307.18878395806
      vertex 8728.3469846297139 100140.15675536905 32307.18878395806
      vertex 8728.3469846297139 101142.15684882914 31307.18878395806
    endloop
  endfacet
  facet normal -0.57811924440756368 0.57696539724910179 0.57696539724910179
    outer loop
      vertex 3728.3469846297139 102140.15675536905 35305.188928916556
      vertex 4728.3469846297139 102140.15675536905 36307.18878395806
      vertex 4728.3469846297139 103142.15661041056 35305.188928916556
    endloop
  endfacet
  facet normal -0.57811847472237599 0.57811847472237599 0.57581078347782544
    outer loop
      vertex 4728.3469846297139 103142.15661041056 35305.188928916556
      vertex 5726.34712958821 103142.15661041056 36307.18878395806
      vertex 5726.34712958821 104140.15675536905 35305.188928916556
    endloop
  endfacet
  facet normal -0.57657970861920038 0.57773523308054431 0.57773509506171328
    outer loop
      vertex 3728.3469846297139 101142.15684882914 36307.18878395806
      vertex 4728.3469846297139 101142.15684882914 37305.188928916556
      vertex 4728.3469846297139 102140.15675536905 36307.18878395806
    endloop
  endfacet
  facet normal -0.57657970861920038 0.57773509506171328 0.57773523308054431
    outer loop
      vertex 3728.3469846297139 103142.15661041056 34307.189022376639
      vertex 4728.3469846297139 103142.15661041056 35305.188928916556
      vertex 4728.3469846297139 104140.15675536905 34307.189022376639
    endloop
  endfacet
  facet normal -0.57811847472237599 0.57581078347782544 0.57811847472237599
    outer loop
      vertex 5726.34712958821 102140.15675536905 37305.188928916556
      vertex 5726.34712958821 103142.15661041056 36307.18878395806
      vertex 4728.3469846297139 102140.15675536905 36307.18878395806
    endloop
  endfacet
  facet normal -0.57581069189461354 0.57811852033118893 0.57811852033118893
    outer loop
      vertex 6728.347223048293 103142.15661041056 37305.188928916556
      vertex 6728.347223048293 104140.15675536905 36307.18878395806
      vertex 5726.34712958821 103142.15661041056 36307.18878395806
    endloop
  endfacet
  facet normal 0.57696539724910179 0.57696539724910179 -0.57811924440756368
    outer loop
      vertex 7726.34712958821 103142.15661041056 32307.18878395806
      vertex 8728.3469846297139 102140.15675536905 32307.18878395806
      vertex 7726.34712958821 102140.15675536905 31307.18878395806
    endloop
  endfacet
  facet normal 0.57581078347782544 0.57811847472237599 -0.57811847472237599
    outer loop
      vertex 7726.34712958821 104140.15675536905 33305.188928916556
      vertex 8728.3469846297139 103142.15661041056 33305.188928916556
      vertex 7726.34712958821 103142.15661041056 32307.18878395806
    endloop
  endfacet
  facet normal 0.57773509506171328 0.57773523308054431 -0.57657970861920038
    outer loop
      vertex 8728.3469846297139 101142.15684882914 31307.18878395806
      vertex 8728.3469846297139 102140.15675536905 32307.18878395806
      vertex 9726.34712958821 101142.15684882914 32307.18878395806
    endloop
  endfacet
  facet normal 0.57773523308054431 0.57773509506171328 -0.57657970861920038
    outer loop
      vertex 6728.347223048293 103142.15661041056 31307.18878395806
      vertex 6728.347223048293 104140.15675536905 32307.18878395806
      vertex 7726.34712958821 103142.15661041056 32307.18878395806
    endloop
  endfacet
  facet normal 0.57811847472237599 0.57581078347782544 -0.57811847472237599
    outer loop
      vertex 8728.3469846297139 102140.15675536905 32307.18878395806
      vertex 8728.3469846297139 103142.15661041056 33305.188928916556
      vertex 9726.34712958821 102140.15675536905 33305.188928916556
    endloop
  endfacet
  facet normal 0.57811852033118893 0.57811852033118893 -0.57581069189461354
    outer loop
      vertex 8728.3469846297139 103142.15661041056 33305.188928916556
      vertex 8728.3469846297139 104140.15675536905 34307.189022376639
      vertex 9726.34712958821 103142.15661041056 34307.189022376639
    endloop
  endfacet
  facet normal -0.57734796012176504 0.57619565234153713 -0.57850488603463601
    outer loop
      vertex 3728.3469846297139 102140.15675536905 33305.188928916556
      vertex 4728.3469846297139 103142.15661041056 33305.188928916556
      vertex 4728.3469846297139 102140.15675536905 32307.18878395806
    endloop
  endfacet
  facet normal -0.57850488603463601 0.57619565234153713 -0.57734796012176504
    outer loop
      vertex 4728.3469846297139 102140.15675536905 32307.18878395806
      vertex 5726.34712958821 103142.15661041056 32307.18878395806
      vertex 5726.34712958821 102140.15675536905 31307.18878395806
    endloop
  endfacet
  facet normal -0.57696457995239658 0.57812087573509174 -0.57696457995239658
    outer loop
      vertex 4728.3469846297139 101142.15684882914 31307.18878395806
      vertex 3728.3469846297139 101142.15684882914 32307.18878395806
      vertex 4728.3469846297139 102140.15675536905 32307.18878395806
    endloop
  endfacet
  facet normal -0.57735026918962584 0.57735026918962584 -0.57735026918962584
    outer loop
      vertex 5726.34712958821 104140.15675536905 33305.188928916556
      vertex 5726.34712958821 103142.15661041056 32307.18878395806
      vertex 4728.3469846297139 103142.15661041056 33305.188928916556
    endloop
  endfacet
  facet normal -0.57619556075789846 0.5785049317349642 -0.57734800573069911
    outer loop
      vertex 6728.347223048293 104140.15675536905 32307.18878395806
      vertex 6728.347223048293 103142.15661041056 31307.18878395806
      vertex 5726.34712958821 103142.15661041056 32307.18878395806
    endloop
  endfacet
  facet normal -0.57734800573069911 0.5785049317349642 -0.57619556075789846
    outer loop
      vertex 4728.3469846297139 104140.15675536905 34307.189022376639
      vertex 4728.3469846297139 103142.15661041056 33305.188928916556
      vertex 3728.3469846297139 103142.15661041056 34307.189022376639
    endloop
  endfacet
  facet normal 0.57657898490953285 0.57888975489412942 0.57657898490953285
    outer loop
      vertex 7726.34712958821 103142.15661041056 36307.18878395806
      vertex 8728.3469846297139 103142.15661041056 35305.188928916556
      vertex 7726.34712958821 104140.15675536905 35305.188928916556
    endloop
  endfacet
  facet normal 0.57657898490953285 0.57657898490953285 0.57888975489412942
    outer loop
      vertex 7726.34712958821 102140.15675536905 37305.188928916556
      vertex 8728.3469846297139 102140.15675536905 36307.18878395806
      vertex 7726.34712958821 103142.15661041056 36307.18878395806
    endloop
  endfacet
  facet normal 0.57735022321399321 0.57735036114087979 0.57735022321399321
    outer loop
      vertex 9726.34712958821 101142.15684882914 36307.18878395806
      vertex 8728.3469846297139 102140.15675536905 36307.18878395806
      vertex 8728.3469846297139 101142.15684882914 37305.188928916556
    endloop
  endfacet
  facet normal 0.57735022321399321 0.57735022321399321 0.57735036114087979
    outer loop
      vertex 9726.34712958821 103142.15661041056 34307.189022376639
      vertex 8728.3469846297139 104140.15675536905 34307.189022376639
      vertex 8728.3469846297139 103142.15661041056 35305.188928916556
    endloop
  endfacet
  facet normal 0.57735036114087979 0.57735022321399321 0.57735022321399321
    outer loop
      vertex 7726.34712958821 103142.15661041056 36307.18878395806
      vertex 6728.347223048293 104140.15675536905 36307.18878395806
      vertex 6728.347223048293 103142.15661041056 37305.188928916556
    endloop
  endfacet
  facet normal 0.57888975489412942 0.57657898490953285 0.57657898490953285
    outer loop
      vertex 8728.3469846297139 103142.15661041056 35305.188928916556
      vertex 8728.3469846297139 102140.15675536905 36307.18878395806
      vertex 9726.34712958821 102140.15675536905 35305.188928916556
    endloop
  endfacet
endsolid OBJECT
