solid OBJECT
  facet normal -0.5773502390784625 -0.57735029714999009 0.57735027134042316
    outer loop
      vertex 0.20000000298023224 1 8.639930298936811
      vertex 0.60000002384185791 0.5 8.5399302750949531
      vertex 1 1 9.4399302512530952
    endloop
  endfacet
  facet normal -0.57735023907846317 -0.57735029714999042 0.57735027134042205
    outer loop
      vertex 0.20000000298023224 1 8.639930298936811
      vertex 0.20000000298023224 0 7.6399302542333274
      vertex 0.60000002384185791 0.5 8.5399302750949531
    endloop
  endfacet
  facet normal -0.57735026918962584 -0.57735026918962584 0.57735026918962584
    outer loop
      vertex 1 0 8.4399302512530952
      vertex 1 1 9.4399302512530952
      vertex 0.60000002384185791 0.5 8.5399302750949531
    endloop
  endfacet
  facet normal -0.57735026918962573 -0.57735026918962573 0.57735026918962573
    outer loop
      vertex 1 0 8.4399302512530952
      vertex 0.60000002384185791 0.5 8.5399302750949531
      vertex 0.20000000298023224 0 7.6399302542333274
    endloop
  endfacet
  facet normal 0.57735026918962584 -0.57735026918962584 0.57735026918962584
    outer loop
      vertex 1 0 8.4399302512530952
      vertex 1.3999999761581421 0.5 8.5399302750949531
      vertex 1 1 9.4399302512530952
    endloop
  endfacet
  facet normal 0.57735028209441064 -0.5773502756420168 0.57735024983244942
    outer loop
      vertex 1 0 8.4399302512530952
      vertex 1.7999999523162842 0 7.6399302542333274
      vertex 1.3999999761581421 0.5 8.5399302750949531
    endloop
  endfacet
  facet normal 0.57735026918962584 -0.57735026918962584 0.57735026918962584
    outer loop
      vertex 1 1 9.4399302512530952
      vertex 1.3999999761581421 0.5 8.5399302750949531
      vertex 1.7999999523162842 1 8.639930298936811
    endloop
  endfacet
  facet normal 0.57735028209441064 -0.5773502756420168 0.57735024983244942
    outer loop
      vertex 1.7999999523162842 1 8.639930298936811
      vertex 1.3999999761581421 0.5 8.5399302750949531
      vertex 1.7999999523162842 0 7.6399302542333274
    endloop
  endfacet
  facet normal 0.57735026918962584 -0.57735026918962584 -0.57735026918962584
    outer loop
      vertex 1 0 8.4399302512530952
      vertex 0.60000002384185791 0.30000001192092896 7.7399302631740241
      vertex 1 1 7.4399302512530952
    endloop
  endfacet
  facet normal 0.57735026918962584 -0.57735026918962584 -0.57735026918962584
    outer loop
      vertex 1 0 8.4399302512530952
      vertex 0.20000000298023224 0 7.6399302542333274
      vertex 0.60000002384185791 0.30000001192092896 7.7399302631740241
    endloop
  endfacet
  facet normal 0.57735026918962584 -0.57735026918962584 -0.57735026918962584
    outer loop
      vertex 1 1 7.4399302512530952
      vertex 0.60000002384185791 0.30000001192092896 7.7399302631740241
      vertex 0.20000000298023224 0.20000000298023224 7.4399302512530952
    endloop
  endfacet
  facet normal 0.57735026918962584 -0.57735026918962584 -0.57735026918962584
    outer loop
      vertex 0.20000000298023224 0 7.6399302542333274
      vertex 0.20000000298023224 0.20000000298023224 7.4399302512530952
      vertex 0.60000002384185791 0.30000001192092896 7.7399302631740241
    endloop
  endfacet
  facet normal -0.57735026918962584 -0.57735026918962584 -0.57735026918962584
    outer loop
      vertex 1 0 8.4399302512530952
      vertex 1 1 7.4399302512530952
      vertex 1.3999999761581421 0.30000001192092896 7.7399302631740241
    endloop
  endfacet
  facet normal -0.5773503050362484 -0.57735022975834027 -0.57735027277428597
    outer loop
      vertex 1 0 8.4399302512530952
      vertex 1.3999999761581421 0.30000001192092896 7.7399302631740241
      vertex 1.7999999523162842 0 7.6399302542333274
    endloop
  endfacet
  facet normal -0.5773503050362484 -0.57735027277428597 -0.57735022975834027
    outer loop
      vertex 1 1 7.4399302512530952
      vertex 1.7999999523162842 0.20000000298023224 7.4399302512530952
      vertex 1.3999999761581421 0.30000001192092896 7.7399302631740241
    endloop
  endfacet
  facet normal -0.57735031220557309 -0.57735024768165089 -0.57735024768165089
    outer loop
      vertex 1.7999999523162842 0 7.6399302542333274
      vertex 1.3999999761581421 0.30000001192092896 7.7399302631740241
      vertex 1.7999999523162842 0.20000000298023224 7.4399302512530952
    endloop
  endfacet
  facet normal -0.57735026918962584 0.57735026918962584 -0.57735026918962584
    outer loop
      vertex 1 1 7.4399302512530952
      vertex 0.60000002384185791 1.1000000238418579 7.9399302512530952
      vertex 1 2 8.4399302512530952
    endloop
  endfacet
  facet normal -0.57735026918962584 0.57735026918962584 -0.57735026918962584
    outer loop
      vertex 1 1 7.4399302512530952
      vertex 0.20000000298023224 0.20000000298023224 7.4399302512530952
      vertex 0.60000002384185791 1.1000000238418579 7.9399302512530952
    endloop
  endfacet
  facet normal -0.57735023907846261 0.57735027134042316 -0.57735029714999009
    outer loop
      vertex 1 2 8.4399302512530952
      vertex 0.60000002384185791 1.1000000238418579 7.9399302512530952
      vertex 0.20000000298023224 1.2000000476837158 8.4399302512530952
    endloop
  endfacet
  facet normal -0.57735023907846328 0.57735027134042205 -0.57735029714999042
    outer loop
      vertex 0.20000000298023224 1.2000000476837158 8.4399302512530952
      vertex 0.60000002384185791 1.1000000238418579 7.9399302512530952
      vertex 0.20000000298023224 0.20000000298023224 7.4399302512530952
    endloop
  endfacet
  facet normal 0.57735026918962584 0.57735026918962584 -0.57735026918962584
    outer loop
      vertex 1 1 7.4399302512530952
      vertex 1 2 8.4399302512530952
      vertex 1.3999999761581421 1.1000000238418579 7.9399302512530952
    endloop
  endfacet
  facet normal 0.57735028209441064 0.57735024983244942 -0.5773502756420168
    outer loop
      vertex 1 1 7.4399302512530952
      vertex 1.3999999761581421 1.1000000238418579 7.9399302512530952
      vertex 1.7999999523162842 0.20000000298023224 7.4399302512530952
    endloop
  endfacet
  facet normal 0.57735026918962584 0.57735026918962573 -0.57735026918962573
    outer loop
      vertex 1 2 8.4399302512530952
      vertex 1.7999999523162842 1.2000000476837158 8.4399302512530952
      vertex 1.3999999761581421 1.1000000238418579 7.9399302512530952
    endloop
  endfacet
  facet normal 0.57735028209441064 0.57735024983244942 -0.5773502756420168
    outer loop
      vertex 1.7999999523162842 1.2000000476837158 8.4399302512530952
      vertex 1.7999999523162842 0.20000000298023224 7.4399302512530952
      vertex 1.3999999761581421 1.1000000238418579 7.9399302512530952
    endloop
  endfacet
  facet normal -0.57735015687019398 0.57735046156648495 0.57735018913214997
    outer loop
      vertex 0.20000000298023224 1 8.639930298936811
      vertex 1 1 9.4399302512530952
      vertex 0.60000002384185791 1.2999999523162842 8.7399302035693793
    endloop
  endfacet
  facet normal -0.57735011146446225 0.57735034805219143 0.57735034805219143
    outer loop
      vertex 0.20000000298023224 1 8.639930298936811
      vertex 0.60000002384185791 1.2999999523162842 8.7399302035693793
      vertex 0.20000000298023224 1.2000000476837158 8.4399302512530952
    endloop
  endfacet
  facet normal -0.57735038389880788 0.57735021183502622 0.57735021183502622
    outer loop
      vertex 1 2 8.4399302512530952
      vertex 0.60000002384185791 1.2999999523162842 8.7399302035693793
      vertex 1 1 9.4399302512530952
    endloop
  endfacet
  facet normal -0.57735015687019398 0.57735018913214997 0.57735046156648495
    outer loop
      vertex 1 2 8.4399302512530952
      vertex 0.20000000298023224 1.2000000476837158 8.4399302512530952
      vertex 0.60000002384185791 1.2999999523162842 8.7399302035693793
    endloop
  endfacet
  facet normal 0.57735038389880788 0.57735021183502622 0.57735021183502622
    outer loop
      vertex 1 2 8.4399302512530952
      vertex 1 1 9.4399302512530952
      vertex 1.3999999761581421 1.2999999523162842 8.7399302035693793
    endloop
  endfacet
  facet normal 0.57735019271681876 0.57735019271681876 0.57735042213520948
    outer loop
      vertex 1 2 8.4399302512530952
      vertex 1.3999999761581421 1.2999999523162842 8.7399302035693793
      vertex 1.7999999523162842 1.2000000476837158 8.4399302512530952
    endloop
  endfacet
  facet normal 0.57735019271681876 0.57735042213520948 0.57735019271681876
    outer loop
      vertex 1 1 9.4399302512530952
      vertex 1.7999999523162842 1 8.639930298936811
      vertex 1.3999999761581421 1.2999999523162842 8.7399302035693793
    endloop
  endfacet
  facet normal 0.57735015448040949 0.57735032654422536 0.57735032654422536
    outer loop
      vertex 1.7999999523162842 1 8.639930298936811
      vertex 1.7999999523162842 1.2000000476837158 8.4399302512530952
      vertex 1.3999999761581421 1.2999999523162842 8.7399302035693793
    endloop
  endfacet
  facet normal -1 0 0
    outer loop
      vertex 0.20000000298023224 1 8.639930298936811
      vertex 0.20000000298023224 0.60000002384185791 8.0399302750949531
      vertex 0.20000000298023224 0 7.6399302542333274
    endloop
  endfacet
  facet normal -1 -0 0
    outer loop
      vertex 0.20000000298023224 1 8.639930298936811
      vertex 0.20000000298023224 1.2000000476837158 8.4399302512530952
      vertex 0.20000000298023224 0.60000002384185791 8.0399302750949531
    endloop
  endfacet
  facet normal -1 0 0
    outer loop
      vertex 0.20000000298023224 0 7.6399302542333274
      vertex 0.20000000298023224 0.60000002384185791 8.0399302750949531
      vertex 0.20000000298023224 0.20000000298023224 7.4399302512530952
    endloop
  endfacet
  facet normal -1 0 -0
    outer loop
      vertex 0.20000000298023224 1.2000000476837158 8.4399302512530952
      vertex 0.20000000298023224 0.20000000298023224 7.4399302512530952
      vertex 0.20000000298023224 0.60000002384185791 8.0399302750949531
    endloop
  endfacet
  facet normal 1 0 0
    outer loop
      vertex 1.7999999523162842 1 8.639930298936811
      vertex 1.7999999523162842 0 7.6399302542333274
      vertex 1.7999999523162842 0.60000002384185791 8.0399302750949531
    endloop
  endfacet
  facet normal 1 0 -0
    outer loop
      vertex 1.7999999523162842 1 8.639930298936811
      vertex 1.7999999523162842 0.60000002384185791 8.0399302750949531
      vertex 1.7999999523162842 1.2000000476837158 8.4399302512530952
    endloop
  endfacet
  facet normal 1 0 0
    outer loop
      vertex 1.7999999523162842 0 7.6399302542333274
      vertex 1.7999999523162842 0.20000000298023224 7.4399302512530952
      vertex 1.7999999523162842 0.60000002384185791 8.0399302750949531
    endloop
  endfacet
  facet normal 1 0 -0
    outer loop
      vertex 1.7999999523162842 1.2000000476837158 8.4399302512530952
      vertex 1.7999999523162842 0.60000002384185791 8.0399302750949531
      vertex 1.7999999523162842 0.20000000298023224 7.4399302512530952
    endloop
  endfacet
endsolid OBJECT
